<svg width="70" height="70" viewBox="0 0 70 70" fill="none" xmlns="http://www.w3.org/2000/svg">
<rect width="70" height="70" rx="16" fill="#753DEC"/>
<mask id="mask0" mask-type="alpha" maskUnits="userSpaceOnUse" x="0" y="0" width="70" height="70">
<rect width="70" height="70" rx="16" fill="white"/>
</mask>
<g mask="url(#mask0)">
<path d="M-30.9196 -272C-13.5239 -272 -3.42801 -266.774 2.95541 -258.512C9.40735 -250.162 12.1909 -238.57 14.5857 -225.519C14.9894 -223.318 15.3814 -221.079 15.7785 -218.81C20.06 -194.349 24.9289 -166.532 51.4016 -148.598C78.1578 -130.471 106.972 -135.995 131.979 -140.788C133.999 -141.175 135.994 -141.558 137.961 -141.923C151.215 -144.381 163.116 -146.031 173.04 -143.288C182.836 -140.581 190.858 -133.539 196.22 -118.151C207.114 -86.888 212.5 -68.1116 212.5 -49.3769C212.5 -30.6422 207.114 -11.8658 196.22 19.3974C185.328 50.6571 177.847 68.805 166.031 83.9705C154.211 99.1405 138.004 111.388 109.483 130.71C95.3302 140.298 84.514 143.614 75.1811 143.331C65.8352 143.048 57.8116 139.155 49.212 133.956C47.0125 132.626 44.78 131.213 42.4843 129.761C26.8434 119.863 8.27289 108.112 -22.7504 108.112C-52.7932 108.112 -74.0822 119.136 -92.7777 128.816C-96.1938 130.585 -99.5233 132.309 -102.804 133.913C-113.446 139.115 -123.538 143.046 -134.463 143.331C-145.359 143.616 -157.201 140.277 -171.322 130.71C-199.843 111.388 -216.05 99.1405 -227.87 83.9705C-239.686 68.805 -247.167 50.6571 -258.059 19.3974C-263.472 3.86316 -263.943 -6.42163 -261.451 -14.107C-258.961 -21.7869 -253.452 -27.0674 -246.401 -32.4803C-244.582 -33.877 -242.666 -35.2778 -240.684 -36.7262C-227.32 -46.4952 -210.989 -58.4321 -201.403 -85.9443C-192.405 -111.765 -195.273 -134.328 -197.823 -154.399C-198.386 -158.828 -198.934 -163.136 -199.335 -167.331C-200.448 -178.968 -200.446 -189.722 -196.697 -199.937C-192.958 -210.128 -185.445 -219.896 -171.322 -229.464C-142.806 -248.783 -125.3 -259.376 -106.159 -265.175C-87.016 -270.975 -66.1701 -272 -30.9196 -272Z" stroke="white" stroke-width="2"/>
<path opacity="0.2" d="M-29.8716 -230.468C-18.4712 -230.435 -11.804 -230.249 -7.82043 -229.395C-5.83836 -228.971 -4.58302 -228.392 -3.74687 -227.634C-2.91968 -226.884 -2.45111 -225.912 -2.13783 -224.586C-1.86011 -223.41 -1.71405 -222.004 -1.53481 -220.279C-1.50925 -220.033 -1.48302 -219.78 -1.45563 -219.521C-1.23773 -217.458 -0.949875 -215.01 -0.344162 -212.121C0.868271 -206.337 3.3483 -198.809 9.06375 -189.007C14.4181 -179.825 15.735 -172.442 16.8879 -165.979C16.9496 -165.634 17.0107 -165.291 17.072 -164.951C18.2826 -158.227 19.548 -152.426 25.5063 -146.74C31.4283 -141.088 41.948 -135.583 61.5322 -129.238C81.1303 -122.888 109.869 -115.679 152.292 -106.653C173.491 -102.143 189.645 -97.8098 201.654 -93.5847C213.673 -89.3561 221.498 -85.2505 226.075 -81.2176C230.631 -77.2042 231.921 -73.3163 231.025 -69.4447C230.113 -65.5043 226.913 -61.4564 222.165 -57.2279C217.43 -53.0117 211.233 -48.6808 204.443 -44.1572C202.411 -42.8038 200.326 -41.4331 198.213 -40.0438C193.274 -36.7967 188.18 -33.4479 183.251 -29.981C176.209 -25.0289 169.475 -19.8182 163.957 -14.2809C158.441 -8.74548 154.116 -2.8602 151.924 3.44652C150.647 7.1218 149.429 10.6812 148.251 14.1262C141.452 33.9973 135.955 50.0646 127.877 62.6352C118.433 77.3321 105.457 87.2445 82.6599 92.7256C60.0162 98.1697 46.1177 86.9021 30.7111 74.0692L30.1422 73.5952C14.9058 60.9005 -1.85889 46.9323 -29.8701 46.9323C-57.9509 46.9323 -74.8545 60.9395 -90.1868 73.6447L-90.6424 74.0222C-106.116 86.8419 -120.013 98.108 -142.4 92.7256C-187.417 81.9023 -206.015 43.8842 -211.642 3.54156C-213.043 -6.50493 -212.124 -13.289 -209.704 -18.69C-207.278 -24.1037 -203.322 -28.183 -198.517 -32.7982C-198.017 -33.2788 -197.508 -33.7648 -196.991 -34.2581C-187.573 -43.2485 -175.591 -54.6876 -166.389 -81.169C-157.807 -105.867 -158.413 -124.431 -158.937 -140.46C-159.006 -142.551 -159.072 -144.599 -159.117 -146.611C-159.312 -155.333 -159.094 -163.373 -156.821 -171.434C-154.551 -179.486 -150.221 -187.589 -142.148 -196.406C-110.708 -230.748 -77.2647 -230.632 -33.511 -230.48C-32.3057 -230.476 -31.0927 -230.472 -29.8716 -230.468Z" stroke="white"/>
<path opacity="0.2" d="M-28.1143 -197.131C-18.9769 -193.834 -13.3513 -188.827 -9.47621 -182.815C-5.57506 -176.764 -3.42216 -169.661 -1.30659 -162.088C-1.12578 -161.441 -0.945358 -160.791 -0.764206 -160.138C3.27524 -145.579 7.67577 -129.718 24.7725 -118.148C42.145 -106.391 59.3515 -107.99 74.891 -109.433C75.3202 -109.473 75.7481 -109.513 76.1747 -109.552C92.1245 -111.023 106.106 -111.909 117.614 -98.517C126.515 -88.1595 136.298 -83.3036 144.142 -79.4108C146.882 -78.0508 149.385 -76.8083 151.531 -75.4898C155.697 -72.9307 158.548 -70.1136 159.627 -65.6513C160.725 -61.1122 160.037 -54.6903 156.596 -44.824C149.723 -25.1229 135.203 -0.218506 117.829 20.4206C109.145 30.7357 99.7702 39.9596 90.3087 46.9276C80.8378 53.9026 71.3404 58.5729 62.4057 59.8702C53.3982 61.1781 46.558 60.2599 40.6383 58.173C34.7752 56.1062 29.7784 52.8839 24.3886 49.4083L24.1477 49.2529C13.1659 42.1719 0.811691 34.3371 -22.7102 34.3371C-46.1966 34.3371 -61.3986 42.0355 -75.0466 49.037L-75.3441 49.1896C-88.8635 56.1259 -100.784 62.2415 -117.962 59.8693C-135.407 57.4602 -153.682 48.8732 -168.155 36.8727C-182.637 24.864 -193.194 9.53844 -195.409 -6.27657C-196.498 -14.0594 -194.448 -19.5611 -190.539 -24.1814C-186.568 -28.8741 -180.676 -32.6698 -173.979 -36.9486L-173.746 -37.0979C-160.471 -45.5791 -144.504 -55.7811 -136.675 -78.2248C-129.472 -98.8719 -132.108 -118.111 -134.479 -135.423C-134.69 -136.967 -134.9 -138.496 -135.1 -140.009C-137.555 -158.573 -138.599 -174.653 -125.924 -188.444C-113.11 -202.386 -98.0027 -207.902 -81.446 -208.279C-64.8411 -208.657 -46.7713 -203.864 -28.1143 -197.131Z" stroke="white" stroke-width="2"/>
<path opacity="0.2" d="M-75.3737 -197.6C-66.5266 -197.6 -58.3152 -193.315 -50.4901 -186.492C-42.6648 -179.669 -35.2755 -170.352 -28.0776 -160.382C-25.0752 -156.223 -22.1008 -151.943 -19.1435 -147.687C-15.0305 -141.768 -10.9506 -135.897 -6.87444 -130.466C0.140121 -121.121 7.21439 -112.981 14.5821 -107.98C29.2305 -98.0369 40.9564 -94.0389 52.5078 -92.537C60.6213 -91.4822 68.661 -91.6611 77.5299 -91.8586C81.2417 -91.9412 85.0987 -92.0271 89.1672 -92.0271C102.847 -92.0271 117.743 -84.559 127.836 -73.0929C137.921 -61.6366 143.153 -46.2597 137.654 -30.4476C132.15 -14.6216 116.226 -3.16373 97.879 6.84267C90.9947 10.5974 83.7955 14.1349 76.7052 17.6189C74.3601 18.7712 72.0269 19.9176 69.721 21.0641C60.4536 25.672 51.6296 30.2795 44.3043 35.252C40.7065 37.6941 37.5349 38.872 34.6727 39.1027C31.817 39.333 29.2275 38.6237 26.7821 37.2198C21.8542 34.3906 17.5569 28.7747 12.9692 22.4221C12.5452 21.8349 12.1189 21.2419 11.6896 20.6446C7.50247 14.819 3.03342 8.60112 -2.36058 3.69263C-8.32307 -1.73318 -15.448 -5.59116 -24.6237 -5.59116C-33.795 -5.59116 -41.2806 -1.73686 -47.7847 3.67818C-53.5111 8.44571 -58.5087 14.4519 -63.2385 20.1362C-63.8704 20.8957 -64.4976 21.6495 -65.1211 22.3937C-70.4377 28.7404 -75.466 34.3707 -80.9491 37.2094C-83.6755 38.6209 -86.5011 39.3338 -89.5239 39.1026C-92.5494 38.8711 -95.812 37.6908 -99.4049 35.252C-113.093 25.9604 -126.515 28.5443 -137.916 30.7388C-138.833 30.9154 -139.736 31.0894 -140.626 31.2545C-146.642 32.3704 -151.955 33.0695 -156.45 31.5657C-160.89 30.0801 -164.633 26.4013 -167.387 18.4813C-170.119 10.6245 -168.958 2.84117 -165.456 -4.95363C-161.95 -12.7597 -156.111 -20.542 -149.543 -28.3624C-146.841 -31.5804 -144.007 -34.8128 -141.167 -38.0532C-137.13 -42.6575 -133.08 -47.278 -129.371 -51.8964C-123.038 -59.781 -117.618 -67.7543 -114.803 -75.8493C-110.199 -89.0853 -111.666 -100.65 -112.972 -110.941C-113.26 -113.212 -113.54 -115.422 -113.745 -117.573C-114.315 -123.541 -114.314 -129.057 -112.395 -134.297C-110.48 -139.526 -106.633 -144.536 -99.4049 -149.443C-92.0042 -154.466 -89.0064 -160.076 -88.1546 -165.675C-87.3419 -171.018 -88.4932 -176.311 -89.5021 -180.95C-89.5431 -181.138 -89.5838 -181.326 -89.6241 -181.512C-90.1449 -183.914 -90.6016 -186.119 -90.7234 -188.089C-90.845 -190.057 -90.6275 -191.732 -89.8504 -193.1C-88.3111 -195.81 -84.3882 -197.6 -75.3737 -197.6Z" stroke="white"/>
</g>
<path d="M46.7997 23.8328C48.6119 23.8328 50.081 25.3018 50.081 27.114V43.8882C50.081 45.7003 48.6119 47.1694 46.7997 47.1694H24.1973C22.3851 47.1694 20.916 45.7003 20.916 43.8882V27.114C20.916 25.3018 22.3851 23.8328 24.1973 23.8328H46.7997ZM38.0514 40.6042H32.9473C32.3432 40.6042 31.8535 41.0939 31.8535 41.698C31.8535 42.302 32.3432 42.7917 32.9473 42.7917H38.0514C38.6555 42.7917 39.1452 42.302 39.1452 41.698C39.1452 41.0939 38.6555 40.6042 38.0514 40.6042Z" fill="white"/>
</svg>
