<svg width="70" height="70" viewBox="0 0 70 70" fill="none" xmlns="http://www.w3.org/2000/svg">
<rect width="70" height="70" rx="16" fill="#FF9548"/>
<mask id="mask0" mask-type="alpha" maskUnits="userSpaceOnUse" x="0" y="0" width="70" height="70">
<rect width="70" height="70" rx="16" fill="white"/>
</mask>
<g mask="url(#mask0)">
<path opacity="0.2" d="M222.481 -274.1C239.877 -274.1 249.972 -268.874 256.356 -260.612C262.808 -252.262 265.591 -240.67 267.986 -227.618C268.39 -225.418 268.782 -223.179 269.179 -220.91C273.46 -196.449 278.329 -168.632 304.802 -150.698C331.558 -132.571 360.372 -138.095 385.38 -142.888C387.399 -143.275 389.394 -143.658 391.362 -144.023C404.615 -146.481 416.516 -148.131 426.441 -145.388C436.236 -142.681 444.259 -135.639 449.621 -120.251C460.514 -88.9879 465.9 -70.2115 465.9 -51.4768C465.9 -32.7421 460.514 -13.9657 449.621 17.2975C438.728 48.5573 431.248 66.7051 419.431 81.8707C407.611 97.0407 391.404 109.288 362.884 128.61C348.731 138.198 337.914 141.515 328.581 141.232C319.236 140.948 311.212 137.055 302.612 131.856C300.413 130.526 298.18 129.113 295.885 127.661C280.244 117.764 261.673 106.013 230.65 106.013C200.607 106.013 179.318 117.036 160.623 126.717C157.207 128.485 153.877 130.209 150.597 131.813C139.955 137.016 129.862 140.946 118.937 141.231C108.041 141.516 96.1994 138.177 82.078 128.61C53.5573 109.288 37.3505 97.0407 25.5305 81.8707C13.7139 66.7051 6.23376 48.5573 -4.65888 17.2975C-10.0719 1.76331 -10.5428 -8.52148 -8.05065 -16.2068C-5.56027 -23.8868 -0.0518131 -29.1672 6.99902 -34.5801C8.81845 -35.9769 10.7347 -37.3776 12.7162 -38.826C26.0807 -48.595 42.411 -60.532 51.9978 -88.0442C60.9953 -113.865 58.1278 -136.428 55.577 -156.499C55.0141 -160.928 54.4666 -165.236 54.0654 -169.431C52.9525 -181.068 52.9544 -191.822 56.7031 -202.037C60.4429 -212.228 67.9556 -221.996 82.078 -231.564C110.594 -250.883 128.101 -261.476 147.241 -267.275C166.384 -273.075 187.23 -274.1 222.481 -274.1Z" stroke="white" stroke-width="2"/>
<path opacity="0.2" d="M223.529 -232.568C234.929 -232.535 241.596 -232.349 245.58 -231.495C247.562 -231.071 248.817 -230.492 249.654 -229.734C250.481 -228.984 250.949 -228.012 251.263 -226.686C251.54 -225.51 251.686 -224.104 251.866 -222.379C251.891 -222.132 251.917 -221.88 251.945 -221.621C252.163 -219.558 252.451 -217.11 253.056 -214.221C254.269 -208.437 256.749 -200.909 262.464 -191.107C267.818 -181.925 269.135 -174.542 270.288 -168.079C270.35 -167.734 270.411 -167.391 270.472 -167.051C271.683 -160.327 272.948 -154.526 278.907 -148.84C284.829 -143.188 295.348 -137.683 314.933 -131.338C334.531 -124.988 363.27 -117.779 405.693 -108.753C426.892 -104.243 443.046 -99.9096 455.055 -95.6846C467.074 -91.4559 474.898 -87.3503 479.476 -83.3174C484.031 -79.3041 485.322 -75.4161 484.425 -71.5446C483.513 -67.6042 480.313 -63.5562 475.565 -59.3278C470.831 -55.1116 464.634 -50.7807 457.843 -46.257C455.811 -44.9037 453.727 -43.533 451.613 -42.1436C446.674 -38.8965 441.581 -35.5477 436.651 -32.0809C429.609 -27.1287 422.875 -21.918 417.357 -16.3808C411.841 -10.8453 407.516 -4.96005 405.325 1.34666C404.047 5.02194 402.83 8.5813 401.651 12.0263C394.853 31.8974 389.356 47.9647 381.278 60.5353C371.834 75.2323 358.857 85.1447 336.06 90.6257C313.417 96.0699 299.518 84.8022 284.112 71.9694L283.543 71.4954C268.306 58.8006 251.542 44.8325 223.53 44.8325C195.449 44.8325 178.546 58.8397 163.214 71.5448L162.758 71.9223C147.285 84.742 133.387 96.0081 111 90.6257C65.9829 79.8024 47.3855 41.7843 41.7589 1.44171C40.3576 -8.60478 41.2765 -15.3888 43.6966 -20.7899C46.1225 -26.2036 50.0783 -30.2829 54.8833 -34.898C55.3837 -35.3787 55.8927 -35.8646 56.4095 -36.3579C65.827 -45.3483 77.8096 -56.7874 87.0114 -83.2689C95.5936 -107.967 94.987 -126.531 94.4632 -142.56C94.3948 -144.651 94.3279 -146.699 94.283 -148.711C94.0883 -157.433 94.3062 -165.473 96.5793 -173.534C98.8498 -181.586 103.18 -189.688 111.252 -198.506C142.692 -232.847 176.136 -232.731 219.889 -232.58C221.095 -232.576 222.308 -232.571 223.529 -232.568Z" stroke="white"/>
<path opacity="0.2" d="M225.284 -199.231C234.422 -195.934 240.047 -190.927 243.922 -184.916C247.823 -178.864 249.976 -171.761 252.092 -164.188C252.273 -163.541 252.453 -162.891 252.634 -162.238C256.674 -147.679 261.074 -131.818 278.171 -120.248C295.543 -108.491 312.75 -110.09 328.289 -111.533C328.719 -111.573 329.147 -111.613 329.573 -111.652C345.523 -113.123 359.504 -114.009 371.013 -100.617C379.914 -90.2596 389.697 -85.4037 397.54 -81.5109C400.28 -80.1508 402.783 -78.9084 404.929 -77.5899C409.095 -75.0308 411.946 -72.2137 413.025 -67.7514C414.123 -63.2123 413.436 -56.7904 409.994 -46.9241C403.122 -27.223 388.602 -2.3186 371.227 18.3205C362.544 28.6356 353.169 37.8595 343.707 44.8275C334.236 51.8025 324.739 56.4728 315.804 57.7701C306.797 59.078 299.956 58.1598 294.037 56.0729C288.174 54.0061 283.177 50.7838 277.787 47.3082L277.546 47.1528C266.564 40.0718 254.21 32.237 230.688 32.237C207.202 32.237 192 39.9354 178.352 46.9369L178.054 47.0895C164.535 54.0258 152.615 60.1414 135.436 57.7692C117.991 55.3601 99.7164 46.7731 85.2439 34.7726C70.7614 22.7639 60.2042 7.43834 57.9898 -8.37666C56.9001 -16.1595 58.9505 -21.6612 62.8598 -26.2815C66.8304 -30.9742 72.7226 -34.7699 79.4191 -39.0487L79.6528 -39.198C92.927 -47.6792 108.894 -57.8811 116.724 -80.3249C123.926 -100.972 121.291 -120.211 118.92 -137.523C118.708 -139.067 118.499 -140.596 118.299 -142.109C115.843 -160.673 114.8 -176.753 127.474 -190.544C140.288 -204.487 155.396 -210.003 171.952 -210.379C188.557 -210.757 206.627 -205.964 225.284 -199.231Z" stroke="white" stroke-width="2"/>
</g>
<path d="M43.5216 35.5C47.9514 35.5 51.5425 39.091 51.5425 43.5208C51.5425 47.9506 47.9514 51.5417 43.5216 51.5417C39.0918 51.5417 35.5008 47.9506 35.5008 43.5208C35.5008 39.091 39.0918 35.5 43.5216 35.5ZM43.8862 22.375C46.4136 22.375 48.4789 24.3532 48.6183 26.8456L48.6258 27.1146L48.6268 35.5325C47.1532 34.5888 45.4013 34.0417 43.5216 34.0417C40.8311 34.0417 38.4023 35.1626 36.677 36.963L30.7579 36.9628L30.6095 36.9728C30.0757 37.0452 29.6642 37.5028 29.6642 38.0565C29.6642 38.6103 30.0757 39.0679 30.6095 39.1403L30.7579 39.1503L35.1081 39.1501C34.4273 40.4579 34.0425 41.9444 34.0425 43.5208C34.0425 45.4009 34.5898 47.153 35.5337 48.6268L27.1154 48.625C24.588 48.625 22.5227 46.6468 22.3833 44.1544L22.3758 43.8854L22.3754 31.6676C22.7176 31.7886 23.0859 31.8545 23.4695 31.8545C25.2818 31.8545 26.7509 30.3853 26.7509 28.5731C26.7509 26.7608 25.2818 25.2917 23.4695 25.2917C23.2053 25.2917 22.9483 25.3229 22.7021 25.3819C23.3613 23.7052 24.9482 22.4949 26.8309 22.3834L27.1154 22.375H43.8862ZM42.383 39.275L42.282 39.3594L38.6134 43.029L38.5541 43.1029L38.4897 43.2148L38.4565 43.3003L38.4289 43.4248L38.4254 43.5854L38.4474 43.7099L38.4897 43.8269L38.539 43.9162L38.6133 44.0124L42.282 47.6823C42.5668 47.967 43.0284 47.967 43.3132 47.6823C43.5663 47.4291 43.5944 47.0362 43.3976 46.7521L43.3132 46.6511L40.9127 44.25H47.8966C48.2546 44.25 48.5523 43.9921 48.614 43.6519L48.6258 43.5208C48.6258 43.1629 48.3679 42.8652 48.0277 42.8034L47.8966 42.7917H40.9127L43.3132 40.3906C43.5663 40.1375 43.5944 39.7446 43.3976 39.4604L43.3132 39.3594C43.0601 39.1063 42.6672 39.0782 42.383 39.275ZM40.2436 31.8487H30.7579L30.6095 31.8587C30.0757 31.9311 29.6642 32.3887 29.6642 32.9424C29.6642 33.4961 30.0757 33.9538 30.6095 34.0262L30.7579 34.0362H40.2436L40.3921 34.0262C40.9259 33.9538 41.3374 33.4961 41.3374 32.9424C41.3374 32.3384 40.8477 31.8487 40.2436 31.8487ZM23.4695 26.75C24.4764 26.75 25.2926 27.5662 25.2926 28.5731C25.2926 29.5799 24.4764 30.3961 23.4695 30.3961C22.4627 30.3961 21.6465 29.5799 21.6465 28.5731C21.6465 27.5662 22.4627 26.75 23.4695 26.75Z" fill="white"/>
</svg>
