<svg width="70" height="70" viewBox="0 0 70 70" fill="none" xmlns="http://www.w3.org/2000/svg">
<rect width="70" height="70" rx="16" fill="#FFC648"/>
<mask id="mask0" mask-type="alpha" maskUnits="userSpaceOnUse" x="0" y="0" width="70" height="70">
<rect width="70" height="70" rx="16" fill="white"/>
</mask>
<g mask="url(#mask0)">
<path d="M-91.1188 -145.3C-73.7231 -145.3 -63.6272 -140.074 -57.2438 -131.813C-50.7919 -123.462 -48.0083 -111.87 -45.6135 -98.8187C-45.2098 -96.6185 -44.8178 -94.379 -44.4207 -92.1105C-40.1393 -67.6493 -35.2704 -39.8324 -8.79758 -21.8979C17.9586 -3.77142 46.7726 -9.29474 71.7799 -14.0883C73.7998 -14.4755 75.7949 -14.858 77.762 -15.2228C91.0153 -17.6807 102.917 -19.3312 112.841 -16.5884C122.637 -13.8813 130.659 -6.83923 136.021 8.54875C146.915 39.8119 152.3 58.5883 152.3 77.323C152.3 96.0577 146.915 114.834 136.021 146.097C125.128 177.357 117.648 195.505 105.832 210.67C94.0116 225.84 77.8047 238.088 49.2841 257.41C35.131 266.998 24.3148 270.314 14.9819 270.031C5.63602 269.748 -2.38757 265.855 -10.9872 260.656C-13.1867 259.326 -15.4193 257.913 -17.7149 256.461C-33.3558 246.563 -51.9263 234.812 -82.9496 234.812C-112.992 234.812 -134.281 245.836 -152.977 255.516C-156.393 257.285 -159.723 259.009 -163.003 260.613C-173.645 265.815 -183.737 269.745 -194.662 270.031C-205.559 270.316 -217.4 266.977 -231.522 257.41C-260.042 238.088 -276.249 225.84 -288.069 210.67C-299.886 195.505 -307.366 177.357 -318.258 146.097C-323.671 130.563 -324.142 120.278 -321.65 112.593C-319.16 104.913 -313.651 99.6326 -306.601 94.2197C-304.781 92.8229 -302.865 91.4222 -300.883 89.9738C-287.519 80.2048 -271.189 68.2678 -261.602 40.7556C-252.604 14.9345 -255.472 -7.62793 -258.023 -27.6988C-258.586 -32.128 -259.133 -36.436 -259.534 -40.6308C-260.647 -52.2684 -260.645 -63.0219 -256.897 -73.2372C-253.157 -83.4282 -245.644 -93.1965 -231.522 -102.764C-203.005 -122.083 -185.499 -132.676 -166.358 -138.475C-147.215 -144.275 -126.369 -145.3 -91.1188 -145.3Z" stroke="white" stroke-width="2"/>
<path opacity="0.2" d="M-90.0708 -103.768C-78.6704 -103.735 -72.0032 -103.549 -68.0197 -102.696C-66.0376 -102.271 -64.7822 -101.692 -63.9461 -100.934C-63.1189 -100.184 -62.6503 -99.212 -62.3371 -97.8857C-62.0593 -96.7099 -61.9133 -95.3041 -61.734 -93.5787C-61.7085 -93.3327 -61.6822 -93.0801 -61.6548 -92.8208C-61.437 -90.7579 -61.1491 -88.3104 -60.5434 -85.4209C-59.3309 -79.637 -56.8509 -72.1095 -51.1355 -62.3075C-45.7811 -53.1247 -44.4642 -45.7424 -43.3113 -39.2793C-43.2497 -38.9339 -43.1885 -38.5911 -43.1273 -38.2508C-41.9166 -31.5269 -40.6512 -25.7265 -34.6929 -20.0402C-28.7709 -14.3885 -18.2512 -8.88336 1.33295 -2.53821C20.9311 3.81148 49.6702 11.0211 92.0932 20.0466C113.292 24.5567 129.446 28.8902 141.455 33.1152C153.474 37.3439 161.298 41.4495 165.876 45.4824C170.432 49.4957 171.722 53.3837 170.826 57.2552C169.913 61.1956 166.713 65.2436 161.965 69.472C157.231 73.6882 151.034 78.0191 144.243 82.5428C142.212 83.8961 140.127 85.2668 138.014 86.6562C133.075 89.9033 127.981 93.2521 123.052 96.7189C116.01 101.671 109.276 106.882 103.758 112.419C98.2415 117.954 93.9164 123.84 91.725 130.146C90.4479 133.822 89.2301 137.381 88.0515 140.826C81.253 160.697 75.756 176.765 67.6782 189.335C58.2341 204.032 45.2579 213.944 22.4607 219.426C-0.182983 224.87 -14.0815 213.602 -29.4881 200.769L-30.057 200.295C-45.2934 187.6 -62.0581 173.632 -90.0694 173.632C-118.15 173.632 -135.054 187.639 -150.386 200.345L-150.842 200.722C-166.315 213.542 -180.212 224.808 -202.599 219.426C-247.617 208.602 -266.214 170.584 -271.841 130.242C-273.242 120.195 -272.323 113.411 -269.903 108.01C-267.477 102.596 -263.521 98.5169 -258.716 93.9018C-258.216 93.4211 -257.707 92.9352 -257.19 92.4419C-247.773 83.4515 -235.79 72.0124 -226.588 45.5309C-218.006 20.8329 -218.613 2.26923 -219.136 -13.7604C-219.205 -15.8512 -219.272 -17.8989 -219.317 -19.9115C-219.511 -28.6331 -219.293 -36.6732 -217.02 -44.7343C-214.75 -52.7863 -210.42 -60.8886 -202.348 -69.7059C-170.908 -104.048 -137.464 -103.932 -93.7102 -103.78C-92.5049 -103.776 -91.2919 -103.772 -90.0708 -103.768Z" stroke="white"/>
<path opacity="0.2" d="M-88.3154 -70.4311C-79.178 -67.1337 -73.5525 -62.1264 -69.6774 -56.1153C-65.7762 -50.0636 -63.6233 -42.9603 -61.5078 -35.388C-61.327 -34.7409 -61.1465 -34.0906 -60.9654 -33.4377C-56.9259 -18.8783 -52.5254 -3.01752 -35.4287 8.5524C-18.0562 20.309 -0.84964 18.7106 14.6898 17.2671C15.119 17.2272 15.5469 17.1875 15.9735 17.1481C31.9233 15.677 45.9047 14.7908 57.4133 28.1832C66.314 38.5407 76.0973 43.3966 83.9404 47.2894C86.6805 48.6494 89.1837 49.8919 91.3298 51.2104C95.4954 53.7695 98.3464 56.5866 99.4258 61.0489C100.524 65.588 99.8362 72.0099 96.3944 81.8762C89.522 101.577 75.0021 126.482 57.6276 147.121C48.9441 157.436 39.569 166.66 30.1075 173.628C20.6366 180.603 11.1392 185.273 2.20456 186.57C-6.80296 187.878 -13.6431 186.96 -19.5628 184.873C-25.426 182.806 -30.4228 179.584 -35.8125 176.108L-36.0535 175.953C-47.0353 168.872 -59.3895 161.037 -82.9114 161.037C-106.398 161.037 -121.6 168.736 -135.248 175.737L-135.545 175.89C-149.065 182.826 -160.985 188.942 -178.163 186.569C-195.608 184.16 -213.883 175.573 -228.356 163.573C-242.838 151.564 -253.395 136.239 -255.61 120.424C-256.699 112.641 -254.649 107.139 -250.74 102.519C-246.769 97.8261 -240.877 94.0304 -234.18 89.7516L-233.947 89.6023C-220.673 81.1211 -204.705 70.9191 -196.876 48.4754C-189.674 27.8283 -192.309 8.58944 -194.68 -8.72256C-194.891 -10.2666 -195.101 -11.7954 -195.301 -13.3084C-197.756 -31.8725 -198.8 -47.9529 -186.125 -61.7441C-173.311 -75.6862 -158.204 -81.2022 -141.647 -81.579C-125.042 -81.9568 -106.973 -77.1638 -88.3154 -70.4311Z" stroke="white" stroke-width="2"/>
<path opacity="0.2" d="M-135.573 -70.9001C-126.726 -70.9001 -118.514 -66.6148 -110.689 -59.7921C-102.864 -52.9692 -95.4747 -43.6521 -88.2768 -33.682C-85.2744 -29.5233 -82.3 -25.2429 -79.3428 -20.9871C-75.2297 -15.0682 -71.1498 -9.19684 -67.0737 -3.76655C-60.0591 5.57834 -52.9848 13.7184 -45.6171 18.7196C-30.9687 28.6628 -19.2428 32.6608 -7.69145 34.1627C0.422119 35.2175 8.46175 35.0386 17.3307 34.8411C21.0424 34.7585 24.8995 34.6727 28.968 34.6727C42.6475 34.6727 57.5438 42.1407 67.6369 53.6068C77.7214 65.0631 82.9539 80.44 77.4548 96.2521C71.9509 112.078 56.0263 123.536 37.6797 133.542C30.7954 137.297 23.5963 140.835 16.506 144.319C14.1609 145.471 11.8277 146.617 9.52176 147.764C0.254364 152.372 -8.56961 156.979 -15.895 161.952C-19.4927 164.394 -22.6643 165.572 -25.5265 165.802C-28.3822 166.033 -30.9717 165.323 -33.4171 163.919C-38.3451 161.09 -42.6424 155.474 -47.23 149.122C-47.6541 148.535 -48.0803 147.942 -48.5096 147.344C-52.6967 141.519 -57.1658 135.301 -62.5598 130.392C-68.5223 124.967 -75.6473 121.109 -84.8229 121.109C-93.9942 121.109 -101.48 124.963 -107.984 130.378C-113.71 135.145 -118.708 141.152 -123.438 146.836C-124.07 147.595 -124.697 148.349 -125.32 149.093C-130.637 155.44 -135.665 161.07 -141.148 163.909C-143.875 165.321 -146.7 166.034 -149.723 165.802C-152.749 165.571 -156.011 164.391 -159.604 161.952C-173.292 152.66 -186.715 155.244 -198.115 157.439C-199.032 157.615 -199.936 157.789 -200.826 157.954C-206.841 159.07 -212.154 159.769 -216.649 158.265C-221.089 156.78 -224.832 153.101 -227.586 145.181C-230.319 137.324 -229.157 129.541 -225.655 121.746C-222.149 113.94 -216.311 106.158 -209.743 98.3373C-207.04 95.1193 -204.206 91.8869 -201.366 88.6465C-197.33 84.0422 -193.279 79.4217 -189.57 74.8033C-183.237 66.9187 -177.817 58.9454 -175.002 50.8504C-170.399 37.6144 -171.866 26.0496 -173.171 15.7587C-173.459 13.4874 -173.739 11.2781 -173.944 9.12668C-174.514 3.15907 -174.513 -2.35708 -172.594 -7.59768C-170.679 -12.8261 -166.832 -17.8366 -159.604 -22.7432C-152.203 -27.7667 -149.206 -33.376 -148.354 -38.9757C-147.541 -44.3181 -148.692 -49.6114 -149.701 -54.2503C-149.742 -54.4386 -149.783 -54.6259 -149.823 -54.812C-150.344 -57.2143 -150.801 -59.4188 -150.923 -61.389C-151.044 -63.3572 -150.827 -65.0326 -150.05 -66.4005C-148.51 -69.1101 -144.587 -70.9001 -135.573 -70.9001Z" stroke="white"/>
</g>
<path d="M49.1109 27.1948L48.0645 28.2568C50.5899 31.2351 51.9812 35.2033 51.5553 39.4914C50.851 46.583 45.1049 52.2828 38.0083 52.9349C29.6193 53.7057 22.4659 47.5378 21.636 39.5211H20.1576C19.2588 39.5211 18.697 38.548 19.1465 37.7696L22.4531 32.0437C22.9026 31.2655 24.026 31.2655 24.4754 32.0438L27.7813 37.7697C28.2307 38.5481 27.669 39.5211 26.7701 39.5211H25.4831C26.3193 45.5065 31.8916 49.9955 38.2805 49.0591C43.0082 48.3662 46.843 44.6362 47.6466 39.9261C48.8493 32.8763 43.4244 26.7406 36.5935 26.7406C34.3783 26.7406 32.2403 27.3832 30.4037 28.6004C29.5513 29.1652 28.3698 29.0534 27.7445 28.2444C27.0636 27.3636 27.2762 26.1062 28.1841 25.4931C30.1545 24.1619 32.3884 23.3301 34.7287 23.0405V20.87H33.197C32.6699 20.87 32.2427 20.4428 32.2427 19.9157V18.9543C32.2427 18.4273 32.67 18 33.197 18H40.3005C40.8275 18 41.2548 18.4273 41.2548 18.9543V19.9157C41.2548 20.4427 40.8275 20.87 40.3005 20.87H38.6133V23.0631C41.6177 23.4685 44.3415 24.7662 46.5136 26.6767L47.4844 25.6914L46.773 25.0337C46.386 24.6761 46.3622 24.0723 46.72 23.6853L47.4812 22.8617C47.8389 22.4747 48.4427 22.4509 48.8297 22.8087L51.707 25.4683C52.0941 25.826 52.1178 26.4297 51.7601 26.8167L50.9989 27.6402C50.6412 28.0272 50.0375 28.051 49.6505 27.6933L49.1109 27.1948ZM38.6809 35.9712C37.3607 34.6233 35.0901 34.7697 33.977 36.4328C33.3088 37.431 33.3191 38.7802 33.9941 39.7738C34.8144 40.9811 36.2587 41.375 37.4906 40.9571L41.3261 44.0813C42.0594 44.6786 43.0313 43.7154 42.4407 42.9768L39.3612 39.1254C39.7457 38.0646 39.5232 36.8314 38.6809 35.9712Z" fill="white"/>
</svg>
