<svg width="20" height="20" viewBox="0 0 20 20" fill="none" xmlns="http://www.w3.org/2000/svg">
<path fill-rule="evenodd" clip-rule="evenodd" d="M0 5.83334C0 4.45263 1.11929 3.33334 2.5 3.33334H9.16667C10.5474 3.33334 11.6667 4.45263 11.6667 5.83334V13.3333C11.6667 14.2538 10.9205 15 10 15H6.66667V13.3333H9.58333C9.81345 13.3333 10 13.1468 10 12.9167V5.83334C10 5.37311 9.6269 5.00001 9.16667 5.00001H2.5C2.03976 5.00001 1.66667 5.37311 1.66667 5.83334V12.5C1.66667 12.9602 2.03976 13.3333 2.5 13.3333H3.33333V15H2.5C1.11929 15 0 13.8807 0 12.5V5.83334Z" fill="#753DEC"/>
<path fill-rule="evenodd" clip-rule="evenodd" d="M10 5.83334H15.1876C15.8108 5.83334 16.4115 6.06609 16.872 6.48595L19.1844 8.59433C19.7039 9.06804 20 9.73863 20 10.4417V12.5C20 13.8807 18.8807 15 17.5 15H16.6667V13.3333H17.5C17.9602 13.3333 18.3333 12.9602 18.3333 12.5V10.4417C18.3333 10.2074 18.2346 9.98383 18.0615 9.82592L15.749 7.71755C15.5955 7.57759 15.3953 7.50001 15.1876 7.50001H12.5C12.0398 7.50001 11.6667 7.87311 11.6667 8.33334V12.9167C11.6667 13.1468 11.8532 13.3333 12.0833 13.3333H13.3333V15H10V5.83334Z" fill="#753DEC"/>
<path fill-rule="evenodd" clip-rule="evenodd" d="M5 15C5.46024 15 5.83333 14.6269 5.83333 14.1667C5.83333 13.7064 5.46024 13.3333 5 13.3333C4.53976 13.3333 4.16667 13.7064 4.16667 14.1667C4.16667 14.6269 4.53976 15 5 15ZM5 16.6667C6.38071 16.6667 7.5 15.5474 7.5 14.1667C7.5 12.7859 6.38071 11.6667 5 11.6667C3.61929 11.6667 2.5 12.7859 2.5 14.1667C2.5 15.5474 3.61929 16.6667 5 16.6667Z" fill="#753DEC"/>
<path fill-rule="evenodd" clip-rule="evenodd" d="M15 15C15.4602 15 15.8333 14.6269 15.8333 14.1667C15.8333 13.7064 15.4602 13.3333 15 13.3333C14.5398 13.3333 14.1667 13.7064 14.1667 14.1667C14.1667 14.6269 14.5398 15 15 15ZM15 16.6667C16.3807 16.6667 17.5 15.5474 17.5 14.1667C17.5 12.7859 16.3807 11.6667 15 11.6667C13.6193 11.6667 12.5 12.7859 12.5 14.1667C12.5 15.5474 13.6193 16.6667 15 16.6667Z" fill="#753DEC"/>
</svg>
