<svg width="24" height="24" viewBox="0 0 24 24" fill="none" xmlns="http://www.w3.org/2000/svg">
<path d="M10.4464 2.66232C9.58279 1.85314 8.25018 1.85663 7.39127 2.64211L7.26611 2.7658L2.50107 7.85135C2.38108 7.97942 2.27649 8.12108 2.18942 8.27345C1.5997 9.30545 1.91702 10.6078 2.88994 11.2587L3.02665 11.3433L7.92315 14.1413C8.04091 14.2086 8.13765 14.3062 8.20382 14.4232L8.24757 14.5144L10.0497 19.028C10.2361 19.4949 10.8114 19.6418 11.1969 19.3497L11.2765 19.2804L14.5142 16.0442L19.4653 21.0033L20.5302 21L20.5282 19.9449L15.5752 14.9832L18.7801 11.7804C19.1357 11.425 19.0438 10.8384 18.6234 10.5992L18.5283 10.5535L14.033 8.7569C13.9015 8.70436 13.7883 8.61598 13.7056 8.50278L13.6496 8.4134L10.8933 3.24538C10.7773 3.02786 10.6263 2.83088 10.4464 2.66232ZM3.59567 8.87696L8.3607 3.7914C8.64391 3.48914 9.11853 3.4737 9.4208 3.75691C9.46078 3.79437 9.49647 3.83604 9.52728 3.88114L9.56976 3.95127L12.326 9.11929C12.5481 9.53569 12.8947 9.87036 13.3152 10.078L13.4763 10.1498L16.9148 11.524L11.0209 17.4151L9.64064 13.9582C9.47562 13.5449 9.19232 13.1911 8.82823 12.9401L8.66735 12.8389L3.77086 10.0409C3.41122 9.83544 3.28627 9.3773 3.49178 9.01766L3.53961 8.94427L3.59567 8.87696L8.3607 3.7914L3.59567 8.87696Z" fill="#EC663D"/>
</svg>
