<svg width="24" height="24" viewBox="0 0 24 24" fill="none" xmlns="http://www.w3.org/2000/svg">
<path d="M1.86092 17.923H23.0956C23.5711 17.923 23.9565 18.3004 23.9565 18.7659C23.9565 19.1926 23.6326 19.5452 23.2124 19.601L23.0956 19.6087H1.86092C1.38545 19.6087 1 19.2313 1 18.7659C1 18.3392 1.32388 17.9865 1.7441 17.9307L1.86092 17.923H23.0956H1.86092ZM19.6526 5C20.7621 5 21.6614 5.88049 21.6614 6.96663V15.3954C21.6614 16.4815 20.7621 17.362 19.6526 17.362H5.3039C4.19446 17.362 3.29508 16.4815 3.29508 15.3954V6.96663C3.29508 5.88049 4.19446 5 5.3039 5H19.6526ZM19.6526 6.68568H5.3039C5.14541 6.68568 5.01692 6.81147 5.01692 6.96663V15.3954C5.01692 15.5505 5.14541 15.6763 5.3039 15.6763H19.6526C19.8111 15.6763 19.9396 15.5505 19.9396 15.3954V6.96663C19.9396 6.81147 19.8111 6.68568 19.6526 6.68568Z" fill="#B3D866"/>
</svg>
