<svg width="24" height="24" viewBox="0 0 24 24" fill="none" xmlns="http://www.w3.org/2000/svg">
<path d="M19.2509 1.99957C20.7134 1.99957 21.9093 3.14128 21.9958 4.58205L22.0009 4.74957V19.2504C22.0009 20.713 20.8591 21.9088 19.4184 21.9954L19.2509 22.0004H4.75C3.28747 22.0004 2.0916 20.8587 2.00502 19.4179L2 19.2504V4.74957C2 3.28704 3.1417 2.09117 4.58248 2.00459L4.75 1.99957H19.2509ZM19.2509 3.49957L18.16 3.49857L4.06571 20.2967C4.22872 20.4035 4.41821 20.4733 4.62219 20.494L4.75 20.5004L5.853 20.4996L19.9439 3.70914C19.7789 3.59903 19.5863 3.52712 19.3787 3.50603L19.2509 3.49957ZM20.5 5.37957L7.811 20.4996H9.769L20.5 7.71057V5.37957ZM20.5 10.0446L11.727 20.4996H13.686L20.5 12.3796V10.0446ZM20.5 14.7126L15.645 20.4996H17.603L20.5 17.0466V14.7126ZM19.6049 20.4496C20.0793 20.3097 20.4363 19.896 20.493 19.3914L19.6049 20.4496ZM16.202 3.49857H14.244L3.499 16.3036V18.6366L16.202 3.49857ZM12.285 3.49857H10.327L3.499 11.6346V13.9696L12.285 3.49857ZM8.369 3.49857H6.409L3.499 6.96657V9.30157L8.369 3.49857ZM4.40978 3.54643C3.96554 3.6718 3.62171 4.03659 3.52643 4.49265L3.506 4.62457L4.40978 3.54643Z" fill="#48AAFF"/>
</svg>
