<svg width="480" height="513" viewBox="0 0 480 513" fill="none" xmlns="http://www.w3.org/2000/svg">
<path fill-rule="evenodd" clip-rule="evenodd" d="M411.277 345.429C321.423 476.464 169.671 450.027 97.8354 381.412C97.8354 381.412 18.5485 301.981 83.1064 227.693C110.397 196.289 115.046 163.179 122.276 133.711C132.155 93.4811 146.845 60.0221 230.586 46.9804C286.908 38.2029 340.292 61.4899 379.254 100.93C440.64 163.057 466.248 265.279 411.277 345.429Z" fill="#F6F2FF"/>
<path fill-rule="evenodd" clip-rule="evenodd" d="M411.276 345.43C321.422 476.465 169.671 450.027 97.8349 381.413C97.8349 381.413 33.199 316.66 68.1648 249.405C71.9245 242.171 76.8374 234.908 83.1059 227.705C110.396 196.302 115.046 163.196 122.275 133.731C122.297 134.511 124.499 204.321 201.074 183.528C260.597 167.358 309.863 107.899 379.261 100.933C413.807 135.899 437.021 183.57 440.915 232.855C443.948 271.134 435.312 310.391 411.276 345.43Z" fill="#EDE4FF"/>
<path fill-rule="evenodd" clip-rule="evenodd" d="M411.276 345.429C321.423 476.463 169.671 450.026 97.8351 381.411C97.8351 381.411 67.7042 351.227 59.7167 310.67C56.0034 291.823 57.0713 270.74 68.165 249.404C99.6442 268.492 170.341 303.085 223.506 267.812C282.714 228.526 376.233 169.342 440.905 232.851C441.424 239.367 441.596 245.907 441.42 252.442C440.561 284.362 431.226 316.349 411.276 345.429Z" fill="#E4DBFA"/>
<path fill-rule="evenodd" clip-rule="evenodd" d="M411.277 345.428C321.423 476.462 169.671 450.025 97.8351 381.41C97.8351 381.41 67.7042 351.226 59.7168 310.669C59.7168 310.669 89.8672 356.751 174.555 369.478C267.217 383.4 353.336 266.099 441.41 252.446C440.561 284.361 431.226 316.348 411.277 345.428Z" fill="#BEB2DA"/>
<path d="M191.598 45.2424C131.885 57.8795 121.135 116.305 121.135 116.305" stroke="#BEB2DA" stroke-linecap="round"/>
<path d="M201.365 44.3452C201.365 44.3452 222.207 40.2588 230.414 40.3076" stroke="#BEB2DA" stroke-linecap="round"/>
<path d="M77.9358 369.331C77.9358 369.331 39.1153 345.561 50.0919 260.218" stroke="#BEB2DA" stroke-linecap="round"/>
<path fill-rule="evenodd" clip-rule="evenodd" d="M179.243 184.339C177.663 184.146 174.367 184.375 170.932 183.939C169.191 183.72 161.006 183.232 159.977 182.057C158.948 180.882 158.78 177.117 159.906 177.056C161.033 176.995 175.881 178.48 176.613 178.595C177.344 178.709 179.243 184.339 179.243 184.339Z" fill="#070208"/>
<path fill-rule="evenodd" clip-rule="evenodd" d="M175.346 173.993C174.988 172.674 170.002 172.152 167.927 172.691C167.385 172.844 166.874 173.092 166.418 173.423C165.045 173.066 163.609 173.031 162.222 173.323C161.833 173.427 161.463 173.592 161.124 173.81C160.033 173.591 158.908 173.596 157.818 173.825C157.651 173.87 157.488 173.928 157.331 173.998C156.42 173.877 155.495 173.914 154.597 174.108C153 174.522 150.94 176.67 150.621 179.918C150.301 183.165 153.381 184.397 154.905 184.899C155.665 185.143 156.233 184.611 156.611 184.011C157.097 184.249 157.599 184.451 158.113 184.616C158.769 184.833 159.279 184.465 159.649 183.977C160.536 184.603 161.517 185.084 162.556 185.401C163.346 185.66 163.948 185.157 164.367 184.553C165.601 185.711 167.251 186.337 168.315 186.689C170.292 187.34 171.255 183.902 171.255 183.902C169.034 183.924 170.036 179.757 170.297 178.204C170.367 177.794 171.304 176.451 173.815 177.163C175.761 177.733 175.346 173.993 175.346 173.993Z" fill="#FED194"/>
<path fill-rule="evenodd" clip-rule="evenodd" d="M164.354 184.597C163.903 184.297 163.565 183.855 163.396 183.341C163.219 182.832 163.13 182.296 163.135 181.756C163.133 181.491 163.152 181.226 163.191 180.964C163.208 180.835 163.225 180.703 163.247 180.574L163.328 180.191C163.447 179.684 163.596 179.216 163.737 178.745C163.879 178.275 164.064 177.806 164.249 177.348C164.434 176.89 164.627 176.431 164.851 175.988C165.275 175.08 165.788 174.218 166.383 173.413L166.448 173.442C165.717 175.261 165.034 177.099 164.432 178.972C164.127 179.903 163.803 180.835 163.701 181.807C163.651 182.296 163.672 182.788 163.764 183.27C163.85 183.748 164.067 184.192 164.391 184.553L164.354 184.597Z" fill="#F59D4E"/>
<path fill-rule="evenodd" clip-rule="evenodd" d="M159.624 184.004C159.138 183.22 158.839 182.334 158.751 181.415C158.751 181.303 158.717 181.188 158.709 181.074L158.692 180.732C158.681 180.503 158.681 180.274 158.692 180.045C158.712 179.588 158.755 179.132 158.821 178.679C158.978 177.781 159.25 176.907 159.628 176.078C159.816 175.667 160.031 175.268 160.272 174.886C160.523 174.507 160.8 174.147 161.101 173.808L161.167 173.84C160.989 174.24 160.801 174.635 160.635 175.039L160.392 175.649C160.307 175.85 160.233 176.056 160.17 176.266L159.972 176.887C159.904 177.095 159.86 177.309 159.804 177.521C159.687 177.941 159.619 178.372 159.533 178.799C159.389 179.658 159.322 180.529 159.333 181.4C159.333 181.62 159.333 181.837 159.365 182.054C159.397 182.271 159.404 182.488 159.431 182.702C159.482 183.135 159.57 183.563 159.694 183.98L159.624 184.004Z" fill="#F59D4E"/>
<path fill-rule="evenodd" clip-rule="evenodd" d="M156.595 184.048C155.869 183.431 155.334 182.62 155.051 181.71C154.965 181.486 154.9 181.255 154.856 181.02C154.801 180.785 154.76 180.547 154.734 180.308C154.709 180.065 154.696 179.821 154.695 179.576L154.722 178.845C154.829 177.895 155.115 176.974 155.566 176.131C155.667 175.919 155.789 175.716 155.929 175.527L156.334 174.959C156.634 174.61 156.96 174.284 157.309 173.983L157.37 174.025C157.126 174.405 156.882 174.776 156.673 175.161L156.373 175.756L156.222 176.053C156.173 176.153 156.141 176.261 156.1 176.363L155.856 176.985C155.78 177.192 155.739 177.411 155.675 177.623L155.593 177.945C155.563 178.05 155.554 178.162 155.534 178.272C155.502 178.489 155.461 178.708 155.439 178.928C155.349 179.81 155.406 180.7 155.607 181.564C155.801 182.433 156.152 183.259 156.643 184.002L156.595 184.048Z" fill="#F59D4E"/>
<path fill-rule="evenodd" clip-rule="evenodd" d="M426.687 307.842C421.06 307.72 415.779 304.673 412.885 302.142L418.663 295.517C418.963 295.776 426.434 302.076 431.383 297.136C437.791 290.743 453.466 252.111 454.302 241.636L437.759 241.273L437.952 232.496L457.152 232.917C459.539 232.971 461.519 234.38 462.445 236.699C464.32 241.375 461.609 252.92 454.399 271.014C449.635 282.961 442.377 298.594 437.591 303.368C434.194 306.753 430.364 307.933 426.687 307.842Z" fill="#070208"/>
<path fill-rule="evenodd" clip-rule="evenodd" d="M324.15 233.84L327.279 77.3925L474.335 80.3336L471.206 236.781L324.15 233.84Z" fill="#008C95"/>
<path fill-rule="evenodd" clip-rule="evenodd" d="M420.557 236.506L423.997 80.0961L475.861 81.2368L472.421 237.647L420.557 236.506Z" fill="#08C6D2"/>
<path d="M454.475 221.658L467.175 222.195" stroke="#070208" stroke-width="3" stroke-linecap="round"/>
<path d="M454.709 217.478L467.409 218.017" stroke="#070208" stroke-width="3" stroke-linecap="round"/>
<path d="M454.818 212.85L467.519 213.389" stroke="#070208" stroke-width="3" stroke-linecap="round"/>
<path fill-rule="evenodd" clip-rule="evenodd" d="M317.551 233.545L317.744 223.894L471.285 226.965L471.092 236.615L317.551 233.545Z" fill="#070208"/>
<path fill-rule="evenodd" clip-rule="evenodd" d="M417.688 235.638L417.881 225.988L475.075 227.132L474.882 236.782L417.688 235.638Z" fill="#070208"/>
<g style="mix-blend-mode:multiply" opacity="0.4">
<path fill-rule="evenodd" clip-rule="evenodd" d="M328.287 103.052L328.42 97.0116L475.44 100.245L475.307 106.286L328.287 103.052Z" fill="#C41C0F"/>
</g>
<path fill-rule="evenodd" clip-rule="evenodd" d="M328.373 99.1447L328.838 78.0035L475.858 81.2372L475.393 102.378L328.373 99.1447Z" fill="#008C95"/>
<path fill-rule="evenodd" clip-rule="evenodd" d="M429.137 101.361L429.602 80.2198L479.762 81.3231L479.297 102.464L429.137 101.361Z" fill="#08C6D2"/>
<path fill-rule="evenodd" clip-rule="evenodd" d="M438.232 130.607L438.384 123.704L459.567 124.17L459.415 131.073L438.232 130.607Z" fill="#070208"/>
<path fill-rule="evenodd" clip-rule="evenodd" d="M444.463 80.0913V114.572L454.433 117.042V80.34L444.463 80.0913Z" fill="white"/>
<path fill-rule="evenodd" clip-rule="evenodd" d="M290.976 90.6547C290.976 90.6547 323.504 76.5743 323.37 79.5196C323.37 79.5196 312.266 97.7644 307.819 101.127C303.372 104.489 299.059 103.258 299.059 103.258C299.059 103.258 287.843 99.9905 288.66 96.8891C289.256 94.7498 290.031 92.6643 290.976 90.6547Z" fill="#BBC3C4"/>
<path fill-rule="evenodd" clip-rule="evenodd" d="M320.256 101.113C314.524 108.291 292.478 120.487 292.837 101.245C293.002 92.2235 291.976 87.8079 290.837 85.6794C289.555 83.2729 288.131 83.7703 288.131 83.7703C288.131 83.7703 298.288 60.715 304.92 55.1438C307.822 52.7056 310.04 53.6175 310.455 61.2733C310.535 62.7826 310.655 64.1991 310.811 65.5279C313.234 86.3865 324.221 86.0963 324.221 86.0963C324.221 86.0963 324.269 86.3182 324.325 86.7156C324.968 91.8673 323.5 97.0598 320.256 101.113Z" fill="#FED194"/>
<path fill-rule="evenodd" clip-rule="evenodd" d="M314.769 53.2902C314.028 57.5326 312.7 61.6512 310.824 65.5274C308.94 69.3935 306.511 72.9694 303.612 76.1456C299.82 80.3052 295.829 83.1334 292.779 84.767C292.218 85.0669 291.574 85.3741 290.85 85.6789C282.578 89.1435 264.425 91.6695 256.284 66.6295C250.962 50.262 254.492 37.1276 258.154 29.2474C260.593 24.0224 263.072 21.1137 263.072 21.1137C263.072 21.1137 273.093 18.5561 289.183 16.8323C305.272 15.1085 317.929 35.4965 314.769 53.2902Z" fill="#FED194"/>
<path fill-rule="evenodd" clip-rule="evenodd" d="M324.326 86.7136C321.658 87.9327 315.853 85.4751 313.549 85.4385C308.429 85.358 293.688 90.3368 291.696 87.8767C289.838 85.5799 304.942 79.7502 304.728 76.8561C304.313 71.2166 304.898 65.0749 304.898 65.0749C304.898 65.0749 309.643 70.6949 304.923 55.1467C304.486 53.7179 303.974 52.1063 303.367 50.2971C296.179 28.8193 286.344 32.2547 275.431 37.7454C264.517 43.2362 256.425 40.1495 256.425 40.1495C256.425 40.1495 256.318 36.3947 258.132 29.2509C260.57 24.0259 263.05 21.1171 263.05 21.1171C263.05 21.1171 273.07 18.5595 289.16 16.8357C305.249 15.1119 317.918 35.4999 314.761 53.2937C314.023 57.5339 312.698 61.6507 310.825 65.526C313.249 86.3845 324.235 86.0944 324.235 86.0944C324.235 86.0944 324.27 86.3162 324.326 86.7136Z" fill="#F59D4E"/>
<path fill-rule="evenodd" clip-rule="evenodd" d="M307.571 72.5662C307.571 72.5662 297.299 87.6828 280.178 87.8681C280.178 87.8681 300.734 92.2203 316.216 73.9706C331.699 55.7209 307.571 72.5662 307.571 72.5662Z" fill="black"/>
<path fill-rule="evenodd" clip-rule="evenodd" d="M290.831 127.825C290.831 127.825 280.71 106.096 286.569 102.468C292.428 98.8404 299.07 103.258 299.07 103.258C299.07 103.258 323.41 96.2828 325.085 110.605C326.76 124.926 290.831 127.825 290.831 127.825Z" fill="#BBC3C4"/>
<path fill-rule="evenodd" clip-rule="evenodd" d="M296.461 103.017C296.461 103.017 290.553 108.771 295.517 115.681C300.481 122.591 309.802 110.429 309.144 102.573C308.486 94.7175 313.348 108.015 313.348 108.015C313.348 108.015 312.041 114.915 307.601 118.456C303.161 121.996 299.526 124.478 296.978 122.6C294.43 120.723 285.55 106.192 286.62 104.07C287.691 101.949 296.461 103.017 296.461 103.017Z" fill="#858B8C"/>
<path fill-rule="evenodd" clip-rule="evenodd" d="M303.375 125.885C303.338 132.994 299.23 183.755 268.894 184.94C256.691 185.427 243.686 182.043 232.585 177.506C225.897 174.772 205.319 185.391 200.606 182.382C193.698 177.993 178.399 176.699 178.86 174.843C180.159 169.621 244.261 148.323 244.261 148.323C256.14 127.599 274.89 106.372 274.89 106.372C274.89 106.372 279.351 110.185 285.393 115.588C295.838 124.934 310.994 139.036 315.951 146.375C316.997 147.936 303.38 125.046 303.375 125.885Z" fill="white"/>
<path opacity="0.76" fill-rule="evenodd" clip-rule="evenodd" d="M301.922 130.287C301.883 137.397 299.225 183.754 268.895 184.939C249.338 185.702 227.726 176.588 215.191 168.618C221.45 164.268 227.121 161.791 228.906 162.895C236.052 167.284 263.189 170.363 270.908 157.312C278.03 145.272 273.924 112.661 273.924 112.661C273.924 112.661 278.513 113.637 285.384 115.587C298.04 126.917 301.946 125.474 301.922 130.287Z" fill="#D2D7DB"/>
<path fill-rule="evenodd" clip-rule="evenodd" d="M279.274 133.378C279.274 133.378 289.271 136.777 300.664 140.834C300.421 143.177 300.082 145.84 299.567 148.666C297.797 158.465 294.072 170.251 286.282 177.68C281.893 181.861 276.229 184.658 268.895 184.946C256.692 185.433 243.687 182.049 232.586 177.512C230.538 169.897 233.027 168.72 244.372 172.465C254.149 175.693 263.39 173.949 269.605 171.806C276.288 169.484 280.923 163.378 281.364 156.317C282.022 145.881 279.274 133.378 279.274 133.378Z" fill="#AEB6B7"/>
<path fill-rule="evenodd" clip-rule="evenodd" d="M299.568 148.664C297.798 158.463 294.073 170.25 286.283 177.679C286.382 177.433 286.532 177.211 286.724 177.028C291.576 171.907 282.879 143.118 282.879 143.118C282.879 143.118 291.542 144.863 299.568 148.664Z" fill="#858B8C"/>
<path fill-rule="evenodd" clip-rule="evenodd" d="M315.739 146.305C310.924 144.511 305.657 142.609 300.664 140.834C301.054 136.962 301.152 133.956 301.152 132.501C301.152 131.752 313.75 144.616 315.739 146.305Z" fill="#AEB6B7"/>
<path fill-rule="evenodd" clip-rule="evenodd" d="M315.74 146.324L316.048 146.449C316.214 146.708 316.09 146.643 315.74 146.324Z" fill="#AEB6B7"/>
<path fill-rule="evenodd" clip-rule="evenodd" d="M244.262 148.334C244.262 148.334 253.339 147.754 266.693 154.164C266.693 154.164 268.792 154.6 262.007 150.133C255.221 145.667 247.468 142.99 247.468 142.99L244.262 148.334Z" fill="#AEB6B7"/>
<path fill-rule="evenodd" clip-rule="evenodd" d="M172.996 174.306C176.519 174.079 188.325 174.611 188.944 172.599C189.563 170.588 188.993 164.397 190.826 158.528C192.66 152.66 196.312 144.943 205.943 144.66C215.574 144.377 223.959 149.692 227.262 152.404C230.566 155.115 242.801 168.108 246.826 169.344C250.852 170.58 281.448 179.565 281.151 180.401C280.853 181.237 279.247 192.021 277.679 191.987C276.111 191.953 246.977 189.101 244.461 189.637C241.945 190.173 236.749 192.446 235.486 201.884C234.223 211.322 212.677 200.053 212.677 200.053C212.677 200.053 213.972 194.289 213.104 192.95C212.236 191.612 207.228 188.233 197.653 187.04C189.363 186.004 183.149 185.797 182.073 186.002C180.998 186.206 173.969 179.092 172.455 178.253C171.979 177.978 172.996 174.306 172.996 174.306Z" fill="#060B31"/>
<path fill-rule="evenodd" clip-rule="evenodd" d="M281.165 180.401C281.034 180.784 280.622 183.259 280.061 185.826C279.769 187.252 279.398 188.66 278.949 190.044C271.41 188.796 252.249 185.331 249.867 184.9C247.053 184.393 231.556 179.699 226.928 177.639C222.301 175.579 222.842 168.576 222.861 166.484C222.77 163.065 222.196 159.675 221.155 156.417C220.048 153.128 218.263 150.034 215.401 148.859C208.817 146.145 203.21 145.472 198.528 149.39C197.368 149.878 198.463 147.942 200.057 146.016C201.911 145.163 203.922 144.704 205.962 144.67C215.605 144.39 223.978 149.7 227.282 152.414C230.585 155.127 242.82 168.118 246.846 169.354C250.871 170.59 281.451 179.565 281.165 180.401Z" fill="#FECF31"/>
<path fill-rule="evenodd" clip-rule="evenodd" d="M206.883 146.881C202.738 146.325 192.31 149.143 191.086 165.723C190.015 180.252 199.978 185.426 205.295 186.138C210.442 186.828 221.185 182.312 221.536 167.878C221.911 152.559 215.633 148.051 206.883 146.881Z" fill="white"/>
<path fill-rule="evenodd" clip-rule="evenodd" d="M280.06 185.826C279.769 187.252 279.398 188.66 278.949 190.044C271.41 188.796 252.248 185.331 249.866 184.9C247.053 184.393 231.556 179.699 226.928 177.639C222.3 175.579 222.842 168.576 222.861 166.484C222.77 163.065 222.196 159.675 221.154 156.417C221.249 156.575 224.346 161.676 226.762 171C228.871 179.197 269.291 184.546 280.06 185.826Z" fill="#EE9800"/>
<path fill-rule="evenodd" clip-rule="evenodd" d="M278.36 376.278C275.985 370.546 271.877 342.515 274.605 324.748C277.333 306.981 283.173 294.663 292.267 293.259C301.362 291.854 301.879 331.05 301.879 331.05C301.879 331.05 291.728 362.527 292.197 362.939C292.665 363.351 278.36 376.278 278.36 376.278Z" fill="#FECF31"/>
<path fill-rule="evenodd" clip-rule="evenodd" d="M417.237 352.598C415.201 357.399 354.427 401.659 351.599 401.973C348.77 402.288 285.363 409.707 281.053 409.654C278.583 409.627 274.621 398.041 271.697 388.198C282.05 388.817 313.851 391.428 328.173 377.365C344.457 361.385 342.173 330.616 341.175 320.6C339.349 302.238 321.831 286.394 313.005 279.282C306.612 274.121 297.24 271.18 289.394 271.702C290.027 268.067 291.298 265.238 293.358 264.246C299.327 261.376 403.827 270.125 405.27 271.022C406.713 271.919 411.724 284.115 413.399 285.909C415.074 287.704 418.453 295.138 420.433 297.33C422.413 299.522 419.27 347.81 417.237 352.598Z" fill="#DE8700"/>
<path fill-rule="evenodd" clip-rule="evenodd" d="M414.551 274.785C414.639 276.713 414.083 280.307 410.528 280.01C406.973 279.712 371.047 278.739 361.782 277.501C352.517 276.262 309.622 271.817 300.367 270.506C295.905 269.867 286.06 269.116 284.37 266.09C282.68 263.064 286.918 238.368 288.366 236.237C288.642 235.823 289.29 235.437 290.231 235.062C297.768 237.076 311.034 238.641 316.349 239.804C324.493 241.596 380.931 250.544 391.201 250.869C400.222 251.154 413.817 246.395 419.284 242.106C419.372 247.838 414.471 273.034 414.551 274.785Z" fill="#060B31"/>
<path fill-rule="evenodd" clip-rule="evenodd" d="M328.172 377.355C313.851 391.419 282.05 388.815 271.697 388.188C269.53 380.886 267.938 374.534 267.938 374.534C271.351 373.942 278.063 373.271 283.812 366.883C289.562 360.495 293.404 335.675 293.655 328.558C293.906 321.441 294.55 302.301 291.315 293.831C289.206 288.299 288.172 278.561 289.393 271.695C297.239 271.173 306.612 274.114 313.005 279.275C321.831 286.387 339.337 302.231 341.175 320.592C342.172 330.608 344.457 361.376 328.172 377.355Z" fill="#EE9800"/>
<path fill-rule="evenodd" clip-rule="evenodd" d="M338.492 407.207C338.263 411.542 336.525 424.518 344.293 438.26C352.061 452.001 361.116 460.011 376.33 461.179C391.544 462.346 409.382 448.602 415.629 426.735C421.875 404.867 423.494 389.072 420.159 380.068C417.923 374.036 384.01 388.755 361.201 396.691C349.964 400.605 340.66 400.073 340.66 400.073L338.492 407.207Z" fill="#070208"/>
<path fill-rule="evenodd" clip-rule="evenodd" d="M363.337 387.304C362.73 390.54 354.662 416.882 362.925 434.754C371.188 452.625 380.663 453.891 386.205 453.937C395.975 454.022 412.032 442.817 416.926 416.243C421.819 389.669 418.845 382.333 418.845 382.333L363.337 387.304Z" fill="#FED194"/>
<g style="mix-blend-mode:multiply">
<path fill-rule="evenodd" clip-rule="evenodd" d="M276.043 410.837C270.94 413.454 294.544 421.456 298.801 420.958C303.058 420.461 382.006 407.599 382.418 405.912C382.83 404.225 382.754 400.304 379.697 399.515C376.639 398.725 357.346 393.219 354.786 392.878C352.226 392.536 277.242 410.221 276.043 410.837Z" fill="#E0D1AF"/>
</g>
<path fill-rule="evenodd" clip-rule="evenodd" d="M367.652 387.706C367.522 388.091 367.432 388.488 367.381 388.891C366.406 394.965 365.526 419.644 368.956 426.234C372.708 433.444 377.08 438.913 384.724 439.069C392.367 439.225 407.372 427.61 409.73 400.848C411.77 377.707 410.612 373.37 410.612 373.37L367.564 387.919" fill="#EE9800"/>
<path fill-rule="evenodd" clip-rule="evenodd" d="M368.317 381.857C367.069 385.531 361.946 426.414 379.448 428.755C396.949 431.096 397.797 384.217 397.797 384.217L368.317 381.857Z" fill="#070208"/>
<path fill-rule="evenodd" clip-rule="evenodd" d="M374.153 378.27C372.948 382.227 368.228 419.931 381.255 423.066C394.282 426.202 399.351 404 399.422 398.246C399.493 392.492 398.322 380.284 398.322 380.284C399.605 379.93 374.153 378.27 374.153 378.27Z" fill="white"/>
<path fill-rule="evenodd" clip-rule="evenodd" d="M389.637 393.396C388.522 393.245 385.599 395.174 384.945 400.062C384.292 404.951 386.138 407.133 387.771 407.34C390.558 407.716 392.891 404.709 393.364 400.448C393.838 396.186 392.596 393.791 389.637 393.396Z" fill="#6F634D"/>
<path fill-rule="evenodd" clip-rule="evenodd" d="M391.556 394.73C390.439 394.596 387.654 395.445 387.006 400.338C386.357 405.231 388.04 406.314 389.659 406.624C391.278 406.933 394.084 404.868 394.567 400.609C395.049 396.349 392.887 394.894 391.556 394.73Z" fill="#070208"/>
<path fill-rule="evenodd" clip-rule="evenodd" d="M372.243 389.589C368.011 389.896 350.239 389.916 347.701 385.386C345.163 380.856 342.359 362.664 343.488 346.399C344.616 330.134 354.135 304.685 368.406 295.929C382.676 287.174 404.147 284.645 420.078 294.81C436.009 304.975 420.773 365.288 420.11 365.029C419.446 364.771 372.243 389.589 372.243 389.589Z" fill="#060B31"/>
<path fill-rule="evenodd" clip-rule="evenodd" d="M452.565 380.906C451.226 381.796 398.879 387.999 380.834 389.364C378.232 389.559 376.345 389.657 375.426 389.62C368.126 389.342 356.218 390.893 353.121 386.636C349.608 381.808 346.37 365.297 348.44 344.616C350.51 323.936 358.051 310.019 369.694 300.654C377.328 294.514 386.973 286.373 414.8 293.766C419.572 295.011 424.134 296.955 428.337 299.537C445.772 310.331 452.118 330.058 452.926 344.28C453.915 361.701 454.098 379.892 452.565 380.906Z" fill="#FECF31"/>
<path fill-rule="evenodd" clip-rule="evenodd" d="M276.59 406.764C271.487 409.381 295.09 417.383 299.345 416.888C303.6 416.393 382.55 403.529 382.962 401.839C383.374 400.15 383.301 396.232 380.241 395.442C377.181 394.652 357.893 389.149 355.333 388.805C352.773 388.461 277.787 406.15 276.59 406.764Z" fill="#060B31"/>
<path fill-rule="evenodd" clip-rule="evenodd" d="M274.668 405.459C269.565 408.075 293.169 416.077 297.423 415.58C301.678 415.083 382.398 401.848 382.81 400.158C383.222 398.469 382.796 396.084 379.738 395.282C376.681 394.48 355.971 387.836 353.406 387.495C350.841 387.153 275.867 404.845 274.668 405.459Z" fill="#FED194"/>
<path fill-rule="evenodd" clip-rule="evenodd" d="M346.665 344.504C346.682 344.567 346.697 344.635 346.714 344.699C347.801 349.331 349.093 355.407 350.264 361.086C352.083 369.897 353.604 377.75 353.604 377.75L339.375 384.887L332.268 365.757L326.443 350.072L319.345 330.962L313.545 315.341C313.545 315.341 322.659 310.352 331.902 316.938C337.4 320.868 342.961 328.899 346.665 344.504Z" fill="#FED194"/>
<path fill-rule="evenodd" clip-rule="evenodd" d="M346.665 344.504C338.22 349.404 326.443 350.072 326.443 350.072L319.346 330.962C320.184 327.439 322.403 323.713 326.833 320.056C328.355 318.766 330.065 317.715 331.902 316.938C337.4 320.868 342.962 328.899 346.665 344.504Z" fill="#F59D4E"/>
<path fill-rule="evenodd" clip-rule="evenodd" d="M350.262 361.096C352.081 369.908 353.602 377.761 353.602 377.761L339.373 384.898L332.266 365.768C333.633 366.009 342.162 367.206 350.262 361.096Z" fill="#FFB113"/>
<path fill-rule="evenodd" clip-rule="evenodd" d="M356.919 385.728C357.043 386.335 357.231 388.608 357.377 389.076C358.33 392.114 359.501 393.862 342.56 401.886C323.006 411.151 310.559 414.133 302.35 406.721C294.987 400.065 314.334 392.58 336.297 375.213C336.216 375.549 335.217 386.06 353.544 376.566C354.307 376.168 354.727 377.158 355.007 377.975C356.058 381.206 356.309 382.749 356.919 385.728Z" fill="#070208"/>
<path fill-rule="evenodd" clip-rule="evenodd" d="M342.56 401.886C323.006 411.151 310.559 414.133 302.35 406.721C302.35 406.721 311.139 411.085 323.532 407.011C333.653 403.68 351.735 392.599 357.377 389.076C358.33 392.114 359.5 393.862 342.56 401.886Z" fill="#FFB113"/>
<path fill-rule="evenodd" clip-rule="evenodd" d="M335.291 385.07C334.981 385.27 334.568 385.193 334.35 384.894C331.712 381.261 329.215 380.603 329.191 380.596C328.817 380.507 328.586 380.132 328.675 379.758C328.764 379.384 329.139 379.154 329.513 379.242C329.635 379.272 332.504 379.974 335.474 384.075C335.584 384.224 335.629 384.411 335.601 384.595C335.572 384.778 335.471 384.942 335.321 385.05L335.291 385.07Z" fill="white"/>
<path fill-rule="evenodd" clip-rule="evenodd" d="M330.986 388.041C330.675 388.242 330.261 388.165 330.044 387.865C327.406 384.232 324.924 383.574 324.885 383.569C324.512 383.48 324.281 383.104 324.371 382.73C324.46 382.357 324.836 382.126 325.21 382.216C325.329 382.243 328.201 382.947 331.171 387.048C331.281 387.198 331.326 387.385 331.297 387.568C331.269 387.751 331.168 387.915 331.017 388.024L330.986 388.041Z" fill="white"/>
<path fill-rule="evenodd" clip-rule="evenodd" d="M325.922 391.943C325.611 392.143 325.199 392.066 324.981 391.768C322.343 388.135 319.846 387.476 319.822 387.469C319.448 387.38 319.217 387.005 319.306 386.632C319.395 386.258 319.77 386.027 320.144 386.116C320.266 386.145 323.135 386.847 326.105 390.948C326.215 391.098 326.26 391.285 326.231 391.468C326.203 391.651 326.102 391.815 325.951 391.924L325.922 391.943Z" fill="white"/>
<path fill-rule="evenodd" clip-rule="evenodd" d="M354.468 223.982C328.545 241.566 270.783 264.699 248.59 260.477C241.564 259.136 246.598 249.307 249.431 241.037C250.575 237.692 251.36 234.6 250.838 232.43C244.957 207.963 292.326 200.861 292.326 200.861C299.872 195.563 310.517 192.939 321.34 192.42C350.94 191.008 381.888 205.376 354.468 223.982Z" fill="#59302A"/>
<path fill-rule="evenodd" clip-rule="evenodd" d="M354.468 223.984C329.138 241.168 273.401 263.655 250.163 260.725C249.62 260.657 249.096 260.575 248.59 260.481C241.564 259.14 246.598 249.312 249.431 241.041C261.425 237.128 276.251 233.308 284.163 225.793C301.767 209.097 294.26 202.062 294.26 202.062C294.26 202.062 298.746 200.244 306.021 197.632C310.283 196.099 315.506 194.294 321.34 192.424C350.94 191.01 381.888 205.378 354.468 223.984Z" fill="#42211D"/>
<path fill-rule="evenodd" clip-rule="evenodd" d="M354.469 223.982C329.139 241.167 273.402 263.654 250.164 260.723C255.448 253.94 235.684 244.612 241.448 244.373C263.089 243.473 323.804 232.006 317.326 211.458C315.512 205.706 306.43 205.828 306.403 205.706C305.703 202.536 305.593 199.871 306.023 197.626C310.284 196.092 315.507 194.288 321.342 192.418C350.941 191.009 381.889 205.377 354.469 223.982Z" fill="#27140E"/>
<path fill-rule="evenodd" clip-rule="evenodd" d="M297.837 416.699C297.368 416.646 296.808 416.577 296.164 416.492C281.857 414.627 226.093 405.52 206.605 402.336L199.832 401.224L153.477 324.285C149.657 319.136 147.526 308.557 150.627 285.394C153.728 262.232 165.21 223.421 172.163 212.566C179.117 201.711 186.836 195.058 200.366 195.643C214.69 196.262 242.814 199.115 258.528 203.428C269.19 206.354 281.65 222.504 278.246 236.194C276.051 245.013 269.956 268.866 266.918 279.738C263.88 290.609 263.605 312.304 263.585 318.327C263.585 321.313 265.831 333.563 268.622 347.204C271.46 361.073 274.854 376.377 276.985 384.828C281.901 404.348 288.557 412.82 296.142 416.058C296.703 416.307 297.268 416.517 297.837 416.699Z" fill="#FECF31"/>
<path fill-rule="evenodd" clip-rule="evenodd" d="M296.165 416.492C287.827 415.404 265.42 411.859 244.313 408.463C229.196 406.025 214.74 403.667 206.607 402.333C196.866 388.231 188.91 372.051 184.292 358.054C178.197 339.592 177.902 324.929 186.955 323.841C205.468 321.615 213.482 252.647 213.482 252.647C213.482 252.647 213.482 252.732 213.482 252.891L223.479 206.565C222.935 209.223 212.895 258.689 216.164 282C216.165 282.01 216.165 282.019 216.164 282.029C219.141 295.683 225.317 309.978 238.049 314.762C260.305 323.127 268.475 346.916 268.634 347.189C271.474 361.058 274.868 376.367 276.997 384.815C281.917 404.337 288.571 412.808 296.156 416.046C296.153 416.209 296.161 416.35 296.165 416.492Z" fill="#FFB636"/>
<path fill-rule="evenodd" clip-rule="evenodd" d="M244.313 408.462C229.197 406.024 214.741 403.666 206.607 402.332C196.867 388.23 188.911 372.05 184.293 358.053C189.001 340.122 196.971 330.204 196.971 330.204C196.971 330.204 212.3 338.823 229.682 363.89C239.259 377.704 242.938 395.379 244.313 408.462Z" fill="#EE9800"/>
<g style="mix-blend-mode:multiply">
<path fill-rule="evenodd" clip-rule="evenodd" d="M83.2871 360.823C90.1969 360.091 96.4532 361.491 101.044 363.2C112.016 367.282 129.878 373.684 139.324 374.784C148.769 375.883 182.079 377.583 193.358 387.628C204.637 397.673 213.995 421.719 232.25 422.328C231.455 402.823 226.886 368.428 220.339 358.646C213.793 348.864 200.956 324.089 171.134 318.525C141.313 312.962 95.5316 320.198 83.2871 360.823Z" fill="#070208"/>
</g>
<path fill-rule="evenodd" clip-rule="evenodd" d="M182.012 287.759C174.91 286.023 165.623 291.294 163.526 299.949C161.378 308.829 165.538 312.762 169.682 313.359C175.595 314.196 184.555 311.772 187.401 300.362C190.246 288.951 182.012 287.759 182.012 287.759Z" fill="#F7ECD0"/>
<path fill-rule="evenodd" clip-rule="evenodd" d="M186.023 386.649C190.7 395.614 193.128 406.474 193.869 415.998C203.425 418.648 225.012 423.468 224.91 421.344C206.655 420.735 197.3 396.697 186.023 386.649Z" fill="#34020B"/>
<path fill-rule="evenodd" clip-rule="evenodd" d="M75.9914 359.869C76.0484 359.741 76.1093 359.607 76.1663 359.489C76.0836 359.61 76.0247 359.738 75.9914 359.869Z" fill="#34020B"/>
<path fill-rule="evenodd" clip-rule="evenodd" d="M75.9551 359.843C75.5772 362.671 86.1393 370.063 108.978 367.667C103.443 365.801 98.04 363.829 93.7147 362.22C89.1212 360.511 82.8551 359.109 75.9551 359.843Z" fill="#34020B"/>
<path fill-rule="evenodd" clip-rule="evenodd" d="M193.87 415.999C193.139 406.476 190.7 395.616 186.024 386.651C183.691 384.574 180.416 382.855 176.6 381.424C179.747 384.506 182.454 388.007 184.646 391.827C190.515 402.009 194.18 416.541 191.681 436.812C185.585 486.307 155.064 504.217 136.763 502.642C126.413 501.75 97.4769 486.904 104.377 434.035C108.137 405.242 118.826 388.412 130.341 379.395C132.79 377.468 135.433 375.8 138.226 374.419C135.661 374.175 133.518 373.987 131.999 373.809C127.425 373.275 120.864 371.496 114.071 369.338C100.8 378.537 82.7992 397.535 78.7177 432.696C72.9173 482.569 101.856 507.748 120.788 511.054C136.68 513.831 155.608 511.973 174.428 486.199C193.248 460.425 192.817 438.584 193.846 428.544C194.222 424.371 194.23 420.174 193.87 415.999Z" fill="#070208"/>
<path fill-rule="evenodd" clip-rule="evenodd" d="M130.326 379.391C130.631 379.435 130.931 379.474 131.221 379.508C132.502 379.658 134.223 379.818 136.269 380.009C149.028 381.2 174.434 383.57 184.631 391.823C190.5 402.005 194.164 416.537 191.665 436.807C185.567 486.302 155.049 504.213 136.748 502.638C126.398 501.746 97.4618 486.9 104.362 434.03C108.121 405.236 118.81 388.412 130.326 379.391ZM135.853 484.526C160.732 487.857 174.59 457.402 177.272 439.947C179.959 422.492 178.277 392.051 154.275 388.665C130.274 385.278 116.003 416.202 113.96 431.472C112.078 445.542 110.974 481.196 135.853 484.526Z" fill="#323232"/>
<path fill-rule="evenodd" clip-rule="evenodd" d="M138.201 374.413C135.408 375.794 132.765 377.462 130.316 379.389C130.621 379.433 130.921 379.472 131.211 379.506C140.476 380.586 172.789 382.244 184.622 391.821C182.429 388.001 179.722 384.501 176.576 381.418C167.333 377.943 154.937 376.168 145.177 375.11C142.654 374.835 140.293 374.608 138.201 374.413Z" fill="#F7ECD0"/>
<path fill-rule="evenodd" clip-rule="evenodd" d="M138.201 374.413C135.408 375.794 132.765 377.462 130.316 379.389C130.621 379.433 130.921 379.472 131.211 379.506C140.476 380.586 172.789 382.244 184.622 391.821C182.429 388.001 179.722 384.501 176.576 381.418C167.333 377.943 154.937 376.168 145.177 375.11C142.654 374.835 140.293 374.608 138.201 374.413Z" fill="#C18A4D"/>
<path fill-rule="evenodd" clip-rule="evenodd" d="M113.961 431.472C115.997 416.202 130.274 385.279 154.276 388.665C178.277 392.05 179.957 422.493 177.273 439.947C174.588 457.402 160.732 487.855 135.853 484.527C110.974 481.199 112.078 445.543 113.961 431.472ZM153.872 458.417C157.909 454.682 161.525 447.999 163.217 436.668C164.936 425.155 162.944 418.677 159.918 414.93C157.912 407.647 153.56 401.695 144.99 400.693C124.343 398.282 117.867 425.685 116.707 431.841C115.619 437.644 112.925 466.624 131.224 470.12C142.434 472.254 149.537 465.695 153.872 458.417Z" fill="#EE9800"/>
<path fill-rule="evenodd" clip-rule="evenodd" d="M142.04 462.477C137.303 461.846 123.479 455.858 126.482 433.426C129.486 410.995 146.037 408.577 150.589 409.654C153.08 410.244 156.979 411.319 159.905 414.93C157.896 407.648 153.546 401.696 144.976 400.694C124.342 398.283 117.866 425.685 116.693 431.842C115.601 437.635 112.912 466.615 131.21 470.121C142.426 472.264 149.523 465.705 153.858 458.418C149.852 462.133 145.417 462.928 142.04 462.477Z" fill="#070208"/>
<path opacity="0.76" fill-rule="evenodd" clip-rule="evenodd" d="M126.485 433.425C129.486 410.994 146.039 408.575 150.591 409.653C153.075 410.243 156.976 411.311 159.907 414.929C162.945 418.677 164.937 425.155 163.218 436.668C161.526 447.998 157.901 454.701 153.873 458.416C149.845 462.132 145.42 462.927 142.043 462.476C137.305 461.845 123.483 455.856 126.485 433.425ZM144.056 436.295C143.278 441.684 144.914 445.321 148.067 445.47C150.261 445.572 151.656 444.28 152.558 442.498C152.867 441.869 153.113 441.211 153.289 440.533C153.506 439.732 153.669 438.917 153.777 438.095L153.791 437.975L153.821 437.775C154.225 434.737 153.928 432.228 152.882 430.934C152.285 429.793 151.4 428.973 150.151 428.805C146.862 428.361 144.685 431.907 144.056 436.295Z" fill="white"/>
<path fill-rule="evenodd" clip-rule="evenodd" d="M153.77 438.093L153.785 437.973C153.67 438.833 153.5 439.685 153.275 440.524C153.494 439.725 153.66 438.913 153.77 438.093Z" fill="#6F634D"/>
<path fill-rule="evenodd" clip-rule="evenodd" d="M149.233 444.576C146.144 444.162 145.249 440.098 146.186 436.031C147.019 432.403 148.768 429.674 151.257 430.001C151.898 430.085 152.479 430.42 152.874 430.932C152.276 429.791 151.391 428.982 150.143 428.804C146.861 428.36 144.684 431.915 144.047 436.294C143.27 441.682 144.906 445.315 148.058 445.469C150.253 445.571 151.647 444.279 152.532 442.489C151.82 443.889 150.772 444.781 149.233 444.576Z" fill="#6F634D"/>
<path fill-rule="evenodd" clip-rule="evenodd" d="M151.259 430.002C148.769 429.675 147.021 432.403 146.187 436.031C145.251 440.098 146.146 444.163 149.235 444.577C150.773 444.782 151.822 443.89 152.541 442.49C152.851 441.861 153.096 441.203 153.272 440.525C153.497 439.687 153.667 438.835 153.782 437.975L153.811 437.775C154.216 434.737 153.919 432.228 152.873 430.933C152.479 430.421 151.899 430.086 151.259 430.002Z" fill="#070208"/>
<path fill-rule="evenodd" clip-rule="evenodd" d="M205.051 345.641C174.128 327.781 152.248 339.765 146.947 345.734C140.311 353.209 137.731 361.338 145.197 375.111C142.654 374.835 140.294 374.611 138.211 374.416C135.646 374.172 133.503 373.982 131.984 373.804C127.408 373.27 120.849 371.49 114.056 369.333C112.369 368.794 110.667 368.235 108.978 367.667C103.443 365.802 98.04 363.832 93.7147 362.22C89.1212 360.514 82.8649 359.109 75.9551 359.843C75.9917 359.724 76.0307 359.599 76.0672 359.492C82.4357 338.802 97.5378 326.84 114.754 320.845V320.859C111.674 324.826 109.468 329.447 111.409 329.92C116.156 331.07 131.402 318.658 152.08 316.107C155.676 316.327 159.258 316.748 162.808 317.368C163.142 317.424 163.471 317.485 163.8 317.546C184.612 321.427 197.149 334.669 205.051 345.641Z" fill="#FECF31"/>
<path fill-rule="evenodd" clip-rule="evenodd" d="M146.948 345.723C140.311 353.198 137.732 361.327 145.197 375.1C154.95 376.158 167.353 377.933 176.596 381.408C180.409 382.839 183.686 384.558 186.02 386.635C197.296 396.683 206.651 420.721 224.906 421.33C224.109 401.837 219.542 367.432 212.995 357.648C211.018 354.693 208.465 350.372 205.047 345.625C174.129 327.78 152.246 339.764 146.948 345.723Z" fill="#950B0B"/>
<path fill-rule="evenodd" clip-rule="evenodd" d="M146.948 345.723C140.311 353.198 137.732 361.327 145.197 375.1C154.95 376.158 167.353 377.933 176.596 381.408C180.409 382.839 183.686 384.558 186.02 386.635C197.296 396.683 206.651 420.721 224.906 421.33C224.109 401.837 219.542 367.432 212.995 357.648C211.018 354.693 208.465 350.372 205.047 345.625C174.129 327.78 152.246 339.764 146.948 345.723Z" fill="#EE9800"/>
<path fill-rule="evenodd" clip-rule="evenodd" d="M111.4 329.918C116.142 331.067 131.393 318.659 152.068 316.106C152.405 316.062 152.744 316.023 153.085 315.989C134.672 312.468 126.061 312.371 120.209 315.64C118.502 316.591 116.493 318.613 114.755 320.843C111.668 324.813 109.454 329.445 111.4 329.918Z" fill="white"/>
<path fill-rule="evenodd" clip-rule="evenodd" d="M162.805 317.369L161.829 317.438C133.252 319.21 127.763 329.872 115.916 331.335C104.306 332.759 114.344 321.339 114.753 320.873C111.674 324.84 109.467 329.46 111.408 329.933C116.155 331.084 131.401 318.671 152.079 316.121C155.675 316.337 159.255 316.753 162.805 317.369Z" fill="#FECF31"/>
<path fill-rule="evenodd" clip-rule="evenodd" d="M207.997 203.213C202.389 206.941 174.155 279.899 170.669 284.404C168.926 286.66 163.769 292.028 161.479 298.599C159.19 305.17 159.773 312.943 168.011 316.01C186.909 323.047 196.396 307.496 198.162 299.523C199.459 293.672 221.98 206.385 221.122 204.966C220.264 203.547 210.296 201.687 207.997 203.213Z" fill="white"/>
<path fill-rule="evenodd" clip-rule="evenodd" d="M415.937 267.775C416.09 269.701 415.656 273.309 412.094 273.139C408.532 272.968 372.596 273.192 363.299 272.263C354.002 271.334 310.978 268.335 301.684 267.333C297.203 266.846 287.34 266.421 285.548 263.457C283.756 260.492 287.165 235.661 288.54 233.484C288.803 233.062 289.437 232.655 290.366 232.248C297.966 234.008 311.278 235.13 316.627 236.113C324.827 237.629 381.534 244.68 391.806 244.663C400.827 244.646 414.259 239.431 419.579 234.962C419.852 240.682 415.798 266.029 415.937 267.775Z" fill="#070208"/>
<path fill-rule="evenodd" clip-rule="evenodd" d="M419.784 232.912C414.463 237.381 401.029 242.594 392.01 242.611C381.736 242.63 325.031 235.579 316.832 234.06C311.482 233.085 298.17 231.956 290.57 230.195C296.146 227.757 312.468 225.724 324.137 225.395C337.744 225.022 372.02 230.176 375.241 229.296C378.461 228.416 387.836 225.151 393.003 225.673C398.169 226.194 418.065 230.793 419.53 231.797C419.676 231.888 419.752 232.283 419.784 232.912Z" fill="#070208"/>
<path fill-rule="evenodd" clip-rule="evenodd" d="M407.863 217.476C407.802 217.656 407.741 217.839 407.675 218.019C407.675 218.037 407.663 218.054 407.658 218.071C407.6 218.224 407.544 218.38 407.48 218.531C407.461 218.585 407.441 218.639 407.419 218.692C407.359 218.848 407.293 219.004 407.229 219.161C407.166 219.317 407.071 219.534 406.985 219.716C406.9 219.899 406.842 220.033 406.766 220.204C406.747 220.246 406.727 220.292 406.705 220.336C406.63 220.492 406.551 220.648 406.461 220.806L406.425 220.877C406.339 221.048 406.249 221.216 406.157 221.387C405.964 221.752 405.759 222.118 405.547 222.479C405.44 222.662 405.33 222.842 405.22 223.023C404.976 223.427 404.713 223.832 404.442 224.242C404.235 224.546 404.028 224.849 403.811 225.151L403.782 225.195L403.484 225.6C403.204 225.98 402.914 226.363 402.614 226.741C402.314 227.119 402.065 227.431 401.778 227.772C401.661 227.914 401.534 228.053 401.422 228.194C401.368 228.252 401.317 228.313 401.263 228.374C401.144 228.513 401.019 228.65 400.905 228.786C400.61 229.123 400.31 229.457 400 229.786L399.537 230.274L399.066 230.761C398.91 230.925 398.752 231.086 398.591 231.249C398.43 231.412 398.271 231.571 398.103 231.737C397.935 231.902 397.779 232.058 397.616 232.224C396.796 233.017 395.955 233.79 395.104 234.54L394.651 234.935C394.283 235.257 393.919 235.577 393.532 235.891C393.366 236.028 393.2 236.169 393.032 236.306C392.864 236.442 392.7 236.579 392.544 236.713C392.388 236.847 392.181 237.013 391.996 237.157L391.469 237.576C391.281 237.727 391.089 237.876 390.901 238.025C390.713 238.173 390.579 238.268 390.413 238.393L390.135 238.607C389.891 238.79 389.648 238.971 389.404 239.151L389.316 239.219L388.828 239.578C388.466 239.846 388.105 240.108 387.746 240.365L387.27 240.707C386.927 240.954 386.585 241.198 386.244 241.438C386.076 241.558 385.908 241.682 385.737 241.789C385.342 242.062 384.951 242.329 384.564 242.589L383.857 243.059L383.745 243.135L383.257 243.447C381.98 244.286 380.761 245.049 379.641 245.727C375.687 248.128 342.257 272.352 342.257 272.352C350.303 323.656 349.445 337.122 349.445 337.122C326.211 353.028 316.578 339.272 316.578 339.272L312.628 330.119L306.923 317.087C293.891 282.709 290.056 268.916 292.813 260.78C298.814 243.079 325.807 208.062 335.028 199.733C336.371 198.514 326.202 189.22 326.202 189.22L347.258 195.208L355.728 197.619L402.653 184.209C402.653 184.209 413.637 200.121 407.863 217.476Z" fill="#663E36"/>
<path fill-rule="evenodd" clip-rule="evenodd" d="M407.864 217.476C407.803 217.656 407.742 217.839 407.676 218.019C407.676 218.036 407.664 218.053 407.659 218.07C407.601 218.224 407.544 218.38 407.481 218.531C407.462 218.585 407.442 218.639 407.42 218.692C407.359 218.848 407.293 219.004 407.23 219.16C407.167 219.316 407.071 219.533 406.986 219.716C406.901 219.899 406.842 220.033 406.767 220.204C406.747 220.245 406.728 220.292 406.706 220.335C406.63 220.492 406.552 220.648 406.462 220.806L406.425 220.877C406.34 221.047 406.25 221.216 406.157 221.386C405.964 221.752 405.76 222.118 405.548 222.479C405.44 222.662 405.331 222.842 405.221 223.022C404.977 223.427 404.714 223.832 404.443 224.241C404.236 224.546 404.029 224.849 403.812 225.151L403.782 225.195L403.485 225.599C403.204 225.98 402.914 226.363 402.614 226.741C402.315 227.118 402.066 227.431 401.778 227.772C401.661 227.913 401.534 228.052 401.422 228.194C401.369 228.252 401.317 228.313 401.264 228.374C401.144 228.513 401.02 228.65 400.905 228.786C400.61 229.123 400.31 229.457 400.001 229.786L399.537 230.273L399.067 230.761C398.911 230.924 398.752 231.085 398.591 231.249C398.431 231.412 398.272 231.571 398.104 231.736C397.936 231.902 397.78 232.058 397.616 232.224C396.797 233.016 395.956 233.789 395.105 234.54L394.651 234.935C394.283 235.257 393.92 235.576 393.532 235.891C393.366 236.028 393.201 236.169 393.032 236.306C392.864 236.442 392.701 236.579 392.545 236.713C392.389 236.847 392.182 237.013 391.996 237.156L391.47 237.576C391.282 237.727 391.089 237.876 390.901 238.024C390.714 238.173 390.58 238.268 390.414 238.393L390.136 238.607C389.892 238.79 389.648 238.97 389.404 239.151L389.317 239.219L388.829 239.578C388.467 239.846 388.106 240.108 387.746 240.365L387.271 240.706C386.928 240.953 386.586 241.197 386.245 241.438C386.076 241.557 385.908 241.682 385.737 241.789C385.342 242.062 384.952 242.329 384.565 242.589L383.858 243.059L383.745 243.135L383.258 243.447C381.98 244.286 380.761 245.049 379.642 245.727C375.687 248.128 342.258 272.351 342.258 272.351C342.258 272.395 342.275 272.444 342.279 272.488C350.304 323.69 349.445 337.121 349.445 337.121C326.212 353.028 316.579 339.272 316.579 339.272L312.629 330.119C319.995 318.874 331.89 297.616 328.872 281.407C324.578 258.3 348.694 248.63 355.448 225.414C362.202 202.198 336.24 204.558 336.24 204.558C336.24 204.558 340.244 200.413 347.266 195.217L355.736 197.629L372.515 192.833L402.661 184.221C402.661 184.221 413.637 200.121 407.864 217.476Z" fill="#59302A"/>
<path fill-rule="evenodd" clip-rule="evenodd" d="M407.863 217.476C407.802 217.656 407.742 217.839 407.676 218.02C407.676 218.037 407.664 218.054 407.659 218.071C407.6 218.224 407.544 218.38 407.481 218.532C407.461 218.585 407.442 218.639 407.42 218.693C407.359 218.849 407.293 219.005 407.23 219.161C407.166 219.317 407.071 219.534 406.986 219.717C406.9 219.899 406.842 220.034 406.766 220.204C406.747 220.246 406.727 220.292 406.705 220.336C406.63 220.492 406.552 220.648 406.462 220.806L406.425 220.877C406.34 221.048 406.249 221.216 406.157 221.387C405.964 221.752 405.759 222.118 405.547 222.479C405.44 222.662 405.33 222.842 405.22 223.023C404.977 223.427 404.713 223.832 404.443 224.242C404.235 224.547 404.028 224.849 403.811 225.151L403.782 225.195L403.485 225.6C403.204 225.98 402.914 226.363 402.614 226.741C402.314 227.119 402.065 227.431 401.778 227.772C401.661 227.914 401.534 228.053 401.422 228.194C401.368 228.253 401.317 228.314 401.263 228.375C401.144 228.514 401.02 228.65 400.905 228.787C400.61 229.123 400.31 229.457 400 229.786L399.537 230.274L399.067 230.762C398.91 230.925 398.752 231.086 398.591 231.249C398.43 231.412 398.272 231.571 398.103 231.737C397.935 231.903 397.779 232.059 397.616 232.224C396.797 233.017 395.955 233.79 395.105 234.541L394.651 234.936C394.283 235.257 393.92 235.577 393.532 235.891C393.366 236.028 393.2 236.169 393.032 236.306C392.864 236.442 392.7 236.579 392.544 236.713C392.388 236.847 392.181 237.013 391.996 237.157L391.469 237.576C391.281 237.727 391.089 237.876 390.901 238.025C390.713 238.174 390.579 238.269 390.413 238.393L390.136 238.608C389.892 238.79 389.648 238.971 389.404 239.151L389.316 239.22L388.829 239.578C388.466 239.846 388.105 240.109 387.746 240.365L387.271 240.707C386.928 240.954 386.586 241.198 386.244 241.438C386.076 241.558 385.908 241.682 385.737 241.789C385.342 242.062 384.951 242.329 384.564 242.589L383.857 243.06L383.745 243.135L383.257 243.447C381.98 244.286 380.761 245.049 379.642 245.727C375.687 248.129 342.257 272.352 342.257 272.352C339.643 254.858 380.432 243.503 380.712 224.427C380.992 205.351 358.181 202.881 358.181 202.881C358.181 202.881 362.74 198.904 372.464 192.863L391.525 187.418L402.609 184.249C402.609 184.249 413.637 200.121 407.863 217.476Z" fill="#42211D"/>
<path fill-rule="evenodd" clip-rule="evenodd" d="M407.863 217.475C400.78 204.726 372.021 202.28 372.021 202.28C372.021 202.28 381.182 194.624 391.554 187.376L402.638 184.206C402.638 184.206 413.636 200.12 407.863 217.475Z" fill="#27140E"/>
<path fill-rule="evenodd" clip-rule="evenodd" d="M300.34 199.435C300.34 199.435 296.634 209.816 329.62 205.347C362.606 200.878 410.447 202.097 410.447 202.097C410.447 202.097 407.746 186.227 403.055 186.127C398.364 186.027 300.057 188.387 300.34 199.435Z" fill="white"/>
<path fill-rule="evenodd" clip-rule="evenodd" d="M171.238 226.846C173.99 219.651 177.089 212.341 182.551 206.899C188.012 201.457 203.246 197.305 203.595 200.933C203.629 204.754 182.685 199.09 170.76 234.387C165.937 248.658 159.637 265.157 155.307 279.837C160.366 262.036 164.591 244.225 171.238 226.846Z" fill="white"/>
<path fill-rule="evenodd" clip-rule="evenodd" d="M409.424 194.472C409.424 194.472 393.703 189.288 371.784 195.986C349.864 202.684 312.78 199.439 302.744 194.886C302.744 194.886 300.504 186.302 294.757 171.724C293.313 168.067 291.651 164.029 289.746 159.655C280.252 137.846 271.092 113.673 274.364 103.945C274.364 103.945 273.971 103.572 278.524 100.266C283.076 96.9598 288.176 95.2482 288.176 95.2482C288.176 95.2482 288.374 101.431 290.002 107.439C291.234 111.986 293.284 116.433 296.688 118.013C304.59 121.671 308.674 113.332 310.759 103.66C312.577 95.2482 326.672 85.1298 330.31 82.6258C330.852 82.2528 331.159 82.0529 331.159 82.0529C331.159 82.0529 345.398 82.6112 356.674 85.5248L356.94 85.5931C358.931 86.1001 360.885 86.7387 362.792 87.5046L363.379 87.7484C363.379 87.7484 367.146 123.785 374.704 129.512C382.263 135.239 392.576 139.996 396.621 154.915C400.666 169.834 408.054 187.204 409.424 194.472Z" fill="#6D378F"/>
<path fill-rule="evenodd" clip-rule="evenodd" d="M409.425 194.472C409.425 194.472 393.704 189.288 371.784 195.986C349.865 202.684 312.781 199.439 302.745 194.886C302.745 194.886 300.505 186.302 294.758 171.724C338.969 164.873 341.758 121.741 341.841 105.045C341.924 88.3482 354.993 85.103 356.682 85.5175L356.948 85.5858C358.238 85.9417 361.022 86.8853 362.8 87.4973L363.387 87.7411C363.387 87.7411 365.47 107.668 369.644 120.244C371.082 124.582 372.772 128.046 374.71 129.509C382.269 135.242 392.582 139.994 396.627 154.913C398.773 162.817 401.85 171.407 404.475 178.821C406.806 185.402 408.781 191.054 409.425 194.472Z" fill="#582279"/>
<path fill-rule="evenodd" clip-rule="evenodd" d="M404.476 178.824C386.258 186.626 366.58 187.921 340.704 192.995C308.493 199.312 304.992 195.874 302.12 190.193C299.247 184.512 354.711 150.626 357 144.575C359.29 138.523 350.773 122.268 350.773 122.268C350.773 122.268 358.558 121.307 369.645 120.254C371.083 124.592 372.773 128.056 374.711 129.519C382.269 135.251 392.583 140.003 396.628 154.922C398.773 162.82 401.85 171.409 404.476 178.824Z" fill="#42115F"/>
<path fill-rule="evenodd" clip-rule="evenodd" d="M279.045 189.647C280.525 189.752 310.59 201.107 311.636 200.456C312.682 199.805 313.735 193.412 312.701 193.314C311.668 193.217 280.774 182.76 280.774 182.76L279.045 189.647Z" fill="#070208"/>
<path fill-rule="evenodd" clip-rule="evenodd" d="M312.353 200.563C314.139 200.491 315.522 198.826 315.442 196.842C315.362 194.859 313.85 193.31 312.065 193.381C310.279 193.453 308.897 195.119 308.976 197.102C309.056 199.085 310.568 200.635 312.353 200.563Z" fill="#070208"/>
<path fill-rule="evenodd" clip-rule="evenodd" d="M327.513 179.782C326.554 183.225 320.079 187.94 320.079 187.94C320.079 187.94 317.784 191.156 314.361 192.453C313.459 192.794 310.899 193.428 310.126 193.443C307.371 193.494 304.706 196.656 308.448 199.733C308.448 199.733 307.473 201.684 305.866 202.313C304.26 202.942 302.119 203.183 300.156 201.55C300.156 201.55 296.458 203.303 294.792 201.767C294.792 201.767 291.606 202.12 289.099 199.085C289.099 199.085 285.625 198.795 284.537 195.823C284.008 194.36 285.895 184.344 286.754 183.902C287.612 183.461 290.24 180.245 312.293 177.105C313.233 176.97 314.208 176.837 315.219 176.707C318.633 176.256 321.188 176.144 323.073 176.288C327.054 176.595 328.003 178.022 327.513 179.782Z" fill="#FED194"/>
<path d="M300.152 201.551C300.152 201.551 300.503 195.212 302 192.286" stroke="#F59D4E" stroke-width="3"/>
<path d="M294.777 201.766C294.777 201.766 295.494 189.795 296.647 189.331" stroke="#F59D4E" stroke-width="3"/>
<path d="M289.084 199.097C289.084 199.097 288.274 189.118 291.814 187.043" stroke="#F59D4E" stroke-width="3"/>
<path fill-rule="evenodd" clip-rule="evenodd" d="M327.509 179.783C326.551 183.226 320.075 187.942 320.075 187.942C320.075 187.942 317.781 191.157 314.358 192.455C313.456 192.796 310.896 193.43 310.123 193.444C310.123 193.444 304.703 196.658 308.445 199.735C308.445 199.735 307.47 201.685 305.863 202.315C305.863 202.315 305.885 199.589 305.885 197.777C305.885 188.107 315.372 190.18 316.957 185.698C318.542 181.217 312.212 177.272 312.212 177.272C312.212 177.272 312.232 177.216 312.278 177.118C313.218 176.984 314.193 176.851 315.204 176.721C318.617 176.27 321.173 176.158 323.057 176.302C323.767 176.704 324.52 177.182 325.315 177.743C326.141 178.314 326.88 179.001 327.509 179.783Z" fill="#F59D4E"/>
<path fill-rule="evenodd" clip-rule="evenodd" d="M427.138 149.662C426.975 150.621 426.679 151.553 426.26 152.431C416.72 172.366 359.274 186.322 349.599 186.861C339.925 187.4 337.552 183.252 337.552 183.252C337.35 183.34 324.411 189.06 321.751 189.379C319.091 189.699 320.078 187.938 320.078 187.938C321.241 176.691 312.215 177.269 312.215 177.269C312.215 177.269 311.935 177.074 311.727 176.125C311.665 175.835 311.62 175.541 311.593 175.245C311.415 173.539 327.593 166.092 327.593 166.092C327.593 162.377 333.476 159.553 340.946 156.508C348.417 153.463 369.692 144.054 369.692 144.054L369.634 144C369.168 143.593 365.977 140.75 362.012 136.503C353.496 127.384 341.407 111.787 345.082 99.8936C346.991 93.7153 349.768 90.353 352.581 88.6024C357.914 85.2841 363.387 87.7393 363.387 87.7393C377.083 91.3941 430.734 128.942 427.138 149.662Z" fill="white"/>
<path opacity="0.76" fill-rule="evenodd" clip-rule="evenodd" d="M369.635 144.003C369.17 143.596 365.978 140.753 362.014 136.506C353.497 127.387 341.409 111.79 345.083 99.8964C346.992 93.7181 349.769 90.3558 352.583 88.6052C352.583 88.6052 343.562 99.5282 348.219 110.975C352.875 122.423 379.727 137.222 393.4 136.649C403.092 136.242 382.47 141.126 369.635 144.003Z" fill="#D2D7DB"/>
<path fill-rule="evenodd" clip-rule="evenodd" d="M401.863 140.429C384.064 139.636 369.694 144.052 369.694 144.052C369.694 144.052 366.307 141.099 362.014 136.494C371.137 141.043 385.642 134.826 395.904 137.006C406.166 139.185 401.863 140.429 401.863 140.429Z" fill="#AEB6B7"/>
<path fill-rule="evenodd" clip-rule="evenodd" d="M337.554 183.251C337.554 183.251 333.989 170.504 328.935 168.051C328.935 168.051 327.331 167.469 329.859 171.389C332.387 175.31 328.152 187.211 328.152 187.211L337.554 183.251Z" fill="#AEB6B7"/>
<path fill-rule="evenodd" clip-rule="evenodd" d="M321.748 189.38C319.066 189.705 320.075 187.939 320.075 187.939C321.238 176.692 312.212 177.27 312.212 177.27C312.212 177.27 311.932 177.075 311.725 176.127C323.559 174.096 321.748 189.38 321.748 189.38Z" fill="#AEB6B7"/>
<path opacity="0.76" fill-rule="evenodd" clip-rule="evenodd" d="M427.14 149.66C426.977 150.62 426.682 151.552 426.263 152.43C416.722 172.365 359.276 186.321 349.602 186.86C339.927 187.398 337.555 183.251 337.555 183.251C337.555 183.251 347.59 183.661 361.081 176.302C373.822 169.353 403.892 168.171 427.14 149.66Z" fill="#D2D7DB"/>
<path fill-rule="evenodd" clip-rule="evenodd" d="M452.567 380.908C451.228 381.798 398.88 388.001 380.836 389.366C373.38 375.993 373.348 355.548 375.557 342.343C377.751 329.267 383.444 316.292 393.77 307.98C403.406 300.222 416.072 297.739 428.341 299.539C445.776 310.333 452.123 330.06 452.93 344.282C453.917 361.702 454.1 379.894 452.567 380.908Z" fill="#EE9800"/>
<path fill-rule="evenodd" clip-rule="evenodd" d="M277.884 183.853C276.987 183.466 276.28 186.811 277.102 187.099C277.923 187.386 299.564 192.526 300.452 193.277C301.413 194.086 303.722 195.227 304.27 192.953C304.758 190.934 303.153 189.832 301.122 190.5C296.195 189.573 279.013 184.343 277.884 183.853Z" fill="#060B31"/>
<path fill-rule="evenodd" clip-rule="evenodd" d="M336.254 82.3873C336.254 82.3873 323.132 113.923 315.917 119.384C308.703 124.846 290.365 123.21 290.002 107.437C291.233 111.984 293.284 116.432 296.687 118.011C304.59 121.669 308.673 113.33 310.758 103.658C312.577 95.2463 328.588 84.6085 332.226 82.1118C332.231 82.0996 336.254 82.3873 336.254 82.3873Z" fill="#582279"/>
<path fill-rule="evenodd" clip-rule="evenodd" d="M322.436 79.0706C322.436 79.0706 308.314 96.4206 299.057 103.257C299.057 103.257 310.916 104.881 316.231 116.462C316.231 116.462 317.028 121.053 320.503 107.241C323.977 93.429 334.861 81.5234 334.861 81.5234C334.861 81.5234 324.982 78.5488 322.436 79.0706Z" fill="white"/>
<path fill-rule="evenodd" clip-rule="evenodd" d="M299.057 103.257L290.975 90.6544C290.975 90.6544 283.948 95.8404 283.692 96.172C280.993 99.6903 284.404 113.971 285.589 112.193C286.774 110.416 290.372 101.419 299.057 103.257Z" fill="white"/>
<path fill-rule="evenodd" clip-rule="evenodd" d="M409.279 202.148C409.314 202.33 409.348 202.511 409.382 202.696C409.348 202.513 409.31 202.33 409.276 202.15L409.279 202.148Z" fill="#42211D"/>
<path fill-rule="evenodd" clip-rule="evenodd" d="M266.744 83.2573C263.617 80.7726 261.446 77.2831 260.597 73.3803C258.598 64.264 254.47 43.3591 257.138 37.0808C260.583 28.969 263.799 28.6253 274.205 27.572C284.611 26.5187 295.805 26.2724 300.761 34.3671C305.718 42.4619 300.01 74.5774 313.23 76.5231C326.45 78.4688 327.53 62.4841 327.53 62.4841C327.53 62.4841 314.608 17.2219 305.374 15.1154C296.141 13.0088 284.006 11.4581 276.341 13.6988C268.675 15.9395 257.047 20.5061 255.372 21.9739C253.697 23.4417 245.132 30.1418 246.595 50.3347C248.058 70.5276 250.216 86.8146 264.026 84.6446C264.026 84.6446 265.857 84.3496 267.098 83.5206C267.071 83.5085 266.951 83.4231 266.744 83.2573Z" fill="black"/>
<path fill-rule="evenodd" clip-rule="evenodd" d="M330.56 63.4156C329.126 68.6138 326.644 71.1983 324.401 71.8005C324.401 71.8005 314.341 74.819 312.744 51.2004C311.147 27.5819 301.804 11.9069 260.492 21.5425C260.492 21.5425 249.298 24.0392 246.631 40.9503C246.631 40.9503 246.387 37.6978 247.362 32.9044C247.776 30.8547 248.347 28.8397 249.069 26.8772C249.298 26.2555 249.556 25.624 249.82 24.9852C252.519 18.646 257.444 11.5168 266.424 5.69197C287.838 -8.2056 322.277 4.41436 328.88 31.9413C329.109 32.8971 329.323 33.8341 329.521 34.7525C332.466 48.2673 332.186 57.5323 330.56 63.4156Z" fill="#6D378F"/>
<path fill-rule="evenodd" clip-rule="evenodd" d="M330.56 63.4149C329.126 68.6131 326.644 71.1976 324.401 71.7998C324.401 71.7998 314.341 74.8183 312.744 51.1997C311.147 27.5811 301.804 11.9062 260.492 21.5418C260.492 21.5418 249.298 24.0385 246.631 40.9496C246.631 40.9496 246.387 37.6971 247.362 32.9037C247.776 30.854 248.347 28.839 249.069 26.8765C249.209 26.2076 249.463 25.5676 249.82 24.9845C251.19 22.5683 254.989 18.4648 265.346 16.3997C280.575 13.3617 298.783 12.1451 307.419 21.9782C314.463 29.9974 323.899 41.3592 329.521 34.7518C332.466 48.2666 332.186 57.5316 330.56 63.4149Z" fill="#42115F"/>
<path fill-rule="evenodd" clip-rule="evenodd" d="M288.431 27.3545C288.431 27.3545 277.783 28.2786 273.402 34.4862C269.02 40.6937 254.747 38.3458 255.235 32.6283C255.693 27.0351 261.933 24.2653 288.431 27.3545Z" fill="#72120C"/>
<path fill-rule="evenodd" clip-rule="evenodd" d="M330.56 63.4162C329.126 68.6144 326.644 71.1988 324.401 71.8011C324.401 71.8011 314.341 74.8195 312.744 51.201C311.147 27.5824 301.804 11.9074 260.492 21.5431C260.492 21.5431 249.298 24.0397 246.631 40.9509C246.631 40.9509 245.124 38.7005 247.362 32.9049C249.593 27.1118 251.427 19.8363 269.998 17.5688C288.57 15.3013 301.175 15.8841 308.836 27.2289C316.497 38.5737 313.549 61.6388 319.905 67.0393C324.262 70.738 328.397 66.4639 330.56 63.4162Z" fill="white"/>
<path fill-rule="evenodd" clip-rule="evenodd" d="M326.289 133.722C326.289 133.722 327.386 134.941 330.085 135.078C332.784 135.214 345.265 135.946 346.453 134.061C347.916 131.759 346.718 128.16 344.366 128.543C342.013 128.926 326.289 133.722 326.289 133.722Z" fill="#42115F"/>
<path fill-rule="evenodd" clip-rule="evenodd" d="M326.076 128.873L344.689 128.126L344.885 133.02L326.273 133.768L326.076 128.873Z" fill="white"/>
<path fill-rule="evenodd" clip-rule="evenodd" d="M173.066 174.639C172.2 174.575 170.979 175.646 167.636 175.838C164.293 176.031 159.4 176.57 151.905 175.643C149.328 175.329 146.083 174.848 145.541 174.704C145.541 173.454 142.698 172.786 142.26 174.909C141.821 177.033 144.349 177.701 145.429 176.372C145.805 176.372 149.879 177.104 152.154 177.379C159.224 178.22 167.575 178.015 169.019 177.979C170.462 177.942 173.963 177.52 173.78 177.491C173.597 177.462 173.066 174.639 173.066 174.639Z" fill="#060B31"/>
<path d="M382.347 212.743C382.347 212.743 327.315 250.096 328.154 275.138C328.971 299.52 341.883 333.516 341.883 333.516" stroke="white" stroke-width="4" stroke-linecap="round"/>
<path fill-rule="evenodd" clip-rule="evenodd" d="M0.913159 187.562C6.86229 224.407 53.841 236.447 76.7671 206.996C93.7928 185.126 108.951 153.127 94.2951 117.467C67.1704 51.5189 -7.74234 129.077 0.652275 185.877C0.738424 186.446 0.825385 187.007 0.913159 187.562Z" fill="#F6F2FF"/>
<path fill-rule="evenodd" clip-rule="evenodd" d="M262.399 58.954C263.142 58.954 263.744 57.8319 263.744 56.4476C263.744 55.0633 263.142 53.9412 262.399 53.9412C261.655 53.9412 261.053 55.0633 261.053 56.4476C261.053 57.8319 261.655 58.954 262.399 58.954Z" fill="#72120C"/>
<path fill-rule="evenodd" clip-rule="evenodd" d="M280.178 58.0934C280.921 58.0934 281.524 56.9713 281.524 55.587C281.524 54.2027 280.921 53.0806 280.178 53.0806C279.435 53.0806 278.832 54.2027 278.832 55.587C278.832 56.9713 279.435 58.0934 280.178 58.0934Z" fill="#72120C"/>
<path fill-rule="evenodd" clip-rule="evenodd" d="M277.447 45.912C277.303 45.539 277.722 45.1659 278.088 45.0001C279.246 44.4784 282.206 43.469 283.552 45.9998C284.662 48.0844 283.552 47.7601 283.347 47.4383C283.035 46.9385 282.257 45.9022 281.531 45.595C279.858 44.8807 277.779 46.7654 277.447 45.912Z" fill="#72120C"/>
<path fill-rule="evenodd" clip-rule="evenodd" d="M257.643 49.4509C257.336 49.1949 257.521 48.6658 257.76 48.344C258.524 47.3273 260.623 45.011 263.027 46.5714C265.007 47.8588 263.878 48.1148 263.544 47.9295C263.029 47.6442 261.837 47.1152 261.062 47.198C259.248 47.3858 258.346 50.0385 257.643 49.4509Z" fill="#72120C"/>
<path fill-rule="evenodd" clip-rule="evenodd" d="M269.202 55.7107C269.405 57.1839 269.486 58.6713 269.446 60.1579C269.446 60.8893 269.388 61.6208 269.353 62.3693C269.319 63.1178 269.217 63.8322 269.11 64.5856C269.049 64.9586 268.988 65.317 268.898 65.7267C268.88 65.8144 268.839 65.951 268.8 66.0753L268.771 66.1704L268.756 66.2167C268.756 66.2167 268.741 66.2606 268.756 66.2387C268.772 66.1999 268.78 66.1586 268.78 66.1168C268.782 66.0679 268.775 66.0191 268.759 65.9729C268.759 65.951 268.759 65.9388 268.741 65.9241C268.724 65.9095 268.72 65.8925 268.722 65.89C268.724 65.8876 268.698 65.8656 268.705 65.8729L268.72 65.8876C268.8 65.9619 268.89 66.0243 268.988 66.0729C269.123 66.1415 269.262 66.2018 269.405 66.2533C269.705 66.3606 270.031 66.4605 270.363 66.5483C271.765 66.8718 273.191 67.0789 274.627 67.1676L274.644 67.2651C273.189 67.5166 271.702 67.5331 270.241 67.3139C269.874 67.257 269.512 67.1756 269.156 67.0701C268.789 66.9755 268.443 66.8143 268.134 66.5946C267.957 66.474 267.848 66.2754 267.842 66.0607C267.844 66.0049 267.854 65.9497 267.873 65.8973L267.91 65.7681C267.937 65.6843 267.959 65.5987 267.976 65.5121C268.049 65.1586 268.1 64.7953 268.154 64.4344C268.361 62.9715 268.517 61.5257 268.668 60.0677L269.097 55.679L269.202 55.7107Z" fill="#F59D4E"/>
<path fill-rule="evenodd" clip-rule="evenodd" d="M269.975 75.4675C273.249 75.3358 278.896 74.4922 283.304 70.6033C283.365 70.5407 283.466 70.5396 283.528 70.6009C283.591 70.6622 283.592 70.7626 283.531 70.8252C281.156 73.5535 276.319 77.7447 269.897 76.2965C269.689 76.2513 269.548 76.0586 269.568 75.8474C269.588 75.6363 269.763 75.4732 269.975 75.4675Z" fill="#F59D4E"/>
<path fill-rule="evenodd" clip-rule="evenodd" d="M284.765 60.6072C285.099 60.6072 285.369 60.3364 285.369 60.0025C285.369 59.6685 285.099 59.3978 284.765 59.3978C284.431 59.3978 284.16 59.6685 284.16 60.0025C284.16 60.3364 284.431 60.6072 284.765 60.6072Z" fill="#F59D4E"/>
<path fill-rule="evenodd" clip-rule="evenodd" d="M263.007 62.7323C263.341 62.7323 263.612 62.4616 263.612 62.1276C263.612 61.7937 263.341 61.5229 263.007 61.5229C262.673 61.5229 262.402 61.7937 262.402 62.1276C262.402 62.4616 262.673 62.7323 263.007 62.7323Z" fill="#F59D4E"/>
<path fill-rule="evenodd" clip-rule="evenodd" d="M287.214 61.18C287.451 61.18 287.643 60.9879 287.643 60.7509C287.643 60.5139 287.451 60.3218 287.214 60.3218C286.977 60.3218 286.785 60.5139 286.785 60.7509C286.785 60.9879 286.977 61.18 287.214 61.18Z" fill="#F59D4E"/>
<path fill-rule="evenodd" clip-rule="evenodd" d="M259.359 61.0361C259.596 61.0361 259.788 60.844 259.788 60.607C259.788 60.37 259.596 60.1779 259.359 60.1779C259.122 60.1779 258.93 60.37 258.93 60.607C258.93 60.844 259.122 61.0361 259.359 61.0361Z" fill="#F59D4E"/>
<path fill-rule="evenodd" clip-rule="evenodd" d="M260.56 66.3333C260.797 66.3333 260.989 66.1412 260.989 65.9042C260.989 65.6672 260.797 65.4751 260.56 65.4751C260.323 65.4751 260.131 65.6672 260.131 65.9042C260.131 66.1412 260.323 66.3333 260.56 66.3333Z" fill="#F59D4E"/>
<path fill-rule="evenodd" clip-rule="evenodd" d="M287.214 59.0999C287.451 59.0999 287.643 58.9078 287.643 58.6708C287.643 58.4338 287.451 58.2417 287.214 58.2417C286.977 58.2417 286.785 58.4338 286.785 58.6708C286.785 58.9078 286.977 59.0999 287.214 59.0999Z" fill="#F59D4E"/>
<path fill-rule="evenodd" clip-rule="evenodd" d="M282.57 63.0781C282.903 63.0781 283.174 62.8074 283.174 62.4734C283.174 62.1395 282.903 61.8688 282.57 61.8688C282.236 61.8688 281.965 62.1395 281.965 62.4734C281.965 62.8074 282.236 63.0781 282.57 63.0781Z" fill="#F59D4E"/>
<path fill-rule="evenodd" clip-rule="evenodd" d="M285.91 64.1894C286.336 64.1894 286.683 63.8433 286.683 63.4165C286.683 62.9896 286.336 62.6436 285.91 62.6436C285.483 62.6436 285.137 62.9896 285.137 63.4165C285.137 63.8433 285.483 64.1894 285.91 64.1894Z" fill="#F59D4E"/>
<path fill-rule="evenodd" clip-rule="evenodd" d="M260.56 63.8529C260.987 63.8529 261.333 63.5069 261.333 63.08C261.333 62.6532 260.987 62.3071 260.56 62.3071C260.133 62.3071 259.787 62.6532 259.787 63.08C259.787 63.5069 260.133 63.8529 260.56 63.8529Z" fill="#F59D4E"/>
<path fill-rule="evenodd" clip-rule="evenodd" d="M288.904 62.8993C289.331 62.8993 289.677 62.5533 289.677 62.1264C289.677 61.6996 289.331 61.3535 288.904 61.3535C288.477 61.3535 288.131 61.6996 288.131 62.1264C288.131 62.5533 288.477 62.8993 288.904 62.8993Z" fill="#F59D4E"/>
<path d="M408.297 379.223L439.079 376.149" stroke="#070208" stroke-width="5" stroke-linecap="round"/>
<path d="M408.297 375.409L439.079 372.335" stroke="#070208" stroke-width="5" stroke-linecap="round"/>
<path d="M408.297 371.593L439.079 368.519" stroke="#070208" stroke-width="5" stroke-linecap="round"/>
<path fill-rule="evenodd" clip-rule="evenodd" d="M427.315 407.372C427.299 409.553 427.158 411.73 426.893 413.894C426.632 416.06 426.291 418.217 425.85 420.358C425.409 422.499 424.875 424.62 424.272 426.722C423.67 428.823 422.924 430.888 422.127 432.927L421.498 434.446L420.822 435.945C420.605 436.45 420.354 436.938 420.115 437.43C419.876 437.923 419.642 438.405 419.369 438.893L418.582 440.336L417.743 441.753C417.472 442.241 417.163 442.684 416.868 443.145C416.573 443.606 416.273 444.067 415.944 444.506C414.689 446.303 413.303 448.005 411.799 449.599L410.641 450.762C410.453 450.959 410.248 451.14 410.046 451.323L409.434 451.871C408.641 452.62 407.751 453.259 406.9 453.934L408.066 452.793C408.258 452.603 408.461 452.422 408.646 452.222L409.2 451.628L409.755 451.035C409.941 450.838 410.129 450.645 410.299 450.435L411.35 449.202C411.528 448.999 411.696 448.787 411.862 448.573L412.35 447.934L412.837 447.297C413.006 447.085 413.152 446.858 413.31 446.641L414.251 445.327L415.137 443.974C416.299 442.163 417.364 440.291 418.328 438.366C419.303 436.44 420.201 434.487 420.978 432.476C422.571 428.462 423.884 424.343 424.906 420.148C425.961 415.941 426.765 411.675 427.315 407.372Z" fill="#070208"/>
<path fill-rule="evenodd" clip-rule="evenodd" d="M71.9877 477.36C72.4095 478.755 72.9215 480.164 73.4506 481.541C73.9797 482.919 74.5844 484.289 75.2158 485.635C76.4744 488.333 77.9273 490.936 79.5631 493.423C80.3896 494.659 81.2698 495.861 82.1988 497.024C83.1403 498.179 84.1422 499.283 85.2002 500.332C86.2743 501.368 87.4145 502.333 88.6136 503.222C89.8306 504.09 91.1146 504.859 92.4537 505.523C91.0886 504.903 89.7752 504.175 88.5258 503.346C87.2908 502.491 86.1131 501.556 85.0002 500.547C83.8965 499.524 82.8474 498.445 81.8574 497.312C80.8822 496.17 79.9508 494.983 79.0706 493.762C77.3305 491.301 75.7716 488.717 74.4064 486.03C73.7188 484.689 73.0751 483.327 72.4753 481.944C71.878 480.554 71.3148 479.167 70.8223 477.711L71.9877 477.36Z" fill="#070208"/>
<path fill-rule="evenodd" clip-rule="evenodd" d="M69.5641 469.248C69.106 465.873 68.8253 462.476 68.7229 459.071C68.6035 455.678 68.6132 452.281 68.779 448.895L68.8351 447.624L68.9229 446.356C68.9863 445.51 69.0277 444.664 69.1082 443.821C69.2813 442.134 69.4227 440.446 69.6641 438.769C70.0688 435.404 70.7125 432.076 71.4074 428.772C70.8125 432.103 70.2712 435.441 69.9688 438.808C69.7762 440.488 69.686 442.175 69.5641 443.857C69.5105 444.701 69.4934 445.545 69.4544 446.388L69.4056 447.651L69.3886 448.919C69.3227 452.291 69.4178 455.668 69.6324 459.03C69.8325 462.385 70.2085 465.728 70.7588 469.044L69.5641 469.248Z" fill="#070208"/>
<path d="M456.973 159.986C456.762 159.986 456.552 159.996 456.292 160.016L456.021 160.036L456.352 161.618L457.043 165.193L459.576 163.21C461.959 164.262 463.551 166.665 463.551 169.228C463.551 172.803 460.597 175.717 456.973 175.717C453.398 175.717 450.484 172.803 450.484 169.228V155H447.721V162.66C446.048 160.957 443.715 159.986 441.232 159.986C436.145 159.986 432 164.132 432 169.218C432 174.305 436.145 178.45 441.232 178.45C441.492 178.45 441.763 178.44 442.063 178.41L442.293 178.39L441.362 173.213L438.789 175.226C436.316 174.235 434.663 171.832 434.663 169.218C434.663 165.654 437.677 162.64 441.242 162.64C442.974 162.64 444.606 163.331 445.838 164.582C447.08 165.834 447.751 167.476 447.731 169.208C447.68 172.933 450.034 175.276 450.124 175.366C451.896 177.319 454.389 178.44 456.983 178.44C462.069 178.44 466.215 174.295 466.215 169.208C466.215 164.122 462.069 159.986 456.973 159.986Z" fill="white"/>
</svg>
