<svg width="492" height="504" viewBox="0 0 492 504" fill="none" xmlns="http://www.w3.org/2000/svg">
<path fill-rule="evenodd" clip-rule="evenodd" d="M0.0244751 293.904V294.445C0.0244751 294.529 0.0244751 294.612 0.0244751 294.684C0.0244751 295.019 0.0244751 295.361 0.0244751 295.701V295.747C0.0244751 295.893 0.0244751 296.036 0.0244751 296.182C0.0244751 296.558 0.0388184 296.929 0.0507812 297.302C0.0507812 297.5 0.0508118 297.699 0.0675659 297.898C0.0843201 298.096 0.0675354 298.271 0.0842896 298.457C0.0842896 298.776 0.105835 299.096 0.120178 299.414C0.120178 299.465 0.120178 299.517 0.120178 299.568C0.120178 299.618 0.120178 299.623 0.120178 299.649C0.139313 300.113 0.163239 300.575 0.187164 301.039L0.203949 301.398C0.220673 301.711 0.242218 302.027 0.261353 302.341C0.280487 302.654 0.29483 302.92 0.313965 303.207C0.382568 304.272 0.462341 305.332 0.553284 306.387C0.653748 307.53 0.765381 308.667 0.888214 309.796C0.972748 310.547 1.06049 311.298 1.1514 312.048L1.29495 313.172C1.51508 314.847 1.75433 316.51 2.01276 318.161C2.10367 318.708 2.19543 319.254 2.28793 319.8C2.35016 320.164 2.41235 320.518 2.47696 320.891C2.60855 321.609 2.74014 322.327 2.87891 323.044C3.08469 324.119 3.29919 325.186 3.52252 326.243C3.67087 326.961 3.82401 327.648 3.97955 328.349C4.21881 329.397 4.45807 330.43 4.69733 331.459C5.11206 333.176 5.54431 334.865 5.99414 336.527C6.35303 337.859 6.72229 339.172 7.10193 340.468C7.29016 341.106 7.48157 341.744 7.67618 342.382C8.25519 344.296 8.85095 346.165 9.46347 347.988C9.76654 348.899 10.0744 349.797 10.3871 350.682C11.6264 354.228 12.9065 357.582 14.177 360.709C14.39 361.226 14.6005 361.741 14.811 362.248C14.9163 362.504 15.0216 362.755 15.1293 363.009C15.3367 363.508 15.5464 364.003 15.7586 364.492C16.2834 365.714 16.801 366.894 17.3114 368.033L17.9215 369.373C18.7278 371.137 19.5126 372.785 20.2615 374.314C20.6348 375.075 20.9993 375.806 21.355 376.508C21.6206 377.034 21.8766 377.544 22.1326 378.035C22.2921 378.354 22.4572 378.673 22.6278 378.992L22.8671 379.451C23.0251 379.755 23.183 380.049 23.3337 380.332C23.5729 380.76 23.7811 381.169 23.994 381.557C24.1376 381.815 24.274 382.066 24.4056 382.308C24.6042 382.672 24.798 383.026 24.9774 383.334C25.2167 383.765 25.4408 384.159 25.6497 384.516C25.8029 384.784 25.9465 385.031 26.0781 385.256C26.1642 385.406 26.2479 385.545 26.3173 385.677C26.358 385.741 26.3939 385.806 26.4298 385.868L26.6331 386.201C26.937 386.71 27.1117 386.974 27.1117 386.974C51.8421 424.258 90.6509 457.751 137.018 479.141C141.76 481.328 146.578 483.385 151.472 485.314C171.893 493.351 193.564 499.024 215.988 501.689C224.818 502.765 233.701 503.355 242.596 503.457C247.086 503.5 251.596 503.421 256.124 503.218C276.787 502.252 297.235 498.601 316.955 492.355C352.287 481.184 387.644 461.112 421.299 429.946C421.681 429.594 422.057 429.242 422.435 428.886C422.971 428.388 423.5 427.883 424.026 427.381L424.311 427.105C424.807 426.627 425.3 426.148 425.79 425.67L425.806 425.651C425.983 425.476 426.16 425.306 426.335 425.129C426.574 424.909 426.785 424.687 427.007 424.466C427.23 424.246 427.381 424.096 427.565 423.909C427.859 423.617 428.146 423.323 428.436 423.033C428.613 422.856 428.785 422.677 428.96 422.5C429.367 422.087 429.773 421.671 430.178 421.253C430.599 420.813 431.022 420.373 431.441 419.93C431.551 419.815 431.661 419.691 431.766 419.588L432.221 419.109C432.523 418.791 432.819 418.473 433.118 418.152C433.243 418.021 433.358 417.887 433.489 417.753L434.295 416.877L434.346 416.822C434.37 416.796 434.398 416.764 434.422 416.733C434.719 416.414 435.013 416.095 435.305 415.776L435.65 415.391C436.004 414.996 436.368 414.602 436.707 414.195C436.798 414.097 436.884 413.994 436.97 413.898L437.313 413.508C437.648 413.125 437.98 412.742 438.31 412.36C438.447 412.204 438.583 412.046 438.715 411.881C439.045 411.501 439.371 411.119 439.693 410.735L439.863 410.534L439.971 410.407L440.248 410.077C440.442 409.85 440.631 409.625 440.82 409.395C440.863 409.345 440.906 409.29 440.949 409.237L441.208 408.926L442.251 407.665L443.098 406.615L443.842 405.686L444.266 405.151L444.658 404.655L444.682 404.622C444.972 404.258 445.256 403.904 445.536 403.526C445.704 403.315 445.869 403.102 446.031 402.889C446.378 402.437 446.723 401.987 447.067 401.533L447.331 401.181C447.546 400.896 447.759 400.614 447.972 400.327C448.041 400.231 448.115 400.14 448.185 400.045L448.261 399.942C448.649 399.42 449.029 398.901 449.41 398.379L449.424 398.358L449.527 398.219C449.881 397.741 450.231 397.248 450.575 396.762L450.814 396.408C451.111 395.994 451.403 395.578 451.697 395.159L451.937 394.812L452.176 394.465L452.791 393.577L452.915 393.393C453.245 392.915 453.575 392.436 453.903 391.941L454.442 391.132L454.882 390.474C454.915 390.424 454.949 390.369 454.98 390.318C455.011 390.268 455.059 390.204 455.095 390.146L455.525 389.491L455.777 389.103L456.03 388.718L456.164 388.507C456.475 388.029 456.786 387.536 457.093 387.053C457.44 386.507 457.784 385.957 458.126 385.409L458.236 385.232C458.425 384.927 458.613 384.622 458.801 384.315C458.957 384.062 459.112 383.81 459.265 383.557C459.894 382.52 460.513 381.483 461.122 380.446L461.143 380.411L462.067 378.815C462.067 378.8 462.081 378.791 462.086 378.779C462.325 378.367 462.565 377.956 462.79 377.544L463.029 377.102C463.244 376.719 463.46 376.331 463.672 375.946C463.751 375.809 463.828 375.671 463.912 375.534C464.041 375.295 464.168 375.056 464.295 374.816C464.515 374.419 464.73 374.017 464.943 373.62C465 373.515 465.06 373.407 465.115 373.302C465.266 373.022 465.414 372.74 465.563 372.455L465.776 372.053L465.797 372.015C465.945 371.737 466.089 371.457 466.235 371.177C466.381 370.897 466.527 370.615 466.67 370.33C466.67 370.302 466.699 370.273 466.716 370.242L466.869 369.947C466.95 369.792 467.027 369.634 467.108 369.469C467.252 369.184 467.398 368.899 467.539 368.615L467.678 368.342L468.396 366.906L469.231 365.188C469.499 364.631 469.764 364.071 470.027 363.514C470.082 363.399 470.137 363.274 470.188 363.169C470.274 362.978 470.362 362.791 470.451 362.6C470.539 362.408 470.599 362.284 470.671 362.121C470.743 361.958 470.791 361.86 470.85 361.729C471.09 361.188 471.343 360.652 471.587 360.111C471.621 360.03 471.657 359.951 471.693 359.872L472.087 358.984L472.406 358.267C472.607 357.81 472.805 357.355 472.999 356.896C473.059 356.764 473.114 356.63 473.171 356.498C473.267 356.278 473.358 356.061 473.451 355.843C473.6 355.493 473.746 355.139 473.894 354.79C473.893 354.784 473.893 354.779 473.894 354.773C474.041 354.427 474.184 354.08 474.325 353.732L474.585 353.094C474.64 352.952 474.7 352.814 474.755 352.673C474.959 352.175 475.16 351.675 475.356 351.177C475.454 350.938 475.552 350.684 475.65 350.433C475.77 350.12 475.889 349.806 476.014 349.493C476.121 349.213 476.229 348.933 476.334 348.65C476.365 348.576 476.394 348.502 476.423 348.428C476.622 347.911 476.813 347.394 477.004 346.875C477.119 346.564 477.244 346.253 477.349 345.942C477.564 345.355 477.777 344.767 477.988 344.179C477.986 344.17 477.986 344.161 477.988 344.152C478.196 343.566 478.404 342.982 478.605 342.396C478.648 342.264 478.696 342.133 478.741 342.004C478.904 341.539 479.064 341.075 479.22 340.611C479.273 340.448 479.33 340.286 479.383 340.133C479.414 340.044 479.44 339.956 479.471 339.867C479.531 339.692 479.586 339.52 479.646 339.345C479.706 339.171 479.758 339.003 479.816 338.829C479.943 338.451 480.055 338.075 480.182 337.697C480.256 337.477 480.325 337.254 480.395 337.034V337.005C480.435 336.876 480.478 336.752 480.517 336.623C480.517 336.623 480.517 336.608 480.517 336.603C480.641 336.204 480.756 335.804 480.89 335.407C480.912 335.352 480.928 335.292 480.945 335.237C481.031 334.96 481.115 334.682 481.199 334.405C481.282 334.127 481.38 333.814 481.471 333.517C481.481 333.476 481.493 333.435 481.507 333.395C481.61 333.046 481.713 332.699 481.816 332.347C481.919 331.995 482.038 331.598 482.146 331.222C482.283 330.744 482.417 330.284 482.548 329.818C482.567 329.746 482.586 329.674 482.608 329.605C482.651 329.44 482.699 329.277 482.744 329.112C482.766 329.038 482.787 328.964 482.807 328.89C482.89 328.593 482.972 328.301 483.046 328.004L483.314 327.004C483.395 326.707 483.474 326.411 483.553 326.112C483.587 325.982 483.625 325.851 483.658 325.719C483.778 325.267 483.898 324.817 484.008 324.365C484.134 323.866 484.259 323.367 484.383 322.87C484.508 322.372 484.625 321.893 484.735 321.434C484.735 321.398 484.752 321.362 484.761 321.326C484.85 320.963 484.934 320.609 485.022 320.238C485.036 320.178 485.048 320.121 485.063 320.058C485.158 319.649 485.254 319.242 485.345 318.833C485.426 318.486 485.503 318.135 485.584 317.788C485.666 317.441 485.752 317.039 485.824 316.663C485.919 316.237 486.01 315.809 486.101 315.381C486.137 315.208 486.175 315.031 486.211 314.854C486.371 314.1 486.525 313.345 486.673 312.591C486.699 312.464 486.726 312.337 486.75 312.215C486.774 312.093 486.783 312.045 486.8 311.957C486.91 311.406 487.016 310.856 487.118 310.306C487.173 310.028 487.226 309.751 487.276 309.476C487.373 308.96 487.467 308.448 487.558 307.94C487.798 306.573 488.037 305.21 488.252 303.839L488.295 303.585C488.312 303.482 488.326 303.377 488.343 303.274C488.503 302.261 488.657 301.246 488.805 300.23C488.91 299.513 489.011 298.773 489.114 298.046C489.313 296.586 489.496 295.124 489.664 293.66C489.831 292.196 489.991 290.733 490.142 289.272C490.214 288.541 490.282 287.81 490.346 287.078C490.636 283.87 490.859 280.656 491.016 277.436L491.08 276.055C491.213 273.112 491.292 270.166 491.32 267.217C491.351 263.77 491.311 260.32 491.198 256.868C491.154 255.514 491.102 254.155 491.037 252.801C490.973 251.447 490.896 250.088 490.81 248.733C490.724 247.379 490.628 246.022 490.52 244.666C490.415 243.315 490.298 241.959 490.169 240.598C489.977 238.569 489.762 236.542 489.523 234.516C489.444 233.841 489.36 233.167 489.283 232.492C489.236 232.114 489.188 231.736 489.137 231.358C488.972 230.075 488.795 228.798 488.611 227.515C488.487 226.664 488.359 225.811 488.228 224.958C487.901 222.825 487.546 220.698 487.164 218.576C486.782 216.455 486.376 214.337 485.946 212.224C485.86 211.803 485.773 211.38 485.685 210.956C485.366 209.41 485.031 207.868 484.68 206.328C483.583 201.484 482.353 196.671 480.993 191.889C480.613 190.547 480.222 189.207 479.818 187.867C479.55 186.977 479.277 186.087 479 185.197C478.585 183.865 478.161 182.535 477.727 181.208C473.549 168.466 468.454 156.043 462.483 144.036C461.785 142.626 461.073 141.224 460.349 139.832C458.537 136.343 456.655 132.9 454.702 129.5C453.922 128.143 453.13 126.792 452.327 125.447C451.523 124.103 450.707 122.767 449.879 121.44C413.077 62.2812 354.12 18.9288 282.632 14.043C176.377 6.78606 149.084 43.7118 125.809 90.28C125.543 90.8112 125.275 91.3471 125.009 91.8855C123.949 94.0261 122.893 96.1795 121.842 98.3456C116.037 110.309 110.216 122.787 103.179 135.192C101.424 138.29 99.5835 141.381 97.6566 144.466C97.1781 145.246 96.6836 146.025 96.1732 146.802C95.9554 147.141 95.7377 147.484 95.5128 147.826C94.795 148.943 94.0461 150.053 93.2924 151.175C92.9144 151.73 92.5339 152.283 92.1511 152.838C91.6056 153.625 91.0529 154.408 90.493 155.193C90.2346 155.559 89.9714 155.91 89.7034 156.291C89.3669 156.758 89.0255 157.225 88.6794 157.691C87.6298 159.109 86.5531 160.521 85.4493 161.928C85.0218 162.473 84.5895 163.017 84.1525 163.56C83.7154 164.102 83.2728 164.646 82.8246 165.192C82.3795 165.735 81.9273 166.275 81.4751 166.814C81.2359 167.084 81.0181 167.352 80.786 167.625C80.3267 168.164 79.8625 168.701 79.3935 169.235C78.9246 169.768 78.4508 170.302 77.9723 170.838C77.4937 171.373 77.0104 171.905 76.5223 172.434C75.5414 173.498 74.542 174.556 73.5243 175.609C73.0147 176.136 72.4955 176.66 71.9787 177.181C71.3279 177.834 70.6723 178.483 70.0047 179.131C69.6028 179.526 69.1984 179.914 68.7893 180.304C63.4126 185.425 57.711 190.194 51.7201 194.58C50.787 195.263 49.8698 195.951 48.9686 196.643C48.0673 197.335 47.1797 198.031 46.3055 198.732L45.437 199.43L44.5804 200.134C44.2957 200.373 44.0134 200.612 43.7334 200.852C42.5706 201.826 41.4365 202.806 40.3311 203.792L39.6396 204.417C39.3748 204.656 39.1124 204.895 38.8524 205.134C38.5924 205.374 38.3316 205.613 38.07 205.852L37.2996 206.57C37.0435 206.809 36.7899 207.049 36.5387 207.288L35.785 208.006L35.0433 208.723C34.8041 208.963 34.5648 209.202 34.3112 209.458C34.0575 209.714 33.8326 209.937 33.5934 210.193C33.3541 210.449 33.1148 210.671 32.8756 210.929C32.3971 211.408 31.9329 211.915 31.4711 212.408C31.2318 212.647 31.0093 212.903 30.7844 213.152C30.5595 213.401 30.3298 213.648 30.1049 213.899C29.1717 214.929 28.2641 215.966 27.382 217.009C27.1236 217.313 26.87 217.619 26.614 217.923C26.1451 218.488 25.6825 219.057 25.2263 219.629L24.7166 220.27L24.5802 220.445C24.341 220.751 24.1017 221.055 23.8625 221.361L23.8003 221.44C23.7787 221.474 23.7524 221.505 23.7309 221.534C23.7093 221.562 23.6974 221.579 23.6806 221.598C23.4581 221.885 23.2427 222.173 23.0274 222.457L22.8264 222.728C22.8146 222.741 22.8034 222.754 22.7929 222.768C22.7283 222.859 22.6613 222.948 22.5943 223.039L22.2091 223.558L21.9507 223.914C21.8718 224.02 21.7952 224.127 21.7115 224.233C21.5894 224.398 21.4722 224.563 21.355 224.725C21.2688 224.843 21.1875 224.965 21.1157 225.08C21.0678 225.147 21.0224 225.211 20.9745 225.273C20.8381 225.47 20.697 225.666 20.563 225.862C20.5367 225.905 20.508 225.943 20.4792 225.982C20.2735 226.283 20.0653 226.58 19.8643 226.879L19.4959 227.415L19.2135 227.838L18.9934 228.171L18.5986 228.771C18.546 228.855 18.4886 228.937 18.4359 229.011C18.4072 229.051 18.3833 229.092 18.3546 229.133C18.2325 229.327 18.1153 229.52 17.9813 229.714L17.9478 229.767L17.6655 230.212C17.5028 230.465 17.3449 230.721 17.187 230.975C17.1128 231.092 17.0386 231.214 16.9669 231.332C16.8951 231.449 16.7946 231.609 16.7132 231.746L16.3495 232.341C16.328 232.377 16.3064 232.418 16.2825 232.454L15.7801 233.301C15.7274 233.394 15.67 233.487 15.6174 233.578C15.4403 233.882 15.2633 234.184 15.091 234.488C15.091 234.488 15.091 234.488 15.091 234.509L14.9857 234.693L14.957 234.744C14.78 235.063 14.6045 235.374 14.4306 235.679L14.3445 235.835C14.1531 236.179 13.9633 236.524 13.775 236.871C13.6937 237.019 13.6171 237.165 13.5358 237.313C13.4544 237.462 13.3778 237.608 13.2965 237.756C13.263 237.82 13.2247 237.887 13.1912 237.954C13.1577 238.021 13.153 238.026 13.1338 238.067C12.9568 238.402 12.7797 238.737 12.6098 239.074C12.562 239.16 12.5165 239.251 12.4734 239.337C12.3394 239.601 12.2079 239.864 12.0763 240.129C12.0356 240.208 11.9973 240.29 11.9542 240.369C11.8155 240.649 11.6743 240.931 11.5403 241.213L11.3968 241.505L11.3441 241.613C11.3441 241.627 11.3297 241.642 11.325 241.656L11.2986 241.709C11.1742 241.974 11.0474 242.237 10.923 242.503L10.8536 242.646C10.7986 242.771 10.7435 242.886 10.6837 243.017C10.6239 243.149 10.5952 243.204 10.5522 243.3C10.5091 243.395 10.466 243.489 10.4206 243.584C10.3536 243.737 10.2818 243.893 10.21 244.049C10.2057 244.064 10.1992 244.078 10.1908 244.092C10.119 244.254 10.0449 244.417 9.97552 244.57C9.92767 244.675 9.87979 244.781 9.8367 244.884C9.79364 244.986 9.76016 245.058 9.72189 245.144C9.68362 245.231 9.66446 245.271 9.63815 245.336L9.31995 246.068C9.2673 246.192 9.21701 246.307 9.16678 246.436C9.15482 246.46 9.14526 246.487 9.1333 246.511C8.98019 246.877 8.82462 247.248 8.67389 247.616C8.64996 247.676 8.62369 247.738 8.59735 247.798C8.52081 247.987 8.44418 248.173 8.37003 248.365C8.29584 248.556 8.23126 248.705 8.16428 248.877C8.14035 248.944 8.11163 249.013 8.08292 249.083C8.00876 249.279 7.92981 249.477 7.84369 249.676L7.70486 250.047C7.69669 250.063 7.68951 250.08 7.68335 250.097C7.67197 250.124 7.66235 250.151 7.65463 250.179C7.60678 250.301 7.55893 250.418 7.51108 250.554C7.46323 250.691 7.43213 250.758 7.39624 250.863C7.3125 251.085 7.22873 251.305 7.15695 251.53C7.12347 251.624 7.08521 251.717 7.0517 251.813C7.00146 251.949 6.95117 252.09 6.90332 252.229C6.86743 252.325 6.83157 252.423 6.79807 252.521L6.74783 252.667C6.6282 253.004 6.50858 253.344 6.39133 253.684C6.38431 253.701 6.37872 253.718 6.3746 253.736C6.32675 253.87 6.28363 254.004 6.23578 254.141L6.08026 254.605C6.04437 254.713 6.00848 254.823 5.97018 254.93C5.94867 254.995 5.92953 255.06 5.90799 255.124C5.88647 255.189 5.87451 255.22 5.86014 255.268C5.8605 255.275 5.8605 255.282 5.86014 255.289C5.79077 255.495 5.72858 255.698 5.66397 255.902C5.66159 255.914 5.66159 255.927 5.66397 255.94C5.64722 255.985 5.63043 256.033 5.61609 256.084L5.59216 256.165C5.56348 256.249 5.53473 256.337 5.5108 256.423C5.40793 256.742 5.30743 257.062 5.20932 257.38L5.15192 257.574C5.05621 257.883 4.96292 258.194 4.87439 258.5L4.7739 258.845C4.6806 259.168 4.58963 259.488 4.49634 259.802C4.47479 259.883 4.44849 259.967 4.42697 260.041C4.33603 260.364 4.24753 260.685 4.16138 260.998C4.05133 261.405 3.94604 261.809 3.84076 262.216C3.74985 262.575 3.65649 262.934 3.56796 263.293C3.5687 263.301 3.5687 263.309 3.56796 263.317C3.50336 263.575 3.44116 263.836 3.37897 264.099C3.37897 264.099 3.37897 264.113 3.37897 264.118C3.35504 264.228 3.32629 264.336 3.30478 264.446C3.28802 264.51 3.27368 264.575 3.25693 264.64C3.24017 264.704 3.21387 264.817 3.19473 264.903C3.12296 265.221 3.04639 265.542 2.97699 265.86C2.92914 266.068 2.8837 266.279 2.84061 266.484C2.83878 266.492 2.83878 266.5 2.84061 266.508C2.80234 266.678 2.76642 266.853 2.72815 267.023L2.71143 267.107C2.67554 267.276 2.63965 267.446 2.60614 267.616C2.57266 267.786 2.53674 267.946 2.50323 268.114C2.48889 268.174 2.47696 268.236 2.46738 268.296C2.41235 268.559 2.35971 268.82 2.30945 269.083C2.28073 269.219 2.25681 269.36 2.23047 269.497C2.18262 269.736 2.13956 269.975 2.09412 270.215C2.07257 270.327 2.05106 270.454 2.03192 270.554C1.98407 270.808 1.94101 271.064 1.89554 271.318C1.86923 271.459 1.84528 271.602 1.82135 271.741C1.82135 271.806 1.7998 271.87 1.78784 271.935C1.77588 271.999 1.76874 272.05 1.76154 272.105C1.73523 272.248 1.71127 272.392 1.68735 272.533C1.65387 272.739 1.62036 272.942 1.58926 273.146C1.57492 273.222 1.56534 273.299 1.55338 273.385C1.5127 273.653 1.4696 273.923 1.43134 274.189C1.40503 274.34 1.38351 274.49 1.36438 274.639C1.32608 274.878 1.29254 275.117 1.26144 275.342C1.26144 275.423 1.23755 275.505 1.228 275.581C1.17535 275.962 1.12506 276.342 1.07483 276.725C1.0246 277.108 0.976746 277.488 0.931274 277.871C0.919312 277.974 0.907349 278.082 0.895386 278.187C0.847534 278.57 0.806854 278.955 0.763794 279.335C0.727905 279.675 0.692017 280.015 0.658539 280.357C0.658539 280.381 0.658539 280.407 0.658539 280.431L0.641785 280.582V280.685C0.57959 281.297 0.526947 281.91 0.476685 282.522C0.45755 282.762 0.435974 283.001 0.41684 283.257C0.41684 283.396 0.395355 283.537 0.385773 283.673C0.37619 283.81 0.364227 283.968 0.352264 284.113C0.33551 284.37 0.316376 284.626 0.302032 284.879C0.300842 284.888 0.300842 284.897 0.302032 284.905C0.302032 285.016 0.287628 285.123 0.282867 285.233C0.270905 285.389 0.263733 285.544 0.254181 285.697C0.239807 285.906 0.230225 286.109 0.220673 286.317C0.220673 286.375 0.220673 286.434 0.220673 286.489C0.201538 286.867 0.182404 287.248 0.16803 287.626L0.144073 288.198C0.144073 288.301 0.144073 288.401 0.144073 288.502C0.144073 288.602 0.144104 288.715 0.129761 288.822C0.12854 288.835 0.12854 288.848 0.129761 288.861C0.129761 289.138 0.110596 289.416 0.105804 289.693C0.101013 289.971 0.0914612 290.188 0.0866699 290.437C0.0818787 290.686 0.0723267 290.949 0.0699463 291.203V291.222C0.0699463 291.378 0.0699463 291.528 0.0699463 291.681C0.0699463 291.919 0.0699463 292.154 0.0699463 292.385V292.624C0.0244751 293.072 0.0197144 293.49 0.0244751 293.904Z" fill="#F6F2FF"/>
<path fill-rule="evenodd" clip-rule="evenodd" d="M0.0245361 293.904V294.445C0.0245361 294.529 0.0245361 294.612 0.0245361 294.684C0.0245361 295.019 0.0245361 295.361 0.0245361 295.701V295.747C0.0245361 295.892 0.0245361 296.036 0.0245361 296.182C0.0245361 296.558 0.0388489 296.929 0.0508118 297.302C0.0508118 297.5 0.0508423 297.699 0.0675964 297.898C0.0843506 298.096 0.0675659 298.271 0.0843201 298.457C0.0843201 298.776 0.105865 299.096 0.120209 299.414C0.120209 299.465 0.120209 299.517 0.120209 299.568C0.120209 299.618 0.120209 299.623 0.120209 299.649C0.139374 300.113 0.163269 300.575 0.187195 301.039L0.203979 301.398C0.220734 301.711 0.242249 302.027 0.261383 302.341C0.280518 302.654 0.294861 302.92 0.313995 303.207C0.382599 304.272 0.462372 305.332 0.553314 306.387C0.653809 307.53 0.765442 308.667 0.888245 309.796C0.972778 310.547 1.06052 311.298 1.15146 312.048L1.29498 313.172C1.51511 314.847 1.75436 316.51 2.01279 318.161C2.1037 318.708 2.19547 319.254 2.28796 319.8C2.35019 320.164 2.41238 320.518 2.47699 320.891C2.60858 321.609 2.74017 322.326 2.87894 323.044C3.08472 324.119 3.29922 325.186 3.52255 326.243C3.6709 326.961 3.82407 327.648 3.97958 328.349C4.21884 329.397 4.4581 330.43 4.69736 331.459C5.11209 333.176 5.54434 334.865 5.99417 336.527C6.35306 337.859 6.72235 339.172 7.10196 340.468C7.29019 341.106 7.4816 341.744 7.67621 342.382C8.25525 344.296 8.85098 346.164 9.4635 347.988C9.76657 348.898 10.0745 349.797 10.3871 350.682C11.6265 354.228 12.9065 357.582 14.177 360.709C14.39 361.226 14.6005 361.741 14.8111 362.248C14.9164 362.504 15.0217 362.755 15.1293 363.009C15.3367 363.508 15.5464 364.003 15.7586 364.492C16.2834 365.714 16.801 366.894 17.3114 368.033L17.9215 369.373C18.7278 371.137 19.5127 372.785 20.2616 374.314C20.6348 375.075 20.9993 375.806 21.355 376.508C21.6206 377.034 21.8766 377.544 22.1326 378.035C22.2921 378.354 22.4572 378.673 22.6279 378.992L22.8672 379.451C23.0251 379.755 23.183 380.049 23.3337 380.332C23.573 380.76 23.7811 381.169 23.9941 381.557C24.1376 381.815 24.274 382.066 24.4056 382.308C24.6042 382.672 24.798 383.026 24.9774 383.334C25.2167 383.765 25.4408 384.159 25.6498 384.516C25.8029 384.784 25.9465 385.031 26.0781 385.256C26.1642 385.406 26.248 385.545 26.3174 385.677C26.358 385.741 26.3939 385.806 26.4298 385.868L26.6332 386.201C26.937 386.71 27.1117 386.974 27.1117 386.974C51.8422 424.258 90.651 457.751 137.018 479.141C141.76 481.328 146.578 483.385 151.472 485.314C171.893 493.351 193.564 499.024 215.988 501.689C224.818 502.765 233.701 503.355 242.596 503.457C247.086 503.5 251.596 503.421 256.124 503.218C276.787 502.253 297.236 498.601 316.955 492.355C352.287 481.184 387.644 461.112 421.299 429.946C421.681 429.594 422.057 429.242 422.435 428.886C422.971 428.388 423.5 427.883 424.026 427.381L424.311 427.105C424.807 426.627 425.3 426.148 425.79 425.67L425.806 425.651C425.983 425.476 426.16 425.306 426.335 425.129C426.574 424.909 426.785 424.687 427.007 424.466C427.23 424.246 427.381 424.096 427.565 423.909C427.859 423.617 428.146 423.323 428.436 423.033C428.613 422.856 428.785 422.677 428.96 422.5C429.367 422.087 429.773 421.671 430.178 421.253C430.599 420.813 431.022 420.373 431.441 419.93C431.551 419.815 431.661 419.691 431.766 419.588L432.221 419.109C432.523 418.791 432.819 418.473 433.118 418.152C433.243 418.021 433.358 417.887 433.489 417.753L434.296 416.877L434.346 416.822L435.303 415.764L435.647 415.379C436.001 414.984 436.365 414.59 436.705 414.183C436.796 414.085 436.882 413.982 436.968 413.886L437.31 413.496C437.645 413.113 437.978 412.73 438.308 412.348C438.444 412.192 438.581 412.034 438.712 411.869C439.043 411.489 439.369 411.107 439.691 410.723C439.784 410.615 439.878 410.505 439.968 410.395L440.246 410.065C440.44 409.838 440.629 409.613 440.818 409.383C440.861 409.333 440.904 409.278 440.947 409.225L441.205 408.914L442.249 407.653L443.096 406.603L443.84 405.675L444.263 405.139L444.656 404.643L444.68 404.61C444.969 404.246 445.254 403.892 445.534 403.514C445.701 403.303 445.866 403.09 446.029 402.878C446.376 402.425 446.721 401.975 447.065 401.521L447.328 401.169C447.544 400.884 447.757 400.602 447.97 400.315C448.039 400.219 448.113 400.128 448.182 400.033L448.259 399.93C448.647 399.408 449.027 398.889 449.407 398.367C449.448 398.315 449.486 398.26 449.525 398.207C449.879 397.729 450.228 397.236 450.573 396.75L450.812 396.396C451.109 395.982 451.401 395.566 451.695 395.147L451.934 394.8L452.173 394.453L452.788 393.565L452.803 393.541C452.841 393.489 452.877 393.434 452.913 393.381C453.243 392.903 453.573 392.424 453.901 391.929L454.439 391.12L454.879 390.462C454.913 390.412 454.946 390.357 454.978 390.307C455.009 390.256 455.057 390.192 455.092 390.134L455.523 389.479L455.774 389.091C455.837 388.998 455.901 388.9 455.963 388.802C455.985 388.768 456.004 388.737 456.028 388.706L456.162 388.495C456.473 388.017 456.784 387.524 457.09 387.041C457.437 386.495 457.782 385.945 458.124 385.397L458.234 385.22C458.422 384.915 458.61 384.61 458.799 384.303C458.954 384.05 459.11 383.799 459.263 383.545C459.891 382.508 460.51 381.471 461.12 380.434L461.141 380.399L462.065 378.803C462.065 378.788 462.079 378.779 462.084 378.767C462.323 378.355 462.562 377.944 462.787 377.532L463.026 377.09C463.242 376.707 463.457 376.319 463.67 375.934C463.749 375.797 463.826 375.659 463.909 375.522C464.039 375.283 464.165 375.044 464.292 374.805C464.512 374.407 464.728 374.005 464.941 373.608C464.998 373.503 465.058 373.395 465.113 373.29C465.264 373.01 465.412 372.728 465.56 372.443L465.773 372.041L465.795 372.003C465.943 371.725 466.087 371.445 466.233 371.165C466.379 370.885 466.525 370.603 466.668 370.318C466.668 370.29 466.697 370.261 466.714 370.23L466.867 369.935C466.948 369.78 467.025 369.622 467.106 369.457C467.249 369.172 467.395 368.887 467.537 368.603L467.675 368.33L468.393 366.894L469.228 365.176C469.496 364.619 469.762 364.059 470.025 363.502C470.025 363.485 470.039 363.471 470.044 363.454C470.092 363.356 470.137 363.255 470.185 363.157C470.271 362.966 470.36 362.779 470.448 362.588C470.537 362.396 470.597 362.272 470.669 362.109C470.74 361.946 470.788 361.848 470.848 361.717C471.087 361.176 471.341 360.64 471.585 360.099C471.618 360.018 471.654 359.939 471.69 359.86L472.085 358.972L472.403 358.255C472.604 357.798 472.803 357.343 472.997 356.884C473.056 356.752 473.111 356.618 473.169 356.486C473.265 356.266 473.356 356.049 473.449 355.831C473.597 355.481 473.743 355.127 473.891 354.778C473.89 354.772 473.89 354.767 473.891 354.761C474.038 354.415 474.182 354.068 474.322 353.72L474.583 353.082C474.638 352.94 474.698 352.802 474.753 352.661C474.956 352.163 475.157 351.663 475.353 351.165C475.451 350.926 475.55 350.672 475.648 350.421C475.767 350.108 475.887 349.794 476.011 349.481C476.119 349.201 476.227 348.921 476.332 348.638C476.363 348.564 476.392 348.49 476.421 348.416L476.66 347.796C476.777 347.485 476.899 347.174 477.009 346.863C477.119 346.552 477.248 346.241 477.354 345.93C477.569 345.343 477.782 344.755 477.992 344.167C477.991 344.158 477.991 344.149 477.992 344.14C478.201 343.554 478.409 342.97 478.61 342.384C478.653 342.252 478.701 342.121 478.746 341.992C478.847 341.7 478.947 341.408 479.045 341.114C479.069 341.047 479.091 340.982 479.112 340.915C479.206 340.647 479.294 340.379 479.385 340.111C479.416 340.023 479.442 339.934 479.474 339.845C479.505 339.757 479.553 339.606 479.591 339.487C479.75 339.027 479.902 338.566 480.045 338.104C480.093 337.962 480.141 337.819 480.184 337.675C480.258 337.455 480.328 337.233 480.397 337.013V336.984C480.438 336.855 480.481 336.73 480.519 336.601C480.519 336.601 480.519 336.587 480.519 336.582C480.644 336.182 480.758 335.783 480.892 335.386C480.914 335.331 480.931 335.271 480.947 335.216C481.034 334.938 481.117 334.661 481.201 334.383C481.285 334.106 481.383 333.792 481.474 333.495C481.484 333.454 481.496 333.413 481.51 333.373C481.613 333.024 481.715 332.677 481.818 332.325C481.921 331.974 482.041 331.576 482.149 331.201C482.256 330.825 482.366 330.45 482.469 330.074C482.517 329.906 482.562 329.746 482.61 329.595C482.658 329.445 482.701 329.268 482.747 329.102C482.768 329.028 482.79 328.954 482.809 328.88C482.893 328.583 482.974 328.291 483.048 327.995L483.316 326.995C483.397 326.698 483.476 326.401 483.555 326.102C483.589 325.973 483.627 325.841 483.661 325.71C483.747 325.377 483.833 325.04 483.917 324.707C483.929 324.676 483.938 324.644 483.943 324.611C483.965 324.525 483.988 324.439 484.008 324.355C484.134 323.856 484.259 323.358 484.383 322.86C484.508 322.362 484.625 321.884 484.735 321.424C484.735 321.389 484.752 321.353 484.761 321.317C484.85 320.953 484.934 320.599 485.022 320.228C485.036 320.168 485.048 320.111 485.063 320.049C485.158 319.64 485.254 319.233 485.345 318.824C485.426 318.477 485.503 318.125 485.584 317.778C485.666 317.431 485.752 317.029 485.824 316.654C485.919 316.228 486.01 315.799 486.101 315.371C486.137 315.199 486.175 315.022 486.211 314.845C486.273 314.546 486.338 314.247 486.4 313.947C486.52 313.364 486.64 312.785 486.75 312.206C486.766 312.119 486.783 312.036 486.8 311.947C486.876 311.581 486.946 311.213 487.015 310.844C487.051 310.662 487.085 310.478 487.118 310.296C487.173 310.019 487.226 309.741 487.276 309.466C487.373 308.951 487.467 308.439 487.558 307.93C487.769 306.753 487.97 305.571 488.161 304.394C488.195 304.205 488.221 304.018 488.252 303.829L488.295 303.575C488.312 303.472 488.326 303.367 488.343 303.264C488.503 302.251 488.657 301.237 488.805 300.221C488.91 299.503 489.011 298.764 489.114 298.036C489.307 296.574 489.494 295.112 489.664 293.651C489.834 292.189 489.992 290.727 490.142 289.262C490.214 288.532 490.282 287.801 490.346 287.068C490.631 283.861 490.855 280.647 491.016 277.426L491.08 276.045C491.206 273.102 491.286 270.156 491.32 267.207C491.351 263.76 491.311 260.311 491.198 256.859C491.154 255.505 491.102 254.146 491.037 252.791C490.973 251.437 490.896 250.078 490.81 248.724C490.724 247.37 490.628 246.013 490.52 244.656C490.414 243.302 490.296 241.946 490.169 240.589C489.976 238.56 489.76 236.532 489.523 234.507C489.444 233.832 489.36 233.157 489.283 232.482C489.236 232.104 489.188 231.726 489.137 231.348C488.972 230.066 488.795 228.788 488.611 227.506C488.487 226.654 488.359 225.801 488.228 224.948C487.898 222.815 487.543 220.688 487.164 218.567C486.782 216.445 486.376 214.328 485.946 212.214C485.86 211.793 485.773 211.37 485.685 210.946C485.366 209.401 485.031 207.858 484.68 206.319C483.583 201.474 482.353 196.661 480.993 191.879C480.612 190.537 480.218 189.195 479.818 187.857C479.55 186.967 479.277 186.077 479 185.187C478.585 183.855 478.161 182.525 477.727 181.198C473.549 168.456 468.454 156.033 462.483 144.026C461.785 142.616 461.073 141.215 460.349 139.822C458.537 136.334 456.655 132.89 454.702 129.491C453.922 128.133 453.13 126.782 452.327 125.438C451.523 124.093 450.707 122.757 449.879 121.43C362.947 110.641 286.049 169.84 208.621 173.126C108.993 177.351 125.675 91.1772 125.866 90.2178C125.598 90.7465 125.335 91.2777 125.069 91.8113C124.008 93.9519 122.953 96.1053 121.901 98.2714C116.097 110.235 110.275 122.712 103.239 135.118C101.484 138.216 99.6433 141.307 97.7165 144.392C97.2379 145.172 96.7435 145.951 96.233 146.727C96.0153 147.067 95.7975 147.409 95.5726 147.751C94.8485 148.868 94.1083 149.985 93.3523 151.101C92.979 151.656 92.5962 152.209 92.211 152.764C91.6655 153.551 91.1127 154.334 90.5529 155.118C90.2945 155.485 90.0313 155.836 89.7633 156.217C89.4267 156.684 89.0854 157.151 88.7392 157.616C87.6896 159.034 86.6129 160.447 85.5092 161.854C85.0817 162.399 84.6494 162.943 84.2123 163.486C83.7753 164.028 83.3326 164.572 82.8844 165.117C82.4394 165.66 81.9896 166.2 81.5349 166.74C81.2957 167.01 81.0779 167.278 80.8459 167.551C80.3865 168.09 79.9223 168.627 79.4534 169.161C78.9844 169.694 78.5107 170.228 78.0321 170.764C77.5536 171.298 77.0703 171.83 76.5822 172.36C75.6012 173.424 74.6019 174.482 73.5842 175.535C73.0746 176.061 72.5553 176.585 72.0385 177.107C71.3877 177.76 70.7321 178.409 70.0646 179.057C69.6627 179.452 69.2582 179.839 68.8491 180.229C63.4724 185.351 57.7709 190.119 51.7799 194.506C50.8468 195.189 49.9296 195.876 49.0284 196.569C48.1272 197.261 47.2395 197.957 46.3654 198.658L45.4969 199.356L44.6403 200.06C44.3556 200.299 44.0732 200.538 43.7932 200.777C42.6304 201.752 41.4963 202.732 40.3909 203.718L39.6994 204.342C39.4347 204.582 39.1723 204.821 38.9123 205.06C38.6523 205.3 38.3915 205.539 38.1299 205.778L37.3595 206.496C37.1035 206.735 36.8498 206.974 36.5986 207.214L35.8449 207.931L35.1032 208.649C34.8639 208.889 34.6246 209.128 34.371 209.384C34.1174 209.64 33.8925 209.862 33.6532 210.118C33.4139 210.374 33.1747 210.597 32.9354 210.855C32.4569 211.334 31.9927 211.841 31.531 212.334C31.2917 212.573 31.0692 212.829 30.8442 213.078C30.6193 213.327 30.3896 213.573 30.1647 213.825C29.2316 214.855 28.324 215.892 27.4419 216.935C27.1835 217.239 26.9299 217.545 26.6739 217.849C26.2049 218.414 25.7423 218.982 25.2861 219.555L24.7765 220.196L24.6401 220.371C24.4008 220.677 24.1616 220.981 23.9223 221.287L23.7907 221.459C23.7692 221.483 23.7572 221.505 23.7404 221.524C23.5179 221.811 23.3026 222.098 23.0873 222.383L22.8863 222.653C22.8744 222.666 22.8632 222.68 22.8528 222.694C22.7882 222.785 22.7212 222.874 22.6542 222.964C22.5872 223.055 22.5226 223.144 22.458 223.232L22.269 223.472L22.0106 223.828C21.9316 223.934 21.8551 224.041 21.7713 224.146C21.6493 224.312 21.532 224.477 21.4148 224.639C21.3287 224.757 21.2473 224.879 21.1756 224.993C21.1277 225.06 21.0822 225.125 21.0344 225.187C20.898 225.383 20.7568 225.58 20.6228 225.776C20.5965 225.819 20.5678 225.857 20.5391 225.895C20.3333 226.197 20.1252 226.494 19.9242 226.793L19.5557 227.329L19.2734 227.752L19.0533 228.085L18.6585 228.685C18.6058 228.769 18.5484 228.85 18.4958 228.925C18.467 228.965 18.4431 229.006 18.4144 229.047C18.2924 229.24 18.1752 229.434 18.0412 229.628L18.0077 229.681L17.7253 230.126C17.5627 230.379 17.4047 230.635 17.2468 230.889C17.1726 231.006 17.0984 231.128 17.0267 231.245C16.9549 231.363 16.8544 231.523 16.773 231.659L16.4094 232.255C16.3878 232.291 16.3663 232.332 16.3424 232.368L15.84 233.215C15.7873 233.308 15.7299 233.401 15.6772 233.492C15.5002 233.796 15.3231 234.097 15.1508 234.401C15.1508 234.401 15.1508 234.401 15.1508 234.423L15.0456 234.607L15.0168 234.657C14.8398 234.976 14.6643 235.288 14.4905 235.593L14.4043 235.748C14.2129 236.093 14.0231 236.438 13.8349 236.784L13.7201 237.002L13.2582 237.868C13.2391 237.904 13.22 237.94 13.2008 237.981C13.0238 238.316 12.8467 238.651 12.6768 238.988C12.507 239.325 12.3323 239.66 12.1672 239.998C12.1672 240.012 12.1505 240.026 12.1433 240.043C12.1026 240.122 12.0644 240.204 12.0213 240.282C11.8825 240.562 11.7413 240.845 11.6073 241.127L11.4638 241.419L11.4111 241.527C11.4111 241.541 11.3968 241.555 11.392 241.57L11.3657 241.622C11.2413 241.888 11.1144 242.151 10.99 242.417L10.9207 242.56C10.8656 242.685 10.8106 242.8 10.7508 242.931C10.722 242.986 10.6981 243.044 10.6718 243.103C10.612 243.235 10.5498 243.367 10.4876 243.498C10.4254 243.63 10.3488 243.807 10.277 243.962C10.2726 243.978 10.2662 243.992 10.2579 244.005C10.1861 244.168 10.1119 244.331 10.0425 244.484C9.99469 244.589 9.94684 244.695 9.90378 244.797C9.86069 244.9 9.82718 244.972 9.78891 245.058C9.75061 245.144 9.73148 245.185 9.70514 245.25C9.54565 245.615 9.38617 245.982 9.22665 246.35C9.21469 246.374 9.20511 246.4 9.19315 246.424C9.04001 246.79 8.88452 247.161 8.73376 247.53C8.70984 247.59 8.6835 247.652 8.6572 247.712C8.53519 248.013 8.41794 248.315 8.29831 248.614C8.27197 248.674 8.25043 248.731 8.22412 248.791C8.19778 248.851 8.17148 248.927 8.14276 248.997C8.02072 249.31 7.9035 249.621 7.78146 249.934C7.78049 249.943 7.78049 249.952 7.78146 249.961C7.77328 249.977 7.76611 249.994 7.75995 250.011C7.7486 250.037 7.73898 250.065 7.73123 250.092C7.68338 250.214 7.63553 250.332 7.58768 250.468C7.53983 250.604 7.5087 250.671 7.47281 250.777C7.38907 250.999 7.30536 251.219 7.23358 251.444C7.20007 251.538 7.16177 251.631 7.12827 251.727C7.07803 251.863 7.0278 252.004 6.97995 252.143C6.94406 252.239 6.90817 252.337 6.87466 252.435L6.82443 252.581C6.7048 252.918 6.58517 253.258 6.46793 253.598C6.46094 253.615 6.45529 253.632 6.45114 253.65C6.35068 253.937 6.25259 254.229 6.15689 254.519C6.121 254.626 6.08508 254.736 6.04681 254.844C6.02527 254.909 6.00613 254.973 5.98462 255.038C5.96307 255.103 5.95111 255.134 5.93677 255.182C5.9371 255.189 5.9371 255.196 5.93677 255.203C5.88092 255.363 5.82828 255.528 5.77884 255.698C5.76447 255.739 5.75012 255.777 5.74054 255.816C5.73813 255.828 5.73813 255.841 5.74054 255.854C5.72379 255.904 5.70944 255.952 5.69269 255.997L5.66879 256.079C5.64008 256.163 5.61136 256.251 5.58743 256.337C5.48456 256.655 5.38403 256.976 5.28595 257.294L5.22855 257.488C5.13284 257.797 5.03952 258.108 4.95099 258.414L4.85046 258.759C4.75717 259.082 4.66626 259.402 4.57294 259.716C4.55139 259.797 4.52505 259.881 4.50354 259.955C4.4126 260.278 4.32407 260.598 4.23795 260.912C4.12787 261.319 4.02261 261.723 3.91733 262.13C3.82642 262.489 3.73312 262.848 3.64459 263.206C3.64532 263.214 3.64532 263.222 3.64459 263.23C3.57999 263.489 3.51779 263.75 3.45557 264.013C3.45557 264.013 3.45557 264.027 3.45557 264.032C3.43164 264.142 3.40292 264.25 3.38138 264.36C3.36462 264.424 3.35028 264.489 3.33353 264.554C3.3168 264.618 3.2905 264.731 3.27136 264.817C3.19955 265.135 3.12299 265.456 3.05362 265.774C3.00577 265.982 2.9603 266.193 2.91724 266.398C2.91541 266.406 2.91541 266.414 2.91724 266.422C2.87897 266.592 2.84305 266.767 2.80475 266.937L2.78802 267.02C2.75214 267.19 2.71622 267.36 2.68271 267.53C2.64923 267.7 2.61334 267.86 2.57986 268.028C2.56549 268.087 2.55353 268.15 2.54395 268.21C2.46262 268.611 2.38287 269.01 2.30472 269.406C2.25687 269.645 2.21378 269.884 2.16833 270.124C2.14679 270.236 2.12524 270.363 2.10608 270.463C2.05823 270.717 2.01517 270.973 1.96973 271.227C1.94339 271.368 1.91949 271.511 1.89557 271.65C1.89557 271.715 1.87402 271.779 1.86206 271.844C1.8501 271.909 1.8429 271.959 1.83572 272.014C1.77591 272.361 1.72092 272.708 1.66348 273.055C1.64914 273.131 1.63956 273.208 1.62759 273.294C1.58691 273.562 1.54385 273.832 1.50555 274.098C1.47925 274.249 1.45767 274.399 1.43854 274.548C1.40027 274.787 1.36679 275.026 1.33566 275.251C1.33566 275.332 1.31174 275.414 1.30215 275.49C1.24951 275.871 1.19931 276.251 1.14905 276.634C1.09882 277.017 1.05096 277.397 1.00549 277.78C0.99353 277.883 0.981567 277.991 0.969604 278.096C0.921753 278.479 0.881073 278.864 0.838013 279.244C0.802124 279.584 0.766235 279.924 0.732758 280.266C0.732758 280.29 0.732758 280.316 0.732758 280.34L0.715973 280.491V280.594C0.653778 281.206 0.601166 281.819 0.550903 282.431C0.531769 282.671 0.510193 282.91 0.491058 283.166C0.491058 283.305 0.469513 283.446 0.459961 283.582C0.450378 283.719 0.438446 283.877 0.426483 284.023C0.409729 284.279 0.390594 284.535 0.376251 284.788C0.375061 284.797 0.375061 284.806 0.376251 284.815C0.376251 284.925 0.361877 285.032 0.357086 285.142C0.335541 285.504 0.314026 285.86 0.294891 286.226C0.294891 286.262 0.294891 286.3 0.294891 286.341C0.270966 286.741 0.251801 287.138 0.235046 287.537C0.220673 287.832 0.211151 288.124 0.201569 288.413C0.201569 288.521 0.201538 288.626 0.187195 288.734C0.185974 288.746 0.185974 288.759 0.187195 288.772C0.187195 289.049 0.168091 289.327 0.1633 289.605C0.1633 289.712 0.1633 289.82 0.151337 289.925C0.151337 290.066 0.151337 290.208 0.151337 290.349C0.151337 290.605 0.136963 290.861 0.134552 291.114V291.133C0.134552 291.289 0.134552 291.44 0.134552 291.593C0.134552 291.831 0.134552 292.065 0.134552 292.296V292.536C0.0245056 293.072 0.0197449 293.49 0.0245361 293.904Z" fill="#EDE4FF"/>
<path fill-rule="evenodd" clip-rule="evenodd" d="M0.0238647 293.905V294.445C0.0238647 294.529 0.0238647 294.613 0.0238647 294.685C0.0238647 295.02 0.0238647 295.362 0.0238647 295.701V295.747C0.0238647 295.893 0.0238647 296.036 0.0238647 296.182C0.0238647 296.558 0.0382385 296.929 0.0502014 297.302C0.0502014 297.4 0.0502014 297.496 0.0502014 297.589C0.0502014 297.683 0.0502014 297.795 0.0502014 297.898C0.0502014 298.082 0.0501709 298.271 0.066925 298.458C0.066925 298.776 0.0884705 299.097 0.102814 299.415C0.102814 299.465 0.102814 299.518 0.102814 299.568C0.102814 299.618 0.102814 299.623 0.102814 299.649C0.121948 300.113 0.145905 300.575 0.16983 301.039L0.186554 301.398C0.203308 301.712 0.224823 302.028 0.243988 302.341C0.263123 302.654 0.277527 302.92 0.296661 303.207C0.365234 304.273 0.444977 305.333 0.535889 306.387C0.633209 307.531 0.744843 308.667 0.87085 309.797C0.955383 310.548 1.04312 311.298 1.13403 312.048L1.27765 313.173C1.49536 314.847 1.74179 316.522 1.99542 318.161C2.08633 318.708 2.17807 319.255 2.27057 319.8C2.33279 320.164 2.39499 320.518 2.45956 320.891C2.59119 321.609 2.72278 322.327 2.86154 323.045C3.06412 324.12 3.27869 325.186 3.50519 326.244C3.65353 326.961 3.80664 327.648 3.96216 328.349C4.20145 329.397 4.4407 330.431 4.67996 331.46C5.0947 333.176 5.52695 334.865 5.97678 336.527C6.33566 337.859 6.70493 339.173 7.08456 340.468C7.2728 341.106 7.4642 341.744 7.65881 342.382C8.23782 344.296 8.83359 346.165 9.44611 347.988C9.74918 348.899 10.057 349.797 10.3697 350.682C11.6091 354.228 12.8891 357.583 14.1596 360.71C14.3726 361.227 14.5832 361.741 14.7937 362.248C14.899 362.504 15.0043 362.755 15.1119 363.009C15.3193 363.508 15.5291 364.003 15.7412 364.493C16.266 365.714 16.7836 366.895 17.294 368.034L17.9042 369.374C18.7105 371.137 19.4952 372.785 20.2441 374.314C20.6174 375.075 20.9819 375.807 21.3376 376.508C21.6032 377.035 21.8592 377.544 22.1152 378.035C22.2747 378.354 22.4398 378.673 22.6105 378.992L22.8498 379.451C23.0077 379.755 23.1656 380.05 23.3163 380.332C23.5556 380.76 23.7637 381.169 23.9767 381.557C24.1179 381.815 24.2543 382.067 24.3882 382.308C24.5869 382.672 24.7806 383.026 24.9601 383.335C25.1993 383.765 25.4235 384.159 25.6324 384.517C25.7856 384.785 25.9291 385.031 26.0607 385.256C26.1468 385.407 26.2306 385.545 26.3 385.677C26.3407 385.742 26.3765 385.806 26.4124 385.868L26.6158 386.201C26.9197 386.711 27.0943 386.974 27.0943 386.974C51.8247 424.259 90.6336 457.751 137.001 479.141C141.743 481.328 146.561 483.386 151.455 485.314C171.876 493.351 193.546 499.024 215.97 501.69C224.806 502.766 233.695 503.356 242.596 503.458C247.086 503.501 251.595 503.421 256.124 503.218C276.786 502.253 297.235 498.601 316.954 492.356C352.287 481.185 387.643 461.113 421.298 429.946C421.681 429.594 422.056 429.242 422.434 428.886C422.97 428.388 423.499 427.883 424.026 427.381L424.31 427.106C424.806 426.627 425.299 426.149 425.789 425.67L426.335 425.13C426.574 424.909 426.784 424.687 427.007 424.467C427.229 424.247 427.38 424.096 427.564 423.909C427.859 423.617 428.146 423.323 428.435 423.034C428.612 422.856 428.785 422.677 428.959 422.5C429.366 422.087 429.772 421.671 430.177 421.253C430.598 420.813 431.022 420.373 431.44 419.93C431.55 419.815 431.661 419.691 431.766 419.588L432.22 419.11C432.522 418.791 432.819 418.473 433.118 418.153C433.242 418.021 433.357 417.887 433.489 417.753L434.295 416.877L434.345 416.822C434.369 416.796 434.398 416.765 434.422 416.734C434.833 416.281 435.242 415.832 435.649 415.379C436.003 414.985 436.367 414.59 436.707 414.183C436.798 414.085 436.884 413.982 436.97 413.886L437.312 413.496C437.647 413.114 437.98 412.731 438.31 412.348C438.446 412.192 438.582 412.035 438.714 411.869C439.044 411.49 439.37 411.108 439.693 410.723L439.863 410.522C440.183 410.144 440.504 409.764 440.82 409.383C440.863 409.333 440.906 409.278 440.949 409.226L441.207 408.915L442.25 407.654L443.097 406.603L443.842 405.675L444.265 405.139L444.657 404.644L444.681 404.61C444.971 404.246 445.256 403.892 445.536 403.514C445.703 403.304 445.868 403.091 446.031 402.878C446.378 402.426 446.722 401.976 447.067 401.521L447.33 401.169C447.545 400.885 447.758 400.602 447.971 400.315C448.041 400.22 448.115 400.129 448.184 400.033L448.261 399.93C448.645 399.41 449.028 398.889 449.409 398.368L449.424 398.346C449.811 397.813 450.194 397.284 450.574 396.75L450.814 396.396C451.11 395.982 451.402 395.566 451.697 395.147L451.936 394.8C452.225 394.382 452.517 393.965 452.807 393.542C453.175 393.003 453.539 392.467 453.905 391.929L454.443 391.12L454.982 390.307C455.02 390.249 455.061 390.192 455.097 390.135L455.968 388.802C455.989 388.768 456.008 388.737 456.032 388.706L456.166 388.496C456.477 388.017 456.788 387.524 457.094 387.041C457.441 386.495 457.786 385.945 458.128 385.397L458.238 385.22C458.426 384.915 458.615 384.61 458.803 384.304C458.958 384.05 459.114 383.799 459.267 383.545C459.894 382.508 460.513 381.472 461.124 380.435L461.145 380.399L462.069 378.803C462.069 378.789 462.083 378.779 462.088 378.767C462.409 378.207 462.724 377.65 463.045 377.092C463.26 376.709 463.476 376.322 463.689 375.937C463.902 375.551 464.098 375.19 464.301 374.814C464.504 374.439 464.737 374.015 464.95 373.618C465.162 373.221 465.363 372.843 465.569 372.453L465.782 372.051L465.804 372.013C466.096 371.453 466.387 370.893 466.677 370.338C466.677 370.309 466.706 370.28 466.722 370.249C466.852 369.993 466.981 369.74 467.112 369.486C467.244 369.232 467.402 368.917 467.543 368.632L467.682 368.359L468.4 366.923L469.235 365.206C469.508 364.631 469.78 364.059 470.051 363.483C470.099 363.385 470.144 363.284 470.192 363.186C470.278 362.995 470.366 362.808 470.455 362.617C470.589 362.33 470.721 362.04 470.855 361.753C471.094 361.212 471.347 360.676 471.592 360.136C471.625 360.054 471.661 359.975 471.697 359.896C471.936 359.356 472.175 358.82 472.415 358.279C472.616 357.822 472.814 357.367 473.008 356.908C473.068 356.776 473.123 356.642 473.18 356.511C473.42 355.941 473.659 355.374 473.898 354.802C473.897 354.797 473.897 354.791 473.898 354.786C474.131 354.226 474.361 353.667 474.59 353.111C474.645 352.97 474.704 352.831 474.759 352.69C474.963 352.192 475.164 351.692 475.36 351.194C475.58 350.634 475.798 350.074 476.018 349.519C476.126 349.239 476.233 348.959 476.339 348.677C476.444 348.395 476.551 348.117 476.659 347.835C476.767 347.553 476.898 347.213 477.008 346.902C477.119 346.591 477.248 346.28 477.353 345.969C477.568 345.382 477.781 344.794 477.992 344.205C477.991 344.197 477.991 344.188 477.992 344.179C478.2 343.593 478.408 343.009 478.609 342.423C478.758 342 478.903 341.577 479.045 341.152C479.069 341.085 479.09 341.021 479.112 340.954L479.222 340.638C479.274 340.475 479.332 340.312 479.384 340.159C479.415 340.071 479.442 339.982 479.473 339.894C479.504 339.805 479.552 339.654 479.59 339.535C479.607 339.482 479.628 339.427 479.648 339.372C479.703 339.2 479.76 339.03 479.817 338.855C479.894 338.616 479.973 338.377 480.045 338.152C480.093 338.011 480.14 337.867 480.184 337.724C480.258 337.503 480.327 337.281 480.396 337.061V337.032C480.437 336.903 480.48 336.778 480.518 336.649C480.518 336.649 480.518 336.635 480.518 336.63C480.643 336.231 480.758 335.831 480.892 335.434C480.913 335.379 480.93 335.319 480.947 335.264C481.033 334.986 481.117 334.709 481.2 334.431C481.284 334.154 481.382 333.84 481.473 333.544C481.483 333.502 481.495 333.462 481.509 333.422C481.612 333.072 481.715 332.725 481.818 332.374C481.921 332.022 482.04 331.625 482.148 331.249C482.256 330.873 482.366 330.498 482.469 330.122C482.497 330.029 482.521 329.935 482.55 329.845C482.579 329.754 482.588 329.701 482.61 329.632C482.653 329.467 482.701 329.304 482.746 329.139C482.768 329.065 482.789 328.99 482.808 328.916C482.892 328.62 482.973 328.328 483.048 328.031L483.316 327.031C483.397 326.734 483.476 326.437 483.555 326.138C483.588 326.009 483.627 325.878 483.66 325.746C483.746 325.413 483.832 325.076 483.916 324.743C483.928 324.713 483.937 324.68 483.942 324.648C483.964 324.562 483.988 324.478 484.009 324.392C484.135 323.892 484.261 323.394 484.385 322.896C484.509 322.399 484.627 321.92 484.737 321.461C484.737 321.425 484.753 321.389 484.763 321.353C484.852 320.989 484.935 320.635 485.024 320.264C485.038 320.205 485.05 320.147 485.065 320.085C485.16 319.676 485.256 319.269 485.347 318.86C485.428 318.513 485.505 318.161 485.586 317.814C485.667 317.467 485.754 317.065 485.825 316.69C485.921 316.264 486.012 315.836 486.103 315.407C486.139 315.235 486.177 315.058 486.213 314.881C486.275 314.582 486.34 314.283 486.402 313.984C486.522 313.4 486.641 312.821 486.751 312.242C486.768 312.156 486.785 312.072 486.802 311.983C486.878 311.617 486.948 311.249 487.017 310.88C487.053 310.699 487.086 310.514 487.12 310.332C487.175 310.055 487.227 309.777 487.278 309.502C487.375 308.987 487.469 308.475 487.56 307.966C487.771 306.789 487.972 305.607 488.163 304.43C488.197 304.241 488.223 304.054 488.254 303.865C488.285 303.676 488.314 303.487 488.345 303.3C488.504 302.288 488.658 301.273 488.807 300.257C427.172 204.46 296.122 251.04 212.649 282.755C137.695 311.227 60.6489 249.205 27.3647 217.072C27.1063 217.376 26.8527 217.682 26.5966 217.986C26.1277 218.55 25.6651 219.119 25.2089 219.692L24.6993 220.333L24.5629 220.508C24.3237 220.814 24.0844 221.118 23.8451 221.424L23.7829 221.503C23.7614 221.536 23.735 221.568 23.7135 221.596C23.692 221.625 23.68 221.642 23.6632 221.661C23.4407 221.948 23.2254 222.235 23.0101 222.52L22.8091 222.79C22.6631 222.984 22.5196 223.175 22.3808 223.369L22.1918 223.608L21.9333 223.965C21.8544 224.07 21.7779 224.178 21.6941 224.283C21.5721 224.448 21.4549 224.613 21.3376 224.776C21.2515 224.893 21.1701 225.015 21.0984 225.13C21.0505 225.197 21.005 225.262 20.9572 225.324C20.8208 225.52 20.6796 225.716 20.5456 225.913C20.5193 225.956 20.4906 225.994 20.4619 226.032C20.2561 226.334 20.0479 226.63 19.847 226.929C19.646 227.229 19.4115 227.568 19.1962 227.887L18.9761 228.219L18.5813 228.82C18.5286 228.903 18.4712 228.985 18.4185 229.059C18.3899 229.1 18.3659 229.14 18.3372 229.181C18.2152 229.375 18.098 229.569 17.964 229.762L17.9305 229.815L17.6481 230.26C17.4854 230.514 17.3275 230.77 17.1696 231.023C17.0954 231.141 17.0212 231.263 16.9495 231.38C16.8777 231.497 16.7773 231.657 16.6959 231.794L16.3322 232.389C16.3106 232.425 16.2891 232.466 16.2652 232.502L15.7628 233.349C15.7101 233.442 15.6527 233.536 15.6 233.626C15.423 233.93 15.2459 234.232 15.0736 234.536C15.0736 234.536 15.0736 234.536 15.0736 234.557L14.9684 234.741L14.9397 234.792C14.7626 235.111 14.5871 235.423 14.4133 235.727L14.3271 235.883C14.1357 236.227 13.9459 236.573 13.7577 236.919L13.6429 237.136L13.5208 237.361C13.4419 237.507 13.3629 237.656 13.2816 237.804C13.2481 237.869 13.2097 237.936 13.1763 238.003C13.1428 238.07 13.138 238.074 13.1188 238.115C12.9418 238.45 12.7647 238.785 12.5948 239.122C12.547 239.209 12.5015 239.299 12.4585 239.386C12.3317 239.625 12.2192 239.883 12.0852 240.132C12.0852 240.146 12.0685 240.161 12.0613 240.178C12.0206 240.257 11.9824 240.338 11.9393 240.417C11.8005 240.697 11.6593 240.979 11.5253 241.261L11.3818 241.553L11.3292 241.661C11.3292 241.675 11.3148 241.69 11.31 241.704L11.2837 241.757C11.1593 242.022 11.0324 242.285 10.908 242.551L10.8387 242.695C10.7836 242.819 10.7286 242.934 10.6688 243.065C10.6401 243.121 10.6161 243.178 10.5898 243.238C10.5635 243.298 10.5539 243.31 10.5372 243.348C10.4965 243.441 10.451 243.537 10.4056 243.633C10.3386 243.786 10.2668 243.941 10.195 244.097C10.1907 244.112 10.1842 244.126 10.1759 244.14C10.1041 244.302 10.0299 244.465 9.96054 244.618C9.91269 244.724 9.86484 244.829 9.82178 244.932C9.77872 245.035 9.74521 245.106 9.70691 245.193C9.66864 245.279 9.64948 245.319 9.62317 245.384L9.30496 246.116C9.25232 246.241 9.20209 246.355 9.15186 246.485C9.13989 246.509 9.13031 246.535 9.11835 246.559C8.96521 246.925 8.80969 247.296 8.65897 247.664C8.63504 247.724 8.6087 247.786 8.5824 247.846C8.50583 248.035 8.42926 248.222 8.3551 248.413C8.30963 248.523 8.26416 248.636 8.22348 248.748C8.19717 248.808 8.17563 248.865 8.14929 248.925C8.12299 248.985 8.09665 249.061 8.06793 249.131C7.99377 249.327 7.91483 249.526 7.8287 249.724C7.78323 249.839 7.74255 249.963 7.69949 250.069C7.69852 250.078 7.69852 250.086 7.69949 250.095C7.69131 250.111 7.68414 250.128 7.67798 250.145C7.6666 250.172 7.65698 250.199 7.64926 250.227C7.60141 250.349 7.55356 250.466 7.50571 250.602C7.45786 250.739 7.42673 250.806 7.39084 250.911C7.3071 251.134 7.22336 251.354 7.15158 251.579C7.1181 251.672 7.07977 251.765 7.0463 251.861C6.99603 251.997 6.9458 252.138 6.89795 252.277C6.86206 252.373 6.8262 252.471 6.79269 252.569L6.74246 252.715C6.62283 253.052 6.5032 253.392 6.38596 253.732C6.37894 253.749 6.37332 253.767 6.36917 253.785C6.32132 253.919 6.27826 254.053 6.23041 254.189L6.07492 254.653C6.01749 254.825 5.95767 255 5.90262 255.172C5.88589 255.22 5.86914 255.268 5.85477 255.316C5.85513 255.323 5.85513 255.33 5.85477 255.337C5.79895 255.497 5.74631 255.662 5.69684 255.833C5.6825 255.873 5.66812 255.912 5.65857 255.95C5.65616 255.963 5.65616 255.976 5.65857 255.988C5.64182 256.034 5.62506 256.082 5.61072 256.132L5.58679 256.213C5.55811 256.297 5.52939 256.385 5.50543 256.472C5.40256 256.79 5.30206 257.11 5.20395 257.429L5.14655 257.622C5.05084 257.931 4.95749 258.242 4.86896 258.548L4.76849 258.893C4.67517 259.216 4.58426 259.536 4.49097 259.85C4.46942 259.931 4.44308 260.015 4.42154 260.089C4.33063 260.412 4.2421 260.733 4.15598 261.046C4.0459 261.453 3.94064 261.857 3.83536 262.264C3.74445 262.623 3.65112 262.982 3.56259 263.341C3.56335 263.349 3.56335 263.357 3.56259 263.365C3.49799 263.623 3.43579 263.884 3.3736 264.147C3.3736 264.147 3.3736 264.161 3.3736 264.166C3.33292 264.341 3.29462 264.516 3.25156 264.688C3.23242 264.774 3.2085 264.865 3.18936 264.951C3.11758 265.269 3.04102 265.59 2.97162 265.908C2.92377 266.116 2.87833 266.327 2.83527 266.533C2.8334 266.54 2.8334 266.549 2.83527 266.557C2.79697 266.726 2.76105 266.901 2.72278 267.071L2.70605 267.155C2.67017 267.325 2.63425 267.494 2.60074 267.664C2.56723 267.834 2.53137 267.995 2.49786 268.162C2.48352 268.222 2.47153 268.284 2.46198 268.344C2.40695 268.607 2.35434 268.868 2.30408 269.131C2.27536 269.267 2.25143 269.409 2.2251 269.545C2.17725 269.784 2.13419 270.023 2.08875 270.263C2.0672 270.375 2.04562 270.502 2.02649 270.603C1.97864 270.856 1.93558 271.112 1.89011 271.366C1.8638 271.507 1.8399 271.65 1.81598 271.789C1.81598 271.854 1.79443 271.918 1.78247 271.983C1.77051 272.048 1.76331 272.098 1.75613 272.153C1.7298 272.297 1.70593 272.44 1.68201 272.581C1.6485 272.787 1.61502 272.99 1.58389 273.194C1.56955 273.27 1.55997 273.347 1.548 273.433C1.50732 273.701 1.46426 273.971 1.42596 274.237C1.39966 274.388 1.37808 274.538 1.35895 274.687C1.32068 274.926 1.28717 275.165 1.25607 275.39C1.25607 275.472 1.23215 275.553 1.22256 275.629C1.16992 276.01 1.11972 276.39 1.06946 276.773C1.01923 277.156 0.971375 277.536 0.925903 277.919C0.91394 278.022 0.901978 278.13 0.890015 278.235C0.842163 278.618 0.801483 279.003 0.758423 279.384C0.722534 279.723 0.686646 280.063 0.653168 280.405C0.653168 280.429 0.653168 280.455 0.653168 280.479L0.636383 280.63V280.733C0.574158 281.346 0.521515 281.958 0.471283 282.571C0.452118 282.81 0.430603 283.049 0.411469 283.305C0.411469 283.444 0.389923 283.585 0.380341 283.721C0.370789 283.858 0.358856 284.016 0.346893 284.162C0.330139 284.418 0.311005 284.674 0.296661 284.927C0.295471 284.936 0.295471 284.945 0.296661 284.954C0.296661 285.064 0.282257 285.171 0.277496 285.281C0.265533 285.437 0.258331 285.592 0.248749 285.746C0.234406 285.954 0.224854 286.157 0.215302 286.365C0.215302 286.401 0.215302 286.439 0.215302 286.48C0.214142 286.499 0.214142 286.518 0.215302 286.538C0.196167 286.916 0.177032 287.296 0.162659 287.674L0.138733 288.246C0.138733 288.452 0.121948 288.662 0.114777 288.87C0.113556 288.883 0.113556 288.896 0.114777 288.909C0.114777 289.186 0.0956421 289.461 0.0884705 289.737C0.0884705 289.847 0.0884705 289.952 0.0884705 290.062C0.0884705 290.172 0.0884705 290.344 0.0884705 290.485C0.0884705 290.741 0.0740967 290.997 0.0716858 291.251V291.27C0.0716858 291.426 0.0716858 291.576 0.0716858 291.73C0.0716858 291.967 0.0716858 292.202 0.0716858 292.433V292.672C0.0238342 293.072 0.0190735 293.491 0.0238647 293.905Z" fill="#E4DBFA"/>
<path fill-rule="evenodd" clip-rule="evenodd" d="M0.024231 293.905V294.445C0.024231 294.529 0.024231 294.613 0.024231 294.685C0.024231 295.02 0.024231 295.362 0.024231 295.701V295.747C0.024231 295.893 0.024231 296.036 0.024231 296.182C0.024231 296.558 0.0386353 296.929 0.0505981 297.302C0.0505981 297.4 0.0505981 297.496 0.0505981 297.589C0.0505981 297.683 0.0505981 297.795 0.0505981 297.898C0.0505981 298.082 0.0505676 298.271 0.0673218 298.458C0.0673218 298.776 0.0888672 299.097 0.10321 299.415C0.10321 299.465 0.10321 299.518 0.10321 299.568C0.10321 299.618 0.10321 299.623 0.10321 299.649C0.122345 300.113 0.146301 300.575 0.170227 301.039L0.186951 301.398C0.203705 301.712 0.22522 302.028 0.244385 302.341C0.263519 302.654 0.277863 302.92 0.296997 303.207C0.365601 304.273 0.445374 305.333 0.536285 306.387C0.633606 307.531 0.745239 308.667 0.871246 309.797C0.95578 310.548 1.04352 311.298 1.13443 312.048L1.27805 313.173C1.49576 314.847 1.74219 316.522 1.99582 318.161C2.08673 318.708 2.17844 319.255 2.27097 319.8C2.33316 320.164 2.39539 320.518 2.45996 320.891C2.59158 321.609 2.72318 322.327 2.86194 323.045C3.06451 324.12 3.27908 325.186 3.50558 326.244C3.65393 326.961 3.80704 327.648 3.96255 328.349C4.20184 329.397 4.4411 330.431 4.68036 331.46C5.09509 333.176 5.52734 334.865 5.97717 336.527C6.33606 337.859 6.70532 339.173 7.08496 340.468C7.27319 341.106 7.4646 341.744 7.65921 342.382C8.23822 344.296 8.83398 346.165 9.4465 347.988C9.74957 348.899 10.0574 349.797 10.3701 350.682C11.6095 354.228 12.8895 357.583 14.16 360.71C14.373 361.227 14.5836 361.741 14.7941 362.248C14.8994 362.504 15.0047 362.755 15.1123 363.009C15.3197 363.508 15.5294 364.003 15.7416 364.493C16.2664 365.714 16.784 366.895 17.2944 368.034L17.9046 369.374C18.7109 371.137 19.4956 372.785 20.2445 374.314C20.6178 375.075 20.9823 375.807 21.338 376.508C21.6036 377.035 21.8596 377.544 22.1156 378.035C22.2751 378.354 22.4402 378.673 22.6109 378.992L22.8502 379.451C23.0081 379.755 23.166 380.05 23.3167 380.332C23.556 380.76 23.7641 381.169 23.9771 381.557C24.1183 381.815 24.2547 382.067 24.3886 382.308C24.5872 382.672 24.781 383.026 24.9604 383.335C25.1997 383.765 25.4239 384.159 25.6328 384.517C25.7859 384.785 25.9295 385.031 26.0611 385.256C26.1472 385.407 26.231 385.545 26.3004 385.677C26.3411 385.742 26.3769 385.806 26.4128 385.868L26.6162 386.201C26.9201 386.711 27.0947 386.974 27.0947 386.974C51.8251 424.259 90.634 457.751 137.001 479.141C141.743 481.328 146.561 483.386 151.455 485.314C171.876 493.351 193.547 499.024 215.971 501.69C224.807 502.766 233.695 503.356 242.596 503.458C247.086 503.501 251.596 503.421 256.124 503.218C276.786 502.253 297.235 498.601 316.955 492.356C352.287 481.185 387.643 461.113 421.298 429.946C421.681 429.594 422.057 429.242 422.435 428.886C422.971 428.388 423.5 427.883 424.026 427.381L424.311 427.106C424.807 426.627 425.3 426.149 425.789 425.67L426.335 425.13C426.574 424.909 426.785 424.687 427.007 424.467C427.23 424.247 427.38 424.096 427.565 423.909C427.859 423.617 428.146 423.323 428.436 423.034C428.613 422.856 428.785 422.677 428.96 422.5C429.366 422.087 429.772 421.671 430.178 421.253C430.599 420.813 431.022 420.373 431.441 419.93C431.551 419.815 431.661 419.691 431.766 419.588L432.221 419.11C432.522 418.791 432.819 418.473 433.118 418.153C433.242 418.021 433.357 417.887 433.489 417.753L434.295 416.877L434.346 416.822C434.369 416.796 434.398 416.765 434.422 416.734C434.834 416.281 435.243 415.832 435.649 415.379C436.004 414.985 436.367 414.59 436.707 414.183C436.798 414.085 436.884 413.982 436.97 413.886L437.312 413.496C437.647 413.114 437.98 412.731 438.31 412.348C438.447 412.192 438.583 412.035 438.714 411.869C439.045 411.49 439.371 411.108 439.693 410.723L439.863 410.522C440.184 410.144 440.504 409.764 440.82 409.383C440.863 409.333 440.906 409.278 440.949 409.226L441.208 408.915L442.251 407.654L443.098 406.603L443.842 405.675L444.265 405.139L444.658 404.644L444.682 404.61C444.971 404.246 445.256 403.892 445.536 403.514C445.703 403.304 445.869 403.091 446.031 402.878C446.378 402.426 446.723 401.976 447.067 401.521L447.33 401.169C447.546 400.885 447.759 400.602 447.972 400.315C448.041 400.22 448.115 400.129 448.185 400.033L448.261 399.93C448.646 399.41 449.028 398.889 449.41 398.368L449.424 398.346C449.812 397.813 450.194 397.284 450.575 396.75L450.814 396.396C451.111 395.982 451.403 395.566 451.697 395.147L451.936 394.8C452.226 394.382 452.518 393.965 452.807 393.542C453.176 393.003 453.539 392.467 453.905 391.929L454.444 391.12L454.982 390.307C455.02 390.249 455.061 390.192 455.097 390.135L455.968 388.802C455.989 388.768 456.009 388.737 456.032 388.706L456.166 388.496C456.478 388.017 456.789 387.524 457.095 387.041C457.442 386.495 457.786 385.945 458.128 385.397L458.239 385.22C458.427 384.915 458.615 384.61 458.803 384.304C458.959 384.05 459.114 383.799 459.267 383.545C459.894 382.508 460.513 381.472 461.124 380.435L461.146 380.399L462.069 378.803C462.069 378.789 462.084 378.779 462.088 378.767C462.409 378.207 462.725 377.65 463.045 377.092C463.261 376.709 463.476 376.322 463.689 375.937C463.902 375.551 464.098 375.19 464.301 374.814C464.505 374.439 464.737 374.015 464.95 373.618C465.163 373.221 465.364 372.843 465.57 372.453L465.783 372.051L465.804 372.013C466.096 371.453 466.388 370.893 466.677 370.338C466.677 370.309 466.706 370.28 466.723 370.249C466.852 369.993 466.981 369.74 467.113 369.486C467.244 369.232 467.402 368.917 467.544 368.632L467.682 368.359L468.4 366.923L469.235 365.206C469.508 364.631 469.781 364.059 470.051 363.483C470.099 363.385 470.144 363.284 470.192 363.186C470.278 362.995 470.367 362.808 470.455 362.617C470.589 362.33 470.721 362.04 470.855 361.753C471.094 361.212 471.348 360.676 471.592 360.136C471.625 360.054 471.661 359.975 471.697 359.896C471.936 359.356 472.176 358.82 472.415 358.279C472.616 357.822 472.815 357.367 473.008 356.908C473.068 356.776 473.123 356.642 473.181 356.511C473.42 355.941 473.659 355.374 473.898 354.802C473.897 354.797 473.897 354.791 473.898 354.786C474.131 354.226 474.362 353.667 474.59 353.111C474.645 352.97 474.705 352.831 474.76 352.69C474.963 352.192 475.164 351.692 475.36 351.194C475.58 350.634 475.798 350.074 476.018 349.519C476.126 349.239 476.234 348.959 476.339 348.677C476.444 348.395 476.552 348.117 476.66 347.835C476.767 347.553 476.899 347.213 477.009 346.902C477.119 346.591 477.248 346.28 477.353 345.969C477.569 345.382 477.782 344.794 477.992 344.205C477.991 344.197 477.991 344.188 477.992 344.179C478.2 343.593 478.409 343.009 478.61 342.423C478.758 342 478.903 341.577 479.045 341.152C479.069 341.085 479.09 341.021 479.112 340.954L479.222 340.638C479.275 340.475 479.332 340.312 479.385 340.159C479.416 340.071 479.442 339.982 479.473 339.894C479.504 339.805 479.552 339.654 479.591 339.535C479.607 339.482 479.629 339.427 479.648 339.372C479.703 339.2 479.76 339.03 479.818 338.855C479.894 338.616 479.973 338.377 480.045 338.152C480.093 338.011 480.141 337.867 480.184 337.724C480.258 337.503 480.327 337.281 480.397 337.061V337.032C480.438 336.903 480.481 336.778 480.519 336.649C480.519 336.649 480.519 336.635 480.519 336.63C480.643 336.231 480.758 335.831 480.892 335.434C480.914 335.379 480.93 335.319 480.947 335.264C481.033 334.986 481.117 334.709 481.201 334.431C481.285 334.154 481.383 333.84 481.474 333.544C481.483 333.502 481.495 333.462 481.509 333.422C481.612 333.072 481.715 332.725 481.818 332.374C481.921 332.022 482.041 331.625 482.148 331.249C482.256 330.873 482.366 330.498 482.469 330.122C482.498 330.029 482.522 329.935 482.55 329.845C482.579 329.754 482.589 329.701 482.61 329.632C482.653 329.467 482.701 329.304 482.746 329.139C482.768 329.065 482.79 328.99 482.809 328.916C482.892 328.62 482.974 328.328 483.048 328.031L483.316 327.031C483.397 326.734 483.476 326.437 483.555 326.138C483.589 326.009 483.627 325.878 483.66 325.746C483.747 325.413 483.833 325.076 483.916 324.743C483.929 324.713 483.937 324.68 483.943 324.648C483.964 324.562 483.988 324.478 484.01 324.392C417.822 319.824 342.382 360.018 269.073 384.655C231.87 397.159 195.212 405.656 160.593 402.261C148.266 401.052 136.188 398.337 124.452 393.757C24.5657 354.802 0.203705 290.304 0.0170593 289.801C0.0170593 289.911 0.0170593 290.016 0.0170593 290.127C0.0170593 290.237 0.0170593 290.409 0.0170593 290.55C0.0170593 290.806 0.00274658 291.062 0.000335693 291.316V291.335C0.000335693 291.49 0.000335693 291.641 0.000335693 291.794C0.000335693 292.032 0.000335693 292.266 0.000335693 292.498V292.737C0.0242615 293.072 0.0194702 293.491 0.024231 293.905Z" fill="#BEB2DA"/>
<path d="M235.373 1.01282C158.679 -0.07584 129.292 68.5526 129.292 68.5526" stroke="#E4DBFA" stroke-width="0.815777" stroke-linecap="round"/>
<path d="M247.608 2.63055C247.608 2.63055 274.283 3.40577 284.33 5.741" stroke="#E4DBFA" stroke-width="0.815777" stroke-linecap="round"/>
<path fill-rule="evenodd" clip-rule="evenodd" d="M411.171 369.297C411.171 369.297 409.496 392.147 403.595 394.843C397.695 397.54 389.732 391.891 390.5 387.397C391.269 382.904 401.028 359.283 406.548 363.262C412.068 367.241 411.171 369.297 411.171 369.297Z" fill="#FED194"/>
<path fill-rule="evenodd" clip-rule="evenodd" d="M410.241 377.283C410.241 377.283 407.234 381.021 405.609 382.476C403.985 383.93 402.614 385.215 402.099 384.787C401.585 384.359 399.405 376.891 402.013 374.943C404.621 372.996 410.83 372.804 410.83 372.804L410.241 377.283Z" fill="#F59D4E"/>
<path fill-rule="evenodd" clip-rule="evenodd" d="M137.063 479.182C141.806 481.369 146.623 483.426 151.517 485.355C171.939 493.392 193.609 499.065 216.033 501.73C217.581 496.363 233.021 443.146 236.322 448.632C238.146 451.674 240.648 478.608 242.608 503.446C267.826 503.701 292.925 499.95 316.967 492.334C318.881 462.172 320.709 425.737 321.812 402.82C322.463 389.259 322.857 380.43 322.857 380.43L320.039 380.65L269.133 384.586L163.545 392.75L160.652 402.191L142.298 462.096V462.113L141.444 464.898C141.437 464.915 141.432 464.932 141.43 464.95L140.738 467.202L137.063 479.182Z" fill="#663E36"/>
<path fill-rule="evenodd" clip-rule="evenodd" d="M137.064 479.182C141.806 481.369 146.624 483.426 151.518 485.355C178.095 415.753 219.359 426.295 250.956 426.295C285.951 426.295 321.81 402.82 321.81 402.82C322.461 389.259 322.855 380.43 322.855 380.43L320.037 380.65L269.131 384.588L163.543 392.752L160.65 402.193L142.296 462.098V462.115L141.442 464.9C141.435 464.917 141.43 464.935 141.428 464.953L140.736 467.204L137.064 479.182Z" fill="#59302A"/>
<path fill-rule="evenodd" clip-rule="evenodd" d="M163.545 392.752L142.294 462.115C152.982 429.489 182.887 414.688 227.58 412.826C273.519 410.9 311.047 396.36 311.047 396.36C311.047 396.36 315.713 391.036 320.039 380.66L163.545 392.752Z" fill="#42211D"/>
<path fill-rule="evenodd" clip-rule="evenodd" d="M311.047 396.351C311.047 396.351 226.988 417.906 160.985 401.112L166.449 383.052L311.047 396.351Z" fill="#27140E"/>
<path fill-rule="evenodd" clip-rule="evenodd" d="M330.426 380.851V394.329C330.426 394.329 247.879 404.727 187.795 396.64C187.795 396.64 164.986 394.609 160.985 391.58L163.919 371.606L330.426 380.851Z" fill="white"/>
<path fill-rule="evenodd" clip-rule="evenodd" d="M222.718 118.889C222.718 118.889 231.279 126.414 228.487 131.81C225.695 137.205 246.3 127.08 240.752 119.497C235.203 111.915 215.337 93.5513 214.55 103.206C213.763 112.86 222.718 118.889 222.718 118.889Z" fill="#72120C"/>
<path fill-rule="evenodd" clip-rule="evenodd" d="M280.896 68.8277C280.896 68.8277 286.399 82.1404 286.425 94.6994C286.451 107.258 285.769 120.657 279.9 127.957C274.031 135.257 264.164 136.449 264.164 136.449C264.164 136.449 264.138 152.03 266.628 155.875C269.119 159.72 261.427 180.179 255.84 178.868C250.253 177.557 243.288 175.538 239.228 164.783C235.167 154.028 232.842 159.576 232.842 159.576C232.842 159.576 237.16 134.233 235.067 130.008C232.973 125.782 225.484 115.14 224.01 109.005C224.01 109.005 218.268 109.338 214.531 106.009C210.793 102.681 209.506 92.357 215.229 91.6967C215.229 91.6967 210.669 74.8093 213.43 69.0191C216.191 63.2289 243.518 51.3733 248.296 51.0072C253.074 50.6411 280.896 68.8277 280.896 68.8277Z" fill="#FED194"/>
<path fill-rule="evenodd" clip-rule="evenodd" d="M266.874 174.164C266.874 174.164 274.32 181.342 268.159 192.566C261.998 203.79 267.996 221.663 249.42 209.511C230.843 197.358 222.201 193.592 229.305 185.204C235.047 178.421 244.821 170.111 250.87 170.398L253.262 174.762L255.519 170.549C258.718 170.106 266.874 174.164 266.874 174.164Z" fill="#BBC3C4"/>
<path fill-rule="evenodd" clip-rule="evenodd" d="M161.799 382.198C161.799 382.198 236.323 397.41 319.125 385.086C319.125 385.086 323.872 384.445 336.199 384.186L323.872 177.995C323.872 177.995 314.445 173.571 303.69 169.293C295.251 165.943 285.985 162.672 279.84 161.713C265.848 159.528 269.827 179.043 269.827 179.043C269.827 179.043 263.472 198.299 253.265 196.76C243.058 195.222 236.323 177.995 236.323 177.995C236.323 177.995 223.228 160.748 217.064 160.942C217.064 160.942 210.518 161.899 202.043 163.445C193.568 164.991 179.902 169.427 177.59 172.298L171.716 243.838L171.238 249.71C171.238 249.71 157.564 350.038 161.799 382.198Z" fill="#6D378F"/>
<path fill-rule="evenodd" clip-rule="evenodd" d="M161.799 382.198C161.799 382.198 220.005 394.08 290.691 388.335C299.986 387.579 309.5 386.519 319.125 385.086C319.125 385.086 323.872 384.444 336.199 384.186L327.899 245.321L323.872 177.995C323.872 177.995 314.445 173.571 303.69 169.292C303.69 169.292 284.81 268.779 244.003 281.295C203.197 293.811 177.009 244.898 177.009 244.898C177.009 244.898 174.994 244.376 171.712 243.843L171.233 249.714C171.233 249.714 170.556 254.674 169.558 262.745C167.18 281.84 162.959 318.347 161.505 347.703C160.801 361.726 160.734 374.115 161.799 382.198Z" fill="#582279"/>
<path fill-rule="evenodd" clip-rule="evenodd" d="M161.5 347.696C189.273 359.03 241.747 378.82 290.703 388.328C299.998 387.572 309.511 386.512 319.137 385.079C319.137 385.079 323.884 384.438 336.211 384.179L327.911 245.315C325.466 242.745 323.257 241.355 321.451 241.426C302.582 242.197 279.086 266.217 279.086 266.217C279.086 266.217 264.838 342.439 176.643 268.44C174.175 266.366 171.817 264.465 169.57 262.738C167.175 281.841 162.954 318.348 161.5 347.696Z" fill="#42115F"/>
<path fill-rule="evenodd" clip-rule="evenodd" d="M421.775 162.261L395.688 262.611L309.933 242.293L289.854 225.946L309.902 142.122L333.826 138.746L421.775 162.261Z" fill="#08C6D2"/>
<path opacity="0.5" fill-rule="evenodd" clip-rule="evenodd" d="M310.002 142L289.855 225.946L309.826 242.226L309.936 242.29L318.402 206.972L334.703 138.98L334.705 138.973L334.684 138.976L331.013 139.143L310.002 142Z" fill="#035A60"/>
<path opacity="0.5" fill-rule="evenodd" clip-rule="evenodd" d="M378.125 212.189C391.32 208.576 404.803 201.814 413.51 193.885L395.687 262.611L309.932 242.293L318.399 206.973C336.416 213.947 360.446 217.031 378.125 212.189Z" fill="#008C95"/>
<path fill-rule="evenodd" clip-rule="evenodd" d="M388.73 153.047L382.83 176.09C379.263 174.894 375.688 173.624 372.176 172.064L377.808 149.867L388.73 153.047Z" fill="black"/>
<path fill-rule="evenodd" clip-rule="evenodd" d="M332.322 220.936C335.911 222.549 339.447 224.188 343 225.704L336.616 249.631L325.558 246.303L332.322 220.936Z" fill="black"/>
<path fill-rule="evenodd" clip-rule="evenodd" d="M333.95 163.076L357.898 168.498L361.91 154.157L337.931 148.534L333.95 163.076Z" fill="#EAECED"/>
<path fill-rule="evenodd" clip-rule="evenodd" d="M355.455 166.214L356.953 166.563L359.973 155.963L358.475 155.604L355.455 166.214Z" fill="black"/>
<path fill-rule="evenodd" clip-rule="evenodd" d="M355.159 166.142L355.752 166.283L358.771 155.676L358.178 155.535L355.159 166.142Z" fill="black"/>
<path fill-rule="evenodd" clip-rule="evenodd" d="M353.905 165.85L354.5 165.989L357.518 155.377L356.922 155.236L353.905 165.85Z" fill="black"/>
<path fill-rule="evenodd" clip-rule="evenodd" d="M350.138 164.967L350.734 165.108L353.746 154.477L353.15 154.334L350.138 164.967Z" fill="black"/>
<path fill-rule="evenodd" clip-rule="evenodd" d="M347.396 164.326L348.439 164.57L351.449 153.927L350.404 153.678L347.396 164.326Z" fill="black"/>
<path fill-rule="evenodd" clip-rule="evenodd" d="M346.359 164.082L346.957 164.223L349.965 153.573L349.367 153.43L346.359 164.082Z" fill="black"/>
<path fill-rule="evenodd" clip-rule="evenodd" d="M345.098 163.787L345.696 163.926L348.701 153.272L348.103 153.128L345.098 163.787Z" fill="black"/>
<path fill-rule="evenodd" clip-rule="evenodd" d="M342.344 163.141L343.392 163.388L346.395 152.721L345.344 152.47L342.344 163.141Z" fill="black"/>
<path fill-rule="evenodd" clip-rule="evenodd" d="M341.303 162.897L341.902 163.038L344.904 152.365L344.304 152.221L341.303 162.897Z" fill="black"/>
<path fill-rule="evenodd" clip-rule="evenodd" d="M338.764 162.304L339.367 162.445L342.365 151.759L341.762 151.614L338.764 162.304Z" fill="black"/>
<path fill-rule="evenodd" clip-rule="evenodd" d="M336.224 161.708L336.827 161.852L339.822 151.152L339.217 151.006L336.224 161.708Z" fill="black"/>
<g style="mix-blend-mode:multiply" opacity="0.32">
<path fill-rule="evenodd" clip-rule="evenodd" d="M355.245 209.836C351.435 209.836 348.347 206.748 348.347 202.938C348.347 199.129 351.435 196.04 355.245 196.04C359.054 196.04 362.143 199.129 362.143 202.938C362.143 206.748 359.054 209.836 355.245 209.836Z" fill="#EDAD8A"/>
</g>
<g style="mix-blend-mode:multiply" opacity="0.32">
<path fill-rule="evenodd" clip-rule="evenodd" d="M339.854 203.735C337.807 203.735 336.148 202.075 336.148 200.028C336.148 197.982 337.807 196.322 339.854 196.322C341.901 196.322 343.561 197.982 343.561 200.028C343.561 202.075 341.901 203.735 339.854 203.735Z" fill="#EDAD8A"/>
</g>
<path fill-rule="evenodd" clip-rule="evenodd" d="M225.512 235.875C225.512 235.875 224.251 237.268 221.152 237.43C218.054 237.593 203.724 238.426 202.36 236.263C200.686 233.631 202.057 229.489 204.753 229.927C207.45 230.365 225.512 235.875 225.512 235.875Z" fill="#42115F"/>
<path fill-rule="evenodd" clip-rule="evenodd" d="M225.762 230.294L204.391 229.436L204.165 235.054L225.536 235.913L225.762 230.294Z" fill="white"/>
<path fill-rule="evenodd" clip-rule="evenodd" d="M437.281 254.483L401.64 391.58L284.482 363.823L257.045 341.487L284.436 226.965L317.125 222.355L437.281 254.483Z" fill="#08C6D2"/>
<path opacity="0.5" fill-rule="evenodd" clip-rule="evenodd" d="M284.438 226.965L257.046 341.487L284.335 363.729L284.483 363.82L296.051 315.565L318.32 222.675L318.322 222.666L318.294 222.668L313.281 222.898L284.438 226.965Z" fill="#24898F"/>
<path fill-rule="evenodd" clip-rule="evenodd" d="M377.647 322.693C395.676 317.757 414.094 308.519 425.979 297.685L401.629 391.58L284.47 363.825L296.038 315.57C320.666 325.083 353.491 329.309 377.647 322.693Z" fill="#008C95"/>
<path fill-rule="evenodd" clip-rule="evenodd" d="M392.137 241.89L384.076 273.377C379.204 271.736 374.319 270.004 369.519 267.874L377.216 237.55L392.137 241.89Z" fill="black"/>
<path fill-rule="evenodd" clip-rule="evenodd" d="M315.061 334.646C319.954 336.847 324.799 339.087 329.656 341.159L320.933 373.857L305.828 369.311L315.061 334.646Z" fill="black"/>
<path fill-rule="evenodd" clip-rule="evenodd" d="M317.295 255.596L350.013 263.003L355.494 243.407L322.734 235.729L317.295 255.596Z" fill="#EAECED"/>
<path fill-rule="evenodd" clip-rule="evenodd" d="M346.673 259.881L348.719 260.36L352.844 245.877L350.798 245.389L346.673 259.881Z" fill="black"/>
<path fill-rule="evenodd" clip-rule="evenodd" d="M346.269 259.785L347.081 259.974L351.203 245.484L350.392 245.293L346.269 259.785Z" fill="black"/>
<path fill-rule="evenodd" clip-rule="evenodd" d="M344.557 259.383L345.37 259.574L349.49 245.077L348.679 244.884L344.557 259.383Z" fill="black"/>
<path fill-rule="evenodd" clip-rule="evenodd" d="M339.409 258.18L340.223 258.369L344.338 243.846L343.524 243.652L339.409 258.18Z" fill="black"/>
<path fill-rule="evenodd" clip-rule="evenodd" d="M335.662 257.302L337.091 257.637L341.201 243.097L339.773 242.757L335.662 257.302Z" fill="black"/>
<path fill-rule="evenodd" clip-rule="evenodd" d="M334.246 256.971L335.062 257.16L339.17 242.613L338.354 242.417L334.246 256.971Z" fill="black"/>
<path fill-rule="evenodd" clip-rule="evenodd" d="M332.521 256.567L333.34 256.759L337.445 242.202L336.627 242.006L332.521 256.567Z" fill="black"/>
<path fill-rule="evenodd" clip-rule="evenodd" d="M328.76 255.684L330.193 256.021L334.297 241.448L332.861 241.106L328.76 255.684Z" fill="black"/>
<path fill-rule="evenodd" clip-rule="evenodd" d="M327.337 255.352L328.157 255.545L332.256 240.96L331.438 240.766L327.337 255.352Z" fill="black"/>
<path fill-rule="evenodd" clip-rule="evenodd" d="M323.872 254.54L324.693 254.734L328.789 240.132L327.966 239.936L323.872 254.54Z" fill="black"/>
<path fill-rule="evenodd" clip-rule="evenodd" d="M320.398 253.727L321.221 253.921L325.312 239.302L324.489 239.105L320.398 253.727Z" fill="black"/>
<g style="mix-blend-mode:multiply" opacity="0.32">
<path fill-rule="evenodd" clip-rule="evenodd" d="M346.388 319.482C341.183 319.482 336.963 315.262 336.963 310.057C336.963 304.852 341.183 300.633 346.388 300.633C351.593 300.633 355.812 304.852 355.812 310.057C355.812 315.262 351.593 319.482 346.388 319.482Z" fill="#EDAD8A"/>
</g>
<g style="mix-blend-mode:multiply" opacity="0.32">
<path fill-rule="evenodd" clip-rule="evenodd" d="M325.361 311.143C322.565 311.143 320.298 308.877 320.298 306.081C320.298 303.284 322.565 301.018 325.361 301.018C328.157 301.018 330.424 303.284 330.424 306.081C330.424 308.877 328.157 311.143 325.361 311.143Z" fill="#EDAD8A"/>
</g>
<path fill-rule="evenodd" clip-rule="evenodd" d="M231.691 99.2193C231.691 99.2193 228.82 85.6698 231.605 74.8502C234.39 64.0306 230.959 51.6678 230.959 51.6678C230.959 51.6678 208.911 54.8093 210.533 71.3641C212.155 87.9188 215.23 91.6825 215.23 91.6825C215.23 91.6825 220.446 91.1633 226.691 98.2336C232.936 105.304 231.691 99.2193 231.691 99.2193Z" fill="#72120C"/>
<path fill-rule="evenodd" clip-rule="evenodd" d="M201.864 93.6082C210.049 115.185 222.719 118.889 222.719 118.889C222.719 118.889 218.536 114.173 219.934 100.808C220.321 97.1253 222.24 91.1509 224.817 84.4252C231.588 66.765 242.91 43.9487 242.91 43.9487L248.301 39.4026C248.301 39.4026 234.423 33.8182 221.12 40.1563C211.449 44.7717 193.681 72.0312 201.864 93.6082Z" fill="#6D378F"/>
<path fill-rule="evenodd" clip-rule="evenodd" d="M211.877 67.9113C217.079 80.0875 224.817 84.4206 224.817 84.4206C231.588 66.7605 242.91 43.9442 242.91 43.9442L248.301 39.3981C248.301 39.3981 233.797 32.6532 221.12 40.1518L220.881 40.293C211.387 45.9451 207.538 57.7495 211.877 67.9113Z" fill="white"/>
<path fill-rule="evenodd" clip-rule="evenodd" d="M222.318 91.3589C226.721 80.6948 230.791 72.2177 236.036 66.4418C241.103 60.8645 247.262 57.7948 255.88 57.6943C267.264 57.5579 275.466 65.3938 279.823 70.9065C281.161 72.571 282.361 74.341 283.412 76.199C283.412 76.199 287.958 67.0137 292.316 57.5627C291.926 56.9376 291.631 56.2578 291.442 55.5457C291.362 55.2333 291.341 54.9087 291.38 54.5886C291.971 50.4852 286.93 44.4605 291.545 45.2022C292.763 45.4008 294.4 46.8532 296.158 48.8917C296.167 48.9048 296.178 48.9168 296.189 48.9276C296.809 47.492 297.386 46.1258 297.898 44.8601L297.929 44.7907C297.927 44.7861 297.927 44.781 297.929 44.7764C298.173 44.1798 298.399 43.6087 298.608 43.0632C299.376 41.0701 299.915 39.4623 300.116 38.443C300.746 34.8846 301.023 31.2723 300.941 27.6593C300.821 20.9958 299.525 13.5427 295.608 9.31009C289.179 2.3714 266.621 3.13466 250.796 25.0346C235.093 46.7623 222.515 90.6746 222.318 91.3589Z" fill="#6D378F"/>
<path fill-rule="evenodd" clip-rule="evenodd" d="M236.036 66.4425C241.103 60.8652 247.262 57.7955 255.88 57.695C267.265 57.5586 275.467 65.3945 279.824 70.9072C280.344 70.5709 280.806 70.1514 281.19 69.6654C283.42 66.4329 287.985 60.2096 291.435 55.5488C293.94 52.1608 295.852 49.5958 295.852 49.5958L296.151 48.902L297.891 44.8775L297.922 44.8082C297.92 44.8035 297.92 44.7984 297.922 44.7938C298.068 44.1669 301.298 29.6818 287.731 23.6547C273.868 17.4913 251.346 34.1824 236.967 64.3298C236.617 65.0604 236.307 65.7646 236.036 66.4425Z" fill="#582279"/>
<path fill-rule="evenodd" clip-rule="evenodd" d="M232.092 71.5841C232.386 71.1343 246.182 55.539 257.298 64.2817C268.154 72.8163 287.496 77.1661 294.987 61.1713C295.531 60.0045 295.99 58.8003 296.361 57.5679C296.483 57.1588 296.588 56.7592 296.669 56.3716C297.701 51.4643 295.547 47.6863 291.532 45.2218C285.01 41.2165 269.953 43.7863 256.375 50.3445C245.816 55.4241 236.15 62.9179 232.092 71.5841Z" fill="#72120C"/>
<path fill-rule="evenodd" clip-rule="evenodd" d="M264.163 136.439C264.163 136.439 258.134 136.96 250.939 134.331C250.939 134.331 246.79 131.893 250.501 138.638C254.212 145.383 264.635 146.852 264.635 146.852L264.163 136.439Z" fill="#F59D4E"/>
<path fill-rule="evenodd" clip-rule="evenodd" d="M277.346 94.5153C277.031 92.8265 277.511 91.3205 278.417 91.1515C279.324 90.9824 280.314 92.2144 280.629 93.9032C280.944 95.5919 280.464 97.098 279.557 97.267C278.651 97.436 277.66 96.2041 277.346 94.5153Z" fill="#72120C"/>
<path fill-rule="evenodd" clip-rule="evenodd" d="M255.469 97.5062C255.154 95.8174 255.634 94.3114 256.54 94.1424C257.447 93.9733 258.437 95.2053 258.752 96.8941C259.067 98.5828 258.587 100.089 257.68 100.258C256.774 100.427 255.783 99.195 255.469 97.5062Z" fill="#72120C"/>
<path fill-rule="evenodd" clip-rule="evenodd" d="M258.165 84.0666C258.249 83.6982 257.722 83.4326 257.294 83.3488C255.933 83.0785 252.523 82.6909 251.552 85.263C250.748 87.3781 251.894 86.878 252.052 86.5454C252.291 86.031 252.939 84.94 253.672 84.5236C255.354 83.5474 257.969 84.9112 258.165 84.0666Z" fill="#72120C"/>
<path fill-rule="evenodd" clip-rule="evenodd" d="M283.171 84.6124C283.484 84.2296 283.137 83.6266 282.774 83.2917C281.613 82.2221 278.524 79.875 275.947 82.3346C273.825 84.354 275.263 84.4066 275.627 84.1052C276.187 83.641 277.51 82.727 278.486 82.648C280.742 82.459 282.446 85.4881 283.171 84.6124Z" fill="#72120C"/>
<path fill-rule="evenodd" clip-rule="evenodd" d="M270.507 94.8717C270.677 96.6996 270.968 98.5141 271.381 100.303C271.56 101.2 271.807 102.081 272.029 102.968C272.252 103.856 272.536 104.727 272.823 105.6C272.981 106.041 273.137 106.474 273.333 106.933C273.388 107.064 273.449 107.192 273.517 107.316L273.572 107.416L273.599 107.467C273.599 107.481 273.623 107.512 273.613 107.498C273.603 107.483 273.596 107.455 273.582 107.414C273.576 107.379 273.576 107.344 273.582 107.309C273.582 107.29 273.582 107.287 273.582 107.275C273.582 107.263 273.582 107.254 273.582 107.256C273.582 107.258 273.582 107.256 273.582 107.256V107.278L273.558 107.309C273.462 107.43 273.35 107.538 273.225 107.629C273.068 107.746 272.903 107.853 272.732 107.95C272.378 108.151 271.993 108.342 271.598 108.519C269.947 109.208 268.232 109.734 266.478 110.089V110.185C268.307 110.145 270.119 109.822 271.85 109.228C272.283 109.078 272.706 108.9 273.115 108.694C273.538 108.497 273.921 108.223 274.245 107.888C274.328 107.796 274.394 107.691 274.441 107.577C274.493 107.455 274.506 107.32 274.477 107.191C274.462 107.127 274.437 107.066 274.403 107.01L274.328 106.861C274.277 106.763 274.231 106.661 274.192 106.557C274.02 106.141 273.874 105.71 273.728 105.282C273.144 103.562 272.62 101.818 272.103 100.073C271.586 98.3291 271.089 96.58 270.598 94.8286L270.507 94.8717Z" fill="#F59D4E"/>
<path fill-rule="evenodd" clip-rule="evenodd" d="M274.043 119.15C270.021 119.734 262.941 119.987 256.679 116.25C256.591 116.196 256.476 116.22 256.416 116.305C256.357 116.39 256.373 116.506 256.454 116.571C259.972 119.358 266.826 123.371 274.327 120.143C274.565 120.037 274.688 119.773 274.616 119.523C274.545 119.273 274.3 119.114 274.043 119.15Z" fill="#F59D4E"/>
<path fill-rule="evenodd" clip-rule="evenodd" d="M252.491 104.399C252.076 104.399 251.74 104.063 251.74 103.648C251.74 103.233 252.076 102.897 252.491 102.897C252.906 102.897 253.242 103.233 253.242 103.648C253.242 104.063 252.906 104.399 252.491 104.399Z" fill="#F59D4E"/>
<path fill-rule="evenodd" clip-rule="evenodd" d="M279.51 102.04C279.095 102.04 278.759 101.704 278.759 101.289C278.759 100.874 279.095 100.538 279.51 100.538C279.925 100.538 280.262 100.874 280.262 101.289C280.262 101.704 279.925 102.04 279.51 102.04Z" fill="#F59D4E"/>
<path fill-rule="evenodd" clip-rule="evenodd" d="M249.67 105.65C249.377 105.65 249.139 105.413 249.139 105.119C249.139 104.826 249.377 104.588 249.67 104.588C249.963 104.588 250.201 104.826 250.201 105.119C250.201 105.413 249.963 105.65 249.67 105.65Z" fill="#F59D4E"/>
<path fill-rule="evenodd" clip-rule="evenodd" d="M283.611 99.1403C283.318 99.1403 283.08 98.9025 283.08 98.6092C283.08 98.3158 283.318 98.078 283.611 98.078C283.905 98.078 284.143 98.3158 284.143 98.6092C284.143 98.9025 283.905 99.1403 283.611 99.1403Z" fill="#F59D4E"/>
<path fill-rule="evenodd" clip-rule="evenodd" d="M283.352 105.873C283.058 105.873 282.82 105.635 282.82 105.342C282.82 105.049 283.058 104.811 283.352 104.811C283.645 104.811 283.883 105.049 283.883 105.342C283.883 105.635 283.645 105.873 283.352 105.873Z" fill="#F59D4E"/>
<path fill-rule="evenodd" clip-rule="evenodd" d="M249.195 103.114C248.902 103.114 248.664 102.876 248.664 102.583C248.664 102.29 248.902 102.052 249.195 102.052C249.489 102.052 249.727 102.29 249.727 102.583C249.727 102.876 249.489 103.114 249.195 103.114Z" fill="#F59D4E"/>
<path fill-rule="evenodd" clip-rule="evenodd" d="M255.729 106.916C255.314 106.916 254.978 106.58 254.978 106.165C254.978 105.75 255.314 105.414 255.729 105.414C256.144 105.414 256.48 105.75 256.48 106.165C256.48 106.58 256.144 106.916 255.729 106.916Z" fill="#F59D4E"/>
<path fill-rule="evenodd" clip-rule="evenodd" d="M251.871 109.034C251.341 109.034 250.911 108.604 250.911 108.075C250.911 107.545 251.341 107.115 251.871 107.115C252.401 107.115 252.83 107.545 252.83 108.075C252.83 108.604 252.401 109.034 251.871 109.034Z" fill="#F59D4E"/>
<path fill-rule="evenodd" clip-rule="evenodd" d="M282.709 102.858C282.179 102.858 281.749 102.428 281.749 101.899C281.749 101.369 282.179 100.939 282.709 100.939C283.238 100.939 283.668 101.369 283.668 101.899C283.668 102.428 283.238 102.858 282.709 102.858Z" fill="#F59D4E"/>
<path fill-rule="evenodd" clip-rule="evenodd" d="M247.921 108.139C247.392 108.139 246.962 107.709 246.962 107.179C246.962 106.65 247.392 106.22 247.921 106.22C248.451 106.22 248.881 106.65 248.881 107.179C248.881 107.709 248.451 108.139 247.921 108.139Z" fill="#F59D4E"/>
<path opacity="0.67" fill-rule="evenodd" clip-rule="evenodd" d="M232.092 71.5839C232.387 71.1341 246.183 55.5388 257.299 64.2816C268.154 72.8161 287.496 77.166 294.988 61.1711C295.531 60.0044 295.99 58.8002 296.361 57.5678C296.483 57.1586 296.589 56.7591 296.67 56.3714C291.095 64.1141 278.156 64.8151 271.561 63.5159C259.943 61.2309 256.452 50.5764 256.375 50.3444C245.817 55.424 236.15 62.9177 232.092 71.5839Z" fill="#540200"/>
<path fill-rule="evenodd" clip-rule="evenodd" d="M268.588 152.168C268.588 152.168 257.632 165.007 255.151 171.254L253.268 174.762L250.875 170.398C250.875 170.398 232.389 150.539 228.71 148.488C228.71 148.488 227.853 147.718 226.57 149.859C225.288 152.001 212.193 161.559 212.193 161.559C212.193 161.559 222.804 162.952 229.736 174.762C236.667 186.572 236.242 186.658 236.242 186.658C236.242 186.658 239.831 176.047 250.875 170.388L253.268 174.752L255.524 170.539C255.524 170.539 264.65 173.889 271.411 187.934C271.411 187.934 272.438 188.448 273.466 183.825C274.495 179.203 282.965 161.744 286.133 160.976C289.301 160.208 277.24 156.154 272.524 153.53C268.758 151.441 268.588 152.168 268.588 152.168Z" fill="white"/>
<path fill-rule="evenodd" clip-rule="evenodd" d="M249.328 360.617C253.46 364.607 266.057 368.809 274.69 371.118C278.573 372.154 281.653 372.807 282.794 372.886C286.476 373.144 303.443 375.585 307.379 375.841C311.314 376.097 315.992 374.599 315.317 371.69C314.643 368.78 308.47 369.551 302.907 368.101C297.344 366.651 289.728 361.94 287.244 359.375C284.761 356.81 278.942 348.419 279.286 346.454C279.631 344.49 277.805 343.459 284.483 340.805C291.161 338.152 293.066 332.764 292.037 328.823C291.008 324.882 290.156 328.569 283.993 331.137C277.829 333.704 268.505 334.044 266.105 338.154C263.706 342.265 258.487 344.136 258.487 344.136C258.487 344.136 257.788 344.631 256.748 345.464C252.948 348.51 244.627 356.07 249.328 360.617Z" fill="#FED194"/>
<path fill-rule="evenodd" clip-rule="evenodd" d="M249.329 360.616C253.461 364.607 266.059 368.809 274.691 371.117C274.691 371.117 267.389 368.007 261.869 362.743C256.349 357.479 258.28 345.669 258.28 345.669C257.775 345.561 257.262 345.49 256.747 345.456C252.949 348.509 244.628 356.07 249.329 360.616Z" fill="#F59D4E"/>
<path fill-rule="evenodd" clip-rule="evenodd" d="M126.689 310.244C130.797 322.573 208.86 354.156 216.296 357.484C223.733 360.812 227.595 357.484 227.595 357.484L253.524 364.662C251.215 357.987 260.008 342.324 260.008 342.324C254.983 339.932 238.055 333.852 238.055 333.852C238.055 329.423 234.588 323.645 223.034 317.872C216.675 314.692 203.546 303.925 193.028 294.888C184.441 287.509 177.591 281.281 177.591 281.281C177.591 281.281 178.746 271.847 185.292 249.315C191.839 226.783 183.56 191.547 183.56 181.151C183.56 170.755 177.579 172.298 177.579 172.298C177.579 172.298 169.298 170.051 154.15 200.091C139.002 230.131 122.581 297.929 126.689 310.244Z" fill="white"/>
<path opacity="0.54" fill-rule="evenodd" clip-rule="evenodd" d="M193.027 294.9C184.44 287.521 177.59 281.293 177.59 281.293C177.59 281.293 178.746 271.859 185.292 249.327C191.838 226.795 183.56 191.559 183.56 181.163C183.56 170.767 177.578 172.31 177.578 172.31C177.578 172.31 182.124 177.765 181.107 191.887C180.09 206.008 175.872 264.834 154.283 274.562C132.694 284.291 193.027 294.9 193.027 294.9Z" fill="#D2D7DB"/>
<path fill-rule="evenodd" clip-rule="evenodd" d="M177.59 281.295C177.59 281.295 170.763 277.508 164.858 279.175C158.953 280.843 155.443 281.295 155.443 281.295C155.443 281.295 150.053 281.487 162.633 274.811C175.214 268.136 178.973 273.818 178.973 273.818L177.59 281.295Z" fill="#949A9B"/>
<path opacity="0.54" fill-rule="evenodd" clip-rule="evenodd" d="M238.051 333.864C238.051 333.864 232.548 338.829 229.899 347.301C227.251 355.774 227.59 357.484 227.59 357.484L253.519 364.662C253.519 364.662 251.933 360.985 254.764 354.039C254.764 354.039 239.57 358.073 237.345 348.658C235.12 339.243 238.051 333.864 238.051 333.864Z" fill="#D2D7DB"/>
<path fill-rule="evenodd" clip-rule="evenodd" d="M238.05 333.864C238.05 333.864 232.547 341.042 233.834 347.742C235.121 354.441 238.895 360.631 238.895 360.631L227.589 357.496C227.589 357.496 227.462 344.734 238.05 333.864Z" fill="#949A9B"/>
<path fill-rule="evenodd" clip-rule="evenodd" d="M412.278 350.469C412.278 350.469 418.537 361.207 408.993 377.011C408.993 377.011 403.205 382.351 401.815 379.683C400.425 377.015 404.121 375.506 404.617 372.984C405.112 370.462 406.847 362.014 408.206 358.413C409.565 354.812 412.278 350.469 412.278 350.469Z" fill="#FED194"/>
<path fill-rule="evenodd" clip-rule="evenodd" d="M236.323 448.633C238.146 451.674 240.649 478.608 242.609 503.446C247.099 503.489 251.608 503.409 256.137 503.207C252.698 485.661 248.449 468.549 245.705 460.964C239.297 443.242 236.323 448.633 236.323 448.633Z" fill="#59302A"/>
<path fill-rule="evenodd" clip-rule="evenodd" d="M140.734 467.204C140.947 466.57 141.177 465.824 141.426 464.953L140.734 467.204Z" fill="#59302A"/>
<path d="M386.784 359.047C386.581 358.995 386.375 358.952 386.118 358.907L385.851 358.859L385.777 360.473L385.556 364.108L388.503 362.818C390.549 364.43 391.493 367.154 390.855 369.636C389.965 373.098 386.378 375.185 382.868 374.282C379.406 373.392 377.309 369.845 378.199 366.383L381.742 352.602L379.065 351.914L377.158 359.333C375.962 357.268 373.945 355.746 371.54 355.128C366.613 353.862 361.566 356.844 360.3 361.771C359.033 366.697 362.016 371.744 366.942 373.011C367.194 373.076 367.459 373.133 367.757 373.179L367.985 373.217L368.372 367.971L365.379 369.28C363.23 367.704 362.229 364.965 362.879 362.434C363.767 358.982 367.436 356.813 370.889 357.7C372.566 358.132 373.975 359.207 374.856 360.726C375.747 362.248 375.988 364.005 375.537 365.678C374.561 369.273 376.257 372.128 376.322 372.238C377.552 374.57 379.688 376.277 382.199 376.923C387.126 378.189 392.173 375.206 393.439 370.28C394.706 365.354 391.721 360.316 386.784 359.047Z" fill="white"/>
</svg>
