<svg width="664" height="459" viewBox="0 0 664 459" fill="none" xmlns="http://www.w3.org/2000/svg">
<path fill-rule="evenodd" clip-rule="evenodd" d="M375.667 229.057C347.313 390.082 193.901 429.96 97.3689 396.286C97.3689 396.286 -10.7413 355.647 18.0902 258.557C30.2771 217.512 20.5254 184.517 14.7495 153.831C6.86137 111.935 6.37476 74.3339 79.2665 26.4442C128.295 -5.76958 188.217 -6.69477 241.516 13.6551C325.479 45.7096 393.012 130.559 375.667 229.057Z" fill="#F6F2FF"/>
<path fill-rule="evenodd" clip-rule="evenodd" d="M375.667 229.057C347.313 390.082 193.901 429.959 97.3691 396.286C97.3691 396.286 9.23567 363.158 13.3423 285.26C13.7787 276.881 15.2909 267.985 18.0905 258.556C30.2773 217.514 20.53 184.521 14.7519 153.837C15.1054 154.557 46.9046 219.02 109.783 166.929C158.646 126.446 179.473 49.7528 241.514 13.6659C288.771 31.7072 330.826 66.4718 355.47 110.986C374.611 145.543 383.247 185.996 375.667 229.057Z" fill="#EDE4FF"/>
<path fill-rule="evenodd" clip-rule="evenodd" d="M375.667 229.057C347.313 390.083 193.901 429.96 97.3691 396.286C97.3691 396.286 56.2852 380.842 31.5254 346.254C20.0194 330.178 12.0396 309.973 13.3423 285.261C50.961 289.734 131.926 292.025 166.704 236.332C205.436 174.307 267.829 79.0277 355.47 110.975C358.73 116.858 361.676 122.91 364.294 129.106C377.079 159.38 381.96 193.331 375.667 229.057Z" fill="#E4DBFA"/>
<path fill-rule="evenodd" clip-rule="evenodd" d="M375.667 229.057C347.313 390.082 193.901 429.96 97.3691 396.286C97.3691 396.286 56.2852 380.841 31.5254 346.254C31.5254 346.254 79.3998 376.584 164.164 352.422C256.902 325.991 287.605 179.418 364.294 129.106C377.079 159.38 381.96 193.33 375.667 229.057Z" fill="#BEB2DA"/>
<path fill-rule="evenodd" clip-rule="evenodd" d="M170.984 228.021C173.341 230.858 177.692 235.235 183.512 240.629C200.99 256.835 231.809 282.193 261.867 302.803C263.539 303.933 265.186 305.083 266.886 306.194C284.307 317.846 301.166 327.602 314.754 332.756C319.762 334.643 324.791 336.324 329.882 337.755H329.923C371.383 349.512 415.628 345.255 474.365 312.142C540.3 274.964 548.092 207.277 568.237 169.322C570.76 164.565 574.105 160.286 578.046 156.404C605.138 129.643 659.899 122.567 661.505 122.364C660.063 121.273 606.903 82.5761 519.442 68.3295C513.5 67.3672 507.467 66.4813 501.427 65.6804C417.339 54.4821 326.022 58.9401 287.12 67.509C287.077 67.509 287.031 67.5439 286.989 67.5396C286.948 67.5352 286.924 67.5548 286.861 67.5701C282.298 68.6 276.415 70.6075 269.84 73.226C269.729 73.2841 269.611 73.3302 269.489 73.3635C260.82 76.8548 250.913 81.3913 241.07 86.1351C223.461 94.6779 206.037 103.958 196.157 109.313C191.024 112.132 187.919 113.849 187.919 113.849L175.538 114.127L133.536 151.811C133.536 151.811 131.79 158.071 131.018 161.617C130.638 163.4 136.405 182.183 143.237 191.777C148.053 198.622 153.864 206.345 159.385 213.467C163.576 218.879 167.628 223.958 170.984 228.021Z" fill="#FECF31"/>
<path opacity="0.62" fill-rule="evenodd" clip-rule="evenodd" d="M170.933 227.678C173.29 230.515 177.641 234.892 183.46 240.286C200.938 256.492 231.758 281.85 261.816 302.46C263.487 303.59 265.135 304.74 266.834 305.851C284.256 317.503 301.115 327.259 314.702 332.413C319.71 334.3 324.74 335.981 329.831 337.412H329.872C329.872 337.412 331.286 330.244 334.323 318.679C339.713 298.085 350.167 263.473 366.576 230.585C383.252 197.13 406.048 165.413 435.983 151.812C496.863 124.151 568.186 168.983 568.186 168.983L577.994 156.065L501.378 65.3374C417.29 54.1391 325.973 58.597 287.071 67.166C287.027 67.166 286.981 67.2009 286.94 67.1965C286.898 67.1922 286.874 67.2118 286.811 67.2271C282.249 68.257 276.366 70.2645 269.791 72.883C269.679 72.9411 269.561 72.9872 269.44 73.0205C260.771 76.5118 250.864 81.0483 241.021 85.7921C223.411 94.3348 205.988 103.615 196.107 108.97C190.975 111.789 187.87 113.506 187.87 113.506L175.489 113.784L140.871 144.256C140.854 144.271 140.843 144.292 140.842 144.315C140.807 144.461 140.696 144.751 140.528 145.188C139.02 149.722 132.581 168.671 131.8 172.217C131.42 174.002 136.354 181.831 143.177 191.419C147.993 198.264 153.804 205.987 159.324 213.109C163.525 218.536 167.577 223.615 170.933 227.678Z" fill="#FFA300"/>
<path fill-rule="evenodd" clip-rule="evenodd" d="M646.754 213.65L643.389 216.205C643.389 216.205 499.794 68.8439 333.061 61.0059C333.061 61.0059 432.899 48.1994 477.447 62.5858C521.996 76.9721 646.754 213.65 646.754 213.65Z" fill="#FFBC2E"/>
<path fill-rule="evenodd" clip-rule="evenodd" d="M351.426 59.7664C392.294 62.9173 432.93 75.9289 470.44 93.152C569.667 138.665 646.75 213.648 646.75 213.648C672.429 160.554 661.497 122.023 661.497 122.023C661.48 122.006 661.459 121.996 661.436 121.994C516.285 30.4024 351.426 59.7664 351.426 59.7664Z" fill="#FECF31"/>
<path fill-rule="evenodd" clip-rule="evenodd" d="M351.426 59.7664C392.294 62.9173 432.93 75.9289 470.44 93.152C564.02 75.2591 658.503 120.554 661.438 121.994C516.285 30.4024 351.426 59.7664 351.426 59.7664Z" fill="#FFDA5F"/>
<path fill-rule="evenodd" clip-rule="evenodd" d="M77.2806 167.864C77.2806 167.864 69.794 175.15 63.8457 170.67C63.419 168.622 62.8354 166.61 62.1 164.652C61.3996 162.845 60.5028 161.117 59.4292 160.246C59.0961 159.973 58.7294 159.745 58.3382 159.565C56.3743 158.692 55.3204 159.941 50.0005 150.957C50.0005 150.957 48.1305 151.09 46.5921 146.949C45.0538 142.807 46.6598 143.473 47.7268 142.803C47.7268 142.803 47.6613 140.197 49.7321 139.863L51.8051 139.53C51.8051 139.53 51.5367 137.324 54.5457 136.791C54.5457 136.791 55.4775 136.656 55.9466 137.254C55.8833 137.118 54.129 133.352 56.8194 131.779C56.8194 131.779 57.9563 131.443 59.0233 132.713C60.0904 133.983 64.4392 135.521 66.9769 135.453C69.5147 135.386 70.8545 136.857 71.52 140.472C72.1855 144.088 70.7192 153.604 71.1861 156.126C71.6531 158.649 77.2806 167.864 77.2806 167.864Z" fill="#FED194"/>
<path fill-rule="evenodd" clip-rule="evenodd" d="M55.9826 137.234C56.6736 137.853 57.4354 138.387 58.252 138.827C59.0653 139.274 59.9106 139.66 60.781 139.981C61.2174 140.145 61.6538 140.278 62.0902 140.455C62.5288 140.624 62.9433 140.85 63.3231 141.127C64.0991 141.697 64.5983 142.569 64.6978 143.527C64.77 144.47 64.5932 145.415 64.185 146.268C63.9559 146.676 63.6962 147.066 63.4082 147.435C63.1376 147.813 62.8692 148.19 62.6336 148.589C62.1393 149.372 61.8524 150.268 61.8 151.193C61.7939 152.121 62.0487 153.033 62.5354 153.824L62.4786 153.859C61.8713 153.094 61.5133 152.161 61.4531 151.186C61.4405 150.185 61.6951 149.199 62.1906 148.33C62.4171 147.905 62.6692 147.495 62.9456 147.101C63.2006 146.755 63.4289 146.391 63.6286 146.01C63.67 145.938 63.7028 145.82 63.742 145.727C63.7813 145.633 63.8097 145.526 63.8446 145.428C63.9063 145.226 63.9566 145.022 63.9952 144.814C64.0721 144.416 64.0898 144.008 64.0475 143.603C63.975 142.825 63.5792 142.112 62.9565 141.64C62.6284 141.383 62.2683 141.17 61.8851 141.007C61.5076 140.843 61.0385 140.675 60.6042 140.487C59.7281 140.118 58.8868 139.67 58.0905 139.15C57.2894 138.641 56.5661 138.018 55.9434 137.302L55.9826 137.234Z" fill="#F59D4E"/>
<path fill-rule="evenodd" clip-rule="evenodd" d="M58.8161 139.145C59.4839 140.734 60.1843 142.309 60.9589 143.846C61.3202 144.624 61.7503 145.369 62.2442 146.071C62.3118 146.152 62.3904 146.222 62.4624 146.289C62.4995 146.322 62.5475 146.348 62.5889 146.379C62.6301 146.411 62.6757 146.438 62.7242 146.457C62.9067 146.557 63.1182 146.589 63.3221 146.549C63.7306 146.431 64.0762 146.156 64.2844 145.785L64.3411 145.818C64.2733 146.042 64.1637 146.251 64.0182 146.433C63.8572 146.642 63.6398 146.799 63.3919 146.887C63.1061 146.979 62.7973 146.967 62.5191 146.855C62.4523 146.833 62.388 146.804 62.3271 146.77C62.2662 146.737 62.2072 146.702 62.1503 146.663C62.0456 146.575 61.9321 146.481 61.8383 146.39C61.2485 145.705 60.7525 144.945 60.3632 144.129C60.1756 143.734 59.9901 143.339 59.8221 142.94L59.5842 142.331C59.5035 142.13 59.4315 141.923 59.366 141.716C59.075 140.887 58.8667 140.032 58.7441 139.163L58.8161 139.145Z" fill="#F59D4E"/>
<path fill-rule="evenodd" clip-rule="evenodd" d="M51.846 139.516C52.4308 140.73 53.0243 141.939 53.6375 143.137C53.9452 143.737 54.255 144.332 54.578 144.924C54.7394 145.218 54.9031 145.511 55.0755 145.796C55.1628 145.94 55.2479 146.084 55.3439 146.222C55.4302 146.36 55.5311 146.489 55.645 146.606C56.146 147.046 56.732 147.378 57.3666 147.581C57.6823 147.685 58.0089 147.75 58.3398 147.778C58.6707 147.797 59.0024 147.761 59.3218 147.673C59.9472 147.443 60.4824 147.018 60.8492 146.462C61.0481 146.195 61.196 145.894 61.2856 145.574C61.3788 145.257 61.3611 144.917 61.2354 144.612L61.29 144.579C61.4896 144.89 61.5673 145.264 61.5082 145.628C61.4522 145.993 61.3254 146.344 61.1351 146.661C61.0424 146.818 60.9403 146.969 60.8296 147.114L60.6572 147.333L60.5699 147.435L60.4673 147.538C60.3953 147.605 60.3255 147.673 60.2491 147.738C60.1728 147.804 60.0877 147.85 60.0048 147.904L59.8782 147.987L59.7429 148.051C59.6534 148.092 59.5618 148.138 59.468 148.173C59.094 148.304 58.6991 148.367 58.3027 148.356C57.921 148.341 57.5423 148.281 57.1746 148.177C56.8157 148.068 56.4691 147.921 56.1403 147.741C55.7986 147.562 55.4799 147.342 55.1911 147.086C55.1113 147.007 55.0383 146.922 54.9729 146.831L54.9205 146.763L54.8813 146.704L54.8071 146.589C54.7002 146.431 54.6172 146.281 54.5278 146.13C54.3554 145.825 54.1874 145.528 54.0368 145.223C53.7379 144.607 53.4367 144.001 53.1771 143.374C52.6291 142.131 52.1648 140.852 51.7871 139.547L51.846 139.516Z" fill="#F59D4E"/>
<path fill-rule="evenodd" clip-rule="evenodd" d="M47.7709 142.792C48.2226 143.776 48.7179 144.743 49.2591 145.681C49.7812 146.627 50.4022 147.516 51.1116 148.332C51.292 148.53 51.4875 148.713 51.6964 148.88C51.9011 149.045 52.1405 149.162 52.3969 149.222C52.9261 149.312 53.4672 149.305 53.9941 149.203C54.522 149.102 54.9999 148.825 55.3492 148.417C55.6812 147.993 55.8829 147.481 55.9296 146.944H55.9951C56.0638 147.533 55.9307 148.128 55.6176 148.631C55.2567 149.155 54.7204 149.534 54.1054 149.698C53.8118 149.786 53.5083 149.837 53.202 149.851C53.0493 149.851 52.9031 149.851 52.7504 149.851L52.5321 149.838H52.4209C52.3791 149.837 52.3375 149.832 52.2965 149.825C51.9394 149.76 51.6033 149.611 51.3167 149.388C51.0733 149.202 50.845 148.997 50.6338 148.775C50.2559 148.345 49.9129 147.885 49.6082 147.4C49.3164 146.926 49.0505 146.437 48.8117 145.934C48.3305 144.939 47.9644 143.893 47.7207 142.816L47.7709 142.792Z" fill="#F59D4E"/>
<path fill-rule="evenodd" clip-rule="evenodd" d="M50.0114 150.924C50.248 150.875 50.4712 150.775 50.666 150.632C50.8538 150.485 51.0035 150.295 51.1024 150.078C51.2047 149.859 51.2682 149.624 51.2901 149.384C51.2901 149.261 51.2901 149.139 51.2901 149.017L51.2726 148.646H51.3359C51.4567 148.75 51.5605 148.872 51.6435 149.008C51.7141 149.147 51.7668 149.293 51.8007 149.445C51.8599 149.762 51.8179 150.091 51.6806 150.383C51.5325 150.696 51.2735 150.942 50.954 151.075C50.6434 151.212 50.2851 151.188 49.9961 151.009L50.0114 150.924Z" fill="#F59D4E"/>
<path fill-rule="evenodd" clip-rule="evenodd" d="M62.1076 164.652C61.4071 162.845 60.5103 161.117 59.4367 160.246C59.1036 159.973 58.737 159.745 58.3457 159.565C58.457 159.585 62.5484 160.29 65.9109 158.775C68.6407 157.545 65.6883 162.509 62.1076 164.652Z" fill="#F59D4E"/>
<path fill-rule="evenodd" clip-rule="evenodd" d="M166.704 192.239C166.704 192.239 146.766 244.74 117.082 246.736C106.462 247.448 98.2526 243.143 91.833 236.727C80.3117 225.215 74.562 206.916 71.0052 198.663C65.4672 185.816 67.9045 185.538 67.9045 185.538C67.4048 182.483 62.3097 172.079 61.81 170.807C61.3103 169.535 62.3665 169.699 62.3665 169.699C70.6168 169.033 75.6574 164.438 76.6 163.441C77.5427 162.443 78.206 163.718 78.206 163.718C80.2528 168.592 85.8432 176.869 85.8432 176.869C90.9384 172.352 105.368 196.006 105.368 196.006C121.014 169.758 128.625 159.866 131.752 156.312C133.061 154.828 133.585 154.451 133.585 154.451L166.704 192.239Z" fill="white"/>
<path fill-rule="evenodd" clip-rule="evenodd" d="M85.8449 176.858C85.8449 176.858 85.9933 181.964 73.8828 185.15C73.8828 185.15 71.4455 185.298 74.472 183.304C77.4985 181.309 82.6329 177.15 83.0562 172.548L85.8449 176.858Z" fill="#AEB6B7"/>
<path fill-rule="evenodd" clip-rule="evenodd" d="M105.371 195.995C105.371 195.995 117.778 211.834 121.121 228.507C121.121 228.507 122.694 230.314 122.62 224.687C122.489 214.795 106.925 193.405 106.925 193.405L105.371 195.995Z" fill="#AEB6B7"/>
<path opacity="0.54" fill-rule="evenodd" clip-rule="evenodd" d="M166.704 192.239C166.704 192.239 157.142 217.418 141.392 233.566C134.409 240.734 126.2 246.121 117.073 246.736C106.453 247.448 98.2438 243.143 91.8242 236.727C137.346 254.241 145.149 212.725 140.331 200.63C135.513 188.534 132.21 157.68 132.21 157.68C132.024 157.235 131.869 156.778 131.745 156.312C133.054 154.828 133.578 154.451 133.578 154.451L143.229 165.463L166.704 192.239Z" fill="#D2D7DB"/>
<path fill-rule="evenodd" clip-rule="evenodd" d="M141.4 233.555C152.926 214.682 146.654 198.764 143.997 190.954C141.339 183.145 135.689 165.143 135.689 165.143C135.689 165.143 138.598 164.924 143.237 165.452L166.703 192.239C166.703 192.239 157.141 217.407 141.4 233.555Z" fill="#AEB6B7"/>
<path fill-rule="evenodd" clip-rule="evenodd" d="M153.476 218.014C153.476 218.014 155.658 210.06 153.476 204.302C151.294 198.543 144.547 182.496 144.547 182.496L161.083 204.629C161.083 204.629 156.559 213.44 153.476 218.014Z" fill="#949A9B"/>
<path fill-rule="evenodd" clip-rule="evenodd" d="M159.689 118.46C159.689 118.46 155.96 118.163 153.411 121.689C150.862 125.215 157.029 128.096 161.092 125.658C165.155 123.221 159.689 118.46 159.689 118.46Z" fill="#BBC3C4"/>
<path fill-rule="evenodd" clip-rule="evenodd" d="M163.011 120.975C163.011 120.975 161.527 124.611 157.32 121.94C152.64 116.703 146.981 109.181 145.877 102.406C143.933 90.4812 129.935 65.5141 120.323 69.8345C120.323 69.8345 111.464 71.8333 105.703 78.5628C104.374 80.1009 103.287 81.8321 102.478 83.6972C97.7935 94.5856 100.842 96.4688 93.4839 101.154C89.6697 103.587 93.185 107.045 97.0668 107.366C100.949 107.687 100.755 120.033 108.195 125.163C115.636 130.293 129.115 129.219 133.643 127.755C133.643 127.755 137.4 129.994 141.675 136.95C142.345 138.041 143.019 139.069 143.678 140.031C143.678 140.031 147.843 151.751 147.418 156.995C146.992 162.238 170.253 154.409 170.474 144.736C170.694 135.063 163.011 120.975 163.011 120.975Z" fill="#FED194"/>
<path fill-rule="evenodd" clip-rule="evenodd" d="M142.547 105.09C142.547 105.09 144.216 119.688 152.279 115.723L145.822 106.751L142.547 105.09Z" fill="#F59D4E"/>
<path fill-rule="evenodd" clip-rule="evenodd" d="M136.485 94.0706C136.485 94.0706 134.303 92.1853 127.863 99.8444C127.863 99.8444 130.298 87.5987 134.104 87.7819C137.909 87.9652 136.485 94.0706 136.485 94.0706Z" fill="#F59D4E"/>
<path fill-rule="evenodd" clip-rule="evenodd" d="M106.66 77.5043C106.66 77.5043 126.002 75.8088 130.445 80.8145C134.887 85.8201 121.249 67.9971 121.249 67.9971C121.249 67.9971 110.581 73.3649 106.66 77.5043Z" fill="#F59D4E"/>
<path fill-rule="evenodd" clip-rule="evenodd" d="M133.651 70.5459C143.667 74.4998 145.847 96.052 139.037 92.5999C129.892 87.9653 127.788 106.083 127.035 97.6689C126.282 89.2548 129.802 89.868 128.707 81.7791C127.672 74.1419 121.386 74.3601 120.694 74.3994C110.683 75.2591 99.3296 73.0269 97.1803 68.2896C96.434 66.6487 96.7941 64.7088 98.7077 62.4897C102.164 58.4638 105.572 57.2135 108.542 57.292C114.059 57.4382 118.063 62.1602 118.063 62.1602C118.063 62.1602 142.414 64.3706 133.651 70.5459Z" fill="#72120C"/>
<path fill-rule="evenodd" clip-rule="evenodd" d="M128.705 81.7793C128.705 81.7793 132.197 90.1868 133.995 92.3055C133.995 92.3055 136.013 91.6815 136.489 92.1746C136.964 92.6678 128.164 79.4467 128.164 79.4467L128.705 81.7793Z" fill="#530905"/>
<path fill-rule="evenodd" clip-rule="evenodd" d="M110.348 57.5037C110.348 57.5037 116.894 71.2354 122.131 74.4626L125.938 75.5842L113.83 58.0841L110.348 57.5037Z" fill="#530905"/>
<path fill-rule="evenodd" clip-rule="evenodd" d="M142.503 103.445C142.503 103.445 141.946 114.951 151.078 114.008C151.078 114.008 146.998 106.945 147.556 104.861C148.115 102.777 142.503 103.445 142.503 103.445Z" fill="#72120C"/>
<path fill-rule="evenodd" clip-rule="evenodd" d="M142.546 105.09C142.546 105.09 145.848 114.266 150.62 113.179L149.271 110.506L142.823 102.269C142.823 102.269 142.28 103.371 142.546 105.09Z" fill="#530905"/>
<path fill-rule="evenodd" clip-rule="evenodd" d="M157.746 76.0095C159.07 78.4958 160.134 81.1121 160.921 83.8169C165.621 99.9947 150.045 112.402 150.045 112.402C143.839 107.846 131.441 85.628 127.716 78.7982C127.027 77.5304 126.625 76.7928 126.625 76.7928C125.586 75.7607 124.557 74.6501 123.538 73.487C115.287 64.0692 107.875 51.1558 105.59 47.0339C104.896 45.7814 105.872 44.2169 107.299 44.3565C112.557 44.8715 121.235 60.5867 121.235 60.5867L121.427 60.5168C137.834 54.4616 151.075 63.4975 157.746 76.0095Z" fill="#6D378F"/>
<path fill-rule="evenodd" clip-rule="evenodd" d="M127.728 78.7984C144.949 71.8158 157.757 76.0141 157.757 76.0141C151.091 63.4978 137.846 54.4662 121.448 60.5215C119.772 65.0165 121.524 69.889 123.558 73.4916C123.547 73.4873 125.463 76.6796 127.728 78.7984Z" fill="white"/>
<path fill-rule="evenodd" clip-rule="evenodd" d="M133.637 127.766C133.637 127.766 139.149 124.589 141.04 122.706C142.932 120.823 140.464 129.643 137.534 131.068C137.534 131.068 134.274 127.581 133.637 127.766Z" fill="#F59D4E"/>
<path fill-rule="evenodd" clip-rule="evenodd" d="M105.483 71.3839C105.417 71.4223 105.339 71.4333 105.265 71.4144C105.047 71.3599 99.8773 70.0375 99.1092 66.8583C98.6946 65.1344 99.6591 63.2339 101.976 61.2111C102.05 61.1195 102.171 61.0801 102.285 61.1107C102.398 61.1412 102.483 61.236 102.501 61.3522C102.519 61.4685 102.466 61.5843 102.367 61.6475C100.229 63.5154 99.3274 65.2174 99.6874 66.7099C100.368 69.5466 105.361 70.8187 105.407 70.8318C105.483 70.8499 105.549 70.8979 105.59 70.9652C105.631 71.0324 105.644 71.1132 105.625 71.1897C105.608 71.2719 105.556 71.3427 105.483 71.3839Z" fill="white"/>
<path fill-rule="evenodd" clip-rule="evenodd" d="M131.699 102.775C131.865 102.115 132.125 101.482 132.472 100.896C132.814 100.3 133.24 99.7557 133.735 99.2792C134.239 98.7988 134.832 98.4215 135.481 98.1685C136.122 97.9193 136.815 97.8288 137.499 97.9045C136.841 97.9818 136.201 98.1668 135.603 98.4522C135.31 98.5937 135.03 98.7602 134.765 98.9497C134.499 99.1366 134.247 99.343 134.012 99.5672C133.539 100.022 133.112 100.522 132.738 101.062C132.354 101.609 132.007 102.181 131.699 102.775Z" fill="#F59D4E"/>
<path fill-rule="evenodd" clip-rule="evenodd" d="M137.259 100.318C136.99 100.161 136.735 100.017 136.475 99.8814C136.22 99.7523 135.957 99.64 135.687 99.5454C135.421 99.4533 135.146 99.3882 134.867 99.3512C134.577 99.318 134.286 99.3056 133.994 99.3141C134.265 99.152 134.571 99.0591 134.887 99.0435C135.206 99.0227 135.525 99.0665 135.827 99.1722C136.125 99.2756 136.404 99.4275 136.652 99.6217C136.898 99.8118 137.104 100.048 137.259 100.318Z" fill="#F59D4E"/>
<path fill-rule="evenodd" clip-rule="evenodd" d="M103.341 92.327C103.341 92.327 102.25 94.232 103.263 94.7011C104.275 95.1703 104.851 92.0106 104.692 91.7335C104.308 91.0658 103.631 91.6637 103.341 92.327Z" fill="#0A031C"/>
<path fill-rule="evenodd" clip-rule="evenodd" d="M114.914 107.96C114.065 110.46 113.725 112.496 112.627 114.25C112.005 115.236 111.182 116.079 110.212 116.725C109.254 117.38 108.248 117.299 107.292 116.838C104.977 115.721 103.02 112.407 103.02 112.407C107.227 113.478 114.914 107.96 114.914 107.96Z" fill="#D5301D"/>
<path fill-rule="evenodd" clip-rule="evenodd" d="M109.161 98.138C109.506 98.138 109.785 97.8586 109.785 97.514C109.785 97.1693 109.506 96.8899 109.161 96.8899C108.817 96.8899 108.537 97.1693 108.537 97.514C108.537 97.8586 108.817 98.138 109.161 98.138Z" fill="#F59D4E"/>
<path fill-rule="evenodd" clip-rule="evenodd" d="M111.099 99.744C111.342 99.744 111.54 99.5466 111.54 99.3032C111.54 99.0598 111.342 98.8624 111.099 98.8624C110.856 98.8624 110.658 99.0598 110.658 99.3032C110.658 99.5466 110.856 99.744 111.099 99.744Z" fill="#F59D4E"/>
<path fill-rule="evenodd" clip-rule="evenodd" d="M106.021 99.4496C106.365 99.4496 106.645 99.1701 106.645 98.8255C106.645 98.4808 106.365 98.2014 106.021 98.2014C105.676 98.2014 105.396 98.4808 105.396 98.8255C105.396 99.1701 105.676 99.4496 106.021 99.4496Z" fill="#F59D4E"/>
<path fill-rule="evenodd" clip-rule="evenodd" d="M108.697 101.985C109.135 101.985 109.491 101.629 109.491 101.191C109.491 100.752 109.135 100.396 108.697 100.396C108.258 100.396 107.902 100.752 107.902 101.191C107.902 101.629 108.258 101.985 108.697 101.985Z" fill="#F59D4E"/>
<path fill-rule="evenodd" clip-rule="evenodd" d="M102.37 84.7337C102.405 84.3233 102.667 83.9672 103.049 83.8129C104.256 83.3023 107.324 82.3357 108.648 84.9716C110.318 88.2905 107.954 86.6234 106.804 84.8712C105.774 83.3001 102.292 86.3179 102.37 84.7337Z" fill="#242E41"/>
<path fill-rule="evenodd" clip-rule="evenodd" d="M485.014 419.946C485.014 419.946 468.347 414.449 450.537 408.043C434.082 402.125 416.65 395.428 410.496 391.579C397.683 383.567 439.841 374.996 439.841 374.996C439.841 374.996 448.39 379.818 456.446 385.382C458.892 387.073 461.517 388.588 463.394 390.545C483.392 411.386 487.396 393.964 487.396 393.964L485.014 419.946Z" fill="#FED194"/>
<path fill-rule="evenodd" clip-rule="evenodd" d="M441.034 375.687C441.034 375.687 441.512 390.381 437.704 395.889C433.897 401.397 431.92 401.041 431.92 401.041L415.67 394.536L435.813 373.215L441.034 375.687Z" fill="#F59D4E"/>
<path fill-rule="evenodd" clip-rule="evenodd" d="M485.014 419.946C485.014 419.946 468.347 414.449 450.537 408.043C451.05 396.842 456.446 385.391 456.446 385.391C458.892 387.082 461.295 388.841 463.394 390.554C472.41 397.898 475.685 399.144 475.685 399.144L493.532 407.218L485.014 419.946Z" fill="#FFB113"/>
<path fill-rule="evenodd" clip-rule="evenodd" d="M494.369 390.371C495.465 390.233 496.576 390.264 497.664 390.462L507.156 454.833C507.156 454.833 506.769 456.55 503.625 457.611C502.758 457.893 501.866 458.094 500.961 458.211C495.353 458.983 487.048 435.454 481.992 427.987C475.446 418.336 478.686 418.646 478.686 418.646C478.686 418.646 481.163 409.128 476.068 399.614C476.068 399.614 469.031 396.936 487.949 391.806C487.947 391.809 491.224 390.689 494.369 390.371Z" fill="black"/>
<path fill-rule="evenodd" clip-rule="evenodd" d="M494.369 390.371C495.466 390.233 496.577 390.264 497.664 390.462L507.156 454.833C507.156 454.833 506.77 456.55 503.625 457.611L494.369 390.371Z" fill="#FFB113"/>
<path fill-rule="evenodd" clip-rule="evenodd" d="M488.422 427.029C488.455 427.269 488.295 427.492 488.057 427.538C486.273 427.883 484.605 428.675 483.211 429.84C483.099 429.974 482.919 430.032 482.75 429.989C482.58 429.946 482.451 429.809 482.417 429.637C482.383 429.465 482.451 429.29 482.591 429.185C484.108 427.899 485.931 427.028 487.885 426.656C488.003 426.633 488.126 426.658 488.226 426.726C488.326 426.793 488.394 426.898 488.417 427.016C488.419 427.02 488.42 427.025 488.422 427.029Z" fill="white"/>
<path fill-rule="evenodd" clip-rule="evenodd" d="M490.307 432.991C490.339 433.23 490.179 433.453 489.943 433.499C487.06 434.051 485.978 435.345 485.967 435.358C485.81 435.555 485.524 435.587 485.328 435.43C485.131 435.273 485.099 434.987 485.256 434.791C485.306 434.727 486.525 433.228 489.77 432.609C489.889 432.586 490.011 432.611 490.111 432.678C490.211 432.746 490.28 432.85 490.303 432.969C490.305 432.976 490.306 432.983 490.307 432.991Z" fill="white"/>
<path fill-rule="evenodd" clip-rule="evenodd" d="M485.711 421.085C485.743 421.326 485.581 421.549 485.343 421.594C480.466 422.495 480.671 425.303 480.675 425.323C480.699 425.573 480.515 425.795 480.265 425.818C480.015 425.842 479.793 425.658 479.77 425.408C479.754 425.259 479.49 421.751 485.179 420.699C485.425 420.654 485.662 420.817 485.707 421.063C485.707 421.063 485.709 421.076 485.711 421.085Z" fill="white"/>
<path fill-rule="evenodd" clip-rule="evenodd" d="M439.405 373.881C438.508 380.028 436.132 385.583 433.544 390.089C429.426 397.275 424.783 401.794 424.783 401.794C424.783 401.794 341.378 381.856 326.424 372.22C311.471 362.584 282.895 297.122 282.895 297.122C282.895 297.122 326.302 230.875 332.456 246.193C334.751 251.901 340.082 266.242 345.867 281.979C355.605 308.487 366.633 338.979 366.633 338.979C387.566 339.987 439.405 373.881 439.405 373.881Z" fill="#663E36"/>
<path fill-rule="evenodd" clip-rule="evenodd" d="M433.544 390.089C429.426 397.275 424.783 401.794 424.783 401.794C424.783 401.794 389.855 393.445 361.152 384.942C345.504 380.303 331.694 375.62 326.426 372.22C311.475 362.582 282.896 297.122 282.896 297.122C282.896 297.122 326.304 230.875 332.458 246.193C333.071 247.721 333.904 249.868 334.906 252.495C337.64 259.681 341.631 270.458 345.869 281.99C345.869 281.99 325.562 304.175 328.752 325.195C331.943 346.214 345.498 373.959 433.544 390.089Z" fill="#59302A"/>
<path fill-rule="evenodd" clip-rule="evenodd" d="M361.15 384.942C345.502 380.303 331.692 375.62 326.424 372.22C311.473 362.582 282.895 297.122 282.895 297.122C282.895 297.122 326.302 230.875 332.456 246.193C333.069 247.721 333.902 249.868 334.904 252.495C341.932 293.468 309.156 295.931 313.134 325.206C317.111 354.48 333.073 373.735 361.15 384.942Z" fill="#42211D"/>
<path fill-rule="evenodd" clip-rule="evenodd" d="M323.597 354.606C323.597 354.606 306.051 354.338 287.144 353.542C269.672 352.808 251.037 351.624 244.015 349.788C229.395 345.968 267.069 325.205 267.069 325.205C267.069 325.205 276.67 327.254 286.02 330.161C288.856 331.034 291.818 331.703 294.192 333.011C319.504 346.928 318.116 329.107 318.116 329.107L323.597 354.606Z" fill="#FED194"/>
<path fill-rule="evenodd" clip-rule="evenodd" d="M268.409 325.502C268.409 325.502 273.253 339.382 271.263 345.776C269.273 352.169 267.283 352.422 267.283 352.422L249.826 351.067L262.681 324.701L268.409 325.502Z" fill="#F59D4E"/>
<path fill-rule="evenodd" clip-rule="evenodd" d="M323.597 354.607C323.597 354.607 306.051 354.338 287.143 353.542C284.289 342.699 286.02 330.161 286.02 330.161C288.856 331.034 291.676 332.003 294.192 333.011C304.991 337.329 308.488 337.538 308.488 337.538L327.931 339.906L323.597 354.607Z" fill="#FFB113"/>
<path fill-rule="evenodd" clip-rule="evenodd" d="M319.502 317.033C320.524 316.161 321.599 315.401 322.629 314.971L373.353 368.674C373.353 368.674 374.111 370.522 371.876 373.555C371.254 374.384 370.554 375.152 369.788 375.849C365.075 380.213 342.032 363.734 332.475 360.077C320.116 355.353 323.321 353.531 323.321 353.531C323.321 353.531 319.428 343.057 308.496 337.53C308.496 337.53 300.204 339.62 314.468 322.532C314.462 322.541 316.781 319.366 319.502 317.033Z" fill="black"/>
<path fill-rule="evenodd" clip-rule="evenodd" d="M319.502 317.033C320.523 316.161 321.599 315.401 322.629 314.971L373.353 368.674C373.353 368.674 374.11 370.522 371.876 373.555L319.502 317.033Z" fill="#FFB113"/>
<path fill-rule="evenodd" clip-rule="evenodd" d="M337.818 354.997C338.008 355.195 338.008 355.508 337.818 355.706C336.382 357.188 335.346 359.012 334.809 361.004C334.741 361.274 334.471 361.441 334.199 361.382C333.927 361.323 333.75 361.06 333.799 360.786C334.37 358.602 335.498 356.604 337.072 354.986C337.274 354.785 337.601 354.785 337.803 354.986L337.818 354.997Z" fill="white"/>
<path fill-rule="evenodd" clip-rule="evenodd" d="M343.462 359.318C343.65 359.516 343.65 359.828 343.462 360.027C341.14 362.427 340.976 364.325 340.974 364.345C340.952 364.628 340.708 364.841 340.424 364.825C340.142 364.805 339.928 364.562 339.944 364.28C339.944 364.188 340.106 361.999 342.72 359.309C342.919 359.104 343.246 359.099 343.451 359.298L343.462 359.318Z" fill="white"/>
<path fill-rule="evenodd" clip-rule="evenodd" d="M331.436 351.233C331.627 351.432 331.627 351.746 331.436 351.944C327.484 355.959 329.498 358.429 329.52 358.453C329.704 358.671 329.677 358.997 329.461 359.182C329.242 359.362 328.92 359.336 328.732 359.123C328.623 358.992 326.094 355.903 330.696 351.22C330.793 351.123 330.924 351.069 331.061 351.069C331.197 351.069 331.328 351.123 331.425 351.22C331.429 351.224 331.433 351.228 331.436 351.233Z" fill="white"/>
<path fill-rule="evenodd" clip-rule="evenodd" d="M326.755 278.845C321.666 286.483 311.917 292.754 300.311 297.86C267.964 312.096 221.255 317.226 221.255 317.226C242.687 317.226 267.111 324.208 267.111 324.208C267.111 324.208 266.914 329.676 266.445 335.053C266.048 339.598 265.452 344.076 264.616 345.141C262.79 347.467 259.633 359.597 259.633 359.597C245.495 360.607 231.207 360.348 217.685 359.339C182.257 356.701 152.083 348.916 143.665 345.309C132.037 340.323 115.42 326.7 123.064 306.429C130.708 286.157 207.464 252.268 207.464 252.268C211.243 245.067 223.578 237.962 238.504 231.885C266.897 220.32 304.657 212.432 310.643 214.385C319.772 217.359 346.029 249.937 326.755 278.845Z" fill="#663E36"/>
<path fill-rule="evenodd" clip-rule="evenodd" d="M326.755 278.845C321.667 286.482 311.917 292.754 300.311 297.86C267.964 312.095 221.255 317.226 221.255 317.226C242.687 317.226 267.111 324.208 267.111 324.208C267.111 324.208 267.063 325.576 266.954 327.614C266.954 327.732 266.941 327.857 266.934 327.981C266.934 327.996 266.934 328.009 266.934 328.025C266.934 328.136 266.921 328.243 266.915 328.365C266.915 328.391 266.915 328.422 266.915 328.448C266.915 328.544 266.904 328.642 266.897 328.745V328.886L266.884 329.105L266.871 329.342V329.458C266.871 329.567 266.86 329.676 266.851 329.783C266.852 329.791 266.852 329.799 266.851 329.807C266.755 331.424 266.633 333.237 266.469 335.044C266.072 339.587 265.481 344.067 264.641 345.132C262.814 347.458 259.657 359.588 259.657 359.588C232.058 360.446 209.642 358.665 194.413 356.751C178.587 354.755 164.39 345.887 155.865 332.406C146.482 317.568 153.561 312.656 190.215 311.194C192.751 311.096 195.485 310.941 198.378 310.745C201.272 310.548 204.32 310.308 207.488 310.033H207.569C208.298 309.972 209.031 309.907 209.775 309.839C222.708 308.587 286.736 300.978 304.579 271.548C324.46 238.765 282.924 228.344 224.164 244.783C223.099 245.08 238.871 232.346 238.533 231.896L239.283 231.591C267.589 220.194 304.745 212.46 310.671 214.396C314.95 215.792 322.994 223.691 328.346 234.667C334.384 247.094 336.987 263.486 326.755 278.845Z" fill="#59302A"/>
<path fill-rule="evenodd" clip-rule="evenodd" d="M328.317 234.652C321.898 231.84 306.098 229.112 292.364 229.335C278.63 229.557 241.175 237.428 241.175 237.428H240.249C239.006 235.519 238.722 233.555 239.252 231.576C267.558 220.179 304.714 212.445 310.641 214.381C314.92 215.777 322.963 223.676 328.317 234.652Z" fill="#42211D"/>
<path fill-rule="evenodd" clip-rule="evenodd" d="M276.277 224.176C276.277 224.176 315.015 217.15 317.451 216.152C317.451 216.152 308.037 206.185 305.046 206.185C302.054 206.185 276.277 224.176 276.277 224.176Z" fill="#BBC3C4"/>
<path fill-rule="evenodd" clip-rule="evenodd" d="M246.571 319.672C218.549 334.2 169.359 328.472 160.5 323.818C151.641 319.163 155.848 318.502 155.848 318.502C181.655 322.046 221.255 317.228 221.255 317.228C225.448 317.228 229.631 317.427 233.804 317.826C237.754 318.204 241.681 318.758 245.587 319.488L246.571 319.672Z" fill="#42211D"/>
<path fill-rule="evenodd" clip-rule="evenodd" d="M233.804 317.823C190.475 330.661 155.848 318.5 155.848 318.5C181.655 322.044 221.255 317.226 221.255 317.226C225.447 317.226 229.63 317.425 233.804 317.823Z" fill="#27140E"/>
<path fill-rule="evenodd" clip-rule="evenodd" d="M142.002 150.086C142.002 150.691 155.072 187.576 163.268 163.429C171.464 139.283 156.722 146.927 156.722 146.927L151.11 153.165L144.871 145.777L142.002 150.086Z" fill="#BBC3C4"/>
<path d="M283.66 249.935C283.66 249.935 114.275 310.404 151.121 327.616C187.968 344.829 246.571 341.241 246.571 341.241" stroke="white" stroke-width="3.40836" stroke-linecap="round"/>
<path fill-rule="evenodd" clip-rule="evenodd" d="M308.702 207.514C308.702 207.514 271.707 227.897 261.74 229.891C251.772 231.885 207.463 252.266 207.463 252.266C207.463 252.266 207.245 252.048 206.808 251.596C204.26 249.039 194.131 239.003 172.471 219.035C146.994 195.554 133.703 159.74 132.226 157.671C130.748 155.603 130.969 155.308 130.969 155.308C132.448 152.69 134.909 150.108 137.181 148.066C138.888 146.535 140.686 145.11 142.566 143.798C143.675 155.391 147.993 165.21 157.623 159.232C167.252 153.253 162.495 125.004 162.495 125.004L170.366 119.821C171.102 119.335 172.057 119.33 172.799 119.808L308.702 207.514Z" fill="#6D378F"/>
<path fill-rule="evenodd" clip-rule="evenodd" d="M308.701 207.514C308.701 207.514 271.707 227.897 261.739 229.891C256.598 230.919 242.319 236.837 229.707 242.329C217.856 247.483 207.463 252.266 207.463 252.266C207.463 252.266 207.244 252.048 206.808 251.596C218.242 211.961 168.65 154.872 161.096 161.291C152.235 168.822 147.214 164.023 146.258 161.291C145.302 158.559 143.552 160.761 143.552 160.761C140.622 156.107 138.509 151.924 137.172 148.066C138.881 146.535 140.683 145.109 142.566 143.798C143.674 155.391 147.993 165.21 157.622 159.232C167.252 153.253 162.495 125.004 162.495 125.004L170.285 119.874L170.365 119.821C171.102 119.335 172.057 119.33 172.798 119.808L308.701 207.514Z" fill="#582279"/>
<path fill-rule="evenodd" clip-rule="evenodd" d="M151.122 153.165C151.122 153.165 147.657 154.082 135.691 149.488C135.691 149.488 134.285 149.84 136.797 146.704C139.309 143.568 143.21 142.741 143.21 142.741L151.122 153.165Z" fill="#FFC034"/>
<path fill-rule="evenodd" clip-rule="evenodd" d="M308.702 207.514C308.702 207.514 271.708 227.896 261.74 229.891C256.599 230.919 242.32 236.836 229.707 242.329C230.131 230.22 226.639 211.767 207.668 192.381C184.157 168.35 174.095 136.145 170.283 119.867L170.364 119.815C171.101 119.328 172.055 119.323 172.797 119.802L308.702 207.514Z" fill="#42115F"/>
<path fill-rule="evenodd" clip-rule="evenodd" d="M311.727 211.906L247.924 231.733L230.48 214.68L184.072 169.31L255.88 139.479L268.564 155.93V155.932L311.727 211.906Z" fill="#008C95"/>
<path fill-rule="evenodd" clip-rule="evenodd" d="M345.326 143.488L338.463 157.453L331.142 172.361L330.782 173.096L311.729 211.898L255.949 139.56L255.881 139.471L258.674 134.832L274.385 108.769L275.554 106.829L293.665 76.7648L293.676 76.7451L345.326 143.488Z" fill="#08C6D2"/>
<path fill-rule="evenodd" clip-rule="evenodd" d="M293.689 76.7451L293.678 76.7648C293.357 77.4499 286.394 92.2574 277.559 107.983C272.2 117.479 266.135 126.558 259.415 135.144C257.933 137.031 256.838 138.349 256.288 139.004C256.059 139.274 255.922 139.44 255.887 139.471L258.68 134.832L274.391 108.769L275.556 106.831L293.689 76.7451Z" fill="black"/>
<path fill-rule="evenodd" clip-rule="evenodd" d="M293.688 76.743H293.69L293.688 76.7452L293.677 76.7649L275.634 106.801L274.468 108.739L258.769 134.871L256.288 139.004L255.947 139.569L245.364 143.948L234.84 148.302L184.072 169.31L201.754 139.261L221.575 105.575L293.688 76.743Z" fill="#FAD6AB"/>
<path fill-rule="evenodd" clip-rule="evenodd" d="M293.688 76.743H293.69L293.688 76.7452L293.677 76.7649L275.634 106.801L274.468 108.739L258.769 134.871L256.288 139.004L255.947 139.569L245.364 143.948L234.84 148.302L184.072 169.31L201.754 139.261L221.575 105.575L293.688 76.743Z" fill="#08C6D2"/>
<path fill-rule="evenodd" clip-rule="evenodd" d="M311.727 211.906L247.924 231.735L230.48 214.682C230.48 214.682 289.308 225.184 276.499 166L311.727 211.906Z" fill="#02777E"/>
<path fill-rule="evenodd" clip-rule="evenodd" d="M203.338 136.579L274.469 108.739L275.632 106.801L204.481 134.637L203.338 136.579Z" fill="black"/>
<path fill-rule="evenodd" clip-rule="evenodd" d="M289.271 196.89L253.48 210.713L260.947 219.902L298.573 208.339L289.271 196.89Z" fill="#EDE2DB"/>
<path fill-rule="evenodd" clip-rule="evenodd" d="M283.818 204.88L286.91 208.684L292.846 206.676L289.815 202.947L283.818 204.88Z" fill="#90898B"/>
<path fill-rule="evenodd" clip-rule="evenodd" d="M258.025 211.459L258.822 212.436L273.171 207.78L272.436 206.877L258.025 211.459Z" fill="#90898B"/>
<path fill-rule="evenodd" clip-rule="evenodd" d="M260.137 214.056L261.027 215.153L276.991 210.021L276.17 209.009L260.137 214.056Z" fill="#90898B"/>
<path fill-rule="evenodd" clip-rule="evenodd" d="M262.25 216.654L263.14 217.752L279.104 212.62L278.282 211.607L262.25 216.654Z" fill="#90898B"/>
<path fill-rule="evenodd" clip-rule="evenodd" d="M237.278 175.387L209.981 185.052L200.223 174.508L228.692 165.142L237.278 175.387Z" fill="#EAECED"/>
<path fill-rule="evenodd" clip-rule="evenodd" d="M211.957 182.815L210.536 183.314L203.379 175.535L204.847 175.049L211.957 182.815Z" fill="#515151"/>
<path fill-rule="evenodd" clip-rule="evenodd" d="M212.239 182.717L211.676 182.913L204.559 175.145L205.139 174.953L212.239 182.717Z" fill="#515151"/>
<path fill-rule="evenodd" clip-rule="evenodd" d="M213.419 182.3L212.86 182.496L205.779 174.739L206.358 174.545L213.419 182.3Z" fill="#515151"/>
<path fill-rule="evenodd" clip-rule="evenodd" d="M214.596 181.888L214.04 182.082L206.998 174.333L207.572 174.141L214.596 181.888Z" fill="#515151"/>
<path fill-rule="evenodd" clip-rule="evenodd" d="M216.014 181.39L215.235 181.663L208.23 173.923L209.033 173.655L216.014 181.39Z" fill="#515151"/>
<path fill-rule="evenodd" clip-rule="evenodd" d="M216.935 181.067L216.383 181.259L209.416 173.528L209.986 173.338L216.935 181.067Z" fill="#515151"/>
<path fill-rule="evenodd" clip-rule="evenodd" d="M218.095 180.659L217.545 180.851L210.615 173.129L211.183 172.941L218.095 180.659Z" fill="#515151"/>
<path fill-rule="evenodd" clip-rule="evenodd" d="M219.457 180.179L218.499 180.517L211.6 172.802L212.588 172.472L219.457 180.179Z" fill="#515151"/>
<path fill-rule="evenodd" clip-rule="evenodd" d="M220.404 179.847L219.858 180.039L213.002 172.334L213.563 172.149L220.404 179.847Z" fill="#515151"/>
<path fill-rule="evenodd" clip-rule="evenodd" d="M221.55 179.446L221.009 179.636L214.188 171.94L214.746 171.754L221.55 179.446Z" fill="#515151"/>
<path fill-rule="evenodd" clip-rule="evenodd" d="M222.69 179.044L222.151 179.234L215.367 171.547L215.924 171.363L222.69 179.044Z" fill="#515151"/>
<path fill-rule="evenodd" clip-rule="evenodd" d="M224.03 178.573L223.09 178.905L216.334 171.226L217.305 170.903L224.03 178.573Z" fill="#515151"/>
<path fill-rule="evenodd" clip-rule="evenodd" d="M224.96 178.246L224.425 178.436L217.711 170.768L218.265 170.584L224.96 178.246Z" fill="#515151"/>
<path fill-rule="evenodd" clip-rule="evenodd" d="M226.089 177.851L225.556 178.039L218.877 170.38L219.427 170.196L226.089 177.851Z" fill="#515151"/>
<path fill-rule="evenodd" clip-rule="evenodd" d="M227.21 177.456L226.679 177.644L220.037 169.993L220.585 169.812L227.21 177.456Z" fill="#515151"/>
<path fill-rule="evenodd" clip-rule="evenodd" d="M228.278 177.083L227.176 177.469L220.549 169.825L221.683 169.445L228.278 177.083Z" fill="#515151"/>
<path fill-rule="evenodd" clip-rule="evenodd" d="M229.442 176.673L228.914 176.858L222.342 169.227L222.885 169.046L229.442 176.673Z" fill="#515151"/>
<path fill-rule="evenodd" clip-rule="evenodd" d="M230.55 176.284L230.026 176.467L223.486 168.845L224.027 168.667L230.55 176.284Z" fill="#515151"/>
<path fill-rule="evenodd" clip-rule="evenodd" d="M231.655 175.896L231.131 176.079L224.629 168.466L225.168 168.287L231.655 175.896Z" fill="#515151"/>
<path fill-rule="evenodd" clip-rule="evenodd" d="M232.755 175.509L232.233 175.693L225.764 168.088L226.3 167.911L232.755 175.509Z" fill="#515151"/>
<path fill-rule="evenodd" clip-rule="evenodd" d="M233.804 175.141L232.492 175.601L226.031 167.999L227.382 167.552L233.804 175.141Z" fill="#515151"/>
<path fill-rule="evenodd" clip-rule="evenodd" d="M234.939 174.741L234.422 174.922L228.02 167.338L228.552 167.161L234.939 174.741Z" fill="#515151"/>
<path fill-rule="evenodd" clip-rule="evenodd" d="M239.759 137.57L234.369 149.329L241.908 158.607L251.994 154.708L244.782 145.369L249.722 133.289L239.759 137.57Z" fill="black"/>
<g style="mix-blend-mode:multiply" opacity="0.32">
<path fill-rule="evenodd" clip-rule="evenodd" d="M234.994 148.245L234.936 150.025C234.936 150.025 241.301 147.029 244.87 145.29C244.976 144.844 245.115 144.406 245.287 143.981L234.994 148.245Z" fill="#B28567"/>
</g>
<path fill-rule="evenodd" clip-rule="evenodd" d="M277.507 157.086L277.861 156.585L278.201 155.893C278.296 155.79 278.378 155.674 278.444 155.55L278.489 155.397L278.605 155.229H278.627L278.657 155.177V155.16L278.723 155.064L278.869 154.745L279.087 154.416L279.127 154.326L279.148 154.306L279.367 153.84L279.585 153.558L279.755 153.137L280.104 152.639L280.575 151.681L280.957 151.129L281.247 150.497L281.381 150.379L281.337 150.337V150.324C281.44 150.143 281.506 149.944 281.533 149.737L281.566 149.68H281.64L281.625 149.331C281.78 149.48 281.961 149.408 282.173 149.113L282.112 148.723L282.384 148.491L282.668 147.858L283.091 147.108L283.349 146.532C283.411 146.593 283.577 146.425 283.846 146.028L283.921 145.524L284.237 145.087C284.306 144.958 284.358 144.82 284.392 144.677C284.51 144.721 284.662 144.585 284.854 144.241L284.929 143.987L284.961 143.931H285.033L285.062 143.878L285.049 143.78L285.485 143.126L285.74 142.554L285.959 142.283L286.124 141.869L286.467 141.384L286.927 140.45L287.298 139.911L287.582 139.292L287.713 139.178L287.674 139.139L287.794 138.921L288.104 138.484L288.193 138.078L288.33 137.965L288.522 137.496L288.867 137.014L288.939 136.758L289.284 136.278L289.502 135.759L290.513 134.221L290.676 133.815L290.707 133.76L290.925 133.49L291.13 132.876L291.414 132.505L291.442 132.457L291.414 132.429C291.444 132.388 291.473 132.348 291.508 132.296L291.547 132.095L291.713 131.934L291.741 131.884L291.898 131.473L292.077 131.406L292.513 130.385L292.867 130.009L292.952 129.608L293.186 129.197L293.583 128.624C293.495 128.536 293.557 128.303 293.77 127.925C293.77 127.925 294.104 127.371 294.176 127.445L294.222 127.493C294.262 127.396 294.296 127.296 294.322 127.194C294.418 127.095 294.503 126.986 294.576 126.869L294.615 126.671L294.776 126.511L294.805 126.461L294.962 126.058L295.138 125.99L295.575 124.98L295.922 124.611L296.007 124.214L296.225 123.808L296.618 123.24C296.531 123.151 296.594 122.922 296.806 122.549L297.19 121.737C297.129 121.89 297.133 122.001 297.205 122.075L297.251 122.123C297.305 121.99 297.379 121.811 297.443 121.648C297.547 121.648 297.681 121.512 297.84 121.229L297.91 120.986L297.94 120.934H298.01L298.038 120.884L298.025 120.788L298.438 120.177L298.68 119.631L298.898 119.376L299.055 118.979L299.383 118.521L299.819 117.63L300.173 117.122L300.441 116.531L300.567 116.424L300.526 116.382V116.369C300.622 116.199 300.683 116.011 300.707 115.817L300.738 115.765H300.807L300.792 115.429C300.934 115.579 301.104 115.52 301.301 115.252L301.244 114.874L301.497 114.656L301.761 114.065L302.154 113.369L302.394 112.83C302.409 112.847 302.435 112.843 302.468 112.83H302.534C302.551 112.799 302.56 112.771 302.575 112.74C302.677 112.628 302.77 112.507 302.854 112.38L302.922 111.9L302.939 111.876C303.059 111.918 303.192 111.839 303.341 111.636L303.295 111.318C303.308 111.283 303.319 111.252 303.328 111.224L303.546 111.054L303.808 110.467L304.198 109.775L304.434 109.24C304.491 109.301 304.652 109.151 304.892 108.791L304.96 108.311L305.25 107.914C305.401 107.604 305.442 107.414 305.372 107.34L305.119 107.069H305.049L304.956 107.362L304.519 108.147L303.963 108.887C304.013 108.939 303.995 109.053 303.908 109.225L303.548 109.862L303.363 110.061L303.382 110.157L303.197 110.355L303.09 110.65H303.031L302.935 110.945L302.64 111.468L302.302 111.937L302.261 112.038L301.927 112.474C301.977 112.527 301.957 112.64 301.872 112.812L301.508 113.467L301.322 113.668L301.34 113.764L301.154 113.965L300.904 114.652L300.249 115.557L300.096 115.935C299.908 116.107 299.75 116.31 299.629 116.535L299.671 116.579L299.686 116.679L299.727 116.723L299.812 116.574L299.856 116.622L299.716 116.871L299.402 117.179L299.332 117.421L299.149 117.639L299.018 117.986L298.8 118.385L298.307 119.385L298.049 119.603L298.019 119.655L298.034 119.747L297.792 120.057L297.491 120.711L297.019 121.178L297.03 121.25L296.923 121.305L296.838 121.456L296.537 121.87L295.917 123.328L295.616 123.745L295.302 124.548L294.634 125.728L294.298 126.191L294.344 126.236C294.238 126.415 294.188 126.622 294.2 126.83L294.032 126.66L293.886 126.673L293.799 126.826L293.495 127.245L292.867 128.72L292.561 129.141L292.243 129.952L291.569 131.146L291.228 131.615L291.276 131.663C291.19 131.81 291.138 131.974 291.124 132.143L291.058 132.078C290.999 132.017 290.84 132.163 290.602 132.514L290.617 132.857C290.526 132.857 290.345 133.051 290.07 133.455L289.982 133.861L289.507 134.698L289.341 135.111L289.297 135.069L289.238 135.174L289.02 135.687L288.767 135.765L288.618 136.276L288.468 136.542L288.274 136.761L288.23 136.979L288.141 137.134L287.99 137.151L287.87 137.612L287.676 137.83C287.535 138.117 287.415 138.413 287.318 138.718C287.25 138.65 287.056 138.866 286.74 139.372L286.783 139.414L286.801 139.516L286.844 139.56L286.932 139.403L286.98 139.449L286.831 139.713L286.502 140.042L286.428 140.293L286.236 140.511L286.098 140.874L285.86 141.295L285.341 142.342L285.07 142.56L285.04 142.615L285.055 142.709L284.8 143.038L284.483 143.719L283.99 144.219L284.01 144.35L283.945 144.55L283.462 145.404L282.858 146.218C282.912 146.27 282.893 146.388 282.799 146.573L282.406 147.267L282.208 147.485L282.227 147.581L282.026 147.8L281.756 148.533L281.055 149.517L280.89 149.918C280.689 150.109 280.519 150.33 280.388 150.573L280.431 150.614L280.449 150.719L280.493 150.761L280.584 150.599L280.632 150.647L280.479 150.916L280.143 151.258L280.067 151.513L279.871 151.732L279.729 152.1L279.484 152.537L278.954 153.608L278.684 153.84C278.583 153.888 278.409 154.108 278.153 154.514L278.199 154.555L278.217 154.658L278.238 154.68L278.075 155.029L277.569 155.548L277.601 155.747H277.612L277.49 156.063L277.246 156.499L276.859 157.276C276.977 157.429 277.095 157.586 277.206 157.743L277.374 157.525L277.507 157.086Z" fill="#593D2D"/>
<path fill-rule="evenodd" clip-rule="evenodd" d="M308.271 110.657L308.193 110.366L307.746 109.832L307.248 109.116L306.838 108.627C306.916 108.598 306.833 108.373 306.589 107.953L306.166 107.661L305.902 107.176C305.668 106.877 305.505 106.74 305.409 106.783L305.059 106.917L305.031 106.989L305.271 107.222L305.843 108.042L306.325 108.952C306.392 108.926 306.49 108.999 306.62 109.171L307.078 109.825L307.193 110.105L307.289 110.129L307.405 110.408L307.639 110.652L307.617 110.711L307.855 110.942L308.228 111.479L308.533 112.031L308.612 112.119L308.898 112.658C308.965 112.631 309.063 112.701 309.19 112.876L309.646 113.53L309.76 113.805L309.856 113.831L309.969 114.106L310.508 114.667L311.088 115.717L311.376 116.038C311.461 116.297 311.585 116.543 311.745 116.764L311.802 116.742L311.9 116.773L311.957 116.753L311.852 116.603L311.913 116.581L312.088 116.832L312.247 117.268L312.441 117.445L312.559 117.716L312.825 117.997L313.102 118.396L313.82 119.319L313.908 119.658L313.945 119.71L314.034 119.738L314.22 120.107L314.691 120.685L314.929 121.34L315.053 121.379L315.204 121.523L315.756 122.318L316.218 123.19C316.286 123.166 316.384 123.234 316.509 123.395L316.945 124.035L317.056 124.303L317.15 124.329L317.259 124.598L317.787 125.148L318.353 126.169L318.525 126.361L318.507 126.409L318.713 126.706L318.944 126.924C318.885 126.943 318.944 127.105 319.136 127.41L319.572 127.812L319.614 127.982L319.646 128.03L319.745 128.059L319.784 128.227L320.29 128.846L320.349 128.947C320.332 129.071 320.293 129.191 320.236 129.302L319.723 129.913L319.684 130.107L319.657 130.155H319.59C319.537 130.251 319.537 130.33 319.59 130.387L319.736 130.542C319.742 130.662 319.718 130.782 319.666 130.891L319.483 131.236L319.282 131.017L319.149 131.033L318.931 131.423L318.948 131.751L318.922 131.799L318.721 132.052C318.675 132.194 318.473 132.626 318.27 133.062L318.243 132.706L318.025 133.099L317.602 134.127C317.556 134.077 317.44 134.214 317.257 134.535L317.113 134.925H317.043V135.157L316.991 135.257L316.773 135.563L316.812 135.604L316.829 135.696C316.819 135.718 316.81 135.742 316.803 135.766L316.779 135.739H316.709L316.511 136.237L316.197 136.455L315.904 137.241L315.714 137.594V138.447L315.527 138.801L315.361 138.631C315.453 138.463 315.455 138.334 315.361 138.249L315.317 138.203L315.25 138.216L314.713 139.458C314.658 139.401 314.538 139.543 314.357 139.881L314.25 140.084V140.317L314.222 140.37L314.069 140.293C313.899 140.695 313.851 140.948 313.938 141.024L313.445 141.696L313.463 141.788H313.452H313.384L313.253 141.803L313.229 141.851V142.089C313.237 142.096 313.244 142.103 313.251 142.111L313.177 142.29L312.893 142.709L312.74 143.106L312.428 143.573L312.443 143.902L312.361 144.055C312.278 143.972 312.219 143.966 312.184 144.033L311.8 144.749C311.739 144.904 311.695 145.065 311.669 145.229L311.494 145.247L311.302 145.607C311.265 145.674 311.289 145.751 311.374 145.838L311.211 146.143L311.071 146.161L310.687 147.121L310.506 147.339L310.477 147.394L310 148.413L309.845 148.574L309.818 148.864L309.79 148.919H309.725L309.681 149.115L309.836 149.194L309.875 149.235L309.821 149.338L309.602 149.12L309.465 149.137L309.079 150.1L308.642 150.778C308.568 150.917 308.509 151.063 308.468 151.215L308.269 151.239L308.075 151.601C308.038 151.671 308.062 151.747 308.147 151.834L307.981 152.144L307.842 152.164L307.451 153.135L307.27 153.353L307.239 153.405L306.755 154.44L306.6 154.603L306.574 154.896L306.543 154.95H306.476L306.432 155.149L306.589 155.227L306.628 155.269L306.574 155.371L306.356 155.153L306.216 155.173L305.825 156.146L305.389 156.833C305.309 156.978 305.248 157.133 305.208 157.294L305.147 157.233L305.079 157.244L304.861 157.761L304.566 158.197L304.409 158.607L304.088 159.092L304.101 159.426L304.016 159.585C303.931 159.502 303.87 159.498 303.833 159.567L303.436 160.309C303.369 160.478 303.322 160.655 303.296 160.835L303.279 160.816L303.135 160.837L303.109 160.888V161.132L302.938 161.451C302.635 162.018 302.55 162.419 302.69 162.651L302.605 162.808L302.373 162.507L302.229 162.529L302.201 162.583L302.133 162.838L302.105 162.891H302.031C301.974 162.996 301.976 163.074 302.031 163.131L301.509 164.235L301.308 164.364C301.269 164.436 301.293 164.512 301.378 164.582L301.265 164.8L301.092 164.879L301.064 164.929V165.175L300.863 165.058L300.822 165.276L300.793 165.33H300.719L300.436 166.109C300.343 166.287 300.242 166.352 300.134 166.306L300.062 166.559L300.108 166.602L300.252 166.581L300.309 166.764L300.167 166.982C300.062 167.23 299.842 167.411 299.578 167.464L299.519 167.571V167.731L299.445 167.87C299.408 167.942 299.445 168.034 299.563 168.145C299.516 168.227 299.478 168.313 299.449 168.403C299.347 168.459 299.181 168.59 299.1 168.514L299.059 168.475H298.987L298.443 169.736L297.752 170.779L297.571 171.248L297.435 171.37C297.509 171.44 297.477 171.623 297.337 171.92L296.774 172.605L296.733 172.813L296.704 172.865L296.628 172.878C296.6 172.924 296.587 172.979 296.593 173.033H296.543L295.995 174.303L295.297 175.357L295.114 175.833L294.978 175.955C295.052 176.025 295.02 176.208 294.878 176.507L294.311 177.201L294.267 177.419L294.239 177.471H294.177L293.383 176.804C293.254 176.649 293.265 176.535 293.416 176.468L293.477 176.441C293.305 176.229 293.102 176.045 292.875 175.894L292.927 175.87L292.951 175.8C292.807 175.613 292.626 175.458 292.419 175.346L292.377 175.298L292.397 175.228L292.074 175.119C292.262 175.034 292.259 174.846 292.074 174.556L291.696 174.471L291.581 174.144L291.103 173.664L290.564 173.009L290.128 172.573C290.204 172.538 290.108 172.328 289.837 171.944L289.401 171.695L289.106 171.259C289.011 171.149 288.901 171.051 288.781 170.969C288.864 170.877 288.781 170.689 288.543 170.393L288.338 170.233L288.297 170.183L288.314 170.113L288.277 170.07L288.181 170.046L287.745 169.415L287.308 168.979L287.132 168.675L286.804 168.372L286.47 167.879L285.757 167.111L285.382 166.565L284.899 166.074L284.838 165.909L284.784 165.935C284.651 165.776 284.491 165.643 284.31 165.542L284.269 165.494L284.286 165.422L283.959 165.311C284.149 165.223 284.142 165.029 283.948 164.73L283.566 164.645L283.446 164.309L282.955 163.82L282.405 163.166L281.958 162.716C281.98 162.716 281.982 162.677 281.975 162.638L281.995 162.57C281.969 162.539 281.945 162.52 281.919 162.494C281.841 162.347 281.754 162.205 281.657 162.07L281.22 161.817L281.203 161.791C281.277 161.684 281.242 161.516 281.089 161.285L280.769 161.213L280.686 161.141L280.585 160.859L280.092 160.366L279.536 159.696L279.086 159.245C279.161 159.207 279.06 158.989 278.781 158.59L278.334 158.335L278.028 157.874C277.771 157.597 277.592 157.481 277.502 157.525L277.166 157.689L277.146 157.763L277.404 157.981L278.043 158.751L278.602 159.624C278.667 159.591 278.772 159.653 278.914 159.808L279.427 160.427L279.566 160.693L279.665 160.711L279.802 160.979L280.055 161.197L280.038 161.259L280.295 161.477L280.714 161.981L281.065 162.505L281.151 162.585L281.482 163.098C281.548 163.065 281.65 163.126 281.792 163.279L282.303 163.895L282.438 164.159L282.536 164.176L282.674 164.44L283.256 164.955L283.926 165.95L284.24 166.245C284.348 166.497 284.496 166.73 284.677 166.936L284.731 166.912L284.832 166.932L284.886 166.908L284.768 166.768L284.827 166.74L285.024 166.976L285.22 167.412L285.427 167.573L285.569 167.833L285.857 168.091L286.167 168.464L286.961 169.321L287.079 169.653L287.121 169.701L287.212 169.721L287.431 170.074L287.95 170.609L288.242 171.239L288.369 171.268L288.53 171.399L289.148 172.143L289.687 172.978C289.752 172.948 289.853 173.009 289.992 173.16L290.49 173.757L290.621 174.015L290.719 174.035L290.85 174.29L291.424 174.794L292.078 175.765L292.264 175.939L292.251 175.99L292.473 176.31L292.722 176.513C292.667 176.54 292.744 176.697 292.956 176.983L293.414 177.347L293.47 177.513L293.508 177.556L293.606 177.578L293.66 177.742L294.219 178.316L294.249 178.357L294.697 178.126H294.719L295.183 177.253L295.284 176.937H295.358L295.602 176.348L296.442 175.038L296.469 174.739L296.905 174.172L296.96 173.821L296.918 173.781H296.844L296.802 173.74C296.846 173.603 296.84 173.455 296.787 173.321L297.034 173.554L297.18 173.528L297.208 173.478L297.25 173.517C297.34 173.34 297.417 173.156 297.481 172.968L297.64 172.669L297.741 172.354H297.813L298.055 171.772L298.886 170.463L298.915 170.164L299.351 169.603L299.628 168.905L299.692 168.966C299.794 168.768 299.877 168.562 299.938 168.348L300.006 168.091L300.396 167.739L300.643 167.028L300.861 166.64L301.079 166.36L301.108 166.31L301.095 166.214L301.313 165.935L301.415 165.625L301.599 165.407L301.784 164.942L302.127 164.545L302.081 164.501L302.068 164.412L302.504 163.709L302.746 163.14L303.004 162.902C303.29 162.317 303.48 161.889 303.582 161.606L303.652 161.59L303.707 161.245L304.544 160.05L304.64 159.74L304.839 159.371L305.081 159.046V158.802L305.289 158.527L305.374 158.367L305.361 158.278L305.317 158.234H305.247C305.293 158.125 305.33 158.031 305.361 157.948L305.579 157.913L305.773 157.549L306.209 156.857L306.292 156.46L306.417 156.342L306.489 156.094L306.517 156.039H306.585L306.892 155.223L307.34 154.627L307.492 154.226L308.743 152.127C308.785 152.043 308.805 151.95 308.799 151.856H308.821L309.013 151.498L309.45 150.815L309.533 150.42L309.655 150.305L309.725 150.058L309.755 150.006H309.821L310.124 149.196L310.56 148.611L310.711 148.214L311.948 146.143C311.979 146.082 311.998 146.014 312.003 145.945L312.044 145.672L312.854 144.522L312.948 144.221L313.14 143.865L313.373 143.551V143.311L313.574 143.049L313.657 142.894L313.644 142.805L313.6 142.761H313.535C313.591 142.628 313.631 142.523 313.661 142.427C313.773 142.45 313.885 142.388 313.925 142.281L313.98 142.181L314.047 141.936L314.076 141.884H314.141L314.263 141.539L314.466 141.273C314.582 141.076 314.656 140.858 314.684 140.632L314.929 140.413L314.955 140.365V140.272L314.983 140.219H315.047L315.117 139.977L315.306 139.621C315.729 138.802 316.197 138.006 316.707 137.238L316.945 136.553L317.076 136.377L317.181 136.394L317.499 135.563L318.056 134.76L318.15 134.467L318.045 134.358L318.636 133.435L318.662 133.387L319.049 132.789L319.112 132.547L319.952 131.209C320.013 131.033 320.055 130.897 320.085 130.773L320.504 129.99L320.596 129.695H320.663L320.751 129.477C320.769 129.386 320.795 129.297 320.829 129.211C320.874 129.112 320.927 129.017 320.988 128.927L320.954 128.89L320.692 128.528L320.613 128.364L319.662 127.413C319.546 127.247 319.568 127.138 319.725 127.083L319.786 127.061C319.634 126.835 319.448 126.633 319.234 126.463L319.289 126.444L319.317 126.376C319.19 126.177 319.023 126.008 318.826 125.879L318.789 125.826L318.813 125.761L318.501 125.623C318.697 125.556 318.719 125.368 318.545 125.06L318.176 124.943L318.091 124.609L317.654 124.089L317.174 123.398L316.775 122.924C316.853 122.896 316.775 122.678 316.539 122.27L316.125 121.984L315.869 121.517C315.783 121.399 315.682 121.292 315.57 121.198C315.66 121.115 315.603 120.921 315.383 120.605L315.191 120.428L315.156 120.375L315.178 120.308L315.145 120.26L315.051 120.227L314.66 119.572L314.257 119.095L314.108 118.776L313.807 118.447L313.517 117.925L312.873 117.098L312.546 116.524L312.11 115.994L312.062 115.824L312.005 115.846C311.889 115.673 311.741 115.525 311.568 115.409L311.531 115.355L311.555 115.287L311.239 115.147C311.435 115.075 311.457 114.883 311.276 114.569L310.905 114.451L310.813 114.106L310.377 113.576L309.884 112.867L309.476 112.38C309.5 112.38 309.504 112.343 309.502 112.304L309.526 112.239C309.504 112.206 309.48 112.184 309.458 112.153C309.395 112.003 309.322 111.858 309.24 111.717L308.819 111.427L308.804 111.398C308.889 111.3 308.867 111.13 308.734 110.886L308.42 110.785L308.271 110.657Z" fill="#593D2D"/>
<path opacity="0.47" fill-rule="evenodd" clip-rule="evenodd" d="M338.462 157.462L339.063 158.28L331.844 172.437C331.698 172.536 331.548 172.632 331.395 172.723C331.192 172.854 330.989 172.978 330.782 173.105C326.313 175.805 321.437 177.764 316.343 178.905C306.916 181.07 300.399 179.56 295.729 176.116C295.559 175.994 295.391 175.865 295.227 175.734C287.016 169.273 284.74 156.75 282.135 148.677C282.058 148.439 281.98 148.208 281.903 147.979C280.494 143.78 278.94 140.952 276.267 141.12C269.749 141.537 266.28 138.133 259.406 135.15C259.188 135.059 258.97 134.967 258.752 134.878C258.721 134.878 258.693 134.851 258.662 134.838C254.416 133.093 248.876 131.528 240.676 131.076C218.246 129.837 201.342 141.114 201.342 141.114C201.342 141.114 201.457 140.459 201.737 139.261L221.559 105.575L293.689 76.743L345.321 143.49L338.462 157.462Z" fill="#008C95"/>
<path fill-rule="evenodd" clip-rule="evenodd" d="M339.062 158.28L331.844 172.437L331.573 172.969L331.394 172.723L331.141 172.369L324.193 162.757L332.487 149.266L338.462 157.461L339.062 158.28Z" fill="black"/>
<path fill-rule="evenodd" clip-rule="evenodd" d="M142.347 138.528C142.347 138.528 139.947 154.021 142.783 161.326C142.783 161.326 143.558 162.655 143.615 159.886C143.671 157.117 143.42 149.67 148.28 150.957C148.28 150.957 149.879 151.051 151.116 153.165L142.347 138.528Z" fill="white"/>
<path fill-rule="evenodd" clip-rule="evenodd" d="M321.665 152.242C320.338 154.237 316.343 152.797 316.343 152.797C316.343 152.797 320.997 160.216 321.106 162.875C321.215 165.535 318.051 164.649 318.051 164.649C318.051 164.649 319.16 167.25 319.491 169.134C319.823 171.017 319.216 171.571 319.216 171.571C316.779 172.568 315.116 170.299 315.116 170.299C315.116 170.299 315.116 171.405 313.013 171.848C310.909 172.291 308.029 168.745 304.817 164.211C301.605 159.677 298.626 157.898 298.626 157.898C298.408 167.534 294.515 168.752 294.627 164.767C294.718 161.437 292.495 154.948 291.694 151.675C291.558 151.175 291.465 150.664 291.415 150.148C291.303 148.044 289.975 142.615 289.975 142.615L295.844 134.86C295.844 134.86 297.343 135.646 299.432 136.824C303.268 138.975 309.089 142.432 311.241 144.727C314.573 148.253 322.989 150.25 321.665 152.242Z" fill="#FED194"/>
<path fill-rule="evenodd" clip-rule="evenodd" d="M299.441 136.815C299.319 136.885 299.185 136.934 299.046 136.959C299.046 136.959 297.24 141.341 294.637 144.609C293.049 146.66 292.037 149.096 291.704 151.668C291.568 151.168 291.474 150.657 291.425 150.141C291.313 148.037 289.984 142.608 289.984 142.608L295.854 134.853C295.854 134.853 297.353 135.637 299.441 136.815Z" fill="#F59D4E"/>
<path fill-rule="evenodd" clip-rule="evenodd" d="M299.675 135.593C297.18 142.037 289.201 145.098 289.201 145.098L278.565 137.288C278.565 137.288 279.065 138.286 274.247 138.528C269.429 138.77 224.83 112.926 224.413 112.681L196.834 146.706C177.686 138.054 172.443 120.384 172.205 119.559V119.531C172.205 119.531 172.665 118.983 173.482 118.029C177.222 113.665 188.4 100.885 197.19 93.3002C208.163 83.8322 225.74 72.3328 237.702 72.335C263.959 72.335 287.381 115.867 289.707 119.454C292.033 123.042 289.707 125.837 289.707 125.837L299.675 135.593Z" fill="white"/>
<path opacity="0.54" fill-rule="evenodd" clip-rule="evenodd" d="M224.409 112.679L196.83 146.704C177.683 138.052 172.439 120.382 172.201 119.557L173.471 118.03C173.471 118.03 178.053 128.994 186.02 134.862C193.987 140.73 203.632 119.022 210.787 113.279C213.405 111.176 215.936 110.534 218.088 110.567C220.36 110.617 222.563 111.353 224.409 112.679Z" fill="#D2D7DB"/>
<path fill-rule="evenodd" clip-rule="evenodd" d="M315.099 170.316C313.58 168.134 312.106 165.916 310.676 163.663C309.975 162.531 309.288 161.387 308.633 160.228L308.153 159.356C307.994 159.063 307.848 158.764 307.693 158.468C307.538 158.171 307.409 157.865 307.267 157.564C307.193 157.414 307.134 157.257 307.075 157.102L306.898 156.632L306.96 156.613L307.217 157.049C307.298 157.195 307.376 157.337 307.472 157.486C307.658 157.765 307.811 158.053 308.003 158.326L309.08 159.991C309.458 160.538 309.794 161.106 310.172 161.656L311.236 163.334L312.279 165.027C312.611 165.603 312.967 166.164 313.288 166.746C313.942 167.901 314.597 169.07 315.16 170.296L315.099 170.316Z" fill="#F59D4E"/>
<path fill-rule="evenodd" clip-rule="evenodd" d="M318.034 164.665C316.928 162.774 315.848 160.864 314.793 158.935C314.277 157.969 313.772 156.995 313.277 156.013C312.788 155.031 312.306 154.049 311.885 153.03L311.944 153.006C312.583 153.922 313.172 154.841 313.737 155.779C314.028 156.244 314.292 156.722 314.571 157.191L315.37 158.625L316.127 160.08C316.365 160.573 316.62 161.058 316.842 161.56C317.319 162.558 317.736 163.584 318.091 164.632L318.034 164.665Z" fill="#F59D4E"/>
<path fill-rule="evenodd" clip-rule="evenodd" d="M316.316 152.814C315.88 152.175 315.467 151.505 315.042 150.865C314.616 150.226 314.217 149.556 313.824 148.882L313.879 148.847C314.249 149.04 314.584 149.293 314.872 149.595C315.145 149.876 315.387 150.183 315.596 150.514C315.805 150.845 315.98 151.196 316.118 151.562C316.267 151.951 316.354 152.362 316.373 152.779L316.316 152.814Z" fill="#F59D4E"/>
<path fill-rule="evenodd" clip-rule="evenodd" d="M224.409 112.679L196.83 146.704C177.683 138.052 172.439 120.382 172.201 119.557C177.811 129.85 189.298 143.712 195.167 143.16C201.037 142.608 220.089 114.357 220.01 113.266C219.932 112.175 218.151 110.602 218.096 110.554C220.367 110.609 222.567 111.35 224.409 112.679Z" fill="#AEB6B7"/>
<path fill-rule="evenodd" clip-rule="evenodd" d="M278.574 137.289C278.574 137.289 284.276 133.474 287.215 129.87C287.215 129.87 289.803 129.71 281.557 139.471L278.574 137.289Z" fill="#BBC3C4"/>
<path fill-rule="evenodd" clip-rule="evenodd" d="M151.121 153.165C151.121 153.165 170.282 150.582 177.208 113.744C177.208 113.744 176.335 112.422 173.016 114.527C169.697 116.633 164.543 121.689 164.543 121.689C164.543 121.689 162.789 141.517 151.121 153.165Z" fill="#FFC034"/>
<path fill-rule="evenodd" clip-rule="evenodd" d="M151.121 153.165C151.121 153.165 155.33 146.783 157.176 138.528C159.022 130.273 160.574 120.011 159.688 118.453C158.802 116.895 168.634 119.843 168.809 121.252C168.983 122.662 169.138 142.599 171.059 151.607C171.059 151.614 156.967 144.747 151.121 153.165Z" fill="white"/>
<path fill-rule="evenodd" clip-rule="evenodd" d="M149.093 153.318C149.093 153.318 140.583 155.282 143.459 163.84C146.335 172.398 151.334 173.727 151.334 173.727C151.334 173.727 146.677 169.415 148.691 165.217C150.705 161.018 152.006 158.701 150.893 153.163L149.093 153.318Z" fill="#FFC034"/>
<path fill-rule="evenodd" clip-rule="evenodd" d="M150.505 154.383C150.505 154.383 150.056 160.383 156.283 160.239C162.511 160.095 164.401 157.069 164.401 157.069C164.401 157.069 160.613 159.251 158.258 157.069C155.904 154.887 154.645 153.556 150.771 153.159L150.505 154.383Z" fill="#FFC034"/>
<path d="M13.2021 191.343C13.2021 191.343 1.03276 152.284 1.00003 116.406C0.973847 89.8833 17.1713 61.1369 41.9813 41.4329" stroke="#E4DBFA" stroke-width="0.852091" stroke-linecap="round"/>
<path d="M50.7598 36.4273C50.7598 36.4273 68.5436 23.7211 76.2506 20.28" stroke="#E4DBFA" stroke-width="0.852091" stroke-linecap="round"/>
<path d="M248.407 185.743C248.3 185.801 248.196 185.863 248.07 185.944L247.939 186.028L248.537 186.739L249.862 188.36L250.604 186.666C252.097 186.548 253.559 187.331 254.258 188.629C255.233 190.439 254.532 192.72 252.696 193.708C250.886 194.683 248.616 194.002 247.642 192.192L243.762 184.988L242.362 185.741L244.451 189.62C243.14 189.214 241.694 189.358 240.437 190.036C237.861 191.423 236.893 194.652 238.28 197.228C239.667 199.803 242.896 200.772 245.472 199.385C245.604 199.314 245.738 199.235 245.882 199.138L245.993 199.065L244.11 196.698L243.355 198.418C241.833 198.591 240.341 197.825 239.628 196.501C238.656 194.696 239.36 192.348 241.165 191.376C242.042 190.904 243.057 190.809 244.022 191.107C244.992 191.402 245.78 192.05 246.242 192.933C247.232 194.833 249.063 195.377 249.133 195.398C250.563 195.904 252.131 195.792 253.444 195.084C256.02 193.697 256.988 190.468 255.601 187.892C254.214 185.317 250.987 184.353 248.407 185.743Z" fill="white"/>
</svg>
