<svg width="421" height="397" viewBox="0 0 421 397" fill="none" xmlns="http://www.w3.org/2000/svg">
<path opacity="0.5" d="M120 254H421C421 254 258.032 276.5 120 254Z" fill="url(#paint0_linear)"/>
<path d="M268.786 314.176C289.187 292.602 285.837 287.519 284.171 286.879C272.551 282.414 261.683 291.932 261.683 291.932C261.683 291.932 248.388 335.746 268.786 314.176Z" fill="#697182"/>
<path fill-rule="evenodd" clip-rule="evenodd" d="M247.018 317.763C250.412 318.882 257.933 316.125 257.933 316.125C257.933 316.125 261.882 316.007 264.864 313.885C265.65 313.325 267.601 311.55 268.043 310.916C269.619 308.655 273.729 308.2 274.203 313.022C274.203 313.022 276.367 313.297 277.784 312.312C279.2 311.327 280.592 309.682 280.326 307.142C280.326 307.142 283.841 305.044 283.491 302.806C283.491 302.806 285.558 300.355 284.43 296.583C284.43 296.583 286.122 293.535 284.257 290.978C283.336 289.724 273.963 285.72 273.119 286.187C272.275 286.655 268.14 287.05 253.261 303.627C252.626 304.333 251.974 305.07 251.303 305.837C249.029 308.423 247.514 310.484 246.585 312.13C244.626 315.609 245.283 317.191 247.018 317.763Z" fill="#FED194"/>
<path d="M280.329 307.14C280.329 307.14 277.85 305.904 275.964 306.442" stroke="#F59D4E" stroke-width="3"/>
<path d="M283.498 302.795C283.498 302.795 277.635 299.732 276.782 300.549" stroke="#F59D4E" stroke-width="3"/>
<path d="M284.448 296.579C284.448 296.579 280.563 293.004 277.692 295.342" stroke="#F59D4E" stroke-width="3"/>
<path fill-rule="evenodd" clip-rule="evenodd" d="M247.02 317.762C250.414 318.881 257.935 316.124 257.935 316.124C257.935 316.124 261.884 316.006 264.866 313.884C265.652 313.324 267.603 311.549 268.045 310.915C268.045 310.915 273.731 308.199 274.205 313.021C274.205 313.021 276.368 313.296 277.785 312.311C277.785 312.311 275.508 310.812 274.003 309.805C265.968 304.425 262.411 313.461 257.806 312.284C253.201 311.108 253.444 303.654 253.444 303.654C253.444 303.654 253.387 303.639 253.28 303.623C252.645 304.329 251.992 305.065 251.322 305.833C249.048 308.418 247.533 310.479 246.604 312.125C246.543 312.939 246.521 313.831 246.545 314.803C246.561 315.807 246.721 316.803 247.02 317.762Z" fill="#F59D4E"/>
<rect x="129.98" y="33.4761" width="63.2497" height="172.524" fill="url(#paint1_linear)"/>
<rect x="202.844" y="33.4761" width="64.2639" height="172.524" fill="url(#paint2_linear)"/>
<rect x="129.98" y="11" width="137.128" height="15.8185" fill="url(#paint3_linear)"/>
<path d="M67.968 194.465C67.968 194.465 -27.0612 63.109 7.61159 82.5052C42.2844 101.901 67.968 194.465 67.968 194.465Z" fill="#F6F2FF"/>
<path d="M67.9679 194.014C67.9679 194.014 -9.15527e-05 45.5882 28.2051 37.241C56.4103 28.8938 67.9679 194.014 67.9679 194.014Z" fill="#EDE4FF"/>
<path d="M69.8795 195.008C69.8795 195.008 27.3786 3.34698 62.6479 0.642572C97.9172 -2.06184 69.8795 195.008 69.8795 195.008Z" fill="#F6F2FF"/>
<path d="M43.0508 181.39L53.3248 284.769H80.1315L86.0458 181.39H43.0508Z" fill="#BEB2DA"/>
<path fill-rule="evenodd" clip-rule="evenodd" d="M342.706 57.2042C351.011 72.3264 345.49 91.3181 330.367 99.6237C315.25 107.927 296.256 102.4 287.95 87.2776C279.647 72.1602 285.173 53.1664 300.291 44.8633C315.414 36.5577 334.403 42.0868 342.706 57.2042ZM337.909 59.839C331.061 47.3714 315.401 42.8149 302.929 49.6651C290.461 56.5127 285.904 72.1729 292.752 84.641C299.602 97.1139 315.263 101.67 327.731 94.8223C340.203 87.9716 344.76 72.3115 337.909 59.839Z" fill="#6D378F"/>
<path d="M304.099 76.4787L316 69.9425L326.332 88.754C326.783 89.5744 326.483 90.6047 325.663 91.0552C324.842 91.5056 323.812 91.2061 323.362 90.3856L314.661 74.5449L305.732 79.4495C304.911 79.8999 303.881 79.6004 303.43 78.7799C302.98 77.9595 303.279 76.9292 304.099 76.4787Z" fill="#42115F"/>
<path d="M274.974 313.578L228.336 348.985L219.533 355.717V310.287C219.533 310.287 247.443 291.915 271.437 299.06L276.046 305.089L274.974 313.578Z" fill="#FECF31"/>
<path d="M220.921 354.864C220.921 354.864 216.389 359.204 208.444 364.778C200.977 370.013 190.501 376.337 177.938 381.171C176.125 381.868 174.274 382.539 172.375 383.161C142.759 392.972 103.23 393.359 64.3927 354.864C64.3927 354.864 59.0232 250.32 95.3605 212.83C102.844 205.105 112.102 200.229 123.539 199.698C190.495 196.593 217.52 241.657 220.921 282.27C224.328 322.877 220.921 354.864 220.921 354.864Z" fill="#FECF31"/>
<path d="M296.296 266.324H268.562L271.513 262.644C273.755 259.849 274.973 256.379 274.973 252.801V227.026H289.88V252.801C289.88 256.378 291.103 259.849 293.34 262.644L296.296 266.324Z" fill="#F6F6F6"/>
<rect x="268.562" y="266.326" width="27.7333" height="2.29682" fill="#B6CCC6"/>
<path opacity="0.5" d="M289.88 229.917V249.99L274.973 244.481V229.917H289.88Z" fill="#B6CCC6"/>
<path d="M353.74 237.061H211.115C206.523 237.061 202.801 233.339 202.801 228.747V136.654C202.801 132.062 206.523 128.34 211.115 128.34H353.74C358.332 128.34 362.055 132.062 362.055 136.654V228.747C362.055 233.339 358.332 237.061 353.74 237.061Z" fill="#231F20"/>
<path d="M362.055 216.994H202.801V228.747C202.801 233.339 206.523 237.061 211.115 237.061H353.74C358.332 237.061 362.055 233.339 362.055 228.747V216.994Z" fill="#F6F6F6"/>
<path d="M282.429 231.111C284.684 231.111 286.512 229.283 286.512 227.028C286.512 224.773 284.684 222.945 282.429 222.945C280.174 222.945 278.346 224.773 278.346 227.028C278.346 229.283 280.174 231.111 282.429 231.111Z" fill="white"/>
<path d="M220.922 354.865C220.922 354.865 216.389 359.204 208.445 364.778C198.596 355.868 193.291 339.475 189.488 323.098C205.468 296.727 199.996 280.189 199.996 280.189C199.996 294.335 192.132 303.878 186.451 308.92C182.46 289.271 179.424 273.065 171.41 274.9C153.547 278.982 146.911 265.202 117.07 266.221C87.2343 267.246 89.235 242.742 89.235 242.742L95.361 212.831C102.844 205.106 112.103 200.23 123.539 199.699C190.496 196.593 217.521 241.658 220.922 282.271C224.328 322.877 220.922 354.865 220.922 354.865Z" fill="#FFB636"/>
<path d="M161.767 211.096C182.88 211.096 199.996 192.014 199.996 168.475C199.996 144.936 182.88 125.854 161.767 125.854C140.654 125.854 123.539 144.936 123.539 168.475C123.539 192.014 140.654 211.096 161.767 211.096Z" fill="#FED194"/>
<path d="M205.499 155.529L205.203 158.667C205.075 159.981 204.662 161.231 204.002 162.341C203.347 163.452 202.446 164.417 201.357 165.158L201.443 159.289C201.014 166.349 198.327 164.675 196.921 164.981V158.635L196.1 162.164C195.687 163.935 194.051 165.142 192.243 165.013C191.868 164.986 191.482 164.954 191.085 164.927C190.114 164.852 189.1 164.771 188.07 164.718C187.239 170.908 185.726 183.385 185.533 193.663C185.436 198.615 185.651 203.062 186.391 206.039C186.911 208.136 187.952 210.915 189.197 214.085C191.406 219.717 194.25 226.573 195.972 233.021C196.428 234.727 196.648 236.443 196.648 238.144C196.648 244.511 193.579 250.583 188.381 254.43C188.37 254.441 188.355 254.451 188.338 254.462C187.598 255.004 186.815 255.503 185.994 255.953C186.07 255.857 187.115 254.516 188.312 252.284C188.344 252.236 188.366 252.187 188.392 252.139C190.511 248.143 193.059 241.411 191.584 233.836C190.962 230.65 190.028 227.936 188.961 225.34C185.506 216.923 180.7 209.719 180.957 191.475C180.979 190.07 180.974 187.801 180.957 185.076C180.92 179.1 180.813 170.957 180.732 165.045C177.492 165.694 174.708 167.25 173.26 170.635C172.042 173.467 171.763 177.587 172.943 183.531C176.027 199.092 186.702 222.786 186.627 239.7C186.59 248.572 183.586 255.583 174.981 258.566C158.277 264.365 152.199 257.348 140.881 256.002C138.579 255.728 136.058 255.691 133.188 256.045C129.041 256.549 124.166 257.868 118.158 260.476C118.061 260.518 117.959 260.561 117.857 260.604L121.558 234.137L111.666 261.924C107.697 262.213 103.116 261.693 98.5935 260.368C95.1924 259.376 91.8237 257.927 88.7717 256.018C78.0861 249.366 71.2573 237.157 80.3873 219.433C97.7407 185.746 119.348 185.064 118.833 173.832C118.323 162.604 121.885 98.1799 187.232 131.98C202.999 140.133 206.749 149.011 205.499 155.529Z" fill="#72120C"/>
<path opacity="0.5" d="M177.937 381.171C176.124 381.868 174.273 382.538 172.374 383.161C169.509 373.339 165.926 357.863 163.963 337.173C163.963 337.173 170.249 363.839 177.937 381.171Z" fill="#B6CCC6"/>
<path d="M131.558 395.606C120.368 392.725 107.832 389.024 95.6872 384.448C67.2887 373.736 41.0414 358.228 39.2068 337.173C36.6052 307.225 37.3241 284.909 38.1821 272.663C38.6221 266.397 43.176 261.194 49.3291 259.933L54.0762 258.963C58.4858 258.056 63.0615 258.866 66.8968 261.221C83.2847 271.268 131.182 290.96 147.194 299.06C160.868 305.98 166.007 338.402 167.89 365.314C169.279 385.167 150.837 400.562 131.558 395.606Z" fill="#323232"/>
<path d="M131.558 395.606C120.368 392.725 107.832 389.024 95.6875 384.448C119.328 384.416 150.137 396.511 148.903 380.048C146.913 353.462 123.485 299.232 147.195 299.06C160.868 305.98 166.007 338.401 167.891 365.314C169.279 385.167 150.837 400.562 131.558 395.606Z" fill="#070208"/>
<path d="M133.189 256.044C137.245 246.743 143.704 230.183 147.099 212.229L140.882 256.001C138.58 255.728 136.059 255.69 133.189 256.044Z" fill="#4B0400"/>
<path d="M188.338 254.462L188.365 253.384C188.37 253.748 188.381 254.103 188.381 254.43C188.424 257.128 188.252 258.598 188.252 258.598L188.338 254.462Z" fill="#8C6246"/>
<path d="M188.392 252.139L188.365 253.384C188.349 253.035 188.333 252.67 188.311 252.284C188.344 252.236 188.365 252.187 188.392 252.139Z" fill="#8C6246"/>
<path d="M172.694 182.897C172.694 182.897 171.974 200.53 165.595 215.531C159.215 230.532 156.344 238.886 159.149 255.719C159.149 255.719 159.567 242.461 166.763 227.506C173.959 212.551 174.499 190 174.499 190L172.694 182.897Z" fill="#4B0400"/>
<path d="M98.4098 252.09C98.4098 252.09 81.3953 237.002 105.442 222.881C129.49 208.76 125.179 174.947 125.179 174.947C125.179 174.947 135.395 202.491 115.197 225.16C94.9992 247.83 98.4098 252.09 98.4098 252.09Z" fill="#4B0400"/>
<path d="M191.085 151.886V164.927C190.114 164.852 189.101 164.771 188.07 164.718C188.07 164.718 190.849 155.969 191.085 151.886Z" fill="#8C6246"/>
<path d="M274.974 313.579L228.336 348.985C227.247 340.386 241.682 335.811 241.682 324.583C241.682 313.351 276.046 305.09 276.046 305.09L274.974 313.579Z" fill="#FFB636"/>
<defs>
<linearGradient id="paint0_linear" x1="544.731" y1="270.327" x2="544.731" y2="252.106" gradientUnits="userSpaceOnUse">
<stop stop-color="white" stop-opacity="0.01"/>
<stop offset="1" stop-color="#B6CCC6"/>
</linearGradient>
<linearGradient id="paint1_linear" x1="157.035" y1="150.444" x2="167.786" y2="2.89688" gradientUnits="userSpaceOnUse">
<stop offset="2.7e-07" stop-color="white"/>
<stop offset="1" stop-color="#EDE4FF"/>
</linearGradient>
<linearGradient id="paint2_linear" x1="230.332" y1="150.444" x2="240.916" y2="2.87247" gradientUnits="userSpaceOnUse">
<stop offset="2.7e-07" stop-color="white"/>
<stop offset="1" stop-color="#EDE4FF"/>
</linearGradient>
<linearGradient id="paint3_linear" x1="188.635" y1="21.7246" x2="188.677" y2="8.12453" gradientUnits="userSpaceOnUse">
<stop stop-color="white"/>
<stop offset="0.0001" stop-color="#EDE4FF"/>
<stop offset="0.973958" stop-color="#EDE4FF"/>
</linearGradient>
</defs>
</svg>
