<svg width="48" height="48" viewBox="0 0 48 48" fill="none" xmlns="http://www.w3.org/2000/svg">
<g clip-path="url(#clip0)">
<path d="M24 48C37.2548 48 48 37.2548 48 24C48 10.7452 37.2548 0 24 0C10.7452 0 0 10.7452 0 24C0 37.2548 10.7452 48 24 48Z" fill="#F0F0F0"/>
<path d="M23.9994 0C13.6803 0 4.88322 6.513 1.49219 15.6522H46.5067C43.1156 6.513 34.3186 0 23.9994 0Z" fill="#D80027"/>
<path d="M23.9994 48.0001C34.3186 48.0001 43.1156 41.4871 46.5066 32.3479H1.49219C4.88322 41.4871 13.6803 48.0001 23.9994 48.0001Z" fill="black"/>
<path d="M32.3481 21.3912H26.0872C26.0872 20.2386 25.1528 19.3042 24.0002 19.3042C22.8477 19.3042 21.9132 20.2386 21.9132 21.3912H15.6523C15.6523 22.5438 16.6563 23.4781 17.8089 23.4781H17.7393C17.7393 24.6308 18.6736 25.5651 19.8263 25.5651C19.8263 26.7178 20.7606 27.6521 21.9132 27.6521H26.0872C27.2398 27.6521 28.1741 26.7178 28.1741 25.5651C29.3268 25.5651 30.2611 24.6308 30.2611 23.4781H30.1916C31.3442 23.4781 32.3481 22.5438 32.3481 21.3912Z" fill="#FF9811"/>
</g>
<defs>
<clipPath id="clip0">
<rect width="48" height="48" fill="white"/>
</clipPath>
</defs>
</svg>
