<svg width="285" height="395" viewBox="0 0 285 395" fill="none" xmlns="http://www.w3.org/2000/svg">
<path d="M48.0022 365.296C43.5436 363.518 42.1578 359.18 42.1578 359.18C42.1578 359.18 39.6875 378.31 39.6875 387.167C39.6875 396.024 46.1946 396.627 48.5444 392.499C50.593 388.884 58.998 372.195 61.137 367.977H60.173C54.7805 368.007 50.834 366.953 48.0022 365.296Z" fill="#C1E5F2"/>
<path d="M43.5429 338.153C45.3203 334.658 48.0617 332.278 51.6166 331.164C51.3153 329.898 50.9839 328.603 50.5923 327.217L38.8734 290.795C34.0232 279.92 27.7269 271.786 18.9603 271.786C15.9478 271.786 12.6641 272.75 9.04899 274.889C-9.83981 286.005 6.81969 311.552 14.5921 333.754C19.9545 349.058 26.8834 354.33 34.6558 354.33C36.7345 354.33 38.8734 353.939 41.0425 353.276C41.0123 352.673 40.9822 352.101 40.9822 351.498C41.0123 345.925 41.8257 341.527 43.5429 338.153Z" fill="#C1E5F2"/>
<path d="M101.656 238.738C97.7394 238.738 93.5218 238.919 89.033 239.371C70.5058 241.148 55.8647 247.776 46.2546 253.5C38.5725 258.079 33.1499 267.418 36.1625 275.823L40.7717 290.102L52.5207 326.645L53.6956 330.26C53.6956 330.26 54.4789 330.32 55.8948 330.441C56.1961 330.441 56.4973 330.41 56.8287 330.41C61.5283 330.41 75.115 331.133 90.8105 331.977C92.7686 332.007 94.787 332.007 96.8055 332.007C117.893 332.007 137.505 328.392 141.12 327.669V327.549L141.391 247.113V247.083C140.337 246.48 126.811 238.738 101.656 238.738Z" fill="#C1E5F2"/>
<path d="M223.996 368.007C225.894 371.893 234.179 388.854 236.257 392.529C238.607 396.656 245.114 396.084 245.114 387.197C245.114 378.34 242.734 359.21 242.734 359.21C242.734 359.21 241.318 364.844 235.444 366.019C232.733 367.254 229.208 368.007 224.659 368.007H223.996Z" fill="#C1E5F2"/>
<path d="M233.574 331.284C236.948 332.459 239.569 334.779 241.256 338.153C242.973 341.527 243.787 345.895 243.787 351.529C243.787 352.101 243.757 352.704 243.727 353.306C245.896 353.969 248.035 354.36 250.113 354.36C257.886 354.36 264.845 349.058 270.177 333.785C277.949 311.582 294.609 286.035 275.72 274.919C272.105 272.78 268.791 271.816 265.809 271.816C258.127 271.816 252.342 278.052 247.794 286.909L233.695 330.893L233.574 331.284Z" fill="#C1E5F2"/>
<path d="M232.762 333.122C232.461 333.031 232.13 332.941 231.798 332.851C231.467 332.76 231.136 332.7 230.804 332.64C230.322 332.549 229.81 332.489 229.268 332.459C223.664 332.881 209.867 333.784 194.051 333.965C174.921 334.989 153.502 336.134 144.524 336.134C144.524 336.134 142.958 336.134 140.216 336.134C131.239 336.134 109.82 334.989 90.6898 333.965C75.3257 333.152 61.4377 332.399 56.7683 332.399C56.4369 332.399 56.1356 332.399 55.8042 332.429C55.1415 332.459 54.539 332.519 53.9666 332.64C53.6352 332.7 53.3038 332.76 52.9724 332.851C52.641 332.941 52.3097 333.031 52.0084 333.122C44.1155 335.713 42.9707 344.901 42.9707 351.528C42.9707 351.89 42.9707 352.251 43.0008 352.643C43.031 353.005 43.031 353.336 43.0611 353.698C43.0912 354.029 43.1515 354.39 43.2117 354.722C44.2059 361.048 48.6343 365.989 60.1122 365.989C71.4696 365.989 124.641 365.989 140.216 365.989C142.928 365.989 144.524 365.989 144.524 365.989C160.099 365.989 213.271 365.989 224.629 365.989C236.106 365.989 240.505 361.048 241.529 354.722C241.589 354.39 241.619 354.029 241.68 353.698C241.71 353.366 241.74 353.005 241.74 352.643C241.77 352.282 241.77 351.92 241.77 351.528C241.8 344.931 240.655 335.713 232.762 333.122Z" fill="#C1E5F2"/>
<path d="M236.137 252.084C226.557 246.721 212.819 240.997 195.798 239.371C191.31 238.949 187.092 238.738 183.176 238.738C158.021 238.738 144.494 246.48 143.47 247.083C143.44 247.113 143.41 247.113 143.41 247.113L143.139 327.549C143.139 327.549 143.35 327.579 143.741 327.669C147.326 328.362 166.968 332.007 188.056 332.007C190.074 332.007 192.093 332.007 194.051 331.977C209.777 331.133 223.333 330.41 228.033 330.41C228.455 330.41 228.906 330.441 229.328 330.441C230.262 330.38 230.985 330.32 231.377 330.29C231.678 330.26 231.829 330.26 231.829 330.26L237.251 313.299C237.553 312.275 237.854 311.22 238.155 310.166C239.541 305.256 241.137 300.164 243.005 295.344L245.958 286.156L248.578 277.962C252.073 268.111 245.265 257.205 236.137 252.084Z" fill="#C1E5F2"/>
<path d="M238.154 310.166C237.853 311.251 237.551 312.275 237.25 313.299L243.004 295.344C241.136 300.165 239.54 305.256 238.154 310.166Z" fill="#C1E5F2"/>
<path d="M35.9512 229.128C35.2584 227.38 39.0241 228.043 43.6634 228.857C48.2726 229.67 50.5019 229.73 51.7672 229.76C53.0325 229.79 55.5028 231.719 57.7321 233.888C59.9614 236.087 63.2752 238.467 63.2752 238.467L61.2869 245.546C61.2869 245.546 56.5572 246.932 53.1831 247.745C49.8392 248.589 43.9345 245.968 40.922 244.673C37.8793 243.377 37.3672 242.895 37.3672 242.895L34.1738 237.713L34.7763 236.147L38.7228 236.026L40.9521 235.816C40.9521 235.816 49.9898 235.424 46.1337 234.008C42.2174 232.562 37.4877 232.954 35.9512 229.128Z" fill="#FFA171"/>
<path d="M40.9209 235.815C40.9209 235.815 47.4884 236.328 51.1336 236.689C54.7788 237.051 55.9537 238.286 55.4415 239.792C54.8691 241.539 55.0499 243.106 52.188 243.076C50.1997 243.076 45.0783 241.298 42.8189 239.792C39.9871 237.924 40.9209 235.815 40.9209 235.815Z" fill="#F37E4E"/>
<path d="M54.0563 242.263C53.7852 243.016 52.9417 243.377 52.1885 243.106L25.7984 232.954C25.0453 232.683 24.6838 231.839 24.9549 231.086C25.226 230.333 26.0696 229.971 26.8227 230.243L53.2128 240.395C53.9659 240.666 54.3576 241.51 54.0563 242.263Z" fill="#333333"/>
<path d="M34.9258 234.34C37.125 235.063 35.3476 237.955 34.1727 239.792C32.9978 241.63 32.5459 242.835 30.6178 241.57C28.6898 240.304 30.3768 238.286 31.7325 236.599C33.0881 234.942 33.8112 233.978 34.9258 234.34Z" fill="#FFA171"/>
<path d="M34.8354 243.497C36.6731 244.492 37.5166 243.046 38.5107 240.364C39.5049 237.683 39.3844 236.93 37.9986 236.328C36.6128 235.725 35.8597 237.623 35.1668 239.099C34.4438 240.575 33.0881 242.564 34.8354 243.497Z" fill="#FFA171"/>
<path d="M38.9643 244.672C40.802 245.666 41.6455 244.22 42.6396 241.539C43.6338 238.858 43.5133 238.105 42.1275 237.502C40.7417 236.9 39.9886 238.798 39.2957 240.274C38.5727 241.72 37.217 243.738 38.9643 244.672Z" fill="#FFA171"/>
<path d="M131.721 143.149C131.721 143.149 132.805 151.916 132.143 153.844C131.51 155.772 118.436 162.61 118.436 162.61C118.436 162.61 118.436 172.462 133.408 174.811C148.38 177.161 164.016 167.762 164.016 167.762L167.239 159.628L164.016 158.784C164.016 158.784 154.375 154.928 152.447 154.085C150.519 153.241 150.098 152.789 149.887 150.018C149.676 147.246 149.465 141.673 149.465 141.673L131.721 143.149Z" fill="#FFA171"/>
<path d="M140.667 153.271C145.096 153.151 149.886 150.018 149.886 150.018L149.675 140.468L131.961 140.769V145.499L132.262 150.228C132.292 150.259 135.154 153.422 140.667 153.271Z" fill="#F37E4E"/>
<path d="M184.771 196.712C184.771 196.712 188.416 220.511 188.959 223.886C189.531 227.26 190.646 228.073 191.76 228.917C192.875 229.76 216.674 239.28 218.632 240.123C220.591 240.967 220.32 244.883 219.205 245.998C218.09 247.112 220.32 248.227 211.643 246.841C202.967 245.455 185.615 240.967 181.698 239.551C177.782 238.165 176.366 237.322 175.824 235.635C175.252 233.947 168.594 198.941 168.594 198.941L184.771 196.712Z" fill="#FFA171"/>
<path d="M96.8646 197.104C96.8646 197.104 91.9541 220.663 91.2311 224.006C90.4779 227.32 89.3332 228.104 88.1583 228.887C86.9834 229.67 62.7322 237.894 60.7138 238.648C58.7255 239.371 58.7857 243.317 59.8401 244.492C60.8945 245.667 58.605 246.661 67.3414 245.727C76.0779 244.793 93.6712 241.238 97.6478 240.063C101.624 238.889 103.07 238.105 103.733 236.448C104.396 234.791 112.891 200.207 112.891 200.207L96.8646 197.104Z" fill="#FFA171"/>
<path d="M103.432 209.606C99.9973 208.401 94.9663 206.835 94.9663 206.835L92.0742 220.241C92.0742 220.241 95.1169 223.163 99.5755 224.579C104.034 225.995 106.354 226.115 106.354 226.115L109.668 213.01L103.432 209.606Z" fill="#F37E4E"/>
<path d="M246.079 240.154C243.729 240.304 238.276 245.606 238.276 245.606L225.262 243.799L229.69 249.523L235.294 250.306C235.294 250.306 237.011 250.306 238.879 249.523C240.746 248.739 246.832 242.021 247.464 241.238C248.127 240.485 246.079 240.154 246.079 240.154Z" fill="#F37E4E"/>
<path d="M177.572 208.823C181.067 207.799 186.158 206.503 186.158 206.503L188.357 220.06C188.357 220.06 185.164 222.831 180.645 224.006C176.126 225.181 173.806 225.181 173.806 225.181L171.186 211.926L177.572 208.823Z" fill="#F37E4E"/>
<path d="M250.596 245.877C248.367 245.124 241.317 247.986 241.317 247.986L228.936 247.052L231.918 248.348L233.153 251.029C233.153 251.029 238.395 251.873 240.413 251.842C242.432 251.842 250.626 247.926 251.5 247.444C252.373 246.962 250.596 245.877 250.596 245.877Z" fill="#F37E4E"/>
<path d="M119.942 161.014C119.942 161.014 119.46 160.08 115.724 161.706C111.959 163.363 109.067 164.87 109.067 164.87C109.067 164.87 104.126 169.569 101.083 176.378C99.818 179.209 97.89 185.958 95.51 191.139C92.1661 198.46 88.4004 204.093 88.4004 204.093C88.4004 204.093 88.8824 209.968 97.5586 214.878C106.235 219.819 111.597 219.518 111.597 219.518L112.802 207.618C112.802 207.618 113.736 219.367 113.043 230.152C112.35 240.937 112.109 242.594 111.175 246.119C110.241 249.643 107.41 257.386 107.41 257.386L139.795 265.61L156.213 263.742L178.988 256.241C178.988 256.241 172.873 244.281 171.005 234.4C169.137 224.549 167.239 206.925 167.239 206.925L169.83 217.499C169.83 217.499 179.47 217.499 185.586 213.975C191.701 210.45 194.081 205.78 194.081 205.78C194.081 205.78 190.647 197.707 188.237 189.121C185.797 180.445 184.411 171.256 183.929 169.84C182.995 167.009 169.288 159.116 168.354 158.814C167.42 158.513 167.209 159.658 167.209 159.658C167.209 159.658 161.877 171.286 139.915 172.19C122.593 172.883 119.942 161.014 119.942 161.014Z" fill="#E84C4F"/>
<path d="M236.559 235.484C237.403 237.171 231.257 239.853 230.173 240.335C229.088 240.817 226.256 243.92 226.256 243.92L233.577 246.721L235.927 243.136C235.927 243.136 235.896 240.214 236.228 238.467C236.86 235.183 238.096 236.117 238.096 236.117L239.512 244.552C239.512 244.552 237.312 249.402 236.71 250.788C236.077 252.204 233.908 252.204 231.558 252.355C229.209 252.505 218.454 248.77 216.586 248.288C214.718 247.806 210.802 246.721 209.717 246.089C208.633 245.456 209.567 241.238 211.736 240.786C213.935 240.304 216.255 239.371 216.255 239.371C216.255 239.371 220.171 237.021 224.057 236.72C227.973 236.418 231.86 235.936 233.577 235.484C235.324 235.002 236.258 234.852 236.559 235.484Z" fill="#FFA171"/>
<path d="M63.4544 249.944C71.1967 246.058 85.4461 248.318 97.2554 250.939C109.065 253.559 112.017 254.885 116.596 255.849C121.175 256.843 131.026 259.464 145.125 258.47C159.224 257.476 173.654 254.192 181.547 251.903C189.44 249.613 205.617 245.667 211.612 246.811C217.607 247.956 222.217 247.956 224.838 257.476C227.459 266.996 143.468 286.005 143.468 286.005C143.468 286.005 78.1859 271.243 69.6603 267.297C61.1648 263.38 56.9171 253.228 63.4544 249.944Z" fill="#EDA320"/>
<path d="M79.603 293.567C79.844 294.35 80.2055 295.284 80.9888 295.525C81.1695 295.585 82.8264 295.374 82.9469 295.525C83.0976 295.705 81.7118 296.157 81.7419 296.971C81.8022 298.326 87.285 301.188 88.9118 301.972C91.2315 303.147 97.6483 301.972 104.336 300.224C111.024 298.477 113.946 297.905 115.965 297.031C118.013 296.157 119.73 294.41 122.351 293.536C124.972 292.663 136.028 290.343 136.028 290.343L131.66 278.413L117.712 284.8C117.712 284.8 111.596 283.926 106.385 285.101C102.257 286.005 96.7746 286.849 92.7077 287.15C88.6106 287.451 78.157 288.626 79.603 293.567Z" fill="#FFA171"/>
<path d="M118.979 291.458C118.979 291.458 123.588 297.332 125.606 300.375C127.625 303.418 129.04 305.316 131.27 301.67C133.499 298.025 123.377 287.391 123.377 287.391L118.979 291.458Z" fill="#EDA320"/>
<path d="M108.132 288.686C112.048 289.8 114.097 291.096 112.801 293.536C111.506 295.976 98.2808 301.549 98.2808 301.549C98.2808 301.549 107.68 299.591 110.361 298.748C113.072 297.874 114.79 297.422 116.657 296.669C118.525 295.916 119.971 294.319 121.297 293.958C122.622 293.596 128.286 292.241 128.286 292.241L127.352 284.589C127.352 284.589 109.397 284.167 106.354 285.131C103.312 286.095 96.5938 286.999 96.5938 286.999C96.5938 286.999 105.541 287.933 108.132 288.686Z" fill="#F37E4E"/>
<path d="M198.66 293.566C198.419 294.44 197.545 295.073 196.521 295.284C195.466 295.494 193.749 294.47 192.755 294.681C191.942 294.832 195.798 295.735 196.009 296.157C197.123 298.387 190.857 301.248 189.351 302.002C187.031 303.177 180.614 302.002 173.927 300.254C167.239 298.507 164.317 297.935 162.298 297.061C160.25 296.187 158.532 294.44 155.911 293.566C153.291 292.693 142.234 290.373 142.234 290.373L146.603 278.443L160.551 284.83C160.551 284.83 166.666 283.956 171.878 285.131C176.005 286.035 181.488 286.879 185.555 287.18C189.622 287.481 200.136 288.626 198.66 293.566Z" fill="#FFA171"/>
<path d="M155.941 293.567C155.941 293.567 159.496 296.278 162.328 297.061C165.16 297.844 169.468 299.14 169.468 299.14C169.468 299.14 167.781 295.043 173.023 291.699C178.234 288.355 185.615 287.18 185.615 287.18L163.141 283.294L155.941 293.567Z" fill="#F37E4E"/>
<path d="M57.2199 256.904C59.4191 249.945 66.5287 245.848 81.3506 252.536C96.1724 259.224 156.062 275.22 156.062 275.22C156.062 275.22 159.828 280.462 153.441 288.024C147.055 295.585 146.753 295.886 140.367 294.41C133.98 292.964 127.865 286.547 116.537 285.975C105.21 285.403 89.0025 288.054 73.307 279.317C57.5814 270.611 55.1714 263.321 57.2199 256.904Z" fill="#FFC648"/>
<path d="M137.806 272.87C137.806 272.87 130.184 268.562 119.941 272.87C109.668 277.178 98.0999 280.492 89.484 280.492C80.868 280.492 72.5534 276.967 69.2697 274.979C65.986 272.991 58.5449 267.327 58.5449 267.327C58.5449 267.327 61.4671 272.418 68.3659 276.606C75.2647 280.793 82.1936 283.715 87.6463 284.439C93.0991 285.162 98.9133 286.427 104.035 286.246C109.156 286.065 116.597 285.704 120.965 286.608C125.334 287.511 133.347 289.349 133.347 289.349L137.806 272.87Z" fill="#EDA320"/>
<path d="M127.262 300.737C125.455 295.073 126.419 292.693 121.117 287.963C118.948 286.035 116.809 285.885 115.363 285.945C113.465 286.005 117.622 284.348 123.979 280.492C131.148 276.124 141.271 269.346 150.821 265.64C168.836 258.651 201.703 247.896 207.818 247.625C213.934 247.324 219.085 244.492 224.719 255.277C230.352 266.062 216.253 275.25 209.264 278.173C204.685 280.071 191.4 285.644 174.228 287.301C166.395 288.054 158.171 293.567 155.46 294.471C147.597 297.092 131.299 303.388 129.853 303.689C128.407 303.93 128.256 303.84 127.262 300.737Z" fill="#FFC648"/>
<path d="M140.035 146.342C145.879 146.342 150.278 145.951 153.079 142.878C155.881 139.805 156.815 138.359 157.598 133.569C158.382 128.779 159.978 122.663 159.978 122.663L157.448 109.227L137.113 98.2014L124.219 106.185L120.092 116.699C120.092 116.699 122.442 127.905 123.797 134.533C125.153 141.161 126.478 141.854 128.497 143.842C130.515 145.83 135.516 146.342 140.035 146.342Z" fill="#FFA171"/>
<path d="M137.113 100.672C137.113 100.672 131.721 102.992 127.112 106.576C122.502 110.161 121.207 114.771 121.207 118.898C121.207 122.995 123.014 129.141 123.768 134.533C124.551 139.926 124.039 142.486 122.231 145.288C120.424 148.12 119.128 149.536 119.671 147.819C120.213 146.101 121.267 143.691 120.996 140.106C120.725 136.521 118.616 129.864 118.074 125.194C117.532 120.525 116.477 114.289 118.737 107.239C120.996 100.19 128.045 95.2794 131.239 93.8032C134.432 92.3271 136.149 90.6099 143.47 91.9354C150.79 93.261 153.984 95.2492 159.436 96.9965C164.889 98.7137 165.552 103.504 166.094 107.119C166.636 110.734 167.028 114.048 165.974 121.097C164.919 128.146 163.323 132.274 161.575 135.075C159.858 137.877 159.195 140.136 160.37 143.45C161.575 146.764 163.021 149.716 161.154 147.849C159.286 145.981 158.593 144.685 157.177 142.004C155.972 139.745 157.448 135.196 158.051 130.376C158.653 125.495 158.502 122.573 158.502 119.259C158.502 115.946 157.297 111.005 152.929 108.625C148.531 106.185 138.439 103.443 137.113 100.672Z" fill="#5E2D1E"/>
<path d="M133.648 94.466C133.648 94.466 131.6 92.2969 130.545 89.3446C128.075 82.4157 127.653 69.7931 146.873 70.9378C165.099 71.9922 162.689 86.0308 158.502 93.4417C156.303 97.3279 152.688 99.738 152.688 99.738L133.648 94.466Z" fill="#5E2D1E"/>
<path d="M164.316 125.104C164.316 128.448 161.725 131.189 159.134 131.189C156.513 131.189 154.404 128.478 154.404 125.134C154.404 121.79 156.513 119.079 159.134 119.079C161.725 119.079 164.316 121.76 164.316 125.104Z" fill="#FFA171"/>
<path d="M122.032 133.063C124.761 132.458 126.398 129.374 125.689 126.174C124.98 122.974 122.194 120.87 119.465 121.474C116.736 122.079 115.098 125.163 115.807 128.363C116.516 131.563 119.303 133.667 122.032 133.063Z" fill="#FFA171"/>
<path d="M127.774 112.572C128.196 112.662 130.847 111.457 131.871 111.246C132.925 111.035 133.468 110.614 133.046 109.981C132.624 109.348 131.57 109.77 130.756 110.192C129.943 110.614 127.141 112.421 127.774 112.572Z" fill="#AF4C31"/>
<path d="M127.502 120.645C127.954 121.007 129.521 120.495 131.117 120.013C132.714 119.531 133.829 119.47 134.311 119.32C134.793 119.169 134.522 117.994 134.04 117.844C133.558 117.693 131.961 117.994 130.274 118.747C128.617 119.531 127.141 120.374 127.502 120.645Z" fill="#5E2D1E"/>
<path d="M148.681 112.572C148.259 112.662 145.608 111.457 144.584 111.246C143.53 111.035 142.987 110.614 143.409 109.981C143.831 109.348 144.885 109.77 145.699 110.192C146.512 110.614 149.314 112.421 148.681 112.572Z" fill="#AF4C31"/>
<path d="M150.338 119.109C149.946 119.561 148.319 119.38 146.662 119.229C145.005 119.079 143.891 119.229 143.379 119.199C142.866 119.169 142.897 117.934 143.348 117.723C143.8 117.482 145.427 117.452 147.204 117.844C149.012 118.235 150.609 118.747 150.338 119.109Z" fill="#5E2D1E"/>
<path d="M137.867 124.471C139.283 124.622 141.301 126.309 141.482 127.182C141.632 127.815 141.271 128.719 138.831 128.839C136.391 128.99 134.794 128.417 135.065 127.303C135.366 126.218 137.144 124.411 137.867 124.471Z" fill="#F37E4E"/>
<path d="M137.807 134.262C133.891 134.262 131.21 132.725 131.059 132.635C130.728 132.454 130.637 132.033 130.818 131.731C130.999 131.4 131.421 131.31 131.722 131.49C131.752 131.52 135.337 133.569 140.097 132.725C145.339 131.822 146.965 129.683 146.965 129.653C147.176 129.351 147.598 129.291 147.899 129.502C148.201 129.713 148.261 130.135 148.05 130.436C147.99 130.556 146.152 133.027 140.308 134.051C139.464 134.202 138.591 134.262 137.807 134.262Z" fill="#AF4C31"/>
<path d="M139.719 138.121C141.124 137.965 142.216 137.409 142.157 136.88C142.099 136.351 140.912 136.048 139.506 136.205C138.1 136.361 137.009 136.916 137.067 137.445C137.126 137.975 138.313 138.277 139.719 138.121Z" fill="#F37E4E"/>
<path d="M121.447 124.471L122.833 129.834C122.833 129.834 119.76 130.918 118.856 128.056C117.953 125.164 121.447 124.471 121.447 124.471Z" fill="#F37E4E"/>
<path d="M158.713 122.844L158.412 128.387C158.412 128.387 161.485 128.749 161.786 125.736C162.118 122.723 158.713 122.844 158.713 122.844Z" fill="#F37E4E"/>
<path d="M151.664 97.2675C145.91 97.2675 140.337 94.5562 140.035 94.4056L140.638 93.2005C140.728 93.2608 150.459 97.9905 156.996 94.8273C159.798 93.4716 161.666 90.8206 162.509 86.9645C163.624 81.7829 163.021 78.0473 160.671 75.818C156.213 71.5703 146.814 74.0707 146.723 74.1008L146.543 74.1611L146.362 74.1008C146.271 74.0707 136.39 71.2088 131.239 75.0046C129.25 76.4808 128.196 78.8005 128.136 81.9034C128.045 87.1754 130.425 91.0917 135.245 93.5018C138.891 95.3394 142.596 95.6106 142.626 95.6106L142.536 96.9662C142.385 96.9662 126.539 95.7612 126.78 81.9034C126.84 78.3486 128.075 75.6674 130.425 73.9502C135.758 70.0339 145.066 72.4138 146.543 72.8054C147.989 72.4439 156.876 70.4255 161.575 74.8841C164.287 77.4448 165.04 81.6323 163.805 87.2658C162.871 91.5737 160.762 94.5261 157.569 96.0625C155.731 96.9361 153.682 97.2675 151.664 97.2675Z" fill="#5E2D1E"/>
<path d="M88.4004 204.093C88.4004 204.093 88.7318 210.058 96.8958 214.848C105.512 219.909 111.597 219.518 111.597 219.518L112.109 214.999C112.109 214.999 105.241 215.511 98.6431 210.842C92.0456 206.172 90.4489 200.388 90.4489 200.388L88.4004 204.093Z" fill="#FFF8D4"/>
<path d="M119.942 161.014C119.942 161.014 119.792 160.321 118.014 160.833C116.93 161.134 115.725 161.707 115.725 161.707C115.725 161.707 117.713 167.732 124.25 172.19C130.787 176.649 139.554 176.197 144.766 175.625C150.339 174.992 157.539 173.395 162.6 169.841C167.661 166.286 171.065 160.17 171.065 160.17C171.065 160.17 169.409 159.146 168.324 158.784C167.661 158.574 167.511 158.754 167.179 159.628C166.848 160.502 163.805 164.418 158.684 167.43C153.864 170.292 147.688 171.678 140.91 172.01C133.71 172.371 128.076 170.443 125.305 168.364C122.623 166.316 120.424 162.972 119.942 161.014Z" fill="#FFF8D4"/>
<path d="M168.865 213.824C168.865 213.824 175.674 214.246 181.789 211.263C188.839 207.829 192.604 202.045 192.604 202.045L194.08 205.75C194.08 205.75 191.52 210.932 185.585 213.944C179.68 216.957 178.325 216.656 175.764 217.108C173.203 217.559 169.829 217.439 169.829 217.439L168.865 213.824Z" fill="#FFF8D4"/>
<path d="M149.283 89.7661C149.283 89.7661 151.874 89.6757 156.815 92.0255C159.496 93.2908 160.701 94.7368 160.701 94.9778L161.936 98.2013C161.936 98.2013 157.929 96.6347 153.983 95.4598C150.036 94.2849 146.723 94.2849 146.723 94.2849L149.283 89.7661Z" fill="#FFC648"/>
<path d="M153.139 92.2368C152.959 93.7732 152.778 95.159 152.778 95.159L149.584 94.5263L149.494 91.333L149.283 89.7665C149.283 89.7665 150.036 89.6158 151.121 89.9774C152.205 90.3389 152.868 90.4292 152.868 90.4292C152.868 90.4292 153.23 91.4234 153.139 92.2368Z" fill="#EDA320"/>
<path d="M140.005 88.441C142.717 86.0309 146.03 83.6209 148.471 84.8259C150.881 86.0309 150.881 87.5372 150.278 92.99C149.676 98.4126 148.471 101.455 146.061 98.1113C143.651 94.7975 139.102 92.3874 139.102 92.3874L140.005 88.441Z" fill="#FFC648"/>
<path d="M130.395 85.609C127.473 86.2717 129.401 90.7303 129.612 94.0743C129.822 97.4182 129.822 100.19 131.781 98.5931C133.739 97.0266 139.101 92.3571 139.101 92.3571L140.005 88.4408C140.005 88.4408 134.733 84.6148 130.395 85.609Z" fill="#FFC648"/>
<path d="M140.277 89.7361C140.277 89.7361 142.175 88.5913 143.35 88.2599C145.579 87.5972 145.609 89.3746 145.79 90.9411C145.971 92.5378 144.374 93.6524 142.687 92.8089C141 91.9654 139.795 91.1219 139.795 91.1219L140.277 89.7361Z" fill="#EDA320"/>
<path d="M137.836 89.2843C137.836 89.2843 136.541 88.26 135.336 88.0793C134.131 87.8985 133.016 89.5554 133.107 90.9412C133.197 92.327 133.92 94.6768 135.336 93.8333C136.722 92.9897 138.68 91.604 138.68 91.604L137.836 89.2843Z" fill="#EDA320"/>
<path d="M141.692 90.4287C141.692 91.9049 141.391 92.8388 139.432 93.1099C137.384 93.381 136.992 91.935 137.203 90.3384C137.384 88.8622 137.022 87.5969 139.432 87.7174C142.144 87.8379 141.692 88.9225 141.692 90.4287Z" fill="#FFC648"/>
<path d="M117.109 18.3982C116.959 18.3681 116.838 18.3079 116.688 18.2777C116.025 18.1271 115.392 18.0066 114.699 17.9162C114.037 17.8861 113.344 17.856 112.681 17.856C112.349 17.856 111.988 17.856 111.657 17.8258C111.295 17.8258 110.964 17.856 110.602 17.8861C109.879 17.9162 109.156 17.9463 108.403 17.9463C107.349 17.9765 106.234 18.1271 105.149 18.338C104.065 18.6392 102.98 18.8802 101.986 19.2116C102.589 19.0309 103.191 18.9405 103.824 18.7899C104.426 18.6694 105.059 18.5187 105.662 18.4284C106.294 18.338 106.897 18.2476 107.529 18.1572C107.831 18.1271 108.162 18.0668 108.463 18.0367L109.397 17.9765C110.03 17.9463 110.632 17.9162 111.265 17.9162C111.898 17.9162 112.5 17.9765 113.103 18.0367C113.705 18.097 114.308 18.1572 114.91 18.2476C115.513 18.3982 116.085 18.5187 116.657 18.6995C116.175 19.0309 115.603 19.2719 114.97 19.2417C114.217 19.1514 113.434 19.1514 112.681 19.0911C112.289 19.0911 111.928 19.061 111.536 19.061C111.144 19.0911 110.783 19.0911 110.391 19.1212C110.391 18.9706 110.361 18.6694 110.331 18.5187C109.789 18.6392 109.247 18.7296 108.734 18.7899C108.192 18.8501 107.68 18.9706 107.138 19.0309C106.595 19.1212 106.083 19.1815 105.541 19.2417C105.029 19.3321 104.487 19.4225 103.975 19.5129C101.866 19.8744 99.7871 20.507 97.8892 21.6819C98.0699 21.712 98.0398 21.8326 98.0398 21.9531H98.0097H98.0398C98.0398 22.0434 98.1 22.1037 98.341 21.9832C98.1 22.0736 98.0398 22.0133 98.0398 21.9531C101.956 20.1756 105.963 19.2417 110.211 19.1212C106.927 19.302 103.703 19.9949 100.631 21.1397C97.5578 22.2844 94.5753 23.7606 91.7134 25.5983C91.4724 25.7489 90.9904 26.0501 90.7494 26.2309C89.5443 26.502 88.4899 27.0744 87.6163 27.7974C87.3753 27.0443 85.4472 26.6225 87.556 25.3573C87.4657 25.2368 87.2849 24.9957 87.1945 24.8752C85.9594 25.3271 84.8749 25.3271 84.182 25.0259C83.5192 24.6945 83.4288 23.8208 84.3025 22.7363C86.3811 20.3263 90.0866 18.6694 93.2799 16.8317C95.6297 15.5363 98.1301 14.4216 100.811 13.9396C104.487 13.3371 108.463 12.5237 112.169 12.9756C112.831 13.0359 113.735 12.9455 114.579 12.8852C115.422 12.8551 116.145 12.9154 116.477 13.1564C116.929 13.3974 116.929 13.7287 116.838 14.0903C115.784 13.9999 114.699 13.8794 113.645 13.9396H112.048H111.265L110.482 13.9999C109.186 14.0601 107.891 14.0601 106.595 14.2108C105.963 14.271 105.3 14.3313 104.637 14.3915C104.005 14.4819 103.342 14.5723 102.679 14.6626C103.312 14.6024 103.975 14.512 104.607 14.4518C105.27 14.4216 105.903 14.3614 106.565 14.3011C107.861 14.1204 109.186 14.1204 110.482 13.9999L111.265 13.9698L112.048 13.9999L113.615 14.0601C114.127 14.0903 114.669 14.0903 115.181 14.1505C115.693 14.2108 116.206 14.3011 116.748 14.3614C116.657 14.6626 116.567 14.994 116.657 15.2953C116.657 15.2953 117.29 15.3254 117.591 15.3555C118.796 16.1991 118.314 17.2233 117.682 17.9463C117.471 18.097 117.29 18.2476 117.109 18.3982Z" fill="#D8F5FF"/>
<path d="M251.561 110.674C251.741 110.433 251.892 110.222 252.073 109.981C253.609 107.842 254.995 105.613 256.29 103.233C256.953 102.058 257.526 100.823 258.158 99.5574C258.429 98.9247 258.731 98.2921 259.032 97.6293C259.333 96.9665 259.634 96.3339 259.875 95.641C261.472 91.8753 262.647 87.2962 263.219 83.2594C261.803 92.8695 257.435 102.359 251.922 109.83C252.344 108.987 252.826 107.962 253.519 106.848C254.393 105.552 255.146 104.167 255.899 102.841C256.29 102.178 256.622 101.485 256.953 100.793C257.285 100.1 257.676 99.4369 257.947 98.7138C258.008 98.744 258.098 98.7741 258.158 98.8042C259.875 94.7975 261.261 90.8209 262.225 86.7238C263.159 82.6267 263.641 78.4091 263.34 74.071C263.31 74.3723 263.249 74.1916 263.219 74.1313V74.071V74.1313C263.189 74.0711 263.159 74.1012 263.189 74.6434C263.159 74.1012 263.189 74.0711 263.219 74.1313C263.521 82.6569 261.653 90.6402 258.098 98.4126C260.839 92.3875 262.557 86.0008 263.039 79.4937C263.521 72.9865 262.677 66.3589 260.508 59.9722C260.327 59.43 259.936 58.3454 259.695 57.8032C259.002 55.604 258.038 53.4952 256.833 51.5371C257.104 51.6877 257.074 51.2057 257.254 51.1755C257.435 51.1454 257.887 51.5672 258.942 53.676C259.002 53.6458 259.092 53.5856 259.152 53.5555C258.218 51.3864 257.526 49.8801 257.465 49.3379C257.405 48.7956 258.188 49.2475 259.514 51.3262C260.99 53.6458 262.316 56.5982 263.34 59.7915C264.364 62.9848 265.087 66.4191 265.539 69.733C265.84 72.143 265.961 74.5832 265.931 77.0234C265.87 78.2284 265.87 79.4635 265.69 80.6686C265.629 81.2711 265.539 81.8736 265.479 82.4761C265.388 83.0786 265.268 83.6811 265.178 84.2836C264.575 87.5673 263.671 90.9414 262.526 94.2251C261.352 97.4787 259.875 100.642 258.279 103.534C257.676 104.558 256.923 106.034 256.17 107.33C255.387 108.625 254.694 109.77 254.302 110.222C253.73 110.885 253.609 110.854 253.579 110.644C255.748 107.39 257.736 104.016 259.393 100.491C261.472 96.2134 263.129 91.7247 264.214 87.0552C263.099 91.6042 261.472 96.123 259.393 100.491C257.736 103.986 255.718 107.3 253.579 110.463C253.549 110.282 253.519 110.101 253.278 110.222C253.278 110.222 252.615 111.186 252.284 111.698C250.687 113.475 250.687 112.722 251.109 111.608C251.29 111.336 251.41 111.005 251.561 110.674Z" fill="#D8F5FF"/>
<path d="M124.039 3.81783C123.798 3.75758 123.557 3.72745 123.316 3.6672C118.858 2.91406 114.339 2.91405 109.338 3.27556C105.843 3.48644 101.897 4.32997 98.5228 5.32411C102.529 4.20946 106.747 3.45632 110.965 3.18519C115.182 2.88393 119.37 3.15507 123.286 3.81783C122.473 3.84796 121.509 3.90821 120.394 3.7877C117.743 3.5467 115.092 3.42619 112.471 3.57682C112.471 3.51657 112.471 3.39607 112.471 3.33582C108.735 3.63707 105.15 4.05883 101.626 4.8421C98.101 5.62537 94.6366 6.74001 91.2625 8.3668C91.5336 8.30655 91.383 8.39693 91.3529 8.45718L91.2926 8.48731L91.3529 8.45718C91.3227 8.51743 91.3528 8.51743 91.7746 8.33668C91.3528 8.51743 91.3227 8.51743 91.3529 8.45718C98.0709 5.50487 104.879 3.9082 112.2 3.57682C109.368 3.72745 106.566 4.05883 103.795 4.60109C101.053 5.14335 98.342 5.8965 95.6909 6.8304C90.3888 8.69819 85.2976 11.289 80.5377 14.6329C80.116 14.9041 79.3327 15.5066 78.9411 15.7777C77.254 16.8321 75.6574 18.0371 74.2113 19.3928C74.2716 19.1217 73.8498 19.212 73.7896 19.0313C73.7293 18.8807 73.9703 18.3986 75.5369 17.1334C75.5068 17.0731 75.4164 16.9827 75.3863 16.9526C73.7293 18.1576 72.5544 18.9409 72.0724 19.0313C71.5904 19.1518 71.8314 18.3987 73.3076 16.9225C76.6214 13.5785 81.9235 10.2045 86.9545 7.55341C90.6298 5.62537 94.516 4.05883 98.5228 3.03456C104.066 1.64878 110.272 0.745008 115.966 1.04626C116.99 1.04626 118.406 1.10651 119.701 1.13664C120.997 1.22702 122.141 1.31739 122.653 1.46802C123.376 1.61865 123.376 1.76928 123.256 1.88978C119.912 1.49815 116.538 1.34752 113.224 1.43789C109.157 1.52827 105.06 2.01029 101.053 2.8538C105 2.10066 109.067 1.58852 113.224 1.43789C116.538 1.37764 119.852 1.5584 123.135 1.98016C123.015 2.10067 122.864 2.19104 123.045 2.34166C123.045 2.34166 124.039 2.4923 124.551 2.55255C126.54 3.12494 125.937 3.48645 124.913 3.63707C124.642 3.7877 124.34 3.7877 124.039 3.81783Z" fill="#D8F5FF"/>
<path d="M218.663 25.9901C218.543 25.8696 218.422 25.719 218.332 25.5985C217.247 24.4838 216.102 23.3692 214.837 22.4353C213.572 21.4713 212.276 20.447 210.891 19.4227C209.957 18.6394 208.902 17.8863 207.758 17.2838C206.643 16.6512 205.498 16.0185 204.414 15.5365C209.384 18.3081 214.476 21.652 218.061 25.96C217.398 25.8997 216.705 25.719 216.102 25.237C215.771 24.9357 215.44 24.6043 215.078 24.3031C214.717 24.0018 214.385 23.7307 214.024 23.4294C213.301 22.857 212.608 22.3148 211.885 21.7424C211.975 21.6219 212.126 21.3809 212.216 21.2604C211.102 20.6277 210.017 19.9951 208.993 19.2721C208.481 18.9106 207.968 18.5792 207.426 18.2478L205.86 17.2537C205.348 16.8922 204.805 16.5909 204.263 16.3198C203.721 16.0185 203.178 15.7474 202.606 15.4763C201.491 14.9641 200.286 14.5424 199.081 14.2411C199.232 14.3616 199.081 14.452 199.021 14.5424H198.991H199.021C198.961 14.6026 198.961 14.6629 199.232 14.7834C198.961 14.6629 198.961 14.6026 199.021 14.5424C203.66 16.1993 207.727 18.6093 211.704 21.652C208.541 19.3926 205.257 17.4645 201.793 15.9281C198.328 14.4219 194.713 13.2771 191.038 12.7047C190.737 12.6444 190.104 12.5541 189.773 12.5239C188.568 11.9214 187.272 11.7407 186.127 11.8009C186.248 11.4093 185.977 10.867 185.977 10.4151C185.977 9.99338 186.308 9.63187 187.664 9.7825C187.664 9.63187 187.664 9.33062 187.664 9.17999C186.278 8.78836 185.254 8.15572 184.742 7.55321C184.26 6.95069 184.892 6.07705 186.519 5.71554C188.387 5.35403 190.465 5.50466 192.574 5.92642C193.629 6.07705 194.683 6.40843 195.737 6.64944C196.762 6.95069 197.816 7.22182 198.84 7.46282C200.286 7.88458 201.763 8.30635 203.148 8.90886C204.564 9.45112 205.89 10.144 207.155 10.9574C208.029 11.4997 208.902 12.1022 209.806 12.6444C210.71 13.2168 211.614 13.7591 212.457 14.3917C213.331 14.9942 214.174 15.6269 215.018 16.2294C215.831 16.8922 216.615 17.5851 217.338 18.2779C218.452 19.2118 220.712 20.447 221.013 21.2604C221.284 21.7424 221.103 22.0135 220.802 22.2545C219.898 21.5014 218.994 20.7482 218.061 19.9951C217.127 19.3022 216.163 18.5792 215.229 17.8863C212.969 16.1089 210.619 14.4219 208.209 12.7649C210.529 14.4821 212.879 16.139 215.229 17.8863L217.94 20.0855C218.814 20.8386 219.687 21.652 220.531 22.4052C220.26 22.5859 220.019 22.7968 219.928 23.0981C219.928 23.0981 220.471 23.5499 220.772 23.7608C221.404 25.237 220.44 25.8094 219.416 25.96C219.235 25.9901 218.964 25.9901 218.663 25.9901Z" fill="#D8F5FF"/>
<path d="M244.301 93.3815C244.391 93.2911 244.512 93.1706 244.602 93.0802C245.024 92.5982 245.446 92.0861 245.837 91.5438C246.229 91.0317 246.53 90.4291 246.862 89.8567C247.193 89.2844 247.524 88.6819 247.856 88.0793C248.157 87.4467 248.458 86.814 248.79 86.1814C249.844 84.404 250.326 82.1446 250.748 80.1563C250.416 81.3011 250.145 82.476 249.693 83.6207C249.483 84.1931 249.302 84.7655 249.061 85.3379C248.79 85.8802 248.549 86.4224 248.277 86.9948C247.795 88.1095 247.133 89.1337 246.47 90.1279C245.837 91.122 245.024 92.0258 244.211 92.8392C244.15 92.2668 244.18 91.6643 244.512 91.122C244.994 90.5195 245.325 89.8568 245.747 89.2241C246.108 88.5915 246.53 87.9588 246.831 87.2961C246.982 87.3563 247.253 87.4768 247.374 87.5371C247.645 86.5128 248.097 85.5488 248.458 84.6149C248.639 84.1329 248.82 83.6509 249.001 83.1688C249.181 82.6868 249.392 82.235 249.543 81.7228C249.693 81.2408 249.844 80.7287 249.995 80.2467C250.055 80.0057 250.145 79.7647 250.206 79.4935L250.326 78.7404C250.416 78.2282 250.477 77.7161 250.507 77.204C250.537 76.6918 250.477 76.1496 250.447 75.6374C250.356 75.7881 250.236 75.6977 250.145 75.6374V75.6073V75.6374C250.055 75.6073 249.995 75.6073 249.965 75.8784C249.995 75.6374 250.055 75.6073 250.145 75.6374C249.995 79.7044 248.88 83.5002 246.952 87.1153C249.754 81.3914 250.537 75.0349 249.543 68.829C249.483 68.5579 249.392 68.0458 249.332 67.7746C249.543 66.66 249.422 65.5152 249.061 64.5512C249.844 64.5512 250.929 62.9244 251.35 65.2441C251.501 65.214 251.772 65.1236 251.923 65.0633C251.953 63.798 252.314 62.8039 252.796 62.2014C253.308 61.629 254.212 61.87 254.935 63.1052C255.719 64.4909 256.14 66.2684 256.411 68.106C256.502 69.0399 256.622 69.9738 256.652 70.9077C256.683 71.3897 256.713 71.8416 256.773 72.3236C256.803 72.7755 256.803 73.2575 256.863 73.7094C256.984 75.0651 256.893 76.3906 256.833 77.7161C256.743 78.3789 256.652 79.0416 256.532 79.7044C256.472 80.0358 256.411 80.3672 256.321 80.6986C256.231 81.0299 256.11 81.3312 256.02 81.6626C255.688 82.5362 255.447 83.44 255.116 84.2835C254.785 85.1571 254.453 86.0308 254.122 86.9346C253.339 88.6216 252.585 90.3689 251.441 91.7547C251.079 92.2969 250.778 93.1103 250.416 93.8333C250.025 94.5262 249.663 95.1589 249.302 95.3095C248.88 95.5806 248.609 95.43 248.338 95.189L249.181 93.8936L249.603 93.2308C249.724 93.0199 249.844 92.7789 249.965 92.5681C250.447 91.6643 250.929 90.7605 251.411 89.8567C251.953 88.7421 252.525 87.5973 253.098 86.4525C253.339 85.8802 253.58 85.2777 253.851 84.7053C254.092 84.1027 254.393 83.5304 254.574 82.9278C254.363 83.5304 254.062 84.0726 253.79 84.6751C253.519 85.2475 253.278 85.8199 253.037 86.4224C252.495 87.5672 251.953 88.712 251.411 89.8869L249.844 92.5078L249.452 93.1706L249.001 93.8032C248.699 94.225 248.398 94.6166 248.127 95.0384C247.916 94.8275 247.675 94.5865 247.344 94.5262C247.344 94.5262 247.012 95.0384 246.862 95.3095C245.596 95.9421 244.873 95.0685 244.542 94.1647C244.421 93.8635 244.361 93.6225 244.301 93.3815Z" fill="#D8F5FF"/>
<path d="M43.6627 84.133C43.6025 84.0125 43.5422 83.8619 43.5121 83.7414C42.4878 81.3916 41.1021 79.1924 40.4393 76.3907C40.0778 74.4024 39.4451 72.2334 39.3246 70.1848C39.3548 72.5648 39.8368 75.0049 40.5899 77.2945C41.3431 79.6142 42.277 81.7832 43.1205 83.9824C42.5481 83.8016 42.0359 83.4702 41.6744 82.8979C40.9514 81.482 40.3489 80.0058 39.7765 78.5598C39.9272 78.4995 40.1983 78.379 40.3188 78.3188C39.2644 76.3907 38.8125 74.1915 38.6619 72.0526C38.5112 69.8836 38.5715 67.7748 38.5414 65.4852C38.451 65.6358 38.3305 65.5153 38.2401 65.4852V65.4551V65.4852C38.1497 65.4551 38.0895 65.4551 38.0594 65.7262C38.0895 65.4551 38.1799 65.425 38.2401 65.4852C37.7581 69.9739 38.3004 74.2217 39.7163 78.379C38.5414 75.1857 37.8184 71.7815 37.8184 68.2869C37.8485 64.8225 38.6318 61.2978 40.2284 58.1044C40.3489 57.8333 40.6502 57.291 40.8008 57.0199C41.7949 56.1764 42.5782 55.2726 43.3615 54.3086C43.5422 54.6701 44.1447 54.8509 44.446 55.1521C44.7473 55.4534 44.8075 55.845 44.0544 56.6584C44.1749 56.7488 44.4159 56.9295 44.5364 56.9898C45.4401 56.327 46.4946 56.2366 47.0669 56.6584C47.6695 57.05 48.0611 57.5923 47.7598 58.4659C47.4284 59.3998 46.8259 60.394 46.2535 61.4484C45.6812 62.5028 45.1991 63.7078 45.0485 64.9128C44.8075 66.6601 44.8075 68.317 44.6569 70.0643C44.5364 71.2694 44.687 72.5648 44.9581 73.8602C45.2594 75.1556 45.651 76.4208 45.9523 77.7162C46.1029 78.1681 46.4945 78.7104 46.8259 79.2225C47.1874 79.7045 47.4586 80.1865 47.3983 80.5179C47.4284 80.9397 47.1573 81.1204 46.8259 81.2711C45.9523 79.8552 45.169 78.4393 44.5665 76.933C43.9339 75.0652 43.5724 73.1371 43.6025 71.2694C43.4519 73.1371 43.8435 75.0652 44.5665 76.933C45.0786 78.4393 45.7715 79.9154 46.5548 81.3916C46.2535 81.5121 45.9523 81.6326 45.7715 81.9037C45.7715 81.9037 46.0728 82.3255 46.2234 82.5363C46.1933 83.8318 45.1991 84.2535 44.2653 84.2234C44.1447 84.1933 43.9037 84.1631 43.6627 84.133Z" fill="#D8F5FF"/>
<path d="M108.615 146.071C108.525 146.041 108.434 146.011 108.344 145.981C106.717 145.589 105.09 145.77 103.313 145.408C102.078 145.047 100.632 145.077 99.3363 144.896C102.319 145.589 105.452 145.529 108.374 146.463C108.103 146.824 107.771 147.126 107.35 147.156C106.356 147.035 105.392 146.945 104.397 146.854C104.397 146.704 104.397 146.403 104.397 146.252C103.012 146.463 101.686 146.192 100.361 145.89C99.035 145.589 97.7397 145.258 96.2334 145.288C96.3238 145.378 96.2334 145.499 96.1731 145.589H96.143H96.1731C96.143 145.68 96.143 145.74 96.2936 145.77C96.1129 145.74 96.1129 145.649 96.1731 145.589C99.0351 146.131 101.566 146.493 104.277 146.854C102.168 146.674 100.089 146.493 97.9204 146.162C95.7514 145.77 93.522 145.288 91.1722 143.932C90.9614 143.812 90.5697 143.571 90.3589 143.42C89.8166 142.456 89.184 141.763 88.4609 140.649C88.8526 140.588 89.2442 140.106 89.6358 139.895C90.0275 139.685 90.3589 139.745 90.8108 140.438C90.9313 140.347 91.1421 140.136 91.2325 140.016C90.9915 139.233 91.4434 138.449 92.1664 138.148C92.317 138.058 92.4375 137.967 92.6183 137.907C92.6785 137.877 92.7689 137.847 92.8292 137.817C92.8894 137.787 92.9497 137.757 93.0099 137.726C93.2811 137.636 93.5221 137.576 93.6426 137.485C93.9137 137.365 94.2752 137.726 94.8175 138.058C95.3296 138.389 96.0526 138.781 96.8359 138.871C97.9505 139.052 99.1254 139.142 100.3 139.624C101.927 140.317 103.885 140.257 105.693 140.859C106.356 141.01 107.5 140.528 107.862 140.95C108.103 141.161 108.133 141.492 108.103 141.823C106.988 141.823 105.874 141.823 104.819 141.733C103.494 141.552 102.168 141.281 100.933 140.829C102.138 141.372 103.464 141.613 104.819 141.733C105.904 141.884 106.988 142.004 108.103 142.095C108.073 142.396 108.043 142.727 108.133 143.028C108.133 143.028 108.464 142.998 108.645 142.998C109.368 143.721 109.278 144.776 108.946 145.559C108.826 145.74 108.736 145.89 108.615 146.071Z" fill="#D8F5FF"/>
<path d="M198.571 144.655C198.48 144.685 198.39 144.715 198.33 144.746C196.854 145.318 195.709 146.342 194.082 146.945C192.907 147.276 191.762 148.029 190.618 148.451C193.449 147.638 195.859 145.951 198.631 145.107C198.631 145.559 198.541 145.981 198.239 146.222C197.336 146.704 196.522 147.156 195.739 147.577C195.649 147.457 195.498 147.186 195.408 147.065C194.413 147.969 193.178 148.421 191.943 148.813C190.678 149.204 189.443 149.536 188.147 150.198C188.268 150.259 188.238 150.379 188.238 150.5H188.208H188.238C188.238 150.59 188.268 150.65 188.449 150.62C188.268 150.65 188.238 150.59 188.238 150.5C190.949 149.716 193.238 148.752 195.618 147.638C193.841 148.602 192.003 149.505 189.985 150.229C187.966 150.921 185.707 151.403 183.177 151.102C182.966 151.072 182.514 151.012 182.303 150.952C181.911 150.65 181.52 150.379 181.098 150.138C180.495 149.807 180.134 149.596 179.742 149.385C180.043 149.114 180.164 148.541 180.435 148.18C180.676 147.818 181.007 147.698 181.61 148.09C181.67 147.939 181.761 147.668 181.821 147.517C181.309 146.915 181.369 146.071 181.851 145.499C182.182 144.896 182.695 144.474 182.875 144.203C183.177 144.023 183.628 144.143 184.141 144.233C184.683 144.324 185.315 144.384 185.918 144.143C186.822 143.872 187.665 143.45 188.75 143.36C190.256 143.239 191.642 142.305 193.299 141.914C193.871 141.703 194.413 140.739 194.926 140.92C195.227 140.95 195.438 141.221 195.618 141.522C194.805 142.095 193.992 142.667 193.148 143.119C192.064 143.631 190.949 144.023 189.804 144.203C190.979 144.143 192.094 143.691 193.148 143.119C194.022 142.727 194.895 142.245 195.769 141.763C195.92 142.034 196.1 142.305 196.341 142.486C196.341 142.486 196.582 142.305 196.703 142.185C197.667 142.366 198.239 143.269 198.45 144.083C198.51 144.264 198.541 144.444 198.571 144.655Z" fill="#D8F5FF"/>
<path d="M157.537 196.23C159.301 196.23 160.73 194.801 160.73 193.037C160.73 191.273 159.301 189.844 157.537 189.844C155.773 189.844 154.344 191.273 154.344 193.037C154.344 194.801 155.773 196.23 157.537 196.23Z" fill="#FFC648"/>
<path d="M111.357 189.392C107.5 192.103 112.11 214.999 112.11 214.999L112.803 207.618C112.803 207.618 113.315 211.685 113.315 213.583C113.315 215.481 113.315 215.481 113.315 215.481C113.315 215.481 116.086 210.932 115.062 204.485C114.068 198.038 111.357 189.392 111.357 189.392Z" fill="#C82C2F"/>
<path d="M168.866 213.824C168.866 213.824 169.317 204.756 168.594 198.972C167.841 193.188 166.576 188.609 165.431 197.617C164.286 206.624 166.425 218.343 166.727 223.374C167.028 228.405 167.871 236.539 166.998 242.263C166.154 247.987 160.852 253.138 158.984 254.434C157.117 255.729 149.826 258.139 149.826 258.139L168.986 256.422L177.572 252.988C177.572 252.988 171.517 240.606 169.86 228.827C168.143 216.807 167.148 205.238 167.148 205.238L168.866 213.824Z" fill="#C82C2F"/>
<path d="M154.664 125.267C154.935 124.032 153.48 122.664 151.416 122.212C149.352 121.76 147.459 122.395 147.189 123.631C146.918 124.866 148.373 126.234 150.437 126.686C152.501 127.138 154.394 126.503 154.664 125.267Z" fill="#FF8080"/>
<path d="M128.421 128.185C130.451 127.597 131.811 126.136 131.46 124.921C131.108 123.707 129.178 123.198 127.148 123.786C125.118 124.374 123.758 125.835 124.109 127.049C124.461 128.264 126.392 128.772 128.421 128.185Z" fill="#FF8080"/>
</svg>
