<svg width="136" height="37" viewBox="0 0 136 37" fill="none" xmlns="http://www.w3.org/2000/svg">
<path d="M120.627 21.7886C121.768 20.3567 122.509 18.6045 122.679 16.6819C122.699 16.4016 122.72 16.1312 122.72 15.8408C122.72 15.5605 122.71 15.2801 122.679 14.9997V6.50866H119.736V8.87174C117.993 7.19956 115.64 6.16821 113.037 6.16821C109.733 6.16821 106.809 7.87044 105.087 10.4438C104.025 11.9858 103.404 13.8382 103.404 15.8308C103.404 18.4142 104.446 20.7673 106.128 22.4895C107.269 23.6811 108.721 24.5722 110.353 25.0529L120.026 29.1282C119.185 31.8417 116.662 33.8143 113.678 33.8143C111.805 33.8143 110.113 33.0533 108.891 31.8317C107.73 30.6502 107.009 29.0381 106.989 27.2658H104.005C104.035 29.8091 105.066 32.1221 106.729 33.8243C108.471 35.6367 110.924 36.7682 113.638 36.7682C116.712 36.7682 119.455 35.3363 121.228 33.1134C122.369 31.6815 123.11 29.9292 123.28 28.0067C123.3 27.7564 123.31 27.5061 123.32 27.2557L116.862 24.6423C118.334 24.0315 119.636 23.0302 120.627 21.7886ZM108.301 20.5069C107.119 19.3054 106.388 17.6632 106.388 15.8509C106.388 12.136 109.372 9.11206 113.037 9.11206C113.998 9.11206 114.899 9.30231 115.72 9.65276C118.083 10.6841 119.736 13.0672 119.736 15.8308C119.736 19.4956 116.752 22.4795 113.087 22.4795C111.215 22.4795 109.522 21.7285 108.301 20.5069Z" fill="#010101"/>
<path d="M2.74358 0H0V24.1315H12.0157V21.478H2.74358V0Z" fill="#010101"/>
<path d="M20.527 5.88745C15.4403 5.88745 11.2949 10.0629 11.2949 15.2096C11.2949 20.2963 15.4403 24.4417 20.527 24.4417C25.6637 24.4417 29.8491 20.2963 29.8491 15.2096C29.8491 12.7464 28.8779 10.4134 27.1056 8.64105C25.3232 6.85872 22.9902 5.88745 20.527 5.88745ZM20.527 21.6881C16.9523 21.6881 14.0385 18.7743 14.0385 15.1996C14.0385 11.5749 16.9523 8.62102 20.527 8.62102C24.2118 8.62102 27.1056 11.5048 27.1056 15.1996C27.0956 18.7843 24.1517 21.6881 20.527 21.6881Z" fill="#010101"/>
<path d="M46.4903 8.75113C44.728 7.00886 42.415 6.05762 39.9117 6.05762C34.8251 6.05762 30.6797 10.203 30.6797 15.2897C30.6797 20.3763 34.8251 24.5217 39.9117 24.5217C42.2948 24.5217 44.6679 23.5404 46.4903 21.8182V24.1813H49.1438V6.22784H46.4903V8.75113ZM39.9117 8.71108C43.4764 8.71108 46.4903 11.725 46.4903 15.2897C46.4903 18.8643 43.5365 21.7781 39.9117 21.7781C36.3371 21.7781 33.4233 18.8643 33.4233 15.2897C33.4233 11.6649 36.3371 8.71108 39.9117 8.71108Z" fill="#010101"/>
<path d="M99.5908 15.8909C99.5908 19.1952 97.2778 21.6885 94.2238 21.6885C91.3601 21.6885 88.9369 19.2653 88.9369 16.4016V6.8291H86.1934V16.4016C86.1934 20.8274 89.7981 24.4321 94.2238 24.4321C96.2965 24.4321 98.179 23.7212 99.5908 22.4094V24.1317H102.334V6.91922H99.5908V15.8909Z" fill="#010101"/>
<path d="M134.325 15.1292C133.334 14.0278 131.882 13.3569 130.129 13.1867C128.477 13.1066 127.416 12.2855 127.416 11.0839C127.416 9.78223 128.477 8.72085 129.779 8.72085C130.4 8.72085 131.031 9.04127 131.511 9.59199L131.651 9.76221L133.694 7.92981L133.554 7.76961C132.553 6.66817 131.211 6.06738 129.789 6.06738C126.975 6.06738 124.682 8.32032 124.682 11.0939C124.682 12.2855 125.133 13.417 125.954 14.2681C126.895 15.2394 128.267 15.8201 129.949 15.9403C132.212 16.1005 133.013 17.4523 133.013 18.5637C133.013 20.346 131.571 21.7879 129.789 21.7879C128.407 21.7879 127.115 20.8767 126.725 19.6151L126.655 19.4048L124.102 20.326L124.172 20.5263C124.973 22.9294 127.226 24.5415 129.789 24.5415C133.033 24.5415 135.667 21.868 135.667 18.5737C135.657 17.292 135.186 16.0805 134.325 15.1292Z" fill="#010101"/>
<path d="M75.6289 5.94769C75.4186 5.94769 75.2083 5.95771 74.948 5.97773L74.6776 5.99776L75.0081 7.57982L75.6989 11.1545L78.2323 9.1719C80.6154 10.2233 82.2074 12.6264 82.2074 15.1898C82.2074 18.7644 79.2536 21.6782 75.6289 21.6782C72.0542 21.6782 69.1404 18.7644 69.1404 15.1898V0.961182H66.3768V8.62118C64.7046 6.91896 62.3715 5.94769 59.8883 5.94769C54.8017 5.94769 50.6562 10.0931 50.6562 15.1797C50.6562 20.2664 54.8017 24.4118 59.8883 24.4118C60.1486 24.4118 60.419 24.4018 60.7194 24.3718L60.9497 24.3517L60.0185 19.175L57.4451 21.1876C54.9719 20.1963 53.3197 17.7932 53.3197 15.1797C53.3197 11.6151 56.3337 8.60116 59.8983 8.60116C61.6306 8.60116 63.2627 9.29206 64.4943 10.5437C65.7359 11.7953 66.4068 13.4375 66.3868 15.1697C66.3367 18.8946 68.6898 21.2377 68.7799 21.3278C70.5522 23.2803 73.0455 24.4018 75.6389 24.4018C80.7255 24.4018 84.8709 20.2564 84.8709 15.1697C84.8709 10.0831 80.7255 5.94769 75.6289 5.94769Z" fill="#08C6D2"/>
</svg>
