<svg width="71" height="71" viewBox="0 0 71 71" fill="none" xmlns="http://www.w3.org/2000/svg">
<circle cx="35.5" cy="35.5" r="35.5" fill="#239DFF"/>
<path d="M46.5328 38.625C39.2648 38.625 33.375 32.7188 33.375 25.4426C33.375 23.5969 33.7688 21.8496 34.4496 20.25H20.25C17.3543 20.25 15 22.6043 15 25.5V43.875C15 46.7707 17.3543 49.125 20.25 49.125H22.875V55.6875C22.875 56.1961 23.1703 56.6555 23.6297 56.877C23.802 56.959 23.9988 57 24.1875 57C24.491 57 24.7863 56.9016 25.0242 56.6965L34.1133 49.125H46.5C49.3957 49.125 51.75 46.7707 51.75 43.875V37.5258C50.1504 38.223 48.3867 38.625 46.5328 38.625Z" fill="white"/>
<path d="M46.5 36C52.299 36 57 31.299 57 25.5C57 19.701 52.299 15 46.5 15C40.701 15 36 19.701 36 25.5C36 31.299 40.701 36 46.5 36Z" fill="#F44336"/>
<path d="M47.8125 30.75C47.0906 30.75 46.5 30.1594 46.5 29.4375V22.875H45.1875C44.4656 22.875 43.875 22.2844 43.875 21.5625C43.875 20.8406 44.4656 20.25 45.1875 20.25H47.8125C48.5344 20.25 49.125 20.8406 49.125 21.5625V29.4375C49.125 30.1594 48.5344 30.75 47.8125 30.75Z" fill="#FAFAFA"/>
</svg>
