<svg width="485" height="130" viewBox="0 0 485 130" fill="none" xmlns="http://www.w3.org/2000/svg">
<g clip-path="url(#clip0)">
<g filter="url(#filter0_d)">
<rect width="485" height="130" rx="10" fill="#6D378F"/>
</g>
<path d="M40 64C40 83.33 55.67 99 75 99C94.33 99 110 83.33 110 64C110 44.67 94.33 29 75 29" stroke="url(#paint0_linear)" stroke-width="10" stroke-linecap="round"/>
<path d="M68.614 61.448C69.478 60.89 70.054 59.99 70.054 58.784C70.054 56.354 68.146 55.166 66.058 55.166C63.952 55.166 62.062 56.354 62.062 58.784C62.062 59.99 62.638 60.89 63.484 61.448C62.332 62.096 61.63 63.194 61.63 64.508C61.63 66.848 63.43 68.234 66.058 68.234C68.686 68.234 70.468 66.848 70.468 64.508C70.468 63.176 69.784 62.096 68.614 61.448ZM66.058 57.128C67.102 57.128 67.984 57.704 67.984 58.874C67.984 59.99 67.102 60.62 66.058 60.62C64.996 60.62 64.132 59.99 64.132 58.874C64.132 57.704 64.996 57.128 66.058 57.128ZM66.058 66.272C64.69 66.272 63.7 65.588 63.7 64.31C63.7 63.014 64.69 62.348 66.058 62.348C67.408 62.348 68.398 63.014 68.398 64.31C68.398 65.588 67.408 66.272 66.058 66.272ZM76.8382 60.548L79.3942 57.164V55.4H71.6542V57.344H76.9282L74.2102 60.926L75.0382 62.168H75.5062C76.9282 62.168 77.8462 62.924 77.8462 64.184C77.8462 65.444 76.9282 66.218 75.5062 66.218C74.2462 66.218 73.4002 65.66 73.0402 64.598L71.2762 65.624C71.9782 67.388 73.6522 68.234 75.5062 68.234C77.8282 68.234 79.9162 66.83 79.9162 64.184C79.9162 62.222 78.5662 60.962 76.8382 60.548ZM83.854 60.926C85.546 60.926 86.788 59.63 86.788 58.046C86.788 56.426 85.528 55.166 83.854 55.166C82.162 55.166 80.902 56.444 80.902 58.046C80.902 59.63 82.162 60.926 83.854 60.926ZM83.836 59.342C83.08 59.342 82.558 58.766 82.558 58.046C82.558 57.308 83.08 56.732 83.836 56.732C84.61 56.732 85.132 57.308 85.132 58.046C85.132 58.748 84.61 59.342 83.836 59.342ZM81.964 66.146L82.936 66.722L91.234 57.47L90.262 56.912L81.964 66.146ZM89.614 68.216C91.288 68.216 92.548 66.92 92.548 65.336C92.548 63.734 91.288 62.456 89.614 62.456C87.922 62.456 86.662 63.734 86.662 65.336C86.662 66.92 87.922 68.216 89.614 68.216ZM89.596 66.632C88.84 66.632 88.318 66.056 88.318 65.336C88.318 64.598 88.84 64.022 89.596 64.022C90.37 64.022 90.892 64.598 90.892 65.336C90.892 66.038 90.37 66.632 89.596 66.632Z" fill="white"/>
<path opacity="0.604444" d="M151.817 84.221C154.01 84.221 155.948 83.099 156.934 81.365L155.234 80.396C154.622 81.569 153.313 82.317 151.817 82.317C149.25 82.317 147.55 80.498 147.55 78.05C147.55 75.602 149.25 73.783 151.817 73.783C153.313 73.783 154.605 74.531 155.234 75.704L156.934 74.718C155.931 72.984 153.993 71.879 151.817 71.879C148.196 71.879 145.595 74.599 145.595 78.05C145.595 81.501 148.196 84.221 151.817 84.221ZM164.251 75.5V80.056C164.251 81.79 163.299 82.504 162.092 82.504C160.936 82.504 160.188 81.824 160.188 80.532V75.5H158.352V80.719C158.352 82.929 159.712 84.221 161.616 84.221C162.772 84.221 163.69 83.796 164.251 82.912V84H166.087V75.5H164.251ZM169.833 77.846C169.833 77.234 170.411 76.945 171.074 76.945C171.771 76.945 172.366 77.251 172.672 77.914L174.219 77.047C173.624 75.925 172.468 75.279 171.074 75.279C169.34 75.279 167.963 76.282 167.963 77.88C167.963 80.923 172.536 80.073 172.536 81.586C172.536 82.266 171.907 82.538 171.091 82.538C170.156 82.538 169.476 82.079 169.204 81.314L167.623 82.232C168.167 83.456 169.391 84.221 171.091 84.221C172.927 84.221 174.406 83.303 174.406 81.603C174.406 78.458 169.833 79.393 169.833 77.846ZM180.431 77.268V75.5H178.323V73.12L176.487 73.664V75.5H174.923V77.268H176.487V81.348C176.487 83.558 177.609 84.34 180.431 84V82.351C179.037 82.419 178.323 82.436 178.323 81.348V77.268H180.431ZM185.76 84.221C188.259 84.221 190.248 82.266 190.248 79.75C190.248 77.217 188.259 75.279 185.76 75.279C183.278 75.279 181.272 77.217 181.272 79.75C181.272 82.266 183.278 84.221 185.76 84.221ZM185.76 82.436C184.264 82.436 183.108 81.297 183.108 79.75C183.108 78.203 184.264 77.064 185.76 77.064C187.256 77.064 188.412 78.203 188.412 79.75C188.412 81.297 187.256 82.436 185.76 82.436ZM201.19 75.279C200.051 75.279 199.15 75.738 198.589 76.622C198.096 75.772 197.28 75.279 196.175 75.279C195.121 75.279 194.288 75.687 193.744 76.52V75.5H191.908V84H193.744V79.24C193.744 77.693 194.594 76.996 195.631 76.996C196.634 76.996 197.229 77.659 197.229 78.849V84H199.065V79.24C199.065 77.693 199.83 76.996 200.918 76.996C201.921 76.996 202.567 77.659 202.567 78.849V84H204.403V78.73C204.403 76.605 203.111 75.279 201.19 75.279ZM207.813 80.532H214.579C214.613 80.294 214.647 80.022 214.647 79.767C214.647 77.319 212.913 75.279 210.38 75.279C207.711 75.279 205.892 77.234 205.892 79.75C205.892 82.3 207.711 84.221 210.516 84.221C212.182 84.221 213.457 83.524 214.239 82.368L212.726 81.484C212.318 82.079 211.553 82.538 210.533 82.538C209.173 82.538 208.102 81.858 207.813 80.532ZM207.796 79.036C208.051 77.761 208.986 76.945 210.363 76.945C211.468 76.945 212.539 77.574 212.794 79.036H207.796ZM218.098 76.928V75.5H216.262V84H218.098V79.716C218.098 77.812 219.509 77.251 220.716 77.336V75.347C219.645 75.347 218.608 75.772 218.098 76.928ZM227.241 74.225C227.887 74.225 228.414 73.681 228.414 73.052C228.414 72.406 227.887 71.879 227.241 71.879C226.595 71.879 226.068 72.406 226.068 73.052C226.068 73.681 226.595 74.225 227.241 74.225ZM226.323 84H228.159V75.5H226.323V84ZM231.89 77.846C231.89 77.234 232.468 76.945 233.131 76.945C233.828 76.945 234.423 77.251 234.729 77.914L236.276 77.047C235.681 75.925 234.525 75.279 233.131 75.279C231.397 75.279 230.02 76.282 230.02 77.88C230.02 80.923 234.593 80.073 234.593 81.586C234.593 82.266 233.964 82.538 233.148 82.538C232.213 82.538 231.533 82.079 231.261 81.314L229.68 82.232C230.224 83.456 231.448 84.221 233.148 84.221C234.984 84.221 236.463 83.303 236.463 81.603C236.463 78.458 231.89 79.393 231.89 77.846ZM246.339 84.221C248.838 84.221 250.827 82.266 250.827 79.75C250.827 77.217 248.838 75.279 246.339 75.279C243.857 75.279 241.851 77.217 241.851 79.75C241.851 82.266 243.857 84.221 246.339 84.221ZM246.339 82.436C244.843 82.436 243.687 81.297 243.687 79.75C243.687 78.203 244.843 77.064 246.339 77.064C247.835 77.064 248.991 78.203 248.991 79.75C248.991 81.297 247.835 82.436 246.339 82.436ZM258.216 75.5V80.056C258.216 81.79 257.264 82.504 256.057 82.504C254.901 82.504 254.153 81.824 254.153 80.532V75.5H252.317V80.719C252.317 82.929 253.677 84.221 255.581 84.221C256.737 84.221 257.655 83.796 258.216 82.912V84H260.052V75.5H258.216ZM264.035 76.928V75.5H262.199V84H264.035V79.716C264.035 77.812 265.446 77.251 266.653 77.336V75.347C265.582 75.347 264.545 75.772 264.035 76.928ZM279.365 75.5H274.707V75.33C274.707 74.021 275.421 73.647 276.713 73.647C277.308 73.647 277.92 73.681 278.6 73.783V72.1C277.92 71.947 277.325 71.879 276.713 71.879C274.163 71.879 272.871 73.035 272.871 75.33V75.5H271.579V77.268H272.871V84H274.707V77.268H277.529V84H279.365V75.5ZM283.326 76.928V75.5H281.49V84H283.326V79.716C283.326 77.812 284.737 77.251 285.944 77.336V75.347C284.873 75.347 283.836 75.772 283.326 76.928ZM288.651 77.846C288.651 77.234 289.229 76.945 289.892 76.945C290.589 76.945 291.184 77.251 291.49 77.914L293.037 77.047C292.442 75.925 291.286 75.279 289.892 75.279C288.158 75.279 286.781 76.282 286.781 77.88C286.781 80.923 291.354 80.073 291.354 81.586C291.354 82.266 290.725 82.538 289.909 82.538C288.974 82.538 288.294 82.079 288.022 81.314L286.441 82.232C286.985 83.456 288.209 84.221 289.909 84.221C291.745 84.221 293.224 83.303 293.224 81.603C293.224 78.458 288.651 79.393 288.651 77.846ZM299.249 77.268V75.5H297.141V73.12L295.305 73.664V75.5H293.741V77.268H295.305V81.348C295.305 83.558 296.427 84.34 299.249 84V82.351C297.855 82.419 297.141 82.436 297.141 81.348V77.268H299.249ZM310.058 75.279C308.732 75.279 307.729 75.823 307.083 76.724V75.5H305.247V87.4H307.083V82.793C307.729 83.677 308.732 84.221 310.058 84.221C312.37 84.221 314.291 82.283 314.291 79.75C314.291 77.234 312.37 75.279 310.058 75.279ZM309.769 82.47C308.239 82.47 307.083 81.331 307.083 79.75C307.083 78.169 308.239 77.03 309.769 77.03C311.299 77.03 312.455 78.169 312.455 79.75C312.455 81.331 311.299 82.47 309.769 82.47ZM317.791 76.928V75.5H315.955V84H317.791V79.716C317.791 77.812 319.202 77.251 320.409 77.336V75.347C319.338 75.347 318.301 75.772 317.791 76.928ZM322.683 74.225C323.329 74.225 323.856 73.681 323.856 73.052C323.856 72.406 323.329 71.879 322.683 71.879C322.037 71.879 321.51 72.406 321.51 73.052C321.51 73.681 322.037 74.225 322.683 74.225ZM321.765 84H323.601V75.5H321.765V84ZM329.745 84.221C332.244 84.221 334.233 82.266 334.233 79.75C334.233 77.217 332.244 75.279 329.745 75.279C327.263 75.279 325.257 77.217 325.257 79.75C325.257 82.266 327.263 84.221 329.745 84.221ZM329.745 82.436C328.249 82.436 327.093 81.297 327.093 79.75C327.093 78.203 328.249 77.064 329.745 77.064C331.241 77.064 332.397 78.203 332.397 79.75C332.397 81.297 331.241 82.436 329.745 82.436ZM337.729 76.928V75.5H335.893V84H337.729V79.716C337.729 77.812 339.14 77.251 340.347 77.336V75.347C339.276 75.347 338.239 75.772 337.729 76.928ZM342.622 74.225C343.268 74.225 343.795 73.681 343.795 73.052C343.795 72.406 343.268 71.879 342.622 71.879C341.976 71.879 341.449 72.406 341.449 73.052C341.449 73.681 341.976 74.225 342.622 74.225ZM341.704 84H343.54V75.5H341.704V84ZM350.415 77.268V75.5H348.307V73.12L346.471 73.664V75.5H344.907V77.268H346.471V81.348C346.471 83.558 347.593 84.34 350.415 84V82.351C349.021 82.419 348.307 82.436 348.307 81.348V77.268H350.415ZM357.975 75.5L355.799 81.671L353.266 75.5H351.26L354.864 83.847L354.779 84.017C354.354 85.139 353.708 85.751 352.518 85.683V87.4C354.473 87.519 355.867 86.431 356.666 84.272L359.93 75.5H357.975Z" fill="#E7E7E7"/>
<path d="M153.02 49.26C155.6 49.26 157.88 47.94 159.04 45.9L157.04 44.76C156.32 46.14 154.78 47.02 153.02 47.02C150 47.02 148 44.88 148 42C148 39.12 150 36.98 153.02 36.98C154.78 36.98 156.3 37.86 157.04 39.24L159.04 38.08C157.86 36.04 155.58 34.74 153.02 34.74C148.76 34.74 145.7 37.94 145.7 42C145.7 46.06 148.76 49.26 153.02 49.26ZM167.648 39V44.36C167.648 46.4 166.528 47.24 165.108 47.24C163.748 47.24 162.868 46.44 162.868 44.92V39H160.708V45.14C160.708 47.74 162.308 49.26 164.548 49.26C165.908 49.26 166.988 48.76 167.648 47.72V49H169.808V39H167.648ZM174.216 41.76C174.216 41.04 174.896 40.7 175.676 40.7C176.496 40.7 177.196 41.06 177.556 41.84L179.376 40.82C178.676 39.5 177.316 38.74 175.676 38.74C173.636 38.74 172.016 39.92 172.016 41.8C172.016 45.38 177.396 44.38 177.396 46.16C177.396 46.96 176.656 47.28 175.696 47.28C174.596 47.28 173.796 46.74 173.476 45.84L171.616 46.92C172.256 48.36 173.696 49.26 175.696 49.26C177.856 49.26 179.596 48.18 179.596 46.18C179.596 42.48 174.216 43.58 174.216 41.76ZM186.684 41.08V39H184.204V36.2L182.044 36.84V39H180.204V41.08H182.044V45.88C182.044 48.48 183.364 49.4 186.684 49V47.06C185.044 47.14 184.204 47.16 184.204 45.88V41.08H186.684ZM192.953 49.26C195.893 49.26 198.233 46.96 198.233 44C198.233 41.02 195.893 38.74 192.953 38.74C190.033 38.74 187.673 41.02 187.673 44C187.673 46.96 190.033 49.26 192.953 49.26ZM192.953 47.16C191.193 47.16 189.833 45.82 189.833 44C189.833 42.18 191.193 40.84 192.953 40.84C194.713 40.84 196.073 42.18 196.073 44C196.073 45.82 194.713 47.16 192.953 47.16ZM211.106 38.74C209.766 38.74 208.706 39.28 208.046 40.32C207.466 39.32 206.506 38.74 205.206 38.74C203.966 38.74 202.986 39.22 202.346 40.2V39H200.186V49H202.346V43.4C202.346 41.58 203.346 40.76 204.566 40.76C205.746 40.76 206.446 41.54 206.446 42.94V49H208.606V43.4C208.606 41.58 209.506 40.76 210.786 40.76C211.966 40.76 212.726 41.54 212.726 42.94V49H214.886V42.8C214.886 40.3 213.366 38.74 211.106 38.74ZM218.898 44.92H226.858C226.898 44.64 226.938 44.32 226.938 44.02C226.938 41.14 224.898 38.74 221.918 38.74C218.778 38.74 216.638 41.04 216.638 44C216.638 47 218.778 49.26 222.078 49.26C224.038 49.26 225.538 48.44 226.458 47.08L224.678 46.04C224.198 46.74 223.298 47.28 222.098 47.28C220.498 47.28 219.238 46.48 218.898 44.92ZM218.877 43.16C219.178 41.66 220.278 40.7 221.898 40.7C223.198 40.7 224.458 41.44 224.758 43.16H218.877ZM230.998 40.68V39H228.838V49H230.998V43.96C230.998 41.72 232.658 41.06 234.078 41.16V38.82C232.818 38.82 231.598 39.32 230.998 40.68ZM245.474 49.26C248.394 49.26 250.434 47.7 250.434 45.14C250.434 42.36 248.094 41.64 245.774 40.9C243.734 40.26 242.954 39.8 242.954 38.72C242.954 37.66 243.814 36.98 245.154 36.98C246.714 36.98 247.594 37.82 248.094 38.94L250.034 37.82C249.154 35.96 247.454 34.74 245.154 34.74C242.794 34.74 240.654 36.2 240.654 38.78C240.654 41.42 242.774 42.22 244.954 42.88C247.034 43.52 248.134 43.94 248.134 45.18C248.134 46.2 247.354 47.02 245.534 47.02C243.634 47.02 242.554 46.08 242.054 44.66L240.074 45.82C240.814 47.9 242.714 49.26 245.474 49.26ZM260.469 39V40.42C259.709 39.38 258.529 38.74 256.969 38.74C254.249 38.74 251.989 41.02 251.989 44C251.989 46.96 254.249 49.26 256.969 49.26C258.529 49.26 259.709 48.62 260.469 47.56V49H262.629V39H260.469ZM257.309 47.2C255.509 47.2 254.149 45.86 254.149 44C254.149 42.14 255.509 40.8 257.309 40.8C259.109 40.8 260.469 42.14 260.469 44C260.469 45.86 259.109 47.2 257.309 47.2ZM270.727 41.08V39H268.247V36.2L266.087 36.84V39H264.247V41.08H266.087V45.88C266.087 48.48 267.407 49.4 270.727 49V47.06C269.087 47.14 268.247 47.16 268.247 45.88V41.08H270.727ZM273.766 37.5C274.526 37.5 275.146 36.86 275.146 36.12C275.146 35.36 274.526 34.74 273.766 34.74C273.006 34.74 272.386 35.36 272.386 36.12C272.386 36.86 273.006 37.5 273.766 37.5ZM272.686 49H274.846V39H272.686V49ZM279.235 41.76C279.235 41.04 279.915 40.7 280.695 40.7C281.515 40.7 282.215 41.06 282.575 41.84L284.395 40.82C283.695 39.5 282.335 38.74 280.695 38.74C278.655 38.74 277.035 39.92 277.035 41.8C277.035 45.38 282.415 44.38 282.415 46.16C282.415 46.96 281.675 47.28 280.715 47.28C279.615 47.28 278.815 46.74 278.495 45.84L276.635 46.92C277.275 48.36 278.715 49.26 280.715 49.26C282.875 49.26 284.615 48.18 284.615 46.18C284.615 42.48 279.235 43.58 279.235 41.76ZM291.559 36.82V34.74C288.559 34.54 287.039 36.1 287.039 38.8V39H285.519V41.08H287.039V49H289.199V41.08H291.559V39H289.199V38.8C289.199 37.26 290.039 36.68 291.559 36.82ZM300.274 39V40.42C299.514 39.38 298.334 38.74 296.774 38.74C294.054 38.74 291.794 41.02 291.794 44C291.794 46.96 294.054 49.26 296.774 49.26C298.334 49.26 299.514 48.62 300.274 47.56V49H302.434V39H300.274ZM297.114 47.2C295.314 47.2 293.954 45.86 293.954 44C293.954 42.14 295.314 40.8 297.114 40.8C298.914 40.8 300.274 42.14 300.274 44C300.274 45.86 298.914 47.2 297.114 47.2ZM309.671 49.26C311.631 49.26 313.331 48.24 314.171 46.66L312.311 45.6C311.831 46.52 310.851 47.14 309.651 47.14C307.891 47.14 306.551 45.8 306.551 44C306.551 42.2 307.891 40.86 309.651 40.86C310.851 40.86 311.831 41.46 312.271 42.4L314.131 41.32C313.331 39.76 311.631 38.74 309.671 38.74C306.651 38.74 304.391 41.02 304.391 44C304.391 46.96 306.651 49.26 309.671 49.26ZM321.313 41.08V39H318.833V36.2L316.673 36.84V39H314.833V41.08H316.673V45.88C316.673 48.48 317.993 49.4 321.313 49V47.06C319.673 47.14 318.833 47.16 318.833 45.88V41.08H321.313ZM324.352 37.5C325.112 37.5 325.732 36.86 325.732 36.12C325.732 35.36 325.112 34.74 324.352 34.74C323.592 34.74 322.972 35.36 322.972 36.12C322.972 36.86 323.592 37.5 324.352 37.5ZM323.272 49H325.432V39H323.272V49ZM332.66 49.26C335.6 49.26 337.94 46.96 337.94 44C337.94 41.02 335.6 38.74 332.66 38.74C329.74 38.74 327.38 41.02 327.38 44C327.38 46.96 329.74 49.26 332.66 49.26ZM332.66 47.16C330.9 47.16 329.54 45.82 329.54 44C329.54 42.18 330.9 40.84 332.66 40.84C334.42 40.84 335.78 42.18 335.78 44C335.78 45.82 334.42 47.16 332.66 47.16ZM345.153 38.74C343.793 38.74 342.713 39.24 342.053 40.28V39H339.893V49H342.053V43.64C342.053 41.6 343.173 40.76 344.593 40.76C345.953 40.76 346.833 41.56 346.833 43.08V49H348.993V42.86C348.993 40.26 347.393 38.74 345.153 38.74Z" fill="white"/>
<path d="M361.119 49.26C364.039 49.26 366.079 47.7 366.079 45.14C366.079 42.36 363.739 41.64 361.419 40.9C359.379 40.26 358.599 39.8 358.599 38.72C358.599 37.66 359.459 36.98 360.799 36.98C362.359 36.98 363.239 37.82 363.739 38.94L365.679 37.82C364.799 35.96 363.099 34.74 360.799 34.74C358.439 34.74 356.299 36.2 356.299 38.78C356.299 41.42 358.419 42.22 360.599 42.88C362.679 43.52 363.779 43.94 363.779 45.18C363.779 46.2 362.999 47.02 361.179 47.02C359.279 47.02 358.199 46.08 357.699 44.66L355.719 45.82C356.459 47.9 358.359 49.26 361.119 49.26ZM373.207 41.08V39H370.727V36.2L368.567 36.84V39H366.727V41.08H368.567V45.88C368.567 48.48 369.887 49.4 373.207 49V47.06C371.567 47.14 370.727 47.16 370.727 45.88V41.08H373.207ZM377.424 40.68V39H375.264V49H377.424V43.96C377.424 41.72 379.084 41.06 380.504 41.16V38.82C379.244 38.82 378.024 39.32 377.424 40.68ZM386.351 49.26C389.291 49.26 391.631 46.96 391.631 44C391.631 41.02 389.291 38.74 386.351 38.74C383.431 38.74 381.071 41.02 381.071 44C381.071 46.96 383.431 49.26 386.351 49.26ZM386.351 47.16C384.591 47.16 383.231 45.82 383.231 44C383.231 42.18 384.591 40.84 386.351 40.84C388.111 40.84 389.471 42.18 389.471 44C389.471 45.82 388.111 47.16 386.351 47.16ZM398.844 38.74C397.484 38.74 396.404 39.24 395.744 40.28V39H393.584V49H395.744V43.64C395.744 41.6 396.864 40.76 398.284 40.76C399.644 40.76 400.524 41.56 400.524 43.08V49H402.684V42.86C402.684 40.26 401.084 38.74 398.844 38.74ZM412.97 39V40.48C412.21 39.4 411.03 38.74 409.49 38.74C406.67 38.74 404.45 41.04 404.45 43.9C404.45 46.76 406.67 49.06 409.49 49.06C411.03 49.06 412.21 48.4 412.97 47.32V48.54C412.97 50.28 411.85 51.3 409.99 51.3C408.25 51.3 407.51 50.62 407.07 49.76L405.21 50.84C406.05 52.44 407.75 53.26 409.95 53.26C412.57 53.26 415.09 51.76 415.09 48.54V39H412.97ZM409.79 47.04C407.97 47.04 406.61 45.7 406.61 43.9C406.61 42.1 407.97 40.76 409.79 40.76C411.61 40.76 412.97 42.1 412.97 43.9C412.97 45.7 411.61 47.04 409.79 47.04Z" fill="#FFE600"/>
</g>
<defs>
<filter id="filter0_d" x="-30" y="-15" width="545" height="190" filterUnits="userSpaceOnUse" color-interpolation-filters="sRGB">
<feFlood flood-opacity="0" result="BackgroundImageFix"/>
<feColorMatrix in="SourceAlpha" type="matrix" values="0 0 0 0 0 0 0 0 0 0 0 0 0 0 0 0 0 0 127 0"/>
<feOffset dy="15"/>
<feGaussianBlur stdDeviation="15"/>
<feColorMatrix type="matrix" values="0 0 0 0 0.397318 0 0 0 0 0.412242 0 0 0 0 0.656516 0 0 0 0.081918 0"/>
<feBlend mode="normal" in2="BackgroundImageFix" result="effect1_dropShadow"/>
<feBlend mode="normal" in="SourceGraphic" in2="effect1_dropShadow" result="shape"/>
</filter>
<linearGradient id="paint0_linear" x1="46.2601" y1="13.5653" x2="28.5819" y2="90.1609" gradientUnits="userSpaceOnUse">
<stop stop-color="#FFE76A"/>
<stop offset="1" stop-color="#EAB429"/>
</linearGradient>
<clipPath id="clip0">
<rect width="485" height="130" fill="white"/>
</clipPath>
</defs>
</svg>
